<svg width="304" height="136" viewBox="0 0 304 136" fill="none" xmlns="http://www.w3.org/2000/svg">
<g clip-path="url(#clip0_259_10934)">
<rect width="304" height="136" fill="#608DB6"/>
<rect width="304" height="136" fill="#225478"/>
<g opacity="0.3">
<circle cx="243.5" cy="68.5" r="78" stroke="#BCE0FF"/>
<circle cx="243.5" cy="68.5" r="117" stroke="#BCE0FF"/>
<circle cx="243.5" cy="68.5" r="168" stroke="#BCE0FF"/>
<circle cx="243.5" cy="68.5" r="223" stroke="#BCE0FF"/>
</g>
<circle cx="244" cy="68" r="46" fill="url(#paint0_radial_259_10934)"/>
<circle cx="244" cy="68" r="46" fill="url(#paint1_radial_259_10934)"/>
<circle cx="244" cy="68" r="46" fill="url(#paint2_radial_259_10934)"/>
<circle cx="244" cy="68" r="44" fill="url(#paint3_linear_259_10934)"/>
<path d="M243.312 51.2455C243.77 50.9015 244.23 50.9015 244.688 51.2455C248.59 53.4258 252.377 54.4594 256.737 54.9184C257.426 55.0331 258 55.6065 258 56.4096V68.1147C258 77.7539 251.574 80.279 244.804 84.7543C244.345 85.0986 243.655 85.0986 243.196 84.7543C236.426 80.279 230 77.7539 230 68.1147V56.4096C230 55.6065 230.574 55.0331 231.263 54.9184C235.623 54.4594 239.41 53.4258 243.312 51.2455ZM242.692 61.558C241.253 62.0747 240.333 63.2775 240.333 64.7416C240.333 67.0412 242.577 67.8973 243.524 68.2592C244.676 68.7137 244.676 69.0194 244.676 69.183C244.675 69.5766 244.204 69.7162 243.8 69.7163C243.208 69.7163 242.572 69.5321 242.096 69.2231L241.049 68.5434L240 71.3959L240.604 71.8168C241.115 72.1719 241.826 72.438 242.583 72.5707V74.1996H245.532V72.3979C247.037 71.8654 248 70.6077 248 69.0766C248 66.8672 246.269 65.9246 244.972 65.4096C243.642 64.8738 243.642 64.6841 243.642 64.559C243.642 64.2538 244.063 64.2085 244.314 64.2084C245.092 64.2084 245.567 64.472 245.795 64.5991L246.794 65.1547L247.887 62.3481L247.171 61.9389C246.697 61.6688 246.186 61.4831 245.626 61.3774V59.8002H242.692V61.558Z" fill="white"/>
</g>
<defs>
<radialGradient id="paint0_radial_259_10934" cx="0" cy="0" r="1" gradientUnits="userSpaceOnUse" gradientTransform="translate(285.596 99.8085) rotate(161.162) scale(43.95)">
<stop stop-color="white"/>
<stop offset="1" stop-color="#4D7192" stop-opacity="0"/>
</radialGradient>
<radialGradient id="paint1_radial_259_10934" cx="0" cy="0" r="1" gradientUnits="userSpaceOnUse" gradientTransform="translate(250.362 20.5319) rotate(93.8937) scale(93.6843)">
<stop stop-color="white"/>
<stop offset="1" stop-color="#4D7192" stop-opacity="0"/>
</radialGradient>
<radialGradient id="paint2_radial_259_10934" cx="0" cy="0" r="1" gradientUnits="userSpaceOnUse" gradientTransform="translate(206.689 156.422) rotate(-56.5919) scale(135.872)">
<stop stop-color="white"/>
<stop offset="1" stop-color="#4D7192" stop-opacity="0"/>
</radialGradient>
<linearGradient id="paint3_linear_259_10934" x1="261" y1="3.5" x2="220.5" y2="117.5" gradientUnits="userSpaceOnUse">
<stop stop-color="#86B7E2"/>
<stop offset="1" stop-color="#225478"/>
</linearGradient>
<clipPath id="clip0_259_10934">
<rect width="304" height="136" fill="white"/>
</clipPath>
</defs>
</svg>
