<svg width="304" height="400" viewBox="0 0 304 400" fill="none" xmlns="http://www.w3.org/2000/svg">
<g clip-path="url(#clip0_259_8174)">
<rect width="304" height="400" fill="#BCE0FF"/>
<rect width="304" height="400" fill="#0F3E5F"/>
<g opacity="0.2">
<path d="M17.0742 -150V549" stroke="#BCE0FF"/>
<path d="M35 -150V549" stroke="#BCE0FF"/>
<path d="M52.9219 -150V549" stroke="#BCE0FF"/>
<path d="M70.8438 -150V549" stroke="#BCE0FF"/>
<path d="M88.7734 -150V549" stroke="#BCE0FF"/>
<path d="M106.691 -150V549" stroke="#BCE0FF"/>
<path d="M124.615 -150V549" stroke="#BCE0FF"/>
<path d="M142.539 -150V549" stroke="#BCE0FF"/>
<path d="M160.459 -150V549" stroke="#BCE0FF"/>
<path d="M178.385 -150V549" stroke="#BCE0FF"/>
<path d="M196.309 -150V549" stroke="#BCE0FF"/>
<path d="M214.227 -150V549" stroke="#BCE0FF"/>
<path d="M232.156 -150V549" stroke="#BCE0FF"/>
<path d="M250.078 -150V549" stroke="#BCE0FF"/>
<path d="M268 -150V549" stroke="#BCE0FF"/>
<path d="M285.926 -150V549" stroke="#BCE0FF"/>
<path d="M303.848 -150V549" stroke="#BCE0FF"/>
<path d="M-198 11.311H501" stroke="#BCE0FF"/>
<path d="M-198 29.2297H501" stroke="#BCE0FF"/>
<path d="M-198 47.1549H501" stroke="#BCE0FF"/>
<path d="M-198 65.0736H501" stroke="#BCE0FF"/>
<path d="M-198 82.999H501" stroke="#BCE0FF"/>
<path d="M-198 100.924H501" stroke="#BCE0FF"/>
<path d="M-198 118.843H501" stroke="#BCE0FF"/>
<path d="M-198 136.771H501" stroke="#BCE0FF"/>
<path d="M-198 154.694H501" stroke="#BCE0FF"/>
<path d="M-198 172.615H501" stroke="#BCE0FF"/>
<path d="M-198 190.538H501" stroke="#BCE0FF"/>
<path d="M-198 208.459H501" stroke="#BCE0FF"/>
<path d="M-198 226.385H501" stroke="#BCE0FF"/>
<path d="M-198 244.306H501" stroke="#BCE0FF"/>
<path d="M-198 262.229H501" stroke="#BCE0FF"/>
<path d="M-198 280.157H501" stroke="#BCE0FF"/>
<path d="M-198 298.076H501" stroke="#BCE0FF"/>
<path d="M-198 316.001H501" stroke="#BCE0FF"/>
<path d="M-198 333.927H501" stroke="#BCE0FF"/>
<path d="M-198 351.845H501" stroke="#BCE0FF"/>
<path d="M-198 369.77H501" stroke="#BCE0FF"/>
<path d="M-198 387.689H501" stroke="#BCE0FF"/>
</g>
<path d="M55.3745 160C59.2009 157.791 65.4046 157.791 69.2309 160L98.6758 177C102.502 179.209 102.502 182.791 98.6758 185L69.2309 202C65.4046 204.209 59.2009 204.209 55.3745 202L25.9297 185C22.1033 182.791 22.1033 179.209 25.9297 177L55.3745 160Z" fill="#77A4CB"/>
<rect width="34" height="280" transform="matrix(0.866025 0.5 0 1 25.9297 185)" fill="url(#paint0_linear_259_8174)"/>
<rect width="34" height="280" transform="matrix(0.866025 -0.5 0 1 69.2305 202)" fill="url(#paint1_linear_259_8174)"/>
<path d="M23.0605 181C23.0605 182.562 24.1572 183.976 25.9303 185V465C24.1572 463.976 23.0605 462.562 23.0605 461V181Z" fill="url(#paint2_linear_259_8174)"/>
<path d="M55.375 202C59.2013 204.209 65.4051 204.209 69.2314 202V482C65.4051 484.209 59.2013 484.209 55.375 482V202Z" fill="url(#paint3_linear_259_8174)"/>
<path d="M101.546 181C101.546 182.562 100.449 183.976 98.6758 185V465C100.449 463.976 101.546 462.562 101.546 461V181Z" fill="url(#paint4_linear_259_8174)"/>
<path d="M161.976 130C165.802 127.791 172.006 127.791 175.832 130L205.277 147C209.104 149.209 209.104 152.791 205.277 155L175.833 172C172.006 174.209 165.802 174.209 161.976 172L132.531 155C128.705 152.791 128.705 149.209 132.531 147L161.976 130Z" fill="#77A4CB"/>
<rect width="34" height="280" transform="matrix(0.866025 0.5 0 1 132.531 155)" fill="url(#paint5_linear_259_8174)"/>
<rect width="34" height="280" transform="matrix(0.866025 -0.5 0 1 175.834 172)" fill="url(#paint6_linear_259_8174)"/>
<path d="M129.662 151C129.662 152.562 130.759 153.976 132.532 155V435C130.759 433.976 129.662 432.562 129.662 431V151Z" fill="url(#paint7_linear_259_8174)"/>
<path d="M161.977 172C165.803 174.209 172.007 174.209 175.833 172V452C172.007 454.209 165.803 454.209 161.977 452V172Z" fill="url(#paint8_linear_259_8174)"/>
<path d="M208.149 151C208.149 152.562 207.052 153.976 205.279 155V435C207.052 433.976 208.149 432.562 208.149 431V151Z" fill="url(#paint9_linear_259_8174)"/>
<path d="M268.578 100C272.404 97.7909 278.608 97.7909 282.434 100L311.879 117C315.705 119.209 315.705 122.791 311.879 125L282.434 142C278.608 144.209 272.404 144.209 268.578 142L239.133 125C235.306 122.791 235.306 119.209 239.133 117L268.578 100Z" fill="#77A4CB"/>
<rect width="34" height="280" transform="matrix(0.866025 0.5 0 1 239.133 125)" fill="url(#paint10_linear_259_8174)"/>
<rect width="34" height="280" transform="matrix(0.866025 -0.5 0 1 282.436 142)" fill="url(#paint11_linear_259_8174)"/>
<path d="M236.264 121C236.264 122.562 237.36 123.976 239.133 125V405C237.36 403.976 236.264 402.562 236.264 401V121Z" fill="url(#paint12_linear_259_8174)"/>
<path d="M268.578 142C272.404 144.209 278.608 144.209 282.435 142V422C278.608 424.209 272.404 424.209 268.578 422V142Z" fill="url(#paint13_linear_259_8174)"/>
</g>
<defs>
<linearGradient id="paint0_linear_259_8174" x1="17" y1="0" x2="17" y2="280" gradientUnits="userSpaceOnUse">
<stop stop-color="#386186"/>
<stop offset="1" stop-color="#7BADDD"/>
</linearGradient>
<linearGradient id="paint1_linear_259_8174" x1="17" y1="0" x2="17" y2="280" gradientUnits="userSpaceOnUse">
<stop stop-color="#225478"/>
<stop offset="0.581731" stop-color="#608DB6" stop-opacity="0.5"/>
</linearGradient>
<linearGradient id="paint2_linear_259_8174" x1="24.4954" y1="181" x2="24.4954" y2="465" gradientUnits="userSpaceOnUse">
<stop stop-color="#386186"/>
<stop offset="1" stop-color="#7BADDD"/>
</linearGradient>
<linearGradient id="paint3_linear_259_8174" x1="62.3032" y1="202" x2="62.3032" y2="483.657" gradientUnits="userSpaceOnUse">
<stop stop-color="#225478"/>
<stop offset="0.581731" stop-color="#608DB6" stop-opacity="0.5"/>
</linearGradient>
<linearGradient id="paint4_linear_259_8174" x1="100.111" y1="181" x2="100.111" y2="465" gradientUnits="userSpaceOnUse">
<stop stop-color="#225478"/>
<stop offset="0.581731" stop-color="#608DB6" stop-opacity="0.5"/>
</linearGradient>
<linearGradient id="paint5_linear_259_8174" x1="17" y1="0" x2="17" y2="280" gradientUnits="userSpaceOnUse">
<stop stop-color="#386186"/>
<stop offset="1" stop-color="#7BADDD"/>
</linearGradient>
<linearGradient id="paint6_linear_259_8174" x1="17" y1="0" x2="17" y2="280" gradientUnits="userSpaceOnUse">
<stop stop-color="#225478"/>
<stop offset="0.581731" stop-color="#608DB6" stop-opacity="0.5"/>
</linearGradient>
<linearGradient id="paint7_linear_259_8174" x1="131.097" y1="151" x2="131.097" y2="435" gradientUnits="userSpaceOnUse">
<stop stop-color="#386186"/>
<stop offset="1" stop-color="#7BADDD"/>
</linearGradient>
<linearGradient id="paint8_linear_259_8174" x1="168.905" y1="172" x2="168.905" y2="453.657" gradientUnits="userSpaceOnUse">
<stop stop-color="#225478"/>
<stop offset="0.581731" stop-color="#608DB6" stop-opacity="0.5"/>
</linearGradient>
<linearGradient id="paint9_linear_259_8174" x1="206.714" y1="151" x2="206.714" y2="435" gradientUnits="userSpaceOnUse">
<stop stop-color="#225478"/>
<stop offset="0.581731" stop-color="#608DB6" stop-opacity="0.5"/>
</linearGradient>
<linearGradient id="paint10_linear_259_8174" x1="17" y1="0" x2="17" y2="280" gradientUnits="userSpaceOnUse">
<stop stop-color="#386186"/>
<stop offset="1" stop-color="#7BADDD"/>
</linearGradient>
<linearGradient id="paint11_linear_259_8174" x1="17" y1="0" x2="17" y2="280" gradientUnits="userSpaceOnUse">
<stop stop-color="#225478"/>
<stop offset="0.581731" stop-color="#608DB6" stop-opacity="0.5"/>
</linearGradient>
<linearGradient id="paint12_linear_259_8174" x1="237.699" y1="121" x2="237.699" y2="405" gradientUnits="userSpaceOnUse">
<stop stop-color="#386186"/>
<stop offset="1" stop-color="#7BADDD"/>
</linearGradient>
<linearGradient id="paint13_linear_259_8174" x1="275.506" y1="142" x2="275.506" y2="423.657" gradientUnits="userSpaceOnUse">
<stop stop-color="#225478"/>
<stop offset="0.581731" stop-color="#608DB6" stop-opacity="0.5"/>
</linearGradient>
<clipPath id="clip0_259_8174">
<rect width="304" height="400" fill="white"/>
</clipPath>
</defs>
</svg>
