<svg width="304" height="400" viewBox="0 0 304 400" fill="none" xmlns="http://www.w3.org/2000/svg">
<g clip-path="url(#clip0_259_11002)">
<rect width="304" height="400" fill="#BCE0FF"/>
<rect width="304" height="400" fill="#215277"/>
<g opacity="0.5">
<path d="M152 -396.994L-910.989 216.723" stroke="#BCE0FF" stroke-opacity="0.4"/>
<path d="M179.254 -381.254L-883.735 232.463" stroke="#BCE0FF" stroke-opacity="0.4"/>
<path d="M206.516 -365.516L-856.473 248.201" stroke="#BCE0FF" stroke-opacity="0.4"/>
<path d="M233.768 -349.782L-829.221 263.935" stroke="#BCE0FF" stroke-opacity="0.4"/>
<path d="M261.025 -334.048L-801.964 279.669" stroke="#BCE0FF" stroke-opacity="0.4"/>
<path d="M288.277 -318.313L-774.712 295.404" stroke="#BCE0FF" stroke-opacity="0.4"/>
<path d="M315.539 -302.574L-747.45 311.143" stroke="#BCE0FF" stroke-opacity="0.4"/>
<path d="M342.793 -286.834L-720.196 326.883" stroke="#BCE0FF" stroke-opacity="0.4"/>
<path d="M370.051 -271.103L-692.938 342.614" stroke="#BCE0FF" stroke-opacity="0.4"/>
<path d="M397.307 -255.365L-665.682 358.352" stroke="#BCE0FF" stroke-opacity="0.4"/>
<path d="M424.564 -239.631L-638.425 374.086" stroke="#BCE0FF" stroke-opacity="0.4"/>
<path d="M451.816 -223.893L-611.173 389.824" stroke="#BCE0FF" stroke-opacity="0.4"/>
<path d="M479.074 -208.157L-583.915 405.56" stroke="#BCE0FF" stroke-opacity="0.4"/>
<path d="M506.332 -192.415L-556.657 421.302" stroke="#BCE0FF" stroke-opacity="0.4"/>
<path d="M533.584 -176.683L-529.405 437.034" stroke="#BCE0FF" stroke-opacity="0.4"/>
<path d="M560.844 -160.954L-502.145 452.763" stroke="#BCE0FF" stroke-opacity="0.4"/>
<path d="M588.094 -145.212L-474.895 468.505" stroke="#BCE0FF" stroke-opacity="0.4"/>
<path d="M615.355 -129.473L-447.634 484.244" stroke="#BCE0FF" stroke-opacity="0.4"/>
<path d="M642.609 -113.735L-420.38 499.982" stroke="#BCE0FF" stroke-opacity="0.4"/>
<path d="M669.867 -98.0037L-393.122 515.713" stroke="#BCE0FF" stroke-opacity="0.4"/>
<path d="M697.123 -82.2656L-365.866 531.451" stroke="#BCE0FF" stroke-opacity="0.4"/>
<path d="M724.383 -66.532L-338.606 547.185" stroke="#BCE0FF" stroke-opacity="0.4"/>
<path d="M751.635 -50.7917L-311.354 562.925" stroke="#BCE0FF" stroke-opacity="0.4"/>
<path d="M778.891 -35.0559L-284.098 578.661" stroke="#BCE0FF" stroke-opacity="0.4"/>
<path d="M806.148 -19.3179L-256.841 594.399" stroke="#BCE0FF" stroke-opacity="0.4"/>
<path d="M833.406 -3.58423L-229.583 610.133" stroke="#BCE0FF" stroke-opacity="0.4"/>
<path d="M860.656 12.1516L-202.333 625.869" stroke="#BCE0FF" stroke-opacity="0.4"/>
<path d="M887.918 27.8896L-175.071 641.607" stroke="#BCE0FF" stroke-opacity="0.4"/>
<path d="M915.174 43.6255L-147.815 657.342" stroke="#BCE0FF" stroke-opacity="0.4"/>
<path d="M942.426 59.3658L-120.563 673.083" stroke="#BCE0FF" stroke-opacity="0.4"/>
<path d="M969.682 75.095L-93.3073 688.812" stroke="#BCE0FF" stroke-opacity="0.4"/>
<path d="M996.941 90.833L-66.0476 704.55" stroke="#BCE0FF" stroke-opacity="0.4"/>
<path d="M1024.2 106.569L-38.7917 720.286" stroke="#BCE0FF" stroke-opacity="0.4"/>
<path d="M1051.45 122.304L-11.5398 736.021" stroke="#BCE0FF" stroke-opacity="0.4"/>
<path d="M1078.71 138.042L15.7239 751.759" stroke="#BCE0FF" stroke-opacity="0.4"/>
<path d="M1105.97 153.78L42.9778 767.497" stroke="#BCE0FF" stroke-opacity="0.4"/>
<path d="M1133.22 169.516L70.2317 783.233" stroke="#BCE0FF" stroke-opacity="0.4"/>
<path d="M1160.47 185.248L97.4837 798.965" stroke="#BCE0FF" stroke-opacity="0.4"/>
<path d="M1187.74 200.988L124.747 814.705" stroke="#BCE0FF" stroke-opacity="0.4"/>
<path d="M1214.99 216.726L151.999 830.443" stroke="#BCE0FF" stroke-opacity="0.4"/>
<path d="M152 -396.994L1214.99 216.723" stroke="#BCE0FF" stroke-opacity="0.4"/>
<path d="M124.744 -381.254L1187.73 232.463" stroke="#BCE0FF" stroke-opacity="0.4"/>
<path d="M97.4844 -365.516L1160.47 248.201" stroke="#BCE0FF" stroke-opacity="0.4"/>
<path d="M70.2324 -349.782L1133.22 263.935" stroke="#BCE0FF" stroke-opacity="0.4"/>
<path d="M42.9746 -334.048L1105.96 279.669" stroke="#BCE0FF" stroke-opacity="0.4"/>
<path d="M15.7168 -318.313L1078.71 295.404" stroke="#BCE0FF" stroke-opacity="0.4"/>
<path d="M-11.5391 -302.574L1051.45 311.143" stroke="#BCE0FF" stroke-opacity="0.4"/>
<path d="M-38.793 -286.834L1024.2 326.883" stroke="#BCE0FF" stroke-opacity="0.4"/>
<path d="M-66.0508 -271.103L996.938 342.614" stroke="#BCE0FF" stroke-opacity="0.4"/>
<path d="M-93.3066 -255.365L969.682 358.352" stroke="#BCE0FF" stroke-opacity="0.4"/>
<path d="M-120.564 -239.631L942.425 374.086" stroke="#BCE0FF" stroke-opacity="0.4"/>
<path d="M-147.816 -223.893L915.173 389.824" stroke="#BCE0FF" stroke-opacity="0.4"/>
<path d="M-175.074 -208.157L887.915 405.56" stroke="#BCE0FF" stroke-opacity="0.4"/>
<path d="M-202.332 -192.415L860.657 421.302" stroke="#BCE0FF" stroke-opacity="0.4"/>
<path d="M-229.584 -176.683L833.405 437.034" stroke="#BCE0FF" stroke-opacity="0.4"/>
<path d="M-256.844 -160.954L806.145 452.763" stroke="#BCE0FF" stroke-opacity="0.4"/>
<path d="M-284.098 -145.212L778.891 468.505" stroke="#BCE0FF" stroke-opacity="0.4"/>
<path d="M-311.359 -129.473L751.63 484.244" stroke="#BCE0FF" stroke-opacity="0.4"/>
<path d="M-338.609 -113.735L724.38 499.982" stroke="#BCE0FF" stroke-opacity="0.4"/>
<path d="M-365.869 -97.9971L697.12 515.72" stroke="#BCE0FF" stroke-opacity="0.4"/>
<path d="M-393.123 -82.2656L669.866 531.451" stroke="#BCE0FF" stroke-opacity="0.4"/>
<path d="M-420.383 -66.532L642.606 547.185" stroke="#BCE0FF" stroke-opacity="0.4"/>
<path d="M-447.635 -50.7917L615.354 562.925" stroke="#BCE0FF" stroke-opacity="0.4"/>
<path d="M-474.896 -35.0559L588.092 578.661" stroke="#BCE0FF" stroke-opacity="0.4"/>
<path d="M-502.148 -19.3179L560.841 594.399" stroke="#BCE0FF" stroke-opacity="0.4"/>
<path d="M-529.406 -3.58423L533.583 610.133" stroke="#BCE0FF" stroke-opacity="0.4"/>
<path d="M-556.662 12.1538L506.327 625.871" stroke="#BCE0FF" stroke-opacity="0.4"/>
<path d="M-583.918 27.8896L479.071 641.607" stroke="#BCE0FF" stroke-opacity="0.4"/>
<path d="M-611.174 43.6255L451.815 657.342" stroke="#BCE0FF" stroke-opacity="0.4"/>
<path d="M-638.426 59.3658L424.563 673.083" stroke="#BCE0FF" stroke-opacity="0.4"/>
<path d="M-665.688 75.1016L397.301 688.819" stroke="#BCE0FF" stroke-opacity="0.4"/>
<path d="M-692.941 90.833L370.048 704.55" stroke="#BCE0FF" stroke-opacity="0.4"/>
<path d="M-720.197 106.569L342.792 720.286" stroke="#BCE0FF" stroke-opacity="0.4"/>
<path d="M-747.457 122.304L315.532 736.021" stroke="#BCE0FF" stroke-opacity="0.4"/>
<path d="M-774.713 138.045L288.276 751.762" stroke="#BCE0FF" stroke-opacity="0.4"/>
<path d="M-801.967 153.78L261.022 767.497" stroke="#BCE0FF" stroke-opacity="0.4"/>
<path d="M-829.221 169.516L233.768 783.233" stroke="#BCE0FF" stroke-opacity="0.4"/>
<path d="M-856.48 185.254L206.509 798.971" stroke="#BCE0FF" stroke-opacity="0.4"/>
<path d="M-883.736 200.988L179.253 814.705" stroke="#BCE0FF" stroke-opacity="0.4"/>
<path d="M-910.988 216.726L152.001 830.443" stroke="#BCE0FF" stroke-opacity="0.4"/>
</g>
<path d="M143.215 278.593C147.998 275.831 155.752 275.831 160.535 278.593L227.996 317.541C232.779 320.302 232.779 324.779 227.996 327.541L160.535 366.489C155.752 369.251 147.998 369.251 143.215 366.489L75.7542 327.541C70.9713 324.779 70.9713 320.302 75.7542 317.541L143.215 278.593Z" fill="white"/>
<rect width="73.4225" height="9.78967" transform="matrix(0.866025 0.5 0 1 77.6914 328.66)" fill="url(#paint0_linear_259_11002)"/>
<rect width="73.4225" height="9.78967" transform="matrix(0.866025 -0.5 0 1 162.473 365.372)" fill="url(#paint1_linear_259_11002)"/>
<path d="M73.3047 322.539C73.3047 324.929 74.9822 327.092 77.6944 328.658V338.448C74.9822 336.882 73.3047 334.718 73.3047 332.329V322.539Z" fill="url(#paint2_linear_259_11002)"/>
<path d="M141.279 365.372C147.132 368.751 156.622 368.751 162.475 365.372V375.162C156.622 378.541 147.132 378.541 141.279 375.162V365.372Z" fill="url(#paint3_linear_259_11002)"/>
<path d="M230.45 322.539C230.45 324.929 228.773 327.092 226.061 328.658V338.448C228.773 336.882 230.45 334.718 230.45 332.329V322.539Z" fill="url(#paint4_linear_259_11002)"/>
<path d="M143.32 150.547C148.103 147.785 155.858 147.785 160.641 150.547L228.101 189.495C232.884 192.257 232.884 196.734 228.101 199.495L160.641 238.444C155.858 241.205 148.103 241.205 143.32 238.444L75.8597 199.495C71.0768 196.734 71.0768 192.257 75.8597 189.495L143.32 150.547Z" fill="white"/>
<rect width="73.4225" height="9.78967" transform="matrix(0.866025 0.5 0 1 77.6934 200.615)" fill="url(#paint5_linear_259_11002)"/>
<rect width="73.4225" height="9.78967" transform="matrix(0.866025 -0.5 0 1 162.473 237.326)" fill="url(#paint6_linear_259_11002)"/>
<path d="M73.3027 194.494C73.3027 196.883 74.9802 199.046 77.6924 200.612V210.402C74.9802 208.836 73.3027 206.673 73.3027 204.283V194.494Z" fill="url(#paint7_linear_259_11002)"/>
<path d="M141.277 237.326C147.13 240.705 156.62 240.705 162.473 237.326V247.116C156.62 250.495 147.13 250.495 141.277 247.116V237.326Z" fill="url(#paint8_linear_259_11002)"/>
<path d="M230.45 194.494C230.45 196.883 228.773 199.046 226.061 200.612V210.402C228.773 208.836 230.45 206.673 230.45 204.283V194.494Z" fill="url(#paint9_linear_259_11002)"/>
<path d="M17.2772 214.181C22.0602 211.419 29.8148 211.419 34.5978 214.181L102.058 253.129C106.841 255.89 106.841 260.368 102.058 263.129L34.5978 302.077C29.8148 304.839 22.0602 304.839 17.2772 302.077L-50.1833 263.129C-54.9662 260.368 -54.9662 255.89 -50.1833 253.129L17.2772 214.181Z" fill="white"/>
<rect width="73.4225" height="9.78967" transform="matrix(0.866025 0.5 0 1 -47.9004 264.248)" fill="url(#paint10_linear_259_11002)"/>
<rect width="73.4225" height="9.78967" transform="matrix(0.866025 -0.5 0 1 36.8789 300.96)" fill="url(#paint11_linear_259_11002)"/>
<path d="M15.6855 300.96C21.5385 304.339 31.0279 304.339 36.8808 300.96V310.75C31.0279 314.129 21.5385 314.129 15.6855 310.75V300.96Z" fill="url(#paint12_linear_259_11002)"/>
<path d="M104.856 258.127C104.856 260.517 103.179 262.68 100.467 264.246V274.036C103.179 272.47 104.856 270.307 104.856 267.917V258.127Z" fill="url(#paint13_linear_259_11002)"/>
<path d="M269.828 214.181C274.611 211.419 282.366 211.419 287.149 214.181L354.609 253.129C359.392 255.89 359.392 260.368 354.609 263.129L287.149 302.077C282.366 304.839 274.611 304.839 269.828 302.077L202.368 263.129C197.585 260.368 197.585 255.89 202.368 253.129L269.828 214.181Z" fill="white"/>
<rect width="73.4225" height="9.78967" transform="matrix(0.866025 0.5 0 1 204.305 264.248)" fill="url(#paint14_linear_259_11002)"/>
<rect width="73.4225" height="9.78967" transform="matrix(0.866025 -0.5 0 1 289.086 300.96)" fill="url(#paint15_linear_259_11002)"/>
<path d="M199.918 258.127C199.918 260.517 201.595 262.68 204.308 264.246V274.036C201.595 272.47 199.918 270.307 199.918 267.917V258.127Z" fill="url(#paint16_linear_259_11002)"/>
<path d="M267.893 300.96C273.745 304.339 283.235 304.339 289.088 300.96V310.75C283.235 314.129 273.745 314.129 267.893 310.75V300.96Z" fill="url(#paint17_linear_259_11002)"/>
<path d="M-0.552657 273.427C14.0798 281.875 37.803 281.875 52.4355 273.427C67.0677 264.979 67.0679 251.282 52.4355 242.834C37.8032 234.386 14.0796 234.386 -0.552657 242.834C-15.1851 251.282 -15.1849 264.979 -0.552657 273.427Z" fill="url(#paint18_linear_259_11002)"/>
<path d="M8.94089 262.337C8.08248 261.841 8.55257 261.738 9.0738 261.095L14.8563 254.842L45.8118 259.405" fill="#C8DAEA"/>
<path d="M8.94087 262.337C9.60323 262.719 10.1986 262.713 10.928 262.719L17.8955 262.776L16.1462 258.697" fill="#A9C9DD"/>
<path d="M16.1462 258.698L18.9351 269.416C19.4813 270.508 20.7085 270.815 22.4671 270.15L47.294 260.835C49.5229 260.061 49.2074 258.945 47.5124 258.577L12.1513 249.524C9.71055 248.922 8.74904 249.489 9.73021 250.556L14.2351 255.517L38.9624 258.748C40.1123 258.911 40.5362 259.425 39.5184 259.39" fill="url(#paint19_linear_259_11002)"/>
<mask id="mask0_259_11002" style="mask-type:luminance" maskUnits="userSpaceOnUse" x="99" y="292" width="116" height="68">
<path d="M214.842 328.475L152.352 292.396L99.3634 322.988L161.854 359.067L214.842 328.475Z" fill="white"/>
</mask>
<g mask="url(#mask0_259_11002)">
<path d="M162.209 355.322C162.342 355.4 162.501 355.462 162.676 355.503C162.851 355.545 163.039 355.565 163.228 355.562C163.418 355.56 163.603 355.536 163.775 355.49C163.946 355.444 164.099 355.379 164.225 355.297C164.955 354.876 164.861 354.419 163.952 353.894L162.484 353.047L158.662 355.253L159.215 355.572L160.881 354.61L161.559 355.002L161.554 355.023L160.961 356.581L161.552 356.922L162.122 355.284L162.209 355.322ZM161.953 354.732L161.313 354.363L162.605 353.617L163.416 354.085C163.835 354.327 164.245 354.643 163.7 354.958C163.072 355.32 162.538 355.07 161.95 354.73" fill="#0A66C2"/>
<path d="M152.596 344.241L144.766 339.721L156.961 332.681C159.869 331.002 163.56 328.81 159.54 326.49C155.463 324.135 151.67 325.604 148.399 327.493L135.994 334.655L128.164 330.135L153.241 315.657L160.757 319.996L157.33 321.975L157.436 322.036C159.467 321.731 161.606 321.751 163.625 322.093C165.645 322.436 167.468 323.087 168.902 323.978C176.837 328.56 173.109 332.402 166.356 336.301L152.596 344.241ZM147.835 308.577C146.936 308.059 146.323 307.399 146.072 306.68C145.821 305.962 145.944 305.219 146.426 304.543C146.908 303.868 147.726 303.292 148.778 302.887C149.829 302.482 151.067 302.266 152.335 302.268C153.602 302.27 154.842 302.489 155.898 302.897C156.954 303.305 157.778 303.884 158.266 304.561C158.755 305.238 158.885 305.982 158.642 306.699C158.398 307.416 157.791 308.075 156.897 308.591C156.304 308.933 155.599 309.205 154.823 309.39C154.046 309.574 153.213 309.669 152.372 309.668C151.53 309.666 150.696 309.569 149.918 309.382C149.14 309.195 148.432 308.922 147.835 308.577ZM123.244 327.295L115.407 322.77L140.485 308.292L148.322 312.817L123.244 327.295ZM201.274 320.644L156.247 294.648C155.237 294.052 153.859 293.71 152.418 293.698C150.976 293.686 149.589 294.004 148.56 294.584L103.592 320.547C102.587 321.141 102.034 321.942 102.053 322.775C102.074 323.607 102.665 324.403 103.699 324.987L148.725 350.983C149.737 351.582 151.117 351.926 152.562 351.939C154.006 351.952 155.399 351.634 156.432 351.054L201.404 325.09C202.407 324.493 202.958 323.69 202.934 322.856C202.91 322.022 202.314 321.226 201.277 320.642" fill="#0A66C2"/>
<path d="M165.447 352.792C164.486 352.247 163.192 351.943 161.848 351.947C160.504 351.95 159.221 352.261 158.278 352.81C157.336 353.36 156.81 354.104 156.817 354.88C156.824 355.656 157.362 356.4 158.315 356.95C159.268 357.5 160.556 357.811 161.9 357.814C163.244 357.818 164.532 357.515 165.484 356.971C166.436 356.427 166.974 355.685 166.98 354.91C166.986 354.134 166.46 353.387 165.517 352.832L165.447 352.792ZM158.691 356.693C158.055 356.338 157.616 355.883 157.427 355.386C157.238 354.888 157.309 354.37 157.631 353.897C157.952 353.424 158.51 353.018 159.233 352.73C159.956 352.441 160.813 352.283 161.694 352.276C162.575 352.269 163.441 352.413 164.184 352.69C164.926 352.966 165.51 353.364 165.863 353.831C166.216 354.298 166.321 354.815 166.166 355.315C166.011 355.816 165.602 356.277 164.991 356.642C164.973 356.652 164.956 356.662 164.938 356.672C164.141 357.153 163.043 357.43 161.887 357.443C160.732 357.456 159.612 357.202 158.775 356.739L158.693 356.692" fill="#0A66C2"/>
</g>
<path d="M317.482 265.632C316.957 265.98 316.394 266.306 315.825 266.634C298.492 276.641 265.331 280.578 241.247 266.673L241.257 266.667C234.133 262.566 229.207 257.365 227.067 251.685C227.977 252.354 228.955 252.99 229.994 253.593C235.885 257 243.594 259.163 251.882 259.734C246.386 256.437 245.132 251.488 248.759 247.412C250.342 248.764 252.443 249.887 254.896 250.695C250.024 246.454 251.006 240.812 257.251 237.207C257.308 237.174 257.362 237.143 257.417 237.111C258.221 238.748 259.695 240.25 261.718 241.49C259.816 235.944 265.711 230.494 275.18 229.038C273.633 237.608 278.459 246.147 288.461 252.53C291.962 249.291 298.177 247.367 304.782 247.481C315.022 247.659 323.061 252.595 322.738 258.505C326.25 259.864 330.138 260.864 334.237 261.467C330.223 262.656 325.598 262.964 321.227 262.333C324.128 263.654 327.36 264.716 330.811 265.482C326.414 265.99 321.901 266.039 317.482 265.632Z" fill="#1D9BF0"/>
<path fill-rule="evenodd" clip-rule="evenodd" d="M178.478 209.796C193.11 201.348 193.109 187.65 178.478 179.203C163.847 170.756 140.121 170.756 125.49 179.203C112.268 186.837 110.994 198.758 121.671 207.221L140.185 196.532L133.456 192.647L141.116 188.224L147.845 192.109L153.683 188.739C160.323 184.905 167.949 185.071 174 188.564C176.899 190.238 179.414 192.288 179.414 192.288L172.893 196.052L169.551 194.123C166.262 192.223 163.192 192.808 161.094 194.019L156.124 196.889L163.471 201.131L154.637 204.876L148.463 201.311L129.95 212C144.604 218.167 165.252 217.432 178.478 209.795L178.478 209.796Z" fill="#1977F3"/>
<path fill-rule="evenodd" clip-rule="evenodd" d="M154.637 204.876L163.471 201.131L156.124 196.889L161.094 194.02C163.188 192.811 166.258 192.221 169.551 194.123L172.893 196.052L179.414 192.288C179.414 192.288 176.899 190.238 174 188.564C167.949 185.071 160.326 184.903 153.683 188.739L147.845 192.11L141.116 188.225L133.456 192.647L140.185 196.532L121.671 207.221C122.808 208.122 124.082 208.983 125.49 209.796C126.898 210.609 128.393 211.342 129.949 212.001L148.463 201.312L154.637 204.876L154.637 204.876Z" fill="#FEFEFE"/>
</g>
<defs>
<linearGradient id="paint0_linear_259_11002" x1="36.7113" y1="0" x2="36.7113" y2="9.78967" gradientUnits="userSpaceOnUse">
<stop stop-color="#709EC9"/>
<stop offset="1" stop-color="#1F6091"/>
</linearGradient>
<linearGradient id="paint1_linear_259_11002" x1="36.7113" y1="0" x2="36.7113" y2="9.78967" gradientUnits="userSpaceOnUse">
<stop stop-color="#709EC9"/>
<stop offset="1" stop-color="#1F6091"/>
</linearGradient>
<linearGradient id="paint2_linear_259_11002" x1="75.4995" y1="322.539" x2="75.4995" y2="338.448" gradientUnits="userSpaceOnUse">
<stop stop-color="#709EC9"/>
<stop offset="1" stop-color="#1F6091"/>
</linearGradient>
<linearGradient id="paint3_linear_259_11002" x1="151.877" y1="365.372" x2="151.877" y2="377.696" gradientUnits="userSpaceOnUse">
<stop stop-color="#709EC9"/>
<stop offset="1" stop-color="#1F6091"/>
</linearGradient>
<linearGradient id="paint4_linear_259_11002" x1="228.255" y1="322.539" x2="228.255" y2="338.448" gradientUnits="userSpaceOnUse">
<stop stop-color="#709EC9"/>
<stop offset="1" stop-color="#1F6091"/>
</linearGradient>
<linearGradient id="paint5_linear_259_11002" x1="36.7113" y1="0" x2="36.7113" y2="9.78967" gradientUnits="userSpaceOnUse">
<stop stop-color="#709EC9"/>
<stop offset="1" stop-color="#1F6091"/>
</linearGradient>
<linearGradient id="paint6_linear_259_11002" x1="36.7113" y1="0" x2="36.7113" y2="9.78967" gradientUnits="userSpaceOnUse">
<stop stop-color="#709EC9"/>
<stop offset="1" stop-color="#1F6091"/>
</linearGradient>
<linearGradient id="paint7_linear_259_11002" x1="75.4976" y1="194.494" x2="75.4976" y2="210.402" gradientUnits="userSpaceOnUse">
<stop stop-color="#709EC9"/>
<stop offset="1" stop-color="#1F6091"/>
</linearGradient>
<linearGradient id="paint8_linear_259_11002" x1="151.875" y1="237.326" x2="151.875" y2="249.65" gradientUnits="userSpaceOnUse">
<stop stop-color="#709EC9"/>
<stop offset="1" stop-color="#1F6091"/>
</linearGradient>
<linearGradient id="paint9_linear_259_11002" x1="228.255" y1="194.494" x2="228.255" y2="210.402" gradientUnits="userSpaceOnUse">
<stop stop-color="#709EC9"/>
<stop offset="1" stop-color="#1F6091"/>
</linearGradient>
<linearGradient id="paint10_linear_259_11002" x1="36.7113" y1="0" x2="36.7113" y2="9.78967" gradientUnits="userSpaceOnUse">
<stop stop-color="#709EC9"/>
<stop offset="1" stop-color="#1F6091"/>
</linearGradient>
<linearGradient id="paint11_linear_259_11002" x1="36.7113" y1="0" x2="36.7113" y2="9.78967" gradientUnits="userSpaceOnUse">
<stop stop-color="#709EC9"/>
<stop offset="1" stop-color="#1F6091"/>
</linearGradient>
<linearGradient id="paint12_linear_259_11002" x1="26.2832" y1="300.96" x2="26.2832" y2="313.284" gradientUnits="userSpaceOnUse">
<stop stop-color="#709EC9"/>
<stop offset="1" stop-color="#1F6091"/>
</linearGradient>
<linearGradient id="paint13_linear_259_11002" x1="102.662" y1="258.127" x2="102.662" y2="274.036" gradientUnits="userSpaceOnUse">
<stop stop-color="#709EC9"/>
<stop offset="1" stop-color="#1F6091"/>
</linearGradient>
<linearGradient id="paint14_linear_259_11002" x1="36.7113" y1="0" x2="36.7113" y2="9.78967" gradientUnits="userSpaceOnUse">
<stop stop-color="#709EC9"/>
<stop offset="1" stop-color="#1F6091"/>
</linearGradient>
<linearGradient id="paint15_linear_259_11002" x1="36.7113" y1="0" x2="36.7113" y2="9.78967" gradientUnits="userSpaceOnUse">
<stop stop-color="#709EC9"/>
<stop offset="1" stop-color="#1F6091"/>
</linearGradient>
<linearGradient id="paint16_linear_259_11002" x1="202.113" y1="258.127" x2="202.113" y2="274.036" gradientUnits="userSpaceOnUse">
<stop stop-color="#709EC9"/>
<stop offset="1" stop-color="#1F6091"/>
</linearGradient>
<linearGradient id="paint17_linear_259_11002" x1="278.49" y1="300.96" x2="278.49" y2="313.284" gradientUnits="userSpaceOnUse">
<stop stop-color="#709EC9"/>
<stop offset="1" stop-color="#1F6091"/>
</linearGradient>
<linearGradient id="paint18_linear_259_11002" x1="52.4355" y1="253.052" x2="17.8322" y2="277.011" gradientUnits="userSpaceOnUse">
<stop stop-color="#37AEE2"/>
<stop offset="1" stop-color="#1E96C8"/>
</linearGradient>
<linearGradient id="paint19_linear_259_11002" x1="29.2617" y1="260.049" x2="27.3298" y2="268.63" gradientUnits="userSpaceOnUse">
<stop stop-color="#EFF7FC"/>
<stop offset="1" stop-color="white"/>
</linearGradient>
<clipPath id="clip0_259_11002">
<rect width="304" height="400" fill="white"/>
</clipPath>
</defs>
</svg>
