<svg width="44" height="44" fill="none" xmlns="http://www.w3.org/2000/svg"><circle cx="22" cy="22" r="22" fill="#5E87B3"/><path d="M29.642 15.118c-1.25.715-2.143 1.15-2.853 1.036.765-.328 2.104-1.033 2.807-2.68.053-.126-.327-.302-.452-.355a.246.246 0 0 0-.323.13c-.543 1.273-1.28 1.94-1.9 2.29.723-1.323 1.155-3.165 1.155-4.539H16.84c0 1.772.715 4.324 1.85 5.536h7.536l.005-.006c.303.09.68.161 1.127.161.725 0 1.625-.186 2.657-.775.118-.067.03-.588-.038-.706a.246.246 0 0 0-.335-.092zM25.319 26.567c-.12 1.271-1.199 2.039-2.152 2.118l.006 1.338h-1.29V28.79s-1.467-.076-2.301-.592l.487-1.51s.582.315 1.257.454c.675.14 1.846.102 1.99-.533.139-.616-.262-.857-1.096-1.096-.834-.238-2.29-.92-2.423-2.045-.144-1.224.41-2.172 2.066-2.522v-1.291h1.29v1.132s1.325.102 1.82.42l-.31 1.387s-1.251-.417-2.105-.357c-.855.059-.912.926-.305 1.313.715.457 1.775.792 2.112.97.337.179 1.073.775.954 2.046zm.994-9.478H18.6c-3.865 1.536-6.6 5.306-6.6 9.719 0 5.774 4.682 6.273 10.456 6.273 5.776 0 10.457-.499 10.457-6.274 0-4.412-2.735-8.182-6.6-9.718z" fill="#fff"/></svg>