<svg width="60" height="60" viewBox="0 0 60 60" fill="none" xmlns="http://www.w3.org/2000/svg">
<circle cx="30" cy="30" r="30" fill="white"/>
<path d="M43.3247 13H38.5661C37.2491 13 37.2472 14.9922 38.5661 14.9922H43.3247C44.2526 14.9922 45.0075 15.7471 45.0075 16.675V21.4336C45.0075 22.7506 46.9997 22.7525 46.9997 21.4336V16.675C46.9997 14.6486 45.3511 13 43.3247 13V13Z" fill="#42607A"/>
<path d="M14.9922 21.4336V16.675C14.9922 15.7471 15.7471 14.9922 16.675 14.9922H21.4336C22.7506 14.9922 22.7525 13 21.4336 13H16.675C14.6486 13 13 14.6486 13 16.675V21.4336C13 22.7506 14.9922 22.7525 14.9922 21.4336V21.4336Z" fill="#42607A"/>
<path d="M21.4336 45.0075H16.675C15.7471 45.0075 14.9922 44.2526 14.9922 43.3247V38.5661C14.9922 37.2491 13 37.2472 13 38.5661V43.3247C13 45.3511 14.6486 46.9997 16.675 46.9997H21.4336C22.7506 46.9997 22.7525 45.0075 21.4336 45.0075Z" fill="#42607A"/>
<path d="M45.0075 38.5661V43.3247C45.0075 44.2526 44.2526 45.0075 43.3247 45.0075H38.5661C37.2491 45.0075 37.2472 46.9997 38.5661 46.9997H43.3247C45.3511 46.9997 46.9997 45.3511 46.9997 43.3247V38.5661C46.9997 37.2491 45.0075 37.2472 45.0075 38.5661Z" fill="#42607A"/>
<path d="M42.6836 41.6875V31.0625C42.6836 30.5127 42.2374 30.0664 41.6875 30.0664H31.0625C30.5127 30.0664 30.0664 30.5127 30.0664 31.0625V41.6875C30.0664 42.2374 30.5127 42.6836 31.0625 42.6836H41.6875C42.2374 42.6836 42.6836 42.2374 42.6836 41.6875ZM37.4375 37.3711H35.3125C33.9947 37.3711 33.9943 35.3789 35.3125 35.3789H37.4375C38.7553 35.3789 38.7557 37.3711 37.4375 37.3711Z" fill="#42607A"/>
<path d="M33.7188 27.8086H41.1563C41.7061 27.8086 42.1524 27.3624 42.1524 26.8125V19.375C42.1524 18.8252 41.7061 18.3789 41.1563 18.3789H33.7188C33.1689 18.3789 32.7227 18.8252 32.7227 19.375V26.8125C32.7227 27.3624 33.1689 27.8086 33.7188 27.8086Z" fill="#42607A"/>
<path d="M27.875 17.3164H18.3125C17.7627 17.3164 17.3164 17.7627 17.3164 18.3125V27.875C17.3164 28.4249 17.7627 28.8711 18.3125 28.8711H27.875C28.4249 28.8711 28.8711 28.4249 28.8711 27.875V18.3125C28.8711 17.7627 28.4249 17.3164 27.875 17.3164ZM22.0977 23.625V22.5625C22.0977 21.2447 24.0899 21.2443 24.0899 22.5625V23.625C24.0899 24.9428 22.0977 24.9431 22.0977 23.625Z" fill="#42607A"/>
<path d="M26.8125 40.6911H19.3086V32.1247C19.3086 30.8077 17.3164 30.8058 17.3164 32.1247V41.6872C17.3164 42.2373 17.7624 42.6833 18.3125 42.6833H26.8125C28.1295 42.6833 28.1314 40.6911 26.8125 40.6911Z" fill="#42607A"/>
<path d="M23.5586 37.4372V32.1247C23.5586 30.8077 21.5664 30.8058 21.5664 32.1247V37.4372C21.5664 38.7541 23.5586 38.756 23.5586 37.4372Z" fill="#42607A"/>
<path d="M25.8164 32.1247V37.4372C25.8164 38.7541 27.8086 38.756 27.8086 37.4372V32.1247C27.8086 30.8077 25.8164 30.8058 25.8164 32.1247Z" fill="#42607A"/>
</svg>
