<svg fill="#4587bb"  height="480pt" viewBox="0 -12 480 480" width="480pt" xmlns="http://www.w3.org/2000/svg"><path d="m288 298.800781v-34.800781c.621094-18.832031-10.238281-36.15625-27.457031-43.808594 2.238281-3.671875 3.433593-7.890625 3.457031-12.191406 0-13.320312-10.800781-24.121094-24.121094-24.121094-13.320312 0-24.117187 10.800782-24.117187 24.121094.019531 4.335938 1.230469 8.585938 3.503906 12.28125-17.113281 7.695312-27.882813 24.964844-27.265625 43.71875v34.832031c-9.277344 3.871094-15.5 12.730469-16 22.769531v14.398438c0 4.417969 3.582031 8 8 8h112c4.417969 0 8-3.582031 8-8v-14.398438c-.308594-10.113281-6.59375-19.074218-16-22.800781zm-48.128906-98.800781c4.402344.0625 7.929687 3.671875 7.886718 8.074219-.039062 4.402343-3.632812 7.945312-8.035156 7.925781s-7.960937-3.597656-7.960937-8c.042969-4.445312 3.667969-8.019531 8.109375-8zm48.128906 128h-96v-6.398438c0-5.402343 7.59375-8.882812 10.855469-10.128906 3.097656-1.183594 5.144531-4.15625 5.144531-7.472656v-40c-.503906-8.632812 2.707031-17.066406 8.820312-23.179688 6.113282-6.113281 14.546876-9.324218 23.179688-8.820312 8.632812-.503906 17.066406 2.707031 23.179688 8.820312 6.113281 6.113282 9.324218 14.546876 8.820312 23.179688v40c0 3.324219 2.054688 6.300781 5.160156 7.480469 4.945313 1.878906 10.839844 5.167969 10.839844 10.121093zm0 0"/><path d="m136 128c0-4.417969-3.582031-8-8-8-12.875-.488281-25.367188 4.414062-34.476562 13.523438-9.109376 9.109374-14.011719 21.601562-13.523438 34.476562 0 4.417969 3.582031 8 8 8s8-3.582031 8-8c0-1.304688.367188-32 32-32 4.417969 0 8-3.582031 8-8zm0 0"/><path d="m144 152c-8.5625-.253906-16.847656 3.039062-22.90625 9.09375-6.054688 6.058594-9.347656 14.34375-9.09375 22.90625 0 4.417969 3.582031 8 8 8s8-3.582031 8-8c-.277344-4.324219 1.316406-8.554688 4.382812-11.617188 3.0625-3.066406 7.292969-4.660156 11.617188-4.382812 4.417969 0 8-3.582031 8-8s-3.582031-8-8-8zm0 0"/><path d="m336 152c-4.417969 0-8 3.582031-8 8s3.582031 8 8 8c4.332031-.273438 8.570312 1.328125 11.632812 4.402344 3.0625 3.074218 4.65625 7.316406 4.367188 11.644531.011719 4.417969 3.605469 7.992187 8.023438 7.976563 4.417968-.011719 7.988281-3.605469 7.976562-8.023438.253906-8.5625-3.039062-16.847656-9.09375-22.90625-6.058594-6.054688-14.34375-9.347656-22.90625-9.09375zm0 0"/><path d="m352 120c-4.417969 0-8 3.582031-8 8s3.582031 8 8 8c8.585938-.339844 16.925781 2.921875 23 9 6.078125 6.074219 9.339844 14.414062 9 23 0 4.417969 3.582031 8 8 8s8-3.582031 8-8c.488281-12.875-4.414062-25.367188-13.523438-34.476562-9.109374-9.109376-21.601562-14.011719-34.476562-13.523438zm0 0"/><path d="m120 368c-4.417969 0-8 3.582031-8 8-.488281 12.875 4.414062 25.367188 13.523438 34.476562 9.109374 9.109376 21.601562 14.011719 34.476562 13.523438 4.417969 0 8-3.582031 8-8s-3.582031-8-8-8c-8.585938.339844-16.925781-2.921875-23-9-6.078125-6.074219-9.339844-14.414062-9-23 0-4.417969-3.582031-8-8-8zm0 0"/><path d="m80 400c-4.417969 0-8 3.582031-8 8-.488281 12.875 4.414062 25.367188 13.523438 34.476562 9.109374 9.109376 21.601562 14.011719 34.476562 13.523438 4.417969 0 8-3.582031 8-8s-3.582031-8-8-8c-8.585938.339844-16.925781-2.921875-23-9-6.078125-6.074219-9.339844-14.414062-9-23 0-4.417969-3.582031-8-8-8zm0 0"/><path d="m360 368c-4.417969 0-8 3.582031-8 8 0 1.304688-.367188 32-32 32-4.417969 0-8 3.582031-8 8s3.582031 8 8 8c12.875.488281 25.367188-4.414062 34.476562-13.523438 9.109376-9.109374 14.011719-21.601562 13.523438-34.476562 0-4.417969-3.582031-8-8-8zm0 0"/><path d="m392 400c-4.417969 0-8 3.582031-8 8 0 1.304688-.367188 32-32 32-4.417969 0-8 3.582031-8 8s3.582031 8 8 8c12.875.488281 25.367188-4.414062 34.476562-13.523438 9.109376-9.109374 14.011719-21.601562 13.523438-34.476562 0-4.417969-3.582031-8-8-8zm0 0"/><path d="m379.390625 71.039062c-12.882813-.78125-25.777344 1.277344-37.773437 6.039063-12.585938-42.039063-57.664063-77.078125-101.617188-77.078125-42.238281 0-85.257812 26.824219-100.542969 61.320312-8.679687-3.671874-18.035156-5.484374-27.457031-5.320312-51.800781 0-112 42.496094-112 97.28125v22.71875c0 52.441406 48.425781 108.3125 121.144531 111.679688 7.792969 59.671874 58.621094 104.316406 118.800781 104.34375 60.179688.027343 111.050782-44.574219 118.894532-104.238282 57.398437-2.183594 121.160156-32.28125 121.160156-111.785156 0-50.800781-50.777344-103.777344-100.609375-104.960938zm-139.390625 304.960938c-57.4375 0-104-46.5625-104-104s46.5625-104 104-104 104 46.5625 104 104c-.066406 57.410156-46.589844 103.933594-104 104zm120-104.230469c.039062-66.277343-53.65625-120.03125-119.933594-120.070312-66.273437-.035157-120.027344 53.660156-120.066406 119.933593-50.726562-3.6875-104-41.878906-104-95.632812v-22.71875c0-45.023438 52.511719-81.28125 96-81.28125 10.03125-.019531 19.90625 2.488281 28.710938 7.296875 2.101562.945313 4.511718.941406 6.609374-.011719 2.097657-.957031 3.679688-2.773437 4.34375-4.980468 9.65625-32.144532 49.289063-58.304688 88.335938-58.304688 39.375 0 81.375 34.976562 88.121094 73.382812.5625 2.394532 2.167968 4.40625 4.375 5.488282 2.277344 1.128906 4.929687 1.210937 7.273437.226562 12.160157-6.042968 25.6875-8.824218 39.246094-8.066406 41.296875.96875 84.984375 46.722656 84.984375 88.96875 0 67.3125-52.320312 93.367188-104 95.769531zm0 0"/></svg>