<svg width="44" height="44" fill="none" xmlns="http://www.w3.org/2000/svg"><circle cx="22" cy="22" r="22" fill="#fff"/><path d="M28.917 13.758c-1.374-1.272-3.424-2.13-5.588-2.172l-.052 7.983 5.64-5.81z" fill="#5E87B3"/><path d="M21.828 11.53C16.175 11.53 12 16.114 12 21.767 12 27.418 16.582 32 22.234 32c3.964 0 7.65-2.34 9.007-5.36l-9.208-4.874v-10.23c-.068 0-.136-.005-.205-.005z" fill="#5E87B3"/><path d="m27.105 17.425-1.482 4.723.855.457 2.101-6.694-1.474 1.514zM25.194 19.39l-.68 2.164.855.458 1.3-4.138-1.475 1.515zM31.264 16.547l-2.318 7.383.855.458 2.074-6.606a9.652 9.652 0 0 0-.611-1.235zM32.038 18.209l-1.982 6.314.854.458 1.566-4.987a9.169 9.169 0 0 0-.438-1.785zM32.562 21.186c0-.16-.005-.321-.014-.48l-1.385 4.41.502.27c.642-1.244.897-2.705.897-4.2zM29.807 14.649l-.792.814-2.285 7.28.855.457 2.568-8.183a9.413 9.413 0 0 0-.346-.368zM23.575 21.052l.685.367.496-1.58-1.18 1.213zM30.371 15.267l-2.532 8.068.855.458 2.375-7.567a9.614 9.614 0 0 0-.698-.959z" fill="#5E87B3"/></svg>