<svg fill="#4587bb"  enable-background="new 0 0 480 480" viewBox="0 0 480 480" xmlns="http://www.w3.org/2000/svg"><path d="m144 264h16v16h-16z"/><path d="m144 296h16v16h-16z"/><path d="m144 328h16v16h-16z"/><path d="m144 232h16v16h-16z"/><path d="m144 200h16v16h-16z"/><path d="m144 168h16v16h-16z"/><path d="m144 136h16v16h-16z"/><path d="m32 136h16v16h-16z"/><path d="m432 136h16v16h-16z"/><path d="m432 328h16v16h-16z"/><path d="m32 328h16v16h-16z"/><path d="m472 200c4.418 0 8-3.582 8-8v-80c0-4.418-3.582-8-8-8h-464c-4.418 0-8 3.582-8 8v80c0 4.418 3.582 8 8 8 22.091 0 40 17.909 40 40s-17.909 40-40 40c-4.418 0-8 3.582-8 8v80c0 4.418 3.582 8 8 8h464c4.418 0 8-3.582 8-8v-80c0-4.418-3.582-8-8-8-22.091 0-40-17.909-40-40s17.909-40 40-40zm-55.476 47.956c3.532 24.61 22.867 43.944 47.476 47.476v64.568h-448v-64.568c30.614-4.394 51.87-32.773 47.476-63.388-3.532-24.609-22.866-43.944-47.476-47.476v-64.568h448v64.568c-30.614 4.394-51.87 32.773-47.476 63.388z"/><path d="m240 160c-17.673 0-32 14.327-32 32s14.327 32 32 32 32-14.327 32-32-14.327-32-32-32zm0 48c-8.837 0-16-7.163-16-16s7.163-16 16-16 16 7.163 16 16-7.163 16-16 16z"/><path d="m336 256c-17.673 0-32 14.327-32 32s14.327 32 32 32 32-14.327 32-32-14.327-32-32-32zm0 48c-8.837 0-16-7.163-16-16s7.163-16 16-16 16 7.163 16 16-7.163 16-16 16z"/><path d="m197.494 231.982h181.017v16h-181.017z" transform="matrix(.7071 -.7071 .7071 .7071 -85.3385 273.9377)"/></svg>