<svg width="44" height="44" fill="none" xmlns="http://www.w3.org/2000/svg"><circle cx="22" cy="22" r="22" fill="#5E87B3"/><path d="M19.448 19.367c-.29 0-.552-.107-.76-.276.561-.1.882-.362 1.056-.591.28-.37.356-.858.244-1.424a1.208 1.208 0 0 1-.54 2.291zm-5.585-2.92c-1.135-.861-2.059-1.85-2.601-2.784-.468-.807-.59-1.496-.329-1.842.2-.264.602-.32.904-.32 1.14 0 2.803.725 4.342 1.891.615.466 1.165.97 1.629 1.483a1.617 1.617 0 0 0-1.6 1.63l.011 1.338a11.545 11.545 0 0 1-2.356-1.397zm5.246 1.571c-.19.25-.559.311-.854.317a1.18 1.18 0 0 1-.018-.18c0-.564.388-1.034.91-1.168.138.445.13.809-.038 1.031zm14.944 6.232-9.087-8.93a1.605 1.605 0 0 0-1.179-.497l-4.945.043a12.12 12.12 0 0 0-2.182-2.109c-1.67-1.265-3.518-2.052-4.823-2.052-.874 0-1.32.345-1.539.635-.477.628-.38 1.595.274 2.722.594 1.024 1.592 2.096 2.81 3.02.934.708 1.925 1.265 2.844 1.62l.034 3.782c.004.448.19.852.487 1.142.007.01.013.019.021.026l9.093 8.935c.81.796 1.649.334 2.443-.475l5.318-5.412c.794-.808 1.241-1.654.431-2.45z" fill="#fff"/></svg>