<svg width="44" height="44" fill="none" xmlns="http://www.w3.org/2000/svg"><circle cx="22" cy="22" r="22" fill="#5E87B3"/><path d="M20.363 12.25a.82.82 0 1 1-1.641 0 .82.82 0 0 1 1.641 0zm3.592-.823a.821.821 0 1 1 0 1.643.821.821 0 0 1 0-1.643zm.558 3.932h-5.525v-.596h5.525v.596zm-4.968-6.36v1.035h-2.101c-.247 0-.448.2-.448.446v5.579c0 .245.2.445.448.445h8.611c.247 0 .448-.2.448-.445v-5.58c0-.246-.201-.445-.448-.445h-2.101V9h-.456v1.034H20V9h-.455zM15.748 21.866v-4.805H14.04v4.805h1.707zM15.748 27.018v-4.806H14.04v4.806h1.707z" fill="#fff"/><path d="M15.488 30.174v.647a1.895 1.895 0 1 0-1.186 0v-.647a1.297 1.297 0 0 1-.708-1.152 1.302 1.302 0 1 1 2.603 0c0 .504-.289.936-.71 1.152zM29.508 21.866v-4.805H27.8v4.805h1.708zM29.508 27.018v-4.806H27.8v4.806h1.708z" fill="#fff"/><path d="M29.249 30.174v.647a1.896 1.896 0 1 0-1.188 0v-.647a1.298 1.298 0 0 1 .594-2.455c.72 0 1.302.582 1.302 1.302 0 .505-.29.937-.708 1.153zM25.313 22.964a.665.665 0 0 1-.663.664h-2.08l1.411-1.411a.414.414 0 1 0-.585-.586l-1.997 1.997h-2.55a.663.663 0 0 1-.664-.664v-2.32c0-.367.296-.665.663-.665h5.802c.366 0 .663.298.663.665v2.32zm-8.808-6.162c-.246 0-.445.2-.445.446v7.923c0 .245.199.446.445.446h10.487a.447.447 0 0 0 .446-.446v-7.923c0-.247-.199-.446-.446-.446H16.505zM21.103 30.493v-4.392h-2.818v4.392h2.818zM21.103 33.032V30.95h-2.818v2.082h2.818zM17.556 33.316c-.446 0-.808.418-.808.932 0 .516.362.934.808.934h3.192c.447 0 .809-.419.809-.934 0-.514-.362-.932-.81-.932h-3.19zM25.265 30.493v-4.392h-2.818v4.392h2.818zM25.265 33.032V30.95h-2.818v2.082h2.818zM22.801 33.316c-.446 0-.809.418-.809.932 0 .516.363.934.81.934h3.19c.447 0 .81-.419.81-.934 0-.514-.363-.932-.81-.932h-3.19z" fill="#fff"/></svg>