<svg xmlns="http://www.w3.org/2000/svg" xmlns:xlink="http://www.w3.org/1999/xlink">
	<symbol id="projects" viewBox="0 0 23 23" >
			<path d="M14.0278 19.5486L11.5764 22L11.5764 16.4101C9.7327 16.938 8.13199 16.7872 7.17241 15.8276C6.21283 14.868 6.06196 13.2673 6.58992 11.4236L1 11.4236L3.45139 8.97221C4.74199 7.6816 6.57319 7.69416 7.85543 8.55737C8.60967 7.25837 9.62794 5.93841 10.8641 4.70228C14.9538 0.612507 21.9894 1.01057 21.9894 1.01057C21.9894 1.01057 22.3875 8.04616 18.2977 12.1359C17.0616 13.3721 15.7416 14.3903 14.4426 15.1446C15.3058 16.4268 15.3184 18.258 14.0278 19.5486Z" stroke-miterlimit="10" stroke-linecap="round" stroke-linejoin="round"></path>
			<path d="M16.313 8.46382C17.2948 8.46382 18.0908 7.66787 18.0908 6.68601C18.0908 5.70416 17.2948 4.9082 16.313 4.9082C15.3311 4.9082 14.5352 5.70416 14.5352 6.68601C14.5352 7.66787 15.3311 8.46382 16.313 8.46382Z" stroke-miterlimit="10" stroke-linecap="round" stroke-linejoin="round"></path>
			<path d="M6.09824 19.6888C5.32877 20.4583 2.30859 20.6919 2.30859 20.6919C2.30859 20.6919 2.54226 17.6718 3.31174 16.9023C4.08121 16.1328 5.32877 16.1328 6.09824 16.9023C6.86772 17.6718 6.86772 18.9193 6.09824 19.6888Z" stroke-miterlimit="10" stroke-linecap="round" stroke-linejoin="round"></path>
	</symbol>
</svg>