<svg xmlns="http://www.w3.org/2000/svg" xmlns:xlink="http://www.w3.org/1999/xlink">
	<symbol id="projects" viewBox="0 0 23 23">
		<path d="M14.0278 19.5486L11.5764 22L11.5764 16.4101C9.7327 16.938 8.13199 16.7872 7.17241 15.8276C6.21283 14.868 6.06196 13.2673 6.58992 11.4236L1 11.4236L3.45139 8.97221C4.74199 7.6816 6.57319 7.69416 7.85543 8.55737C8.60967 7.25837 9.62794 5.93841 10.8641 4.70228C14.9538 0.612507 21.9894 1.01057 21.9894 1.01057C21.9894 1.01057 22.3875 8.04616 18.2977 12.1359C17.0616 13.3721 15.7416 14.3903 14.4426 15.1446C15.3058 16.4268 15.3184 18.258 14.0278 19.5486Z" stroke-miterlimit="10" stroke-linecap="round" stroke-linejoin="round"></path>
		<path d="M16.313 8.46382C17.2948 8.46382 18.0908 7.66787 18.0908 6.68601C18.0908 5.70416 17.2948 4.9082 16.313 4.9082C15.3311 4.9082 14.5352 5.70416 14.5352 6.68601C14.5352 7.66787 15.3311 8.46382 16.313 8.46382Z" stroke-miterlimit="10" stroke-linecap="round" stroke-linejoin="round"></path>
		<path d="M6.09824 19.6888C5.32877 20.4583 2.30859 20.6919 2.30859 20.6919C2.30859 20.6919 2.54226 17.6718 3.31174 16.9023C4.08121 16.1328 5.32877 16.1328 6.09824 16.9023C6.86772 17.6718 6.86772 18.9193 6.09824 19.6888Z" stroke-miterlimit="10" stroke-linecap="round" stroke-linejoin="round"></path>
	</symbol>
	<symbol id="investments-land" viewBox="0 0 22 22">
		<path d="M21.9569 12.2774C21.9205 12.2166 21.8638 12.1706 21.7967 12.1475C21.7297 12.1244 21.6567 12.1257 21.5906 12.1512L20.1297 12.7141C18.0491 13.5228 16.3132 15.0277 15.2176 16.9725C15.2977 15.4478 15.7205 13.9609 16.4546 12.6221C17.1887 11.2834 18.2151 10.1275 19.4576 9.2402L19.7804 9.01023C19.8383 8.9688 19.8796 8.90819 19.897 8.83917C19.9144 8.77016 19.9068 8.6972 19.8755 8.63328C19.8441 8.56936 19.7912 8.51862 19.726 8.49009C19.6607 8.46155 19.5875 8.45706 19.5193 8.47742C17.1333 9.18591 15.0687 10.7037 13.6807 12.7698C14.0115 10.5636 14.898 8.47772 16.257 6.70848L17.3247 5.30942C17.3679 5.25267 17.3896 5.18238 17.3858 5.11112C17.3821 5.03986 17.3531 4.97227 17.304 4.92041C17.255 4.86855 17.1891 4.83582 17.1182 4.82805C17.0473 4.82028 16.9759 4.83799 16.9168 4.87801C14.8385 6.27986 13.1666 8.20503 12.0699 10.4593C11.4495 7.46742 10.2348 4.63054 8.49767 2.11684C8.01305 1.41653 7.48938 0.744063 6.92914 0.102634C6.88183 0.0481351 6.81651 0.0124624 6.74508 0.00212551C6.67366 -0.00821136 6.6009 0.00747679 6.54008 0.0463272C6.47926 0.0851776 6.43444 0.1446 6.41379 0.213752C6.39315 0.282903 6.39805 0.357173 6.42761 0.423009L7.52761 2.88546C8.43825 4.9212 9.03485 7.08328 9.29706 9.29795C8.22631 7.53871 6.78865 6.03117 5.08217 4.87818C5.02309 4.83816 4.9517 4.82046 4.88076 4.82822C4.80983 4.83599 4.74396 4.86873 4.69494 4.92058C4.64591 4.97244 4.61692 5.04003 4.61314 5.11129C4.60936 5.18256 4.63105 5.25284 4.67431 5.30959L5.742 6.70865C7.10091 8.47784 7.98746 10.5636 8.31824 12.7698C6.93032 10.7036 4.86574 9.18566 2.47964 8.47707C2.41142 8.45663 2.33816 8.46106 2.27289 8.48958C2.20763 8.51809 2.15461 8.56883 2.12325 8.63278C2.0919 8.69673 2.08425 8.76972 2.10167 8.83878C2.11909 8.90783 2.16045 8.96847 2.21839 9.00988L2.54134 9.23985C3.78388 10.1271 4.81037 11.2832 5.54445 12.622C6.27853 13.9607 6.70131 15.4478 6.78133 16.9725C5.68577 15.0277 3.94987 13.5228 1.86931 12.7141L0.408376 12.1511C0.342251 12.1256 0.26926 12.1243 0.202271 12.1474C0.135282 12.1705 0.078596 12.2165 0.0422066 12.2773C0.00581727 12.3381 -0.00793892 12.4098 0.00336324 12.4797C0.0146654 12.5497 0.0503002 12.6134 0.103985 12.6596L1.78699 14.1082C2.77241 14.9553 3.56314 16.0053 4.10504 17.1863C4.64693 18.3674 4.92719 19.6516 4.92663 20.9511V21.3979H2.99303C2.95353 21.3979 2.91442 21.4057 2.87793 21.4208C2.84144 21.436 2.80828 21.4581 2.78035 21.486C2.75242 21.514 2.73026 21.5471 2.71515 21.5836C2.70003 21.6201 2.69225 21.6592 2.69225 21.6987C2.69225 21.7382 2.70003 21.7773 2.71515 21.8138C2.73026 21.8503 2.75242 21.8835 2.78035 21.9114C2.80828 21.9393 2.84144 21.9615 2.87793 21.9766C2.91442 21.9917 2.95353 21.9995 2.99303 21.9995H19.0061C19.0859 21.9995 19.1624 21.9678 19.2188 21.9114C19.2752 21.855 19.3069 21.7785 19.3069 21.6987C19.3069 21.619 19.2752 21.5424 19.2188 21.486C19.1624 21.4296 19.0859 21.3979 19.0061 21.3979H17.0723C17.0505 20.4084 17.1683 19.4208 17.4223 18.4642C17.9072 16.7711 18.8769 15.2569 20.212 14.1082L21.8953 12.6596C21.9489 12.6134 21.9845 12.5497 21.9958 12.4797C22.007 12.4098 21.9932 12.3382 21.9569 12.2774ZM5.52819 21.3979V20.9511C5.52884 19.5651 5.22998 18.1954 4.65208 16.9356C4.07417 15.6759 3.23086 14.5559 2.17989 13.6524L1.81775 13.3408C3.312 13.9583 4.61457 14.9631 5.59121 16.2516C6.56785 17.5401 7.18324 19.0657 7.37395 20.6713C7.40157 20.9128 7.4195 21.1551 7.42775 21.3981L5.52819 21.3979ZM9.52583 21.3979H8.03155C8.02948 21.328 8.0245 21.2579 8.02072 21.1879C7.96866 20.1838 7.75875 19.1942 7.3987 18.2554V17.4964C7.39735 16.0645 7.11026 14.6473 6.55426 13.3278C5.99827 12.0082 5.18454 10.8129 4.16075 9.81185C6.03471 10.8124 7.54643 12.3771 8.48186 14.2844C9.16868 15.678 9.52587 17.2109 9.52583 18.7646V21.3979ZM10.6989 21.3979H10.1272V20.1513C10.1272 19.6884 10.1272 19.2256 10.1272 18.7628V18.7616C10.1272 18.5553 10.1195 18.3515 10.1081 18.1481V18.1466C10.0308 16.7204 9.66988 15.3239 9.04647 14.0388C8.92393 11.484 8.08742 9.01483 6.63197 6.91163C9.04554 9.2347 10.4918 12.3842 10.6808 15.7288C10.6923 15.9537 10.698 16.1789 10.698 16.4043L10.6989 21.3979ZM10.0186 10.6429C9.86563 7.87912 9.20778 5.16676 8.07761 2.64002L7.98342 2.42879C8.54281 3.23416 9.04809 4.07579 9.49592 4.94813C10.092 6.11066 10.5844 7.32353 10.9672 8.57263C11.2551 9.50952 11.4806 10.4644 11.6425 11.4311C11.3711 12.1219 11.156 12.8336 10.9995 13.5591C10.7831 12.5532 10.4541 11.575 10.0186 10.6429ZM11.8718 21.3979H11.3003V16.405C11.3029 14.8206 11.5941 13.25 12.1596 11.77C12.862 9.93631 13.9566 8.27822 15.3668 6.91181C13.9115 9.01493 13.0751 11.484 12.9525 14.0386C12.3345 15.3126 11.9746 16.6962 11.8932 18.1098C11.8259 19.201 11.8718 20.305 11.8718 21.3979ZM13.9674 21.3979H12.4733V18.7616C12.4737 18.3665 12.4967 17.9718 12.5421 17.5794C12.7348 15.9541 13.3169 14.3994 14.239 13.0472C15.161 11.695 16.3958 10.5853 17.8384 9.81237C16.8146 10.8134 16.0009 12.0086 15.4449 13.328C14.8889 14.6475 14.6017 16.0646 14.6003 17.4964V18.2547C14.2402 19.1935 14.0303 20.1832 13.9783 21.1874C13.9745 21.2579 13.9695 21.328 13.9674 21.3979ZM19.8193 13.6524C17.9625 15.2577 16.7845 17.508 16.5232 19.9485C16.4811 20.4305 16.4639 20.9144 16.4716 21.3981H14.5712C14.5792 21.1549 14.5972 20.9123 14.6252 20.6704C14.816 19.065 15.4315 17.5396 16.4081 16.2512C17.3848 14.9629 18.6873 13.9582 20.1814 13.3408L19.8193 13.6524Z" stroke-width="0.1"></path>
	</symbol>
	<symbol id="investments-business" viewBox="0 0 23 20">
		<path d="M21.9999 4.73153C21.9999 4.24311 21.6039 3.84717 21.1155 3.84717H1.88436C1.39594 3.84717 1 4.24311 1 4.73153V17.7802C1 18.5388 1.61501 19.1538 2.37367 19.1538H20.6262C21.3848 19.1538 21.9999 18.5388 21.9999 17.7802V4.73153H21.9999Z" stroke-miterlimit="10" stroke-linecap="round" stroke-linejoin="round"></path>
		<path d="M14.3872 3.8466H8.61182V1.79321C8.61182 1.35513 8.96695 1 9.40503 1H13.5939C14.032 1 14.3872 1.35513 14.3872 1.79321V3.8466Z" stroke-miterlimit="10" stroke-linecap="round" stroke-linejoin="round"></path>
		<path d="M18.5542 19.1519V6.82324" stroke-miterlimit="10" stroke-linecap="round" stroke-linejoin="round"></path>
		<path d="M4.44434 19.1519V6.82324" stroke-miterlimit="10" stroke-linecap="round" stroke-linejoin="round"></path>
		<path d="M13.3687 8.59066C17.9317 7.85129 22.0005 4.73193 22.0005 4.73193" stroke-miterlimit="10" stroke-linecap="round" stroke-linejoin="round"></path>
		<path d="M1.00195 4.73193C1.00195 4.73193 5.07505 7.85129 9.6294 8.59066" stroke-miterlimit="10" stroke-linecap="round" stroke-linejoin="round"></path>
		<path d="M13.414 8.75277C13.414 9.25881 12.5566 9.6657 11.5022 9.6657C10.4434 9.6657 9.58594 9.25881 9.58594 8.75277C9.58594 8.68499 9.59908 8.62236 9.6297 8.55976C9.81782 8.14765 10.5834 7.83984 11.5022 7.83984C12.4166 7.83984 13.1822 8.14765 13.3703 8.55976C13.4009 8.62236 13.414 8.68499 13.414 8.75277Z" stroke-miterlimit="10" stroke-linecap="round" stroke-linejoin="round"></path>
	</symbol>
	<symbol id="investments-franchising" viewBox="0 0 22 22">
		<path d="M2.49186 12.7021C2.70877 12.7021 2.88464 12.5262 2.88464 12.3093C2.87918 9.84465 3.99734 7.51195 5.92207 5.97254C6.08652 5.85446 6.12416 5.62541 6.00608 5.46097C5.9964 5.44749 5.98583 5.43471 5.97445 5.42268C5.83647 5.25754 5.59124 5.23418 5.42459 5.37031C3.32218 7.06008 2.09922 9.61195 2.09912 12.3093C2.09907 12.5262 2.27494 12.7021 2.49186 12.7021Z"></path>
		<path d="M13.5944 20.0075C11.9189 20.5571 10.1116 20.5571 8.43604 20.0075C8.22964 19.9407 8.00822 20.0538 7.94136 20.2601C7.94036 20.2632 7.9394 20.2662 7.9385 20.2693C7.88502 20.4778 7.99824 20.6929 8.20032 20.7668C9.10518 21.061 10.0506 21.2112 11.0021 21.212C11.9729 21.2129 12.9373 21.0537 13.8562 20.7407C14.049 20.6411 14.1245 20.4042 14.025 20.2115C13.9438 20.0542 13.7675 19.9707 13.5944 20.0075Z"></path>
		<path d="M19.1193 12.309C19.1193 12.5259 19.2952 12.7018 19.5121 12.7018C19.729 12.7018 19.9049 12.5259 19.9049 12.309C19.8977 9.41589 18.4932 6.70454 16.1343 5.0296C15.9511 4.91899 15.7141 4.96415 15.5844 5.13435C15.461 5.31277 15.5057 5.55741 15.6841 5.6808C15.6857 5.68195 15.6874 5.68311 15.6892 5.68426C17.8363 7.20809 19.1141 9.67606 19.1193 12.309Z"></path>
		<path d="M13.0966 2.83021V2.35889H12.311V2.83021C12.311 3.04712 12.4869 3.22299 12.7038 3.22299C12.9207 3.22299 13.0966 3.04717 13.0966 2.83021Z"></path>
		<path d="M9.69275 2.83021V2.35889H8.90723V2.83021C8.90723 3.04712 9.08309 3.22299 9.30001 3.22299C9.51688 3.22299 9.69275 3.04717 9.69275 2.83021Z"></path>
		<path d="M11.5259 2.83021V2.35889H10.4785V2.83021C10.4785 3.06587 10.7927 3.24916 11.0022 3.24916C11.2117 3.24916 11.5259 3.06587 11.5259 2.83021Z"></path>
		<path d="M13.8817 1.57327V0.630628C13.8817 0.525879 13.777 0.525879 13.646 0.525879H8.35676C8.25201 0.525879 8.12109 0.525879 8.12109 0.630628V1.57327H8.61863H13.8817Z"></path>
		<path d="M7.96411 2.9088C8.06886 2.9088 8.12123 2.83026 8.12123 2.6993V2.35889H7.85941V2.6993C7.84643 2.76525 7.86593 2.83342 7.91178 2.88258C7.93795 2.88258 7.91178 2.88258 7.93795 2.90875H7.96411V2.9088Z"></path>
		<path d="M14.1447 2.35889H13.8828V2.75167C13.8665 2.82209 13.9103 2.89246 13.9808 2.90879C14.0002 2.91331 14.0205 2.91331 14.0399 2.90879H14.0661C14.0661 2.90879 14.0399 2.88263 14.0661 2.88263C14.1215 2.83873 14.1511 2.76976 14.1447 2.69935V2.35889Z"></path>
		<path d="M13.646 7.3341C13.777 7.3341 13.8817 7.3341 13.8817 7.22935V3.69439C13.7526 3.69123 13.6264 3.65514 13.5151 3.58964C13.2905 3.8663 12.9549 4.02928 12.5986 4.0348C12.307 4.03094 12.027 3.91897 11.8131 3.7206C11.5886 3.91867 11.3008 4.03009 11.0014 4.0348C10.7097 4.03094 10.4298 3.91897 10.2159 3.7206C9.99134 3.91867 9.70351 4.03009 9.40415 4.0348C9.04148 4.03069 8.70198 3.85607 8.48767 3.56348C8.38292 3.64201 8.38292 3.66823 8.12109 3.69439V7.22935C8.12109 7.3341 8.25201 7.3341 8.35676 7.3341H9.16849V5.31785C9.16849 5.10835 9.24702 4.97744 9.45652 4.97744H12.5725C12.782 4.97744 12.8343 5.10835 12.8343 5.31785V7.3341H13.646Z"></path>
		<path d="M12.0494 5.7627H9.95459V7.33378H12.0494V5.7627Z"></path>
		<path d="M4.84884 17.3888C5.06992 17.375 5.24203 17.1914 5.24163 16.9699V16.4985H4.45606V16.9699C4.4556 17.1914 4.62771 17.375 4.84884 17.3888Z"></path>
		<path d="M3.14674 17.3888C3.35624 17.3888 3.67044 17.2055 3.67044 16.9699V16.4985H2.62305V16.9699C2.62305 17.2055 2.9373 17.3888 3.14674 17.3888Z"></path>
		<path d="M6.02676 15.7129V14.7703C6.02676 14.6655 5.92202 14.6655 5.7911 14.6655H0.501774C0.397025 14.6655 0.266113 14.6655 0.266113 14.7703V15.7129H0.763647H6.02676Z"></path>
		<path d="M4.74367 18.1744C4.45197 18.1706 4.17206 18.0586 3.95815 17.8602C3.73361 18.0583 3.44578 18.1697 3.14642 18.1744C2.85472 18.1706 2.57481 18.0586 2.3609 17.8602C2.13636 18.0583 1.84853 18.1697 1.54917 18.1744C1.1865 18.1703 0.846995 17.9957 0.632686 17.7031C0.527936 17.7817 0.527936 17.8079 0.266113 17.834V21.369C0.266113 21.4737 0.397025 21.4737 0.501774 21.4737H1.31351V19.4575C1.31351 19.248 1.39204 19.1171 1.60154 19.1171H4.71751C4.927 19.1171 4.97933 19.248 4.97933 19.4575V21.4737H5.79106C5.92197 21.4737 6.02672 21.4737 6.02672 21.369V17.834C5.89761 17.8309 5.77141 17.7948 5.66015 17.7293C5.43551 18.0059 5.09997 18.1689 4.74367 18.1744Z"></path>
		<path d="M1.44454 17.3888C1.66562 17.375 1.83773 17.1914 1.83733 16.9699V16.4985H1.05176V16.9699C1.05136 17.1914 1.22347 17.375 1.44454 17.3888Z"></path>
		<path d="M4.19342 19.9028H2.09863V21.4739H4.19342V19.9028Z"></path>
		<path d="M6.28819 16.4985H6.02636V16.8913C6.01003 16.9617 6.05388 17.0321 6.12435 17.0484C6.14379 17.053 6.16404 17.053 6.18349 17.0484H6.20965C6.20965 17.0484 6.18349 17.0223 6.20965 17.0223C6.26508 16.9784 6.29465 16.9094 6.28819 16.839V16.4985Z"></path>
		<path d="M0.266253 16.4985H0.00442978V16.8389C-0.00855111 16.9049 0.0109453 16.9731 0.0568044 17.0222H0.109179C0.213928 17.0222 0.266303 16.9437 0.266303 16.8127V16.4985H0.266253Z"></path>
		<path d="M18.8572 17.3888C19.0667 17.3888 19.3809 17.2055 19.3809 16.9699V16.4985H18.3335V16.9699C18.3335 17.2055 18.6477 17.3888 18.8572 17.3888Z"></path>
		<path d="M17.1559 17.3888C17.377 17.375 17.5491 17.1914 17.5487 16.9699V16.4985H16.7632V16.9699C16.7627 17.1914 16.9348 17.375 17.1559 17.3888Z"></path>
		<path d="M20.4551 18.1744C20.1634 18.1706 19.8835 18.0586 19.6696 17.8602C19.445 18.0583 19.1572 18.1697 18.8578 18.1744C18.5661 18.1706 18.2862 18.0586 18.0723 17.8602C17.8478 18.0583 17.56 18.1697 17.2606 18.1744C16.8979 18.1703 16.5584 17.9957 16.3441 17.7031C16.2394 17.7817 16.2394 17.8079 15.9775 17.834V21.369C15.9775 21.4737 16.1085 21.4737 16.2132 21.4737H17.0249V19.4575C17.0249 19.248 17.1035 19.1171 17.313 19.1171H20.4289C20.6384 19.1171 20.6908 19.248 20.6908 19.4575V21.4737H21.5025C21.6334 21.4737 21.7381 21.4737 21.7381 21.369V17.834C21.609 17.8309 21.4828 17.7948 21.3716 17.7293C21.1469 18.0059 20.8114 18.1689 20.4551 18.1744Z"></path>
		<path d="M15.7154 16.4985V16.8389C15.7024 16.9049 15.7219 16.9731 15.7677 17.0222H15.8201C15.9249 17.0222 15.9772 16.9437 15.9772 16.8127V16.4985H15.7154Z"></path>
		<path d="M15.9771 14.7703V15.7129H21.7377V14.7703C21.7377 14.6655 21.633 14.6655 21.502 14.6655H16.2127C16.108 14.6655 15.9771 14.6655 15.9771 14.7703Z"></path>
		<path d="M20.5597 17.3888C20.7808 17.375 20.9529 17.1914 20.9525 16.9699V16.4985H20.167V16.9699C20.1665 17.1914 20.3386 17.375 20.5597 17.3888Z"></path>
		<path d="M19.9048 19.9028H17.8101V21.4739H19.9048V19.9028Z"></path>
		<path d="M21.9996 16.8389V16.4985H21.7378V16.8913C21.7215 16.9617 21.7653 17.0321 21.8358 17.0484C21.8552 17.053 21.8755 17.053 21.8949 17.0484H21.9211C21.9211 17.0484 21.8949 17.0223 21.9211 17.0223C21.9765 16.9783 22.006 16.9094 21.9996 16.8389Z"></path>
	</symbol>
	<symbol id="investments-offer" viewBox="0 0 23 26">
		<path d="M6.76574 9.71729H4.08496V16.3883H6.76574V9.71729Z" stroke-miterlimit="10" stroke-linecap="round" stroke-linejoin="round"></path>
		<path d="M12.8404 7.54834H10.1597V16.3889H12.8404V7.54834Z" stroke-miterlimit="10" stroke-linecap="round" stroke-linejoin="round"></path>
		<path d="M18.9147 5.10742H16.2339V16.3887H18.9147V5.10742Z" stroke-miterlimit="10" stroke-linecap="round" stroke-linejoin="round"></path>
		<path d="M20.7345 16.3884H2.26549C1.56658 16.3884 1 15.8218 1 15.1229V2.26549C1 1.56658 1.56658 1 2.26549 1H20.7345C21.4334 1 22 1.56658 22 2.26549V15.1229C22 15.8218 21.4334 16.3884 20.7345 16.3884Z" stroke-miterlimit="10" stroke-linecap="round" stroke-linejoin="round"></path>
		<path d="M18.2531 24.703L13.8428 16.3901" stroke-miterlimit="10" stroke-linecap="round" stroke-linejoin="round"></path>
		<path d="M9.15686 16.3901L4.74658 24.703" stroke-miterlimit="10" stroke-linecap="round" stroke-linejoin="round"></path>
		<path d="M11.501 16.3887V24.7029" stroke-miterlimit="10" stroke-linecap="round" stroke-linejoin="round"></path>
		<path d="M6.76574 9.71729H4.08496V16.3883H6.76574V9.71729Z" stroke-miterlimit="10" stroke-linecap="round" stroke-linejoin="round"></path>
		<path d="M12.8404 7.54785H10.1597V16.3884H12.8404V7.54785Z" stroke-miterlimit="10" stroke-linecap="round" stroke-linejoin="round"></path>
		<path d="M18.9147 5.10742H16.2339V16.3887H18.9147V5.10742Z" stroke-miterlimit="10" stroke-linecap="round" stroke-linejoin="round"></path>
		<path d="M20.7345 16.3884H2.26549C1.56658 16.3884 1 15.8218 1 15.1229V2.26549C1 1.56658 1.56658 1 2.26549 1H20.7345C21.4334 1 22 1.56658 22 2.26549V15.1229C22 15.8218 21.4334 16.3884 20.7345 16.3884Z" stroke-miterlimit="10" stroke-linecap="round" stroke-linejoin="round"></path>
		<path d="M18.2531 24.7026L13.8428 16.3896" stroke-miterlimit="10" stroke-linecap="round" stroke-linejoin="round"></path>
		<path d="M9.15784 16.3896L4.74756 24.7026" stroke-miterlimit="10" stroke-linecap="round" stroke-linejoin="round"></path>
		<path d="M11.501 16.3887V24.7029" stroke-miterlimit="10" stroke-linecap="round" stroke-linejoin="round"></path>
	</symbol>
	<symbol id="investments-realestate" viewBox="0 0 24 24">
		<path fill-rule="evenodd" clip-rule="evenodd" d="M21.6667 22.3333H22.6667C22.8508 22.3333 23 22.4826 23 22.6667C23 22.8508 22.8508 23 22.6667 23H1.33333C1.14924 23 1 22.8508 1 22.6667C1 22.4826 1.14924 22.3333 1.33333 22.3333H2.33333V7.66667C2.33333 7.48257 2.48257 7.33333 2.66667 7.33333H9V1.33333C9 1.14924 9.14924 1 9.33333 1H21.3333C21.5174 1 21.6667 1.14924 21.6667 1.33333V22.3333ZM18.3333 22.3333H21V1.66667H9.66667V22.3333H12.3333V17.3333C12.3333 17.1492 12.4826 17 12.6667 17H18C18.1841 17 18.3333 17.1492 18.3333 17.3333V22.3333ZM3 22.3333H9V8H3V22.3333ZM15.6667 22.3333H17.6667V17.6667H15.6667V22.3333ZM13 22.3333H15V17.6667H13V22.3333ZM7.33333 14C7.51743 14 7.66667 14.1492 7.66667 14.3333C7.66667 14.5174 7.51743 14.6667 7.33333 14.6667H4.66667C4.48257 14.6667 4.33333 14.5174 4.33333 14.3333C4.33333 14.1492 4.48257 14 4.66667 14H7.33333ZM7.33333 17.3333C7.51743 17.3333 7.66667 17.4826 7.66667 17.6667C7.66667 17.8508 7.51743 18 7.33333 18H4.66667C4.48257 18 4.33333 17.8508 4.33333 17.6667C4.33333 17.4826 4.48257 17.3333 4.66667 17.3333H7.33333ZM7.33333 10.6667C7.51743 10.6667 7.66667 10.8159 7.66667 11C7.66667 11.1841 7.51743 11.3333 7.33333 11.3333H4.66667C4.48257 11.3333 4.33333 11.1841 4.33333 11C4.33333 10.8159 4.48257 10.6667 4.66667 10.6667H7.33333ZM14 14C14.1841 14 14.3333 14.1492 14.3333 14.3333C14.3333 14.5174 14.1841 14.6667 14 14.6667H12C11.8159 14.6667 11.6667 14.5174 11.6667 14.3333C11.6667 14.1492 11.8159 14 12 14H14ZM18.6667 14C18.8508 14 19 14.1492 19 14.3333C19 14.5174 18.8508 14.6667 18.6667 14.6667H16.6667C16.4826 14.6667 16.3333 14.5174 16.3333 14.3333C16.3333 14.1492 16.4826 14 16.6667 14H18.6667ZM14 10.6667C14.1841 10.6667 14.3333 10.8159 14.3333 11C14.3333 11.1841 14.1841 11.3333 14 11.3333H12C11.8159 11.3333 11.6667 11.1841 11.6667 11C11.6667 10.8159 11.8159 10.6667 12 10.6667H14ZM18.6667 10.6667C18.8508 10.6667 19 10.8159 19 11C19 11.1841 18.8508 11.3333 18.6667 11.3333H16.6667C16.4826 11.3333 16.3333 11.1841 16.3333 11C16.3333 10.8159 16.4826 10.6667 16.6667 10.6667H18.6667ZM14 7.33333C14.1841 7.33333 14.3333 7.48257 14.3333 7.66667C14.3333 7.85076 14.1841 8 14 8H12C11.8159 8 11.6667 7.85076 11.6667 7.66667C11.6667 7.48257 11.8159 7.33333 12 7.33333H14ZM18.6667 7.33333C18.8508 7.33333 19 7.48257 19 7.66667C19 7.85076 18.8508 8 18.6667 8H16.6667C16.4826 8 16.3333 7.85076 16.3333 7.66667C16.3333 7.48257 16.4826 7.33333 16.6667 7.33333H18.6667ZM14 4C14.1841 4 14.3333 4.14924 14.3333 4.33333C14.3333 4.51743 14.1841 4.66667 14 4.66667H12C11.8159 4.66667 11.6667 4.51743 11.6667 4.33333C11.6667 4.14924 11.8159 4 12 4H14ZM18.6667 4C18.8508 4 19 4.14924 19 4.33333C19 4.51743 18.8508 4.66667 18.6667 4.66667H16.6667C16.4826 4.66667 16.3333 4.51743 16.3333 4.33333C16.3333 4.14924 16.4826 4 16.6667 4H18.6667Z" stroke-width="0.3"></path>
	</symbol>
	<symbol id="add-inv-prop" viewBox="0 0 23 20">
		<path d="M15.0091 14.4555C15.2743 14.7956 15.6033 15.0986 15.9881 15.3434C16.4452 15.6343 16.94 15.8155 17.4436 15.9031C18.9444 16.1518 20.5184 15.5077 21.3863 14.1439C22.5481 12.3224 22.0107 9.90379 20.1867 8.74573C18.3659 7.58697 15.9504 8.1237 14.7885 9.94524C13.8746 11.3813 14.0145 13.1884 15.0091 14.4555Z" stroke-miterlimit="10" stroke-linecap="round" stroke-linejoin="round"></path>
		<path d="M13.7246 18.8317C14.3836 19.2511 15.2569 19.0603 15.6794 18.4006L17.4431 15.9031C16.9396 15.8155 16.4447 15.6344 15.9876 15.3435C15.6029 15.0987 15.2739 14.7956 15.0086 14.4556L13.2879 16.8813C12.8685 17.5403 13.0655 18.4123 13.7246 18.8317Z" stroke-miterlimit="10" stroke-linecap="round" stroke-linejoin="round"></path>
		<path d="M15.0116 14.4517L15.0093 14.4553" stroke-miterlimit="10" stroke-linecap="round" stroke-linejoin="round"></path>
		<path d="M20.1055 8.69272V1.59925C20.1055 1.26856 19.8374 1.00049 19.5067 1.00049H1.59925C1.26856 1.00049 1.00049 1.26856 1.00049 1.59925V12.0935C1.00049 12.4242 1.26856 12.6923 1.59925 12.6923H14.2317" stroke-miterlimit="10" stroke-linecap="round" stroke-linejoin="round"></path>
		<path d="M16.3306 1C16.3306 3.08467 18.0205 4.77463 20.1052 4.77463" stroke-miterlimit="10" stroke-linecap="round" stroke-linejoin="round"></path>
		<path d="M1 4.77512C3.08467 4.77512 4.77463 3.08516 4.77463 1.00049" stroke-miterlimit="10" stroke-linecap="round" stroke-linejoin="round"></path>
		<path d="M4.77463 12.6906C4.77463 10.606 3.08467 8.91602 1 8.91602" stroke-miterlimit="10" stroke-linecap="round" stroke-linejoin="round"></path>
		<path d="M10.5526 10.6292C12.6422 10.6292 14.3362 8.9352 14.3362 6.84559C14.3362 4.75598 12.6422 3.06201 10.5526 3.06201C8.46301 3.06201 6.76904 4.75598 6.76904 6.84559C6.76904 8.9352 8.46301 10.6292 10.5526 10.6292Z" stroke-miterlimit="10" stroke-linecap="round" stroke-linejoin="round"></path>
		<path d="M11.5901 5.80784C11.5901 5.23488 11.1248 4.77393 10.5519 4.77393C9.97891 4.77393 9.51367 5.23488 9.51367 5.80784C9.51367 6.3808 9.97891 6.84604 10.5519 6.84604" stroke-miterlimit="10" stroke-linecap="round" stroke-linejoin="round"></path>
		<path d="M9.51367 7.88393C9.51367 8.45258 9.97891 8.91784 10.5519 8.91784C11.1248 8.91784 11.5901 8.45258 11.5901 7.88393C11.5901 7.31097 11.1248 6.8457 10.5519 6.8457" stroke-miterlimit="10" stroke-linecap="round" stroke-linejoin="round"></path>
		<path d="M10.5522 8.91797V9.44352" stroke-miterlimit="10" stroke-linecap="round" stroke-linejoin="round"></path>
		<path d="M10.5522 4.24805V4.7736" stroke-miterlimit="10" stroke-linecap="round" stroke-linejoin="round"></path>
	</symbol>
	<symbol id="investor" viewBox="0 0 23 23">
		<path d="M8.58089 15.2091L4.38801 19.1224C4.35416 19.154 4.32731 19.1915 4.309 19.2328C4.29068 19.274 4.28125 19.3183 4.28125 19.3629C4.28125 19.4076 4.29068 19.4518 4.309 19.4931C4.32731 19.5344 4.35416 19.5719 4.38801 19.6035C4.42185 19.6351 4.46204 19.6601 4.50626 19.6772C4.55048 19.6943 4.59788 19.7031 4.64575 19.7031C4.69361 19.7031 4.74101 19.6943 4.78523 19.6772C4.82945 19.6601 4.86964 19.6351 4.90348 19.6035L9.09637 15.6901C9.16472 15.6263 9.20312 15.5398 9.20312 15.4496C9.20312 15.3593 9.16472 15.2728 9.09637 15.209C9.06252 15.1774 9.02234 15.1524 8.97812 15.1353C8.93389 15.1182 8.8865 15.1094 8.83863 15.1094C8.74196 15.1094 8.64925 15.1452 8.58089 15.209V15.2091Z" stroke-width="0.2"></path>
		<path d="M7.791 13.9036C7.75941 13.8698 7.72191 13.8429 7.68064 13.8246C7.63936 13.8063 7.59513 13.7969 7.55045 13.7969C7.50578 13.7969 7.46154 13.8063 7.42027 13.8246C7.37899 13.8429 7.34149 13.8698 7.3099 13.9036L3.39651 18.0965C3.33272 18.1649 3.29688 18.2576 3.29688 18.3543C3.29688 18.4509 3.33272 18.5436 3.39651 18.612C3.46031 18.6803 3.54684 18.7188 3.63706 18.7188C3.72729 18.7188 3.81382 18.6803 3.87761 18.612L7.79095 14.4191C7.82255 14.3853 7.84761 14.3451 7.86471 14.3009C7.88182 14.2567 7.89062 14.2093 7.89062 14.1614C7.89063 14.1135 7.88183 14.0661 7.86474 14.0219C7.84765 13.9777 7.82259 13.9375 7.791 13.9036Z" stroke-width="0.2"></path>
		<path d="M3.47846 5.8582L1.82832 4.1965C1.78677 4.15468 1.73522 4.12418 1.67857 4.10788C1.62192 4.09158 1.56205 4.09003 1.50463 4.10338C1.44721 4.11673 1.39416 4.14453 1.35051 4.18414C1.30685 4.22376 1.27405 4.27387 1.25521 4.32972C0.957788 5.21404 0.919468 6.16497 1.14477 7.07035C1.37007 7.97574 1.84959 8.79781 2.52677 9.4396C3.20395 10.0814 4.05055 10.5161 4.96671 10.6926C5.88286 10.869 6.83037 10.7797 7.69746 10.4353L8.40798 11.1458L7.58042 11.5987C7.55162 11.6145 7.52521 11.6342 7.50196 11.6574L1.88516 17.274C1.5032 17.6569 1.2887 18.1757 1.2887 18.7166C1.2887 19.2575 1.5032 19.7762 1.88516 20.1592L2.84382 21.1179C3.22676 21.4998 3.74555 21.7143 4.28641 21.7143C4.82728 21.7143 5.34607 21.4998 5.729 21.1179L11.3457 15.5011C11.3689 15.4779 11.3887 15.4515 11.4044 15.4227L11.8573 14.5951L18.6974 21.4353C19.0607 21.7974 19.5528 22.0004 20.0657 22C20.5786 21.9996 21.0703 21.7956 21.433 21.433C21.7956 21.0703 21.9996 20.5786 22 20.0657C22.0004 19.5528 21.7974 19.0607 21.4353 18.6974L13.9957 11.2577L14.6555 10.5978C14.6876 10.5658 14.7131 10.5277 14.7304 10.4858C14.7478 10.4439 14.7567 10.3989 14.7567 10.3536C14.7567 10.3082 14.7478 10.2633 14.7304 10.2214C14.7131 10.1795 14.6876 10.1414 14.6555 10.1093L14.5056 9.95944L18.981 5.48409L20.1146 5.08205C20.1914 5.05478 20.2561 5.00124 20.2972 4.93091L21.668 2.58646C21.7065 2.52054 21.7221 2.4437 21.7124 2.36797C21.7026 2.29224 21.668 2.22187 21.614 2.16789L20.8352 1.38877C20.7812 1.33479 20.7108 1.30022 20.6351 1.29046C20.5594 1.2807 20.4826 1.29631 20.4167 1.33484L18.0723 2.70562C18.0019 2.74674 17.9484 2.8114 17.9211 2.88819L17.5188 4.02192L13.0434 8.49728L12.8935 8.34742C12.8615 8.31535 12.8234 8.2899 12.7815 8.27254C12.7396 8.25518 12.6946 8.24625 12.6493 8.24625C12.6039 8.24625 12.559 8.25518 12.5171 8.27254C12.4752 8.2899 12.4371 8.31535 12.405 8.34742L11.7452 9.00733L10.4354 7.69719C10.7794 6.83074 10.8688 5.884 10.6928 4.96847C10.5169 4.05295 10.083 3.20677 9.44221 2.52959C8.80145 1.85242 7.98053 1.37245 7.07612 1.14622C6.17171 0.919982 5.22149 0.956905 4.33736 1.25264C4.28153 1.27127 4.23139 1.30387 4.19169 1.34733C4.152 1.39079 4.12407 1.44367 4.11055 1.50096C4.09704 1.55824 4.09839 1.61803 4.11447 1.67465C4.13056 1.73127 4.16084 1.78284 4.20246 1.82446L5.91463 3.53664L5.52123 5.49716L3.47846 5.8582ZM10.8222 15.0476L5.24047 20.6293C4.98723 20.882 4.64412 21.0239 4.28639 21.0239C3.92866 21.0239 3.58555 20.882 3.33231 20.6293L2.37369 19.6707C2.12103 19.4175 1.97913 19.0743 1.97913 18.7166C1.97913 18.3589 2.12103 18.0158 2.37369 17.7625L7.95537 12.1808L9.138 11.5336L9.14017 11.5324L10.206 10.9492L12.0539 12.7971L11.4708 13.8629C11.4704 13.8637 11.4699 13.8645 11.4695 13.8654L10.8222 15.0476ZM13.3205 12.1167C13.3529 12.1484 13.3787 12.1863 13.3964 12.228C13.414 12.2698 13.4233 12.3146 13.4235 12.36C13.4237 12.4053 13.415 12.4503 13.3977 12.4922C13.3805 12.5342 13.3551 12.5723 13.323 12.6044C13.291 12.6364 13.2529 12.6618 13.2109 12.6791C13.169 12.6963 13.124 12.7051 13.0787 12.7049C13.0333 12.7046 12.9885 12.6954 12.9467 12.6777C12.9049 12.66 12.8671 12.6343 12.8354 12.6019L10.4012 10.1677C10.3379 10.1031 10.3027 10.0162 10.3032 9.92582C10.3036 9.83545 10.3397 9.74891 10.4036 9.685C10.4675 9.62109 10.5541 9.58498 10.6444 9.58451C10.7348 9.58404 10.8217 9.61924 10.8863 9.68248L13.3205 12.1167ZM20.9468 20.947C20.7132 21.1802 20.3965 21.3112 20.0664 21.3112C19.7363 21.3112 19.4196 21.1802 19.1859 20.947L12.2029 13.9637L12.5839 13.2674C12.681 13.3202 12.7859 13.3569 12.8948 13.376L18.3502 18.8314C18.3822 18.8635 18.4203 18.889 18.4622 18.9063C18.5041 18.9237 18.5491 18.9326 18.5944 18.9326C18.6398 18.9326 18.6847 18.9237 18.7266 18.9063C18.7685 18.889 18.8066 18.8635 18.8387 18.8314C18.8707 18.7994 18.8962 18.7613 18.9135 18.7194C18.9309 18.6775 18.9398 18.6326 18.9398 18.5872C18.9398 18.5418 18.9309 18.4969 18.9135 18.455C18.8962 18.4131 18.8707 18.375 18.8387 18.3429L13.6881 13.1925C13.7309 13.1615 13.7714 13.1273 13.809 13.0902C13.9061 12.9931 13.9828 12.8776 14.0346 12.7505C14.0864 12.6234 14.1124 12.4873 14.1108 12.35L20.9468 19.1859C21.18 19.4196 21.311 19.7362 21.311 20.0664C21.311 20.3965 21.18 20.7132 20.9468 20.9468V20.947ZM18.0625 4.4554C18.0988 4.41905 18.1265 4.37508 18.1437 4.32666L18.5299 3.23832L20.5352 2.06575L20.9372 2.46769L19.7647 4.47306L18.6763 4.85922C18.6279 4.87641 18.5839 4.90419 18.5476 4.94053L14.0171 9.471L13.532 8.98581L18.0625 4.4554ZM12.6496 9.08021L13.923 10.3536L13.3838 10.893L12.1103 9.61952L12.6496 9.08021ZM6.15236 5.86417L6.62826 3.49105C6.63945 3.43527 6.63669 3.37759 6.62022 3.32314C6.60376 3.26869 6.5741 3.21914 6.53387 3.17891L5.11662 1.7618C5.78776 1.63408 6.47999 1.67301 7.13258 1.87518C7.78516 2.07735 8.37817 2.43657 8.85956 2.92134C9.46258 3.52779 9.86701 4.30321 10.0192 5.14478C10.1714 5.98634 10.0642 6.8543 9.7118 7.63354C9.68258 7.69758 9.67362 7.76901 9.68613 7.83828C9.69863 7.90755 9.732 7.97134 9.78177 8.02112L10.653 8.89231C10.5157 8.8908 10.3796 8.91672 10.2525 8.96856C10.1254 9.0204 10.0099 9.09711 9.91287 9.19419C9.87574 9.23183 9.84153 9.27225 9.81053 9.31507L9.45315 8.95764C9.38837 8.89286 9.30051 8.85647 9.20891 8.85647C9.1173 8.85647 9.02944 8.89286 8.96466 8.95764C8.89988 9.02242 8.86349 9.11028 8.86349 9.20188C8.86349 9.29349 8.89988 9.38135 8.96466 9.44613L9.62688 10.1084C9.64602 10.2172 9.68268 10.3221 9.73543 10.4192L9.03932 10.8001L8.02099 9.7819C7.97122 9.73213 7.90743 9.69875 7.83816 9.68624C7.76889 9.67372 7.69745 9.68267 7.63341 9.71189C6.85417 10.0643 5.98622 10.1715 5.14465 10.0193C4.30309 9.86706 3.52768 9.46262 2.92124 8.8596C2.43574 8.37753 2.07618 7.78351 1.87419 7.12983C1.6722 6.47615 1.63398 5.78284 1.76289 5.11091L3.1158 6.47315C3.15507 6.51273 3.20335 6.5422 3.25649 6.55904C3.30964 6.57589 3.36608 6.5796 3.42098 6.56986L5.87378 6.13639C5.94221 6.12431 6.0054 6.09186 6.0551 6.0433C6.1048 5.99473 6.1387 5.9323 6.15236 5.86417Z" stroke-width="0.2"></path>
	</symbol>
	<symbol id="news-investments" viewBox="0 0 23 20">
		<path d="M21.9999 4.73104C21.9999 4.24262 21.6039 3.84668 21.1155 3.84668H1.88436C1.39594 3.84668 1 4.24262 1 4.73104V17.7797C1 18.5383 1.61501 19.1533 2.37367 19.1533H20.6262C21.3848 19.1533 21.9999 18.5383 21.9999 17.7797V4.73104H21.9999Z" stroke-miterlimit="10" stroke-linecap="round" stroke-linejoin="round"></path>
		<path d="M14.3867 3.8466H8.61133V1.79321C8.61133 1.35513 8.96646 1 9.40454 1H13.5934C14.0315 1 14.3867 1.35513 14.3867 1.79321V3.8466Z" stroke-miterlimit="10" stroke-linecap="round" stroke-linejoin="round"></path>
		<path d="M18.5537 19.1519V6.82324" stroke-miterlimit="10" stroke-linecap="round" stroke-linejoin="round"></path>
		<path d="M4.44434 19.1519V6.82324" stroke-miterlimit="10" stroke-linecap="round" stroke-linejoin="round"></path>
		<path d="M13.3682 8.59115C17.9313 7.85178 22 4.73242 22 4.73242" stroke-miterlimit="10" stroke-linecap="round" stroke-linejoin="round"></path>
		<path d="M1.00195 4.73242C1.00195 4.73242 5.07505 7.85178 9.6294 8.59115" stroke-miterlimit="10" stroke-linecap="round" stroke-linejoin="round"></path>
		<path d="M13.414 8.75277C13.414 9.25881 12.5566 9.6657 11.5022 9.6657C10.4434 9.6657 9.58594 9.25881 9.58594 8.75277C9.58594 8.68499 9.59908 8.62236 9.6297 8.55976C9.81782 8.14765 10.5834 7.83984 11.5022 7.83984C12.4166 7.83984 13.1822 8.14765 13.3703 8.55976C13.4009 8.62236 13.414 8.68499 13.414 8.75277Z" stroke-miterlimit="10" stroke-linecap="round" stroke-linejoin="round"></path>
	</symbol>
	<symbol id="news-startup" viewBox="0 0 23 20">
		<path d="M14.0278 19.7019L11.5764 22.1533L11.5764 16.5634C9.7327 17.0914 8.13199 16.9405 7.17241 15.9809C6.21283 15.0213 6.06196 13.4206 6.58992 11.5769L1 11.5769L3.45139 9.12553C4.74199 7.83492 6.57319 7.84748 7.85543 8.71069C8.60967 7.41169 9.62794 6.09173 10.8641 4.8556C14.9538 0.765828 21.9894 1.16389 21.9894 1.16389C21.9894 1.16389 22.3875 8.19948 18.2977 12.2893C17.0616 13.5254 15.7416 14.5437 14.4426 15.2979C15.3058 16.5801 15.3184 18.4113 14.0278 19.7019Z" stroke-miterlimit="10" stroke-linecap="round" stroke-linejoin="round"></path>
		<path d="M16.313 8.61714C17.2948 8.61714 18.0908 7.82119 18.0908 6.83933C18.0908 5.85748 17.2948 5.06152 16.313 5.06152C15.3311 5.06152 14.5352 5.85748 14.5352 6.83933C14.5352 7.82119 15.3311 8.61714 16.313 8.61714Z" stroke-miterlimit="10" stroke-linecap="round" stroke-linejoin="round"></path>
		<path d="M6.09824 19.8421C5.32877 20.6116 2.30859 20.8453 2.30859 20.8453C2.30859 20.8453 2.54226 17.8251 3.31174 17.0556C4.08121 16.2861 5.32877 16.2861 6.09824 17.0556C6.86772 17.8251 6.86772 19.0727 6.09824 19.8421Z" stroke-miterlimit="10" stroke-linecap="round" stroke-linejoin="round"></path>
		<path d="M17.7549 1.51172C18.328 3.33609 19.8111 4.75359 21.6705 5.23484" stroke-miterlimit="10" stroke-linecap="round" stroke-linejoin="round"></path>
	</symbol>
	<symbol id="news-government" viewBox="0 0 23 26">
		<path d="M6.76574 9.7168H4.08496V16.3878H6.76574V9.7168Z" stroke-miterlimit="10" stroke-linecap="round" stroke-linejoin="round"></path>
		<path d="M12.8409 7.54785H10.1602V16.3884H12.8409V7.54785Z" stroke-miterlimit="10" stroke-linecap="round" stroke-linejoin="round"></path>
		<path d="M18.9152 5.10742H16.2344V16.3887H18.9152V5.10742Z" stroke-miterlimit="10" stroke-linecap="round" stroke-linejoin="round"></path>
		<path d="M20.7345 16.3884H2.26549C1.56658 16.3884 1 15.8218 1 15.1229V2.26549C1 1.56658 1.56658 1 2.26549 1H20.7345C21.4334 1 22 1.56658 22 2.26549V15.1229C22 15.8218 21.4334 16.3884 20.7345 16.3884Z" stroke-miterlimit="10" stroke-linecap="round" stroke-linejoin="round"></path>
		<path d="M18.2531 24.7026L13.8428 16.3896" stroke-miterlimit="10" stroke-linecap="round" stroke-linejoin="round"></path>
		<path d="M9.15735 16.3896L4.74707 24.7026" stroke-miterlimit="10" stroke-linecap="round" stroke-linejoin="round"></path>
		<path d="M11.501 16.3887V24.7029" stroke-miterlimit="10" stroke-linecap="round" stroke-linejoin="round"></path>
		<path d="M6.76574 9.7168H4.08496V16.3878H6.76574V9.7168Z" stroke-miterlimit="10" stroke-linecap="round" stroke-linejoin="round"></path>
		<path d="M12.8409 7.54785H10.1602V16.3884H12.8409V7.54785Z" stroke-miterlimit="10" stroke-linecap="round" stroke-linejoin="round"></path>
		<path d="M18.9152 5.10742H16.2344V16.3887H18.9152V5.10742Z" stroke-miterlimit="10" stroke-linecap="round" stroke-linejoin="round"></path>
		<path d="M20.7345 16.3884H2.26549C1.56658 16.3884 1 15.8218 1 15.1229V2.26549C1 1.56658 1.56658 1 2.26549 1H20.7345C21.4334 1 22 1.56658 22 2.26549V15.1229C22 15.8218 21.4334 16.3884 20.7345 16.3884Z" stroke-miterlimit="10" stroke-linecap="round" stroke-linejoin="round"></path>
		<path d="M18.2531 24.7026L13.8428 16.3896" stroke-miterlimit="10" stroke-linecap="round" stroke-linejoin="round"></path>
		<path d="M9.15833 16.3896L4.74805 24.7026" stroke-miterlimit="10" stroke-linecap="round" stroke-linejoin="round"></path>
		<path d="M11.501 16.3887V24.7029" stroke-miterlimit="10" stroke-linecap="round" stroke-linejoin="round"></path>
	</symbol>
	<symbol id="news-banking" viewBox="0 0 22 16">
		<path d="M20.7955 0H1.20469C0.540466 0 0 0.540466 0 1.20469V2.40961V5.89657V14.4706C0 15.1348 0.540466 15.6751 1.20469 15.6751H20.7955C21.4598 15.6751 22 15.1348 22 14.4706V5.89657V2.40961V1.20469C22 0.540466 21.4598 0 20.7955 0ZM0.916667 3.32627H21.0833V4.9799H0.916667V3.32627ZM21.0833 14.4706C21.0833 14.6293 20.9544 14.7584 20.7955 14.7584H1.20469C1.0458 14.7584 0.916667 14.6293 0.916667 14.4706V5.89657H21.0833V14.4706ZM0.916667 2.40961V1.20469C0.916667 1.0458 1.0458 0.916667 1.20469 0.916667H20.7955C20.9544 0.916667 21.0833 1.0458 21.0833 1.20469V2.40961H0.916667Z"></path>
		<path d="M7.4364 9.46094H2.58496V10.3776H7.4364V9.46094Z"></path>
		<path d="M10.0723 12.0205H2.58496V12.9372H10.0723V12.0205Z"></path>
		<path d="M15.7886 13.5677C16.188 13.5677 16.5548 13.4351 16.8556 13.2167C17.1623 13.4391 17.5272 13.5677 17.9124 13.5677C18.9191 13.5677 19.7382 12.7486 19.7382 11.7417C19.7382 10.7351 18.9191 9.91602 17.9124 9.91602C17.5274 9.91602 17.1625 10.0446 16.8556 10.267C16.5547 10.0486 16.188 9.91602 15.7886 9.91602C14.782 9.91602 13.9629 10.7351 13.9629 11.7417C13.9629 12.7486 14.782 13.5677 15.7886 13.5677ZM17.9124 10.8327C18.4137 10.8327 18.8215 11.2404 18.8215 11.7417C18.8215 12.243 18.4137 12.651 17.9124 12.651C17.7437 12.651 17.5808 12.6027 17.4393 12.5138C17.4412 12.5099 17.4418 12.5055 17.4436 12.5015C17.4888 12.4036 17.5233 12.3009 17.5506 12.1946C17.5565 12.1722 17.5663 12.1509 17.5713 12.1282C17.5984 12.0033 17.6143 11.8745 17.6143 11.7417C17.6143 11.609 17.5984 11.4802 17.5713 11.3554C17.5663 11.3328 17.5567 11.3117 17.5508 11.2894C17.5234 11.183 17.4888 11.08 17.4436 10.982C17.4417 10.9781 17.4412 10.9738 17.4393 10.9699C17.5808 10.881 17.7437 10.8327 17.9124 10.8327ZM15.7886 10.8327C16.0386 10.8327 16.2652 10.9342 16.4297 11.098L16.4931 11.1769C16.5862 11.293 16.6977 11.4853 16.6977 11.7417C16.6977 11.9982 16.5862 12.1905 16.4931 12.3066L16.4293 12.3859C16.2649 12.5496 16.0384 12.651 15.7886 12.651C15.2873 12.651 14.8796 12.243 14.8796 11.7417C14.8796 11.2404 15.2873 10.8327 15.7886 10.8327Z"></path>
	</symbol>
	<symbol id="news-stock" viewBox="0 0 24 24">
		<path d="M12.0004 10.226C12.3918 10.226 12.7101 10.5443 12.7101 10.9357H13.4198C13.4198 10.276 12.9656 9.72532 12.3552 9.56671V8.80664H11.6456V9.56671C11.0352 9.72532 10.5811 10.276 10.5811 10.9357C10.5811 11.7184 11.2176 12.355 12.0004 12.355C12.3918 12.355 12.7101 12.6733 12.7101 13.0647C12.7101 13.4561 12.3918 13.7744 12.0004 13.7744C11.609 13.7744 11.2907 13.4561 11.2907 13.0647H10.5811C10.5811 13.7244 11.0352 14.2751 11.6456 14.4337V15.1937H12.3552V14.4337C12.9656 14.2751 13.4198 13.7244 13.4198 13.0647C13.4198 12.2819 12.7832 11.6454 12.0004 11.6454C11.609 11.6454 11.2907 11.3271 11.2907 10.9357C11.2907 10.5443 11.609 10.226 12.0004 10.226Z" stroke-width="0.1"></path>
		<path d="M22.6452 6.67742C22.841 6.67742 23 6.51881 23 6.32258V1.35484C23 1.15861 22.841 1 22.6452 1H17.6774C17.4815 1 17.3226 1.15861 17.3226 1.35484V3.48387H14.8387V1.35484C14.8387 1.15861 14.6797 1 14.4839 1H9.51613C9.32026 1 9.16129 1.15861 9.16129 1.35484V3.48387H6.67742V1.35484C6.67742 1.15861 6.51845 1 6.32258 1H1.35484C1.15897 1 1 1.15861 1 1.35484V6.32258C1 6.51881 1.15897 6.67742 1.35484 6.67742H3.48387V9.16129H1.35484C1.15897 9.16129 1 9.3199 1 9.51613V14.4839C1 14.6801 1.15897 14.8387 1.35484 14.8387H3.48387V17.3226H1.35484C1.15897 17.3226 1 17.4812 1 17.6774V22.6452C1 22.8414 1.15897 23 1.35484 23H6.32258C6.51845 23 6.67742 22.8414 6.67742 22.6452V20.5161H9.16129V22.6452C9.16129 22.8414 9.32026 23 9.51613 23H14.4839C14.6797 23 14.8387 22.8414 14.8387 22.6452V20.5161H17.3226V22.6452C17.3226 22.8414 17.4815 23 17.6774 23H22.6452C22.841 23 23 22.8414 23 22.6452V17.6774C23 17.4812 22.841 17.3226 22.6452 17.3226H20.5161V14.8387H22.6452C22.841 14.8387 23 14.6801 23 14.4839V9.51613C23 9.3199 22.841 9.16129 22.6452 9.16129H20.5161V6.67742H22.6452ZM18.0323 1.70968H22.2903V5.96774H18.0323V1.70968ZM9.87097 1.70968H14.129V5.96774H9.87097V1.70968ZM12 15.5484C10.0434 15.5484 8.45161 13.9566 8.45161 12C8.45161 10.0434 10.0434 8.45161 12 8.45161C13.9566 8.45161 15.5484 10.0434 15.5484 12C15.5484 13.9566 13.9566 15.5484 12 15.5484ZM1.70968 1.70968H5.96774V5.96774H1.70968V1.70968ZM4.19355 6.67742H6.32258C6.51845 6.67742 6.67742 6.51881 6.67742 6.32258V4.19355H9.16129V6.32258C9.16129 6.51881 9.32026 6.67742 9.51613 6.67742H11.6452V7.76003C9.58035 7.93142 7.93142 9.58035 7.76003 11.6452H6.67742V9.51613C6.67742 9.3199 6.51845 9.16129 6.32258 9.16129H4.19355V6.67742ZM1.70968 9.87097H5.96774V14.129H1.70968V9.87097ZM5.96774 22.2903H1.70968V18.0323H5.96774V22.2903ZM9.16129 17.6774V19.8065H6.67742V17.6774C6.67742 17.4812 6.51845 17.3226 6.32258 17.3226H4.19355V14.8387H6.32258C6.51845 14.8387 6.67742 14.6801 6.67742 14.4839V12.3548H7.76003C7.93177 14.4196 9.58035 16.0686 11.6452 16.24V17.3226H9.51613C9.32026 17.3226 9.16129 17.4812 9.16129 17.6774ZM14.129 22.2903H9.87097V18.0323H14.129V22.2903ZM22.2903 22.2903H18.0323V18.0323H22.2903V22.2903ZM19.8065 17.3226H17.6774C17.4815 17.3226 17.3226 17.4812 17.3226 17.6774V19.8065H14.8387V17.6774C14.8387 17.4812 14.6797 17.3226 14.4839 17.3226H12.3548V16.24C14.4196 16.0686 16.0686 14.4196 16.24 12.3548H17.3226V14.4839C17.3226 14.6801 17.4815 14.8387 17.6774 14.8387H19.8065V17.3226ZM22.2903 14.129H18.0323V9.87097H22.2903V14.129ZM19.8065 9.16129H17.6774C17.4815 9.16129 17.3226 9.3199 17.3226 9.51613V11.6452H16.24C16.0686 9.58035 14.4196 7.93142 12.3548 7.76003V6.67742H14.4839C14.6797 6.67742 14.8387 6.51881 14.8387 6.32258V4.19355H17.3226V6.32258C17.3226 6.51881 17.4815 6.67742 17.6774 6.67742H19.8065V9.16129Z" stroke-width="0.1"></path>
	</symbol>
	<symbol id="news-realestate" viewBox="0 0 24 24">
		<path fill-rule="evenodd" clip-rule="evenodd" d="M21.6667 22.3333H22.6667C22.8508 22.3333 23 22.4826 23 22.6667C23 22.8508 22.8508 23 22.6667 23H1.33333C1.14924 23 1 22.8508 1 22.6667C1 22.4826 1.14924 22.3333 1.33333 22.3333H2.33333V7.66667C2.33333 7.48257 2.48257 7.33333 2.66667 7.33333H9V1.33333C9 1.14924 9.14924 1 9.33333 1H21.3333C21.5174 1 21.6667 1.14924 21.6667 1.33333V22.3333ZM18.3333 22.3333H21V1.66667H9.66667V22.3333H12.3333V17.3333C12.3333 17.1492 12.4826 17 12.6667 17H18C18.1841 17 18.3333 17.1492 18.3333 17.3333V22.3333ZM3 22.3333H9V8H3V22.3333ZM15.6667 22.3333H17.6667V17.6667H15.6667V22.3333ZM13 22.3333H15V17.6667H13V22.3333ZM7.33333 14C7.51743 14 7.66667 14.1492 7.66667 14.3333C7.66667 14.5174 7.51743 14.6667 7.33333 14.6667H4.66667C4.48257 14.6667 4.33333 14.5174 4.33333 14.3333C4.33333 14.1492 4.48257 14 4.66667 14H7.33333ZM7.33333 17.3333C7.51743 17.3333 7.66667 17.4826 7.66667 17.6667C7.66667 17.8508 7.51743 18 7.33333 18H4.66667C4.48257 18 4.33333 17.8508 4.33333 17.6667C4.33333 17.4826 4.48257 17.3333 4.66667 17.3333H7.33333ZM7.33333 10.6667C7.51743 10.6667 7.66667 10.8159 7.66667 11C7.66667 11.1841 7.51743 11.3333 7.33333 11.3333H4.66667C4.48257 11.3333 4.33333 11.1841 4.33333 11C4.33333 10.8159 4.48257 10.6667 4.66667 10.6667H7.33333ZM14 14C14.1841 14 14.3333 14.1492 14.3333 14.3333C14.3333 14.5174 14.1841 14.6667 14 14.6667H12C11.8159 14.6667 11.6667 14.5174 11.6667 14.3333C11.6667 14.1492 11.8159 14 12 14H14ZM18.6667 14C18.8508 14 19 14.1492 19 14.3333C19 14.5174 18.8508 14.6667 18.6667 14.6667H16.6667C16.4826 14.6667 16.3333 14.5174 16.3333 14.3333C16.3333 14.1492 16.4826 14 16.6667 14H18.6667ZM14 10.6667C14.1841 10.6667 14.3333 10.8159 14.3333 11C14.3333 11.1841 14.1841 11.3333 14 11.3333H12C11.8159 11.3333 11.6667 11.1841 11.6667 11C11.6667 10.8159 11.8159 10.6667 12 10.6667H14ZM18.6667 10.6667C18.8508 10.6667 19 10.8159 19 11C19 11.1841 18.8508 11.3333 18.6667 11.3333H16.6667C16.4826 11.3333 16.3333 11.1841 16.3333 11C16.3333 10.8159 16.4826 10.6667 16.6667 10.6667H18.6667ZM14 7.33333C14.1841 7.33333 14.3333 7.48257 14.3333 7.66667C14.3333 7.85076 14.1841 8 14 8H12C11.8159 8 11.6667 7.85076 11.6667 7.66667C11.6667 7.48257 11.8159 7.33333 12 7.33333H14ZM18.6667 7.33333C18.8508 7.33333 19 7.48257 19 7.66667C19 7.85076 18.8508 8 18.6667 8H16.6667C16.4826 8 16.3333 7.85076 16.3333 7.66667C16.3333 7.48257 16.4826 7.33333 16.6667 7.33333H18.6667ZM14 4C14.1841 4 14.3333 4.14924 14.3333 4.33333C14.3333 4.51743 14.1841 4.66667 14 4.66667H12C11.8159 4.66667 11.6667 4.51743 11.6667 4.33333C11.6667 4.14924 11.8159 4 12 4H14ZM18.6667 4C18.8508 4 19 4.14924 19 4.33333C19 4.51743 18.8508 4.66667 18.6667 4.66667H16.6667C16.4826 4.66667 16.3333 4.51743 16.3333 4.33333C16.3333 4.14924 16.4826 4 16.6667 4H18.6667Z" stroke-width="0.3"></path>
	</symbol>
	<symbol id="news-ukraine" viewBox="0 0 22 22">
		<path d="M11 22C17.0751 22 22 17.0751 22 11C22 4.92487 17.0751 0 11 0C4.92487 0 0 4.92487 0 11C0 17.0751 4.92487 22 11 22Z" fill="#FFDA44"></path>
		<path d="M0 11C0 4.92491 4.92491 0 11 0C17.0751 0 22 4.92491 22 11" fill="#338AF3"></path>
	</symbol>
	<symbol id="news-world" viewBox="0 0 22 22">
		<path d="M11 22C17.0751 22 22 17.0751 22 11C22 4.92487 17.0751 0 11 0C4.92487 0 0 4.92487 0 11C0 17.0751 4.92487 22 11 22Z" fill="#338AF3"></path>
		<path d="M12.2814 0.0761719L11.8273 1.49105C11.7174 1.83346 11.442 2.09725 11.0952 2.19234L9.95599 2.50468C9.86429 2.52982 9.76959 2.54258 9.6745 2.54258H7.96985C7.792 2.54258 7.64165 2.67423 7.61815 2.85049L7.42264 4.31676L6.33381 4.37378C6.15072 4.38336 6.0051 4.53083 5.99779 4.714L5.96011 5.6603C5.9516 5.87339 6.13164 6.04578 6.34412 6.02807L7.06952 5.96762C7.25601 5.95206 7.42633 5.85547 7.53539 5.7034L8.20626 4.76772L9.64111 4.71645C9.948 4.7055 10.1648 5.01427 10.0534 5.30044C9.80336 5.94252 9.80302 5.99752 9.80302 6.05398C9.80302 6.25014 9.96175 6.40882 10.1579 6.40882C10.3332 6.40882 10.4791 6.28129 10.5075 6.11427C10.5317 6.0325 10.6401 5.74899 10.782 5.38909C10.8412 5.23878 11.0454 5.21665 11.1344 5.35149L11.2261 5.49032C11.3957 5.74706 11.7115 5.86522 12.008 5.78294L12.6416 5.60711C12.8182 5.55813 12.9608 5.42776 13.0255 5.25627L13.147 4.93383C13.2328 4.70614 13.4293 4.53831 13.6676 4.48911L14.0771 4.40459C14.3557 4.34709 14.6512 4.51557 14.6997 4.79595C14.7492 5.08238 14.548 5.34259 14.2684 5.37465L13.281 5.40116C13.0802 5.40657 12.9189 5.56835 12.9141 5.76919L12.9119 5.86372C12.9101 5.93965 12.952 6.0099 13.0196 6.0444L13.5874 6.3341C13.8035 6.44436 13.874 6.71918 13.7375 6.91985C13.6625 7.03023 13.5377 7.09628 13.4042 7.09628H10.4096C10.3312 7.09628 10.2535 7.08154 10.1806 7.05279L7.66769 6.06288C7.48172 5.98962 7.27027 6.02928 7.12349 6.16493L4.74362 8.3645C4.55392 8.53986 4.47447 8.80446 4.53621 9.05531L5.02008 11.021C5.09476 11.3244 5.35911 11.5432 5.6711 11.56L8.35227 11.7042C8.87979 11.7326 9.30669 12.1435 9.35516 12.6695L9.55853 14.8776C9.57374 15.0427 9.61727 15.202 9.68898 15.3517C9.91491 15.823 10.4417 16.8943 10.7345 17.2647C11.1115 17.7415 12.0404 17.7604 12.3534 17.4753L14.5334 15.6915C14.7156 15.5256 14.8346 15.3017 14.8702 15.0579L15.1256 13.306L16.8566 11.3983C17.0253 11.2124 16.9495 10.9274 16.735 10.8353L16.7039 10.8561C16.5726 10.9441 16.4212 10.9975 16.2645 11.0113C16.2368 11.0137 16.2091 11.0152 16.1814 11.0152C15.8605 11.0152 15.5629 10.8523 15.3899 10.5771L14.0683 8.47858C13.964 8.31259 14.0139 8.09358 14.1796 7.98895C14.3466 7.88536 14.5646 7.9349 14.6692 8.1002L15.9908 10.1991C16.0362 10.2719 16.1166 10.3114 16.2025 10.3045C16.2403 10.301 16.2774 10.2878 16.3093 10.2667L18.0957 9.28768C18.2819 9.18563 18.3312 8.94045 18.1989 8.77438C18.1253 8.68204 18.0094 8.63413 17.8921 8.64758L17.5169 8.69072C17.4161 8.70232 17.3152 8.67022 17.2395 8.60259L16.1159 7.59747C15.97 7.46684 15.9576 7.24263 16.0882 7.09641C16.2185 6.95018 16.4427 6.93807 16.5892 7.06869L17.5942 7.96756L18.2047 7.89722C18.3312 7.88162 18.4567 7.93705 18.5319 8.04034L18.6493 8.20113L19.2445 8.12972C19.5337 8.095 19.8147 8.24054 19.9533 8.49676L21.155 10.7188C21.2422 10.88 21.3884 11.0013 21.563 11.0571L21.9953 11.2089C21.9966 11.1391 22.0006 11.0698 22.0006 10.9996C22.0006 5.35798 17.7527 0.711078 12.2814 0.0761719ZM16.8765 6.14826C16.8159 6.18951 16.7466 6.20923 16.6783 6.20923C16.5643 6.20923 16.4524 6.15449 16.3841 6.05295L15.645 4.95897C15.5351 4.79681 15.5777 4.57607 15.7403 4.46655C15.9021 4.35633 16.1235 4.39969 16.2327 4.56185L16.9718 5.65584C17.0817 5.818 17.039 6.03873 16.8765 6.14826Z" fill="#BEE86E"></path>
		<path d="M14.6075 18.3923C8.53239 18.3923 3.60753 13.4674 3.60753 7.39229C3.60753 5.27909 4.20462 3.30588 5.23755 1.62988C2.09541 3.56644 0 7.03789 0 10.9998C0 17.075 4.92486 21.9998 11 21.9998C14.9619 21.9998 18.4334 19.9044 20.37 16.7622C18.6939 17.7952 16.7208 18.3923 14.6075 18.3923Z" fill="#0D69D9"></path>
		<path d="M15.7901 16.8107C15.7097 16.8107 15.6286 16.7833 15.5621 16.7275C15.4121 16.6014 15.3926 16.3775 15.5188 16.2275L16.4502 15.1186C16.576 14.9689 16.8002 14.9492 16.9503 15.0753C17.1003 15.2015 17.1197 15.4253 16.9936 15.5754L16.0621 16.6842C15.9921 16.7677 15.8913 16.8107 15.7901 16.8107Z" fill="#BEE86E"></path>
		<path d="M7.97388 0.425469L7.65819 1.36614C7.5958 1.55189 7.69596 1.7532 7.88172 1.81559C7.91914 1.82805 7.95726 1.83394 7.99468 1.83394C8.14301 1.83394 8.28124 1.7404 8.33117 1.59207L8.79076 0.222656C8.51413 0.278988 8.24252 0.348727 7.97388 0.425469Z" fill="#BEE86E"></path>
		<path d="M1.8422 17.0942L2.14921 14.3049C2.17375 14.086 2.0952 13.8681 1.93664 13.7152L0.0429688 11.9443C0.204016 13.8385 0.843262 15.5959 1.8422 17.0942Z" fill="#AFD755"></path>
		<path d="M10.9998 0C10.6019 0 10.2092 0.0223008 9.82221 0.0635078L9.78525 0.896113C9.6924 1.17507 9.84279 1.47654 10.1217 1.56939C10.1775 1.58808 10.2344 1.59676 10.2901 1.59676C10.5129 1.59676 10.7209 1.45574 10.795 1.2329L11.2043 0.00515625C11.136 0.00391016 11.0684 0 10.9998 0Z" fill="#BEE86E"></path>
	</symbol>
	<symbol id="analytics-investments" viewBox="0 0 24 23">
		<path d="M22.6563 22.541H1.34375C1.16042 22.541 1 22.3806 1 22.1973C1 22.0139 1.16042 21.8535 1.34375 21.8535H22.6563C22.8396 21.8535 23 22.0139 23 22.1973C23 22.3806 22.8396 22.541 22.6563 22.541Z" stroke-width="0.3"></path>
		<path d="M1.34375 22.5417C1.16042 22.5417 1 22.3812 1 22.1979V1.34375C1 1.16042 1.16042 1 1.34375 1C1.52708 1 1.6875 1.16042 1.6875 1.34375V22.175C1.6875 22.3812 1.52708 22.5417 1.34375 22.5417Z" stroke-width="0.3"></path>
		<path d="M10.808 8.33385C9.84554 8.33385 9.04346 7.53177 9.04346 6.56927C9.04346 5.60677 9.84554 4.80469 10.808 4.80469C11.7705 4.80469 12.5726 5.60677 12.5726 6.56927C12.5726 7.53177 11.7935 8.33385 10.808 8.33385ZM10.808 5.49219C10.2122 5.49219 9.73096 5.97344 9.73096 6.56927C9.73096 7.1651 10.2122 7.64635 10.808 7.64635C11.4039 7.64635 11.8851 7.1651 11.8851 6.56927C11.8851 5.97344 11.4039 5.49219 10.808 5.49219Z" stroke-width="0.3"></path>
		<path d="M16.0331 12.1151C15.0706 12.1151 14.2686 11.313 14.2686 10.3505C14.2686 9.38802 15.0706 8.58594 16.0331 8.58594C16.9956 8.58594 17.7977 9.38802 17.7977 10.3505C17.7977 11.313 16.9956 12.1151 16.0331 12.1151ZM16.0331 9.27344C15.4373 9.27344 14.9561 9.75469 14.9561 10.3505C14.9561 10.9464 15.4373 11.4276 16.0331 11.4276C16.629 11.4276 17.1102 10.9464 17.1102 10.3505C17.1102 9.75469 16.629 9.27344 16.0331 9.27344Z" stroke-width="0.3"></path>
		<path d="M21.2353 5.01061C20.2728 5.01061 19.4707 4.20853 19.4707 3.24603C19.4707 2.28353 20.2728 1.48145 21.2353 1.48145C22.1978 1.48145 22.9999 2.28353 22.9999 3.24603C22.9999 4.20853 22.1978 5.01061 21.2353 5.01061ZM21.2353 2.16895C20.6395 2.16895 20.1582 2.6502 20.1582 3.24603C20.1582 3.84186 20.6395 4.32311 21.2353 4.32311C21.8311 4.32311 22.3124 3.84186 22.3124 3.24603C22.3124 2.6502 21.8311 2.16895 21.2353 2.16895Z" stroke-width="0.3"></path>
		<path d="M5.60589 13.536C4.64339 13.536 3.84131 12.7339 3.84131 11.7714C3.84131 10.8089 4.64339 10.0068 5.60589 10.0068C6.56839 10.0068 7.37048 10.8089 7.37048 11.7714C7.37048 12.7339 6.59131 13.536 5.60589 13.536ZM5.60589 10.6943C5.01006 10.6943 4.52881 11.1756 4.52881 11.7714C4.52881 12.3673 5.01006 12.8485 5.60589 12.8485C6.20173 12.8485 6.68298 12.3673 6.68298 11.7714C6.68298 11.1756 6.20173 10.6943 5.60589 10.6943Z" stroke-width="0.3"></path>
		<path d="M6.75169 10.9686C6.66003 10.9686 6.56836 10.9457 6.49961 10.877C6.36211 10.7395 6.36211 10.5332 6.49961 10.3957L9.52461 7.3707C9.66211 7.2332 9.86836 7.2332 10.0059 7.3707C10.1434 7.5082 10.1434 7.71445 10.0059 7.85195L7.00378 10.877C6.93503 10.9457 6.84336 10.9686 6.75169 10.9686Z" stroke-width="0.3"></path>
		<path d="M14.6119 9.6627C14.5432 9.6627 14.4744 9.63978 14.4057 9.59395L11.7932 7.64603C11.6328 7.53145 11.6099 7.3252 11.7244 7.16478C11.839 7.00436 12.0453 6.98145 12.2057 7.09603L14.8182 9.04395C14.9786 9.15853 15.0015 9.36478 14.8869 9.5252C14.8182 9.59395 14.7036 9.6627 14.6119 9.6627Z" stroke-width="0.3"></path>
		<path d="M17.0185 9.31862C16.9497 9.31862 16.881 9.2957 16.8122 9.24987C16.6518 9.13529 16.6289 8.92904 16.7435 8.76862L20.1122 4.18529C20.2268 4.02487 20.4331 4.00195 20.5935 4.11654C20.7539 4.23112 20.7768 4.43737 20.6622 4.59779L17.2935 9.18112C17.2247 9.27279 17.1331 9.31862 17.0185 9.31862Z" stroke-width="0.3"></path>
		<path d="M7.02673 22.5414H4.18506C4.00173 22.5414 3.84131 22.381 3.84131 22.1977V16.9727C3.84131 16.7893 4.00173 16.6289 4.18506 16.6289H7.02673C7.21006 16.6289 7.37048 16.7893 7.37048 16.9727V22.1747C7.37048 22.381 7.21006 22.5414 7.02673 22.5414ZM4.52881 21.8539H6.68298V17.3164H4.52881V21.8539Z" stroke-width="0.3"></path>
		<path d="M12.2289 22.5414H9.38721C9.20387 22.5414 9.04346 22.381 9.04346 22.1977V13.1914C9.04346 13.0081 9.20387 12.8477 9.38721 12.8477H12.2289C12.4122 12.8477 12.5726 13.0081 12.5726 13.1914V22.1977C12.5726 22.381 12.4351 22.5414 12.2289 22.5414ZM9.73096 21.8539H11.8851V13.5352H9.73096V21.8539Z" stroke-width="0.3"></path>
		<path d="M17.454 22.5413H14.6123C14.429 22.5413 14.2686 22.3809 14.2686 22.1976V15.5518C14.2686 15.3684 14.429 15.208 14.6123 15.208H17.454C17.6373 15.208 17.7977 15.3684 17.7977 15.5518V22.1747C17.7977 22.3809 17.6373 22.5413 17.454 22.5413ZM14.9561 21.8538H17.1102V15.8955H14.9561V21.8538Z" stroke-width="0.3"></path>
		<path d="M22.6561 22.5413H19.8145C19.6311 22.5413 19.4707 22.3809 19.4707 22.1975V10.3496C19.4707 10.1663 19.6311 10.0059 19.8145 10.0059H22.6561C22.8395 10.0059 22.9999 10.1663 22.9999 10.3496V22.1975C22.9999 22.3809 22.8395 22.5413 22.6561 22.5413ZM20.1582 21.8538H22.3124V10.6934H20.1582V21.8538Z" stroke-width="0.3"></path>
	</symbol>
	<symbol id="analytics-ukraine" viewBox="0 0 22 25">
		<path d="M16.9999 11H4.99999C4.86738 11 4.74021 10.9473 4.64644 10.8535C4.55267 10.7597 4.49999 10.6326 4.49999 10.5C4.49999 10.2347 4.39464 9.9804 4.2071 9.79286C4.01957 9.60532 3.76521 9.49997 3.5 9.49997C3.36739 9.49997 3.24021 9.44729 3.14645 9.35352C3.05268 9.25975 3 9.13258 3 8.99997V3.99999C3 3.86738 3.05268 3.74021 3.14645 3.64644C3.24021 3.55267 3.36739 3.49999 3.5 3.49999C3.76521 3.49999 4.01957 3.39464 4.2071 3.2071C4.39464 3.01957 4.49999 2.76521 4.49999 2.5C4.49999 2.36739 4.55267 2.24021 4.64644 2.14645C4.74021 2.05268 4.86738 2 4.99999 2H16.9999C17.1325 2 17.2597 2.05268 17.3535 2.14645C17.4473 2.24021 17.4999 2.36739 17.4999 2.5C17.4999 2.76521 17.6053 3.01957 17.7928 3.2071C17.9804 3.39464 18.2347 3.49999 18.4999 3.49999C18.6325 3.49999 18.7597 3.55267 18.8535 3.64644C18.9473 3.74021 18.9999 3.86738 18.9999 3.99999V8.99997C18.9999 9.13258 18.9473 9.25975 18.8535 9.35352C18.7597 9.44729 18.6325 9.49997 18.4999 9.49997C18.2347 9.49997 17.9804 9.60532 17.7928 9.79286C17.6053 9.9804 17.4999 10.2347 17.4999 10.5C17.4999 10.6326 17.4473 10.7597 17.3535 10.8535C17.2597 10.9473 17.1325 11 16.9999 11ZM5.43499 9.99997H16.5649C16.6544 9.65451 16.8346 9.33927 17.0869 9.08694C17.3392 8.83462 17.6545 8.65439 17.9999 8.56497V4.43499C17.6545 4.34557 17.3392 4.16535 17.0869 3.91302C16.8346 3.66069 16.6544 3.34545 16.5649 3H5.43499C5.34557 3.34545 5.16535 3.66069 4.91302 3.91302C4.66069 4.16535 4.34545 4.34557 4 4.43499V8.56497C4.34545 8.65439 4.66069 8.83462 4.91302 9.08694C5.16535 9.33927 5.34557 9.65451 5.43499 9.99997Z"></path>
		<path d="M11 8.99998C10.5055 8.99998 10.0222 8.85336 9.61107 8.57866C9.19995 8.30395 8.87952 7.91351 8.6903 7.4567C8.50108 6.99988 8.45158 6.49722 8.54804 6.01227C8.6445 5.52732 8.8826 5.08186 9.23223 4.73223C9.58186 4.3826 10.0273 4.1445 10.5123 4.04804C10.9972 3.95158 11.4999 4.00108 11.9567 4.1903C12.4135 4.37952 12.804 4.69995 13.0787 5.11107C13.3534 5.52219 13.5 6.00554 13.5 6.49999C13.5 7.16303 13.2366 7.79891 12.7678 8.26775C12.2989 8.73659 11.663 8.99998 11 8.99998ZM11 5C10.7033 5 10.4133 5.08797 10.1666 5.25279C9.91997 5.41761 9.72771 5.65188 9.61418 5.92597C9.50065 6.20006 9.47094 6.50166 9.52882 6.79263C9.5867 7.0836 9.72956 7.35087 9.93933 7.56065C10.1491 7.77042 10.4164 7.91328 10.7074 7.97116C10.9983 8.02904 11.2999 7.99934 11.574 7.8858C11.8481 7.77227 12.0824 7.58001 12.2472 7.33334C12.412 7.08667 12.5 6.79666 12.5 6.49999C12.5 6.10217 12.3419 5.72064 12.0606 5.43933C11.7793 5.15803 11.3978 5 11 5Z"></path>
		<path d="M6.5 7.49999C6.30222 7.49999 6.10888 7.44134 5.94443 7.33146C5.77998 7.22158 5.65181 7.0654 5.57612 6.88268C5.50043 6.69995 5.48063 6.49889 5.51922 6.30491C5.5578 6.11093 5.65304 5.93274 5.79289 5.79289C5.93274 5.65304 6.11093 5.5578 6.30491 5.51922C6.49889 5.48063 6.69995 5.50043 6.88268 5.57612C7.0654 5.65181 7.22158 5.77998 7.33146 5.94443C7.44134 6.10888 7.49999 6.30222 7.49999 6.5C7.49999 6.76521 7.39464 7.01956 7.2071 7.2071C7.01956 7.39464 6.76521 7.49999 6.5 7.49999Z"></path>
		<path d="M15.5 7.49999C15.3022 7.49999 15.1089 7.44134 14.9444 7.33146C14.78 7.22158 14.6518 7.0654 14.5761 6.88268C14.5004 6.69995 14.4806 6.49889 14.5192 6.30491C14.5578 6.11093 14.653 5.93274 14.7929 5.79289C14.9327 5.65304 15.1109 5.5578 15.3049 5.51922C15.4989 5.48063 15.7 5.50043 15.8827 5.57612C16.0654 5.65181 16.2216 5.77998 16.3315 5.94443C16.4413 6.10888 16.5 6.30222 16.5 6.5C16.5 6.76521 16.3946 7.01956 16.2071 7.2071C16.0196 7.39464 15.7652 7.49999 15.5 7.49999Z"></path>
		<path d="M8.49996 20H5.49998C4.04129 20 2.64235 19.4205 1.61091 18.3891C0.57946 17.3576 0 15.9587 0 14.5C0 14.3674 0.0526783 14.2402 0.146446 14.1464C0.240214 14.0527 0.36739 14 0.499998 14H3.49999C4.95867 14 6.35761 14.5795 7.38906 15.6109C8.4205 16.6424 8.99996 18.0413 8.99996 19.5C8.99996 19.6326 8.94728 19.7598 8.85352 19.8535C8.75975 19.9473 8.63257 20 8.49996 20ZM1.03 15C1.15294 16.0997 1.67675 17.1155 2.50133 17.8534C3.32591 18.5913 4.39345 18.9995 5.49998 19H7.96997C7.84702 17.9003 7.32321 16.8845 6.49863 16.1466C5.67405 15.4087 4.60651 15.0005 3.49999 15H1.03Z"></path>
		<path d="M16.5 21H13.5C13.3674 21 13.2402 20.9473 13.1464 20.8535C13.0527 20.7598 13 20.6326 13 20.5C13 19.0413 13.5795 17.6424 14.6109 16.6109C15.6424 15.5795 17.0413 15 18.5 15H21.5C21.6326 15 21.7597 15.0527 21.8535 15.1464C21.9473 15.2402 22 15.3674 22 15.5C22 16.2223 21.8577 16.9375 21.5813 17.6047C21.3049 18.272 20.8998 18.8783 20.3891 19.3891C19.8783 19.8998 19.272 20.3049 18.6047 20.5813C17.9374 20.8577 17.2223 21 16.5 21ZM14.03 20H16.5C17.6065 19.9995 18.6741 19.5913 19.4986 18.8534C20.3232 18.1155 20.847 17.0997 20.97 16H18.5C17.3935 16.0005 16.3259 16.4087 15.5013 17.1466C14.6767 17.8845 14.1529 18.9003 14.03 20Z"></path>
		<path d="M11 14.4999C10.8673 14.4999 10.7402 14.4473 10.6464 14.3535C10.5526 14.2597 10.5 14.1325 10.5 13.9999C10.5 13.7347 10.3946 13.4804 10.2071 13.2928C10.0195 13.1053 9.76518 12.9999 9.49996 12.9999H3.49999C2.83695 12.9999 2.20107 12.7366 1.73223 12.2677C1.26339 11.7989 1 11.163 1 10.5V2.49999C1 1.83695 1.26339 1.20107 1.73223 0.73223C2.20107 0.263391 2.83695 0 3.49999 0H18.4999C19.163 0 19.7988 0.263391 20.2677 0.73223C20.7365 1.20107 20.9999 1.83695 20.9999 2.49999V10.5C20.9999 11.163 20.7365 11.7989 20.2677 12.2677C19.7988 12.7366 19.163 12.9999 18.4999 12.9999H12.5C12.2347 12.9999 11.9804 13.1053 11.7928 13.2928C11.6053 13.4804 11.5 13.7347 11.5 13.9999C11.5 14.1325 11.4473 14.2597 11.3535 14.3535C11.2597 14.4473 11.1326 14.4999 11 14.4999ZM3.49999 0.999996C3.10217 0.999996 2.72064 1.15803 2.43933 1.43933C2.15803 1.72064 2 2.10217 2 2.49999V10.5C2 10.8978 2.15803 11.2793 2.43933 11.5606C2.72064 11.8419 3.10217 11.9999 3.49999 11.9999H9.49996C9.76268 11.9997 10.0229 12.0513 10.2657 12.1517C10.5084 12.2521 10.7291 12.3993 10.915 12.5849L11 12.6799C11.1874 12.4666 11.4181 12.2956 11.6767 12.1784C11.9353 12.0611 12.216 12.0003 12.5 11.9999H18.4999C18.8977 11.9999 19.2793 11.8419 19.5606 11.5606C19.8419 11.2793 19.9999 10.8978 19.9999 10.5V2.49999C19.9999 2.10217 19.8419 1.72064 19.5606 1.43933C19.2793 1.15803 18.8977 0.999996 18.4999 0.999996H3.49999Z"></path>
		<path d="M11 23.655C10.8674 23.655 10.7402 23.6023 10.6464 23.5085C10.5527 23.4148 10.5 23.2876 10.5 23.155V22C10.5 21.4696 10.2893 20.9609 9.91421 20.5858C9.53913 20.2107 9.03043 20 8.5 20C8.36739 20 8.24021 19.9473 8.14645 19.8536C8.05268 19.7598 8 19.6326 8 19.5C8 19.3674 8.05268 19.2402 8.14645 19.1464C8.24021 19.0527 8.36739 19 8.5 19C9.29564 19 10.0587 19.3161 10.6213 19.8787C11.1839 20.4413 11.5 21.2043 11.5 22V23.155C11.5 23.2876 11.4473 23.4148 11.3535 23.5085C11.2598 23.6023 11.1326 23.655 11 23.655Z"></path>
		<path d="M11 23.5C10.8674 23.5 10.7402 23.4473 10.6464 23.3535C10.5527 23.2598 10.5 23.1326 10.5 23C10.5 22.2043 10.8161 21.4413 11.3787 20.8787C11.9413 20.3161 12.7043 20 13.5 20C13.6326 20 13.7598 20.0527 13.8535 20.1464C13.9473 20.2402 14 20.3674 14 20.5C14 20.6326 13.9473 20.7598 13.8535 20.8536C13.7598 20.9473 13.6326 21 13.5 21C12.9696 21 12.4609 21.2107 12.0858 21.5858C11.7107 21.9609 11.5 22.4696 11.5 23C11.5 23.1326 11.4473 23.2598 11.3536 23.3535C11.2598 23.4473 11.1326 23.5 11 23.5Z"></path>
		<path d="M11 23.5C10.8674 23.5 10.7402 23.4473 10.6464 23.3535C10.5527 23.2597 10.5 23.1326 10.5 23V14C10.5 13.8674 10.5527 13.7402 10.6464 13.6464C10.7402 13.5527 10.8674 13.5 11 13.5C11.1326 13.5 11.2598 13.5527 11.3536 13.6464C11.4473 13.7402 11.5 13.8674 11.5 14V23C11.5 23.1326 11.4473 23.2597 11.3536 23.3535C11.2598 23.4473 11.1326 23.5 11 23.5Z"></path>
		<path d="M16.5 25H12.5C12.216 24.9996 11.9354 24.9388 11.6767 24.8216C11.4181 24.7043 11.1874 24.5333 11 24.32C10.8126 24.5333 10.5819 24.7043 10.3232 24.8216C10.0646 24.9388 9.78395 24.9996 9.49998 25H5.5C5.36739 25 5.24021 24.9473 5.14645 24.8535C5.05268 24.7598 5 24.6326 5 24.5C5 24.3674 5.05268 24.2402 5.14645 24.1464C5.24021 24.0527 5.36739 24 5.5 24H9.49998C9.7652 24 10.0195 23.8946 10.2071 23.7071C10.3946 23.5196 10.5 23.2652 10.5 23C10.5 22.8674 10.5527 22.7402 10.6464 22.6464C10.7402 22.5527 10.8674 22.5 11 22.5C11.1326 22.5 11.2598 22.5527 11.3535 22.6464C11.4473 22.7402 11.5 22.8674 11.5 23C11.5 23.2652 11.6053 23.5196 11.7929 23.7071C11.9804 23.8946 12.2348 24 12.5 24H16.5C16.6326 24 16.7597 24.0527 16.8535 24.1464C16.9473 24.2402 16.9999 24.3674 16.9999 24.5C16.9999 24.6326 16.9473 24.7598 16.8535 24.8535C16.7597 24.9473 16.6326 25 16.5 25Z"></path>
	</symbol>
	<symbol id="analytics-articles" viewBox="0 0 24 24">
		<path d="M20.3393 6.96988C20.3393 7.09976 20.2341 7.20518 20.104 7.20518H7.94518C7.81506 7.20518 7.70988 7.09976 7.70988 6.96988C7.70988 6.83977 7.81506 6.73459 7.94518 6.73459H20.104C20.2341 6.73459 20.3393 6.83977 20.3393 6.96988ZM20.104 9.43647H7.94518C7.81506 9.43647 7.70988 9.54165 7.70988 9.67176C7.70988 9.80165 7.81506 9.90706 7.94518 9.90706H20.104C20.2341 9.90706 20.3393 9.80165 20.3393 9.67176C20.3393 9.54188 20.2341 9.43647 20.104 9.43647ZM20.104 12.1384H7.94518C7.81506 12.1384 7.70988 12.2435 7.70988 12.3736C7.70988 12.5035 7.81506 12.6089 7.94518 12.6089H20.104C20.2341 12.6089 20.3393 12.5035 20.3393 12.3736C20.3393 12.2435 20.2341 12.1384 20.104 12.1384ZM16.0511 14.8405H7.94518C7.81506 14.8405 7.70988 14.9456 7.70988 15.0758C7.70988 15.2056 7.81506 15.3111 7.94518 15.3111H16.0511C16.1812 15.3111 16.2864 15.2056 16.2864 15.0758C16.2864 14.9459 16.1812 14.8405 16.0511 14.8405ZM23.1445 2.41176V20.744C23.1445 21.988 22.1325 23 20.8887 23H3.25576C2.012 23 1 21.9802 1 20.7271V16.1148C1 15.9849 1.10518 15.8795 1.23529 15.8795H5.04L5.03812 2.41176C5.03788 2.036 5.18518 1.68165 5.45247 1.41459C5.71976 1.14706 6.07388 1 6.44965 1H21.7325C22.5111 1 23.1445 1.63318 23.1445 2.41176ZM3.25576 22.5294C4.24024 22.5294 5.04094 21.7207 5.04094 20.7271L5.04 16.3501H1.47059L1.47059 20.7271C1.47059 21.7207 2.27153 22.5294 3.25576 22.5294ZM22.6739 20.744V2.41176C22.6739 1.89271 22.2518 1.47059 21.7327 1.47059H6.44965C6.19976 1.47059 5.96377 1.56871 5.78518 1.74729C5.60682 1.92565 5.50871 2.16165 5.50871 2.41153L5.51059 16.1106L5.51153 16.1151L5.51059 16.1198L5.51153 20.7273C5.51153 21.4616 5.16259 22.1139 4.62447 22.5296H20.8887C21.8729 22.5294 22.6739 21.7285 22.6739 20.744Z" fill="#1F2E35" stroke-width="0.5"></path>
	</symbol>
	<symbol id="tools-database" viewBox="0 0 24 22">
		<path d="M7.79711 12.2037L6.31783 11.9891L5.65593 10.6482C5.56827 10.4701 5.27611 10.4701 5.18811 10.6482L4.5269 11.9891L3.04692 12.2037C2.94884 12.2179 2.8671 12.2868 2.83649 12.3814C2.80588 12.476 2.83127 12.5793 2.90258 12.6489L3.97317 13.6923L3.71996 15.1654C3.70326 15.2631 3.74326 15.3619 3.82361 15.4203C3.86917 15.4537 3.92308 15.4704 3.977 15.4704C4.01873 15.4704 4.06012 15.4607 4.09838 15.4405L5.42149 14.7452L6.7446 15.4405C6.8326 15.4867 6.93904 15.4794 7.01938 15.4203C7.09973 15.3619 7.14008 15.2631 7.12303 15.1654L6.87017 13.6923L7.94076 12.6489C8.01206 12.5797 8.03745 12.476 8.00684 12.3814C7.97624 12.2868 7.89519 12.2179 7.79711 12.2037ZM6.40861 13.4144C6.34704 13.4743 6.31922 13.5609 6.33348 13.6454L6.51991 14.7327L5.54323 14.2193C5.50532 14.1991 5.46358 14.1894 5.42184 14.1894C5.3801 14.1894 5.33837 14.1991 5.30045 14.2193L4.32377 14.7327L4.51055 13.6454C4.52516 13.5609 4.49699 13.4743 4.43542 13.4144L3.64517 12.644L4.73698 12.4857C4.82185 12.4736 4.89559 12.4204 4.9335 12.3431L5.42149 11.3532L5.91018 12.3431C5.94809 12.4204 6.02148 12.4736 6.10635 12.4857L7.19816 12.644L6.40861 13.4144Z" stroke-width="0.3"></path>
		<path d="M14.3744 12.2038L12.8951 11.9892L12.2339 10.6483C12.1456 10.4699 11.8537 10.4703 11.7657 10.6483L11.1045 11.9892L9.62491 12.2038C9.52647 12.2181 9.44474 12.2869 9.41413 12.3815C9.38352 12.4761 9.40891 12.5794 9.48021 12.649L10.5512 13.6925L10.2976 15.1655C10.2809 15.2632 10.3209 15.362 10.4012 15.4204C10.4465 15.4535 10.5004 15.4705 10.5546 15.4705C10.596 15.4705 10.6378 15.4608 10.676 15.4406L12.0002 14.7453L13.3236 15.4406C13.4109 15.4869 13.5181 15.4792 13.5984 15.4204C13.6784 15.362 13.7188 15.2632 13.7021 15.1655L13.4488 13.6925L14.5194 12.649C14.5904 12.5798 14.6161 12.4761 14.5852 12.3815C14.5546 12.2869 14.4728 12.2181 14.3744 12.2038ZM12.9862 13.4146C12.9247 13.4747 12.8965 13.561 12.9111 13.6455L13.0979 14.7328L12.1212 14.2194C12.045 14.1794 11.9543 14.1794 11.8784 14.2194L10.9011 14.7328L11.0882 13.6455C11.1028 13.561 11.0746 13.4744 11.0131 13.4146L10.2228 12.6445L11.315 12.4859C11.4002 12.4737 11.4736 12.4205 11.5115 12.3433L11.9995 11.3534L12.4875 12.3433C12.5254 12.4205 12.5988 12.4737 12.684 12.4859L13.7758 12.6445L12.9862 13.4146Z" stroke-width="0.3"></path>
		<path d="M20.9527 12.2038L19.4734 11.9892L18.8122 10.6483C18.768 10.5593 18.6772 10.5029 18.5781 10.5029C18.479 10.5029 18.3882 10.5593 18.344 10.6483L17.6825 11.9892L16.2028 12.2038C16.1044 12.218 16.0227 12.2869 15.9924 12.3815C15.9615 12.4758 15.9872 12.5794 16.0582 12.649L17.1291 13.6924L16.8759 15.1655C16.8592 15.2632 16.8992 15.362 16.9795 15.4204C17.0251 15.4538 17.079 15.4705 17.1329 15.4705C17.1743 15.4705 17.216 15.4608 17.2543 15.4406L18.5781 14.7453L19.9016 15.4406C19.9889 15.4869 20.096 15.4792 20.1763 15.4204C20.2563 15.362 20.2967 15.2632 20.28 15.1655L20.0268 13.6924L21.0974 12.649C21.1683 12.5798 21.1941 12.4761 21.1631 12.3815C21.1329 12.2869 21.0511 12.218 20.9527 12.2038ZM19.5645 13.4145C19.503 13.4747 19.4748 13.561 19.4894 13.6455L19.6762 14.7328L18.6992 14.2194C18.623 14.1794 18.5325 14.1794 18.4567 14.2194L17.4793 14.7328L17.6661 13.6455C17.6807 13.561 17.6526 13.4744 17.591 13.4145L16.8007 12.6445L17.8929 12.4859C17.9778 12.4737 18.0515 12.4205 18.0894 12.3432L18.5778 11.3534L19.0658 12.3432C19.1037 12.4205 19.1771 12.4737 19.2623 12.4859L20.3541 12.6445L19.5645 13.4145Z" stroke-width="0.3"></path>
		<path d="M21.7002 1H2.30015C1.58295 1 1 1.5753 1 2.28241V20.159C1 20.8661 1.5833 21.4414 2.30015 21.4414H21.6998C22.4171 21.4414 23 20.8665 23 20.159V2.28241C23.0003 1.5753 22.4171 1 21.7002 1ZM2.30015 1.52173H21.6998C22.1291 1.52173 22.4783 1.86294 22.4783 2.28241V4.53247H1.52173V2.28241C1.52173 1.86294 1.87094 1.52173 2.30015 1.52173ZM21.7002 20.9197H2.30015C1.87094 20.9197 1.52173 20.5788 1.52173 20.159V5.0542H22.4786V20.159C22.4786 20.5785 22.1294 20.9197 21.7002 20.9197Z" stroke-width="0.3"></path>
		<path d="M20.0217 3.62452C20.3099 3.62452 20.5435 3.39093 20.5435 3.10279C20.5435 2.81464 20.3099 2.58105 20.0217 2.58105C19.7336 2.58105 19.5 2.81464 19.5 3.10279C19.5 3.39093 19.7336 3.62452 20.0217 3.62452Z" stroke-width="0.3"></path>
		<path d="M17.8767 3.62452C18.1649 3.62452 18.3984 3.39093 18.3984 3.10279C18.3984 2.81464 18.1649 2.58105 17.8767 2.58105C17.5886 2.58105 17.355 2.81464 17.355 3.10279C17.355 3.39093 17.5886 3.62452 17.8767 3.62452Z" stroke-width="0.3"></path>
		<path d="M15.7312 3.62452C16.0193 3.62452 16.2529 3.39093 16.2529 3.10279C16.2529 2.81464 16.0193 2.58105 15.7312 2.58105C15.4431 2.58105 15.2095 2.81464 15.2095 3.10279C15.2095 3.39093 15.4431 3.62452 15.7312 3.62452Z" stroke-width="0.3"></path>
	</symbol>
	<symbol id="analytics-formula" viewBox="0 0 23 20">
		<path d="M16.6608 10.3623H10.6246C10.5445 10.3623 10.4678 10.3941 10.4112 10.4507C10.3546 10.5073 10.3228 10.5841 10.3228 10.6641C10.3228 10.7442 10.3546 10.8209 10.4112 10.8775C10.4678 10.9341 10.5445 10.9659 10.6246 10.9659H16.6608C16.7408 10.9659 16.8176 10.9341 16.8742 10.8775C16.9308 10.8209 16.9626 10.7442 16.9626 10.6641C16.9626 10.5841 16.9308 10.5073 16.8742 10.4507C16.8176 10.3941 16.7408 10.3623 16.6608 10.3623Z" stroke-width="0.3"></path>
		<path d="M22.9598 15.0432L20.7566 11.0744C21.3002 9.54632 21.337 7.88377 20.8615 6.33317C20.386 4.78257 19.4235 3.42645 18.1167 2.46584C16.81 1.50523 15.2284 0.991258 13.6066 1.00011C11.9847 1.00897 10.4089 1.54018 9.11269 2.515H8.93462C7.60789 2.51584 6.3058 2.87347 5.16478 3.55043C4.02375 4.2274 3.08579 5.19877 2.44917 6.36278C1.81254 7.52679 1.50068 8.84059 1.54626 10.1665C1.59185 11.4925 1.99319 12.7818 2.70825 13.8993L1 17.8621L5.04125 16.1961C6.2439 16.9412 7.6352 17.3254 9.04978 17.3029C10.4644 17.2804 11.8428 16.8523 13.0211 16.0693C13.2264 16.0874 13.4346 16.0965 13.6429 16.0965C15.4508 16.0966 17.1987 15.4476 18.5684 14.2675L22.6127 15.4748C22.67 15.4917 22.7311 15.4912 22.7882 15.4734C22.8452 15.4556 22.8957 15.4212 22.9332 15.3747C22.9707 15.3281 22.9936 15.2715 22.9988 15.2119C23.0041 15.1523 22.9916 15.0926 22.9628 15.0402L22.9598 15.0432ZM8.93462 16.7001C7.61814 16.7022 6.32944 16.3216 5.22536 15.6045L5.09256 15.517L2.13179 16.7243L3.38129 13.8208L3.28773 13.685C2.62514 12.7016 2.23163 11.5618 2.14633 10.3791C2.06104 9.19632 2.28695 8.01186 2.80158 6.94354C3.3162 5.87521 4.10161 4.96027 5.07965 4.28975C6.05768 3.61923 7.19425 3.2165 8.37627 3.12164C7.39105 4.07416 6.68384 5.277 6.33056 6.60107C5.97728 7.92513 5.99126 9.3204 6.37101 10.6371C6.75076 11.9538 7.48194 13.1423 8.48605 14.0748C9.49016 15.0074 10.7293 15.6489 12.0704 15.9305C11.1028 16.437 10.0268 16.7011 8.93462 16.7001ZM18.5926 13.6398C18.541 13.6226 18.4857 13.6197 18.4325 13.6314C18.3794 13.6431 18.3304 13.6689 18.2908 13.7062C17.03 14.8432 15.3963 15.4788 13.6987 15.4928C12.001 15.5067 10.357 14.898 9.0778 13.7819C7.79857 12.6657 6.97272 11.1194 6.75649 9.43549C6.54025 7.75158 6.94862 6.04681 7.90434 4.64363C8.86006 3.24045 10.2969 2.23617 11.943 1.82073C13.5891 1.4053 15.3304 1.60752 16.8375 2.38915C18.3446 3.17077 19.513 4.47761 20.1217 6.06247C20.7305 7.64733 20.7373 9.40032 20.1409 10.9899C20.1253 11.0309 20.1188 11.0748 20.1219 11.1186C20.1251 11.1624 20.1377 11.205 20.159 11.2434L22.0725 14.687L18.5926 13.6398Z" stroke-width="0.3"></path>
		<path d="M16.6608 6.13672H10.6246C10.5445 6.13672 10.4678 6.16852 10.4112 6.22512C10.3546 6.28172 10.3228 6.35848 10.3228 6.43853C10.3228 6.51858 10.3546 6.59534 10.4112 6.65194C10.4678 6.70854 10.5445 6.74034 10.6246 6.74034H16.6608C16.7408 6.74034 16.8176 6.70854 16.8742 6.65194C16.9308 6.59534 16.9626 6.51858 16.9626 6.43853C16.9626 6.35848 16.9308 6.28172 16.8742 6.22512C16.8176 6.16852 16.7408 6.13672 16.6608 6.13672Z" stroke-width="0.3"></path>
		<path d="M16.6608 8.24902H10.6246C10.5445 8.24902 10.4678 8.28082 10.4112 8.33742C10.3546 8.39402 10.3228 8.47079 10.3228 8.55083C10.3228 8.63088 10.3546 8.70765 10.4112 8.76425C10.4678 8.82085 10.5445 8.85265 10.6246 8.85265H16.6608C16.7408 8.85265 16.8176 8.82085 16.8742 8.76425C16.9308 8.70765 16.9626 8.63088 16.9626 8.55083C16.9626 8.47079 16.9308 8.39402 16.8742 8.33742C16.8176 8.28082 16.7408 8.24902 16.6608 8.24902Z" stroke-width="0.3"></path>
	</symbol>
	<symbol id="tools-library" viewBox="0 0 24 24">
		<path d="M10.5633 5.83887H8.17393C8.02192 5.83887 7.89893 5.96187 7.89893 6.11387C7.89893 6.26587 8.02192 6.38887 8.17393 6.38887H10.5633C10.7153 6.38887 10.8383 6.26587 10.8383 6.11387C10.8383 5.96187 10.7153 5.83887 10.5633 5.83887Z" stroke-width="0.3"></path>
		<path d="M10.5633 4.04102H8.17393C8.02192 4.04102 7.89893 4.16401 7.89893 4.31602C7.89893 4.46802 8.02192 4.59102 8.17393 4.59102H10.5633C10.7153 4.59102 10.8383 4.46802 10.8383 4.31602C10.8383 4.16401 10.7153 4.04102 10.5633 4.04102Z" stroke-width="0.3"></path>
		<path d="M4.00674 10.1186C4.88545 10.1186 5.57376 9.17861 5.57376 7.97871C5.57376 6.77881 4.88545 5.83887 4.00674 5.83887C3.12776 5.83887 2.43945 6.77881 2.43945 7.97871C2.43945 9.17861 3.12776 10.1186 4.00674 10.1186ZM4.00674 6.38887C4.55808 6.38887 5.02375 7.11692 5.02375 7.97871C5.02375 8.8405 4.55808 9.56855 4.00674 9.56855C3.4554 9.56855 2.98945 8.8405 2.98945 7.97871C2.98945 7.11692 3.4554 6.38887 4.00674 6.38887Z" stroke-width="0.3"></path>
		<path d="M18.8995 6.38887H21.2888C21.4408 6.38887 21.5638 6.26587 21.5638 6.11387C21.5638 5.96187 21.4408 5.83887 21.2888 5.83887H18.8995C18.7475 5.83887 18.6245 5.96187 18.6245 6.11387C18.6245 6.26587 18.7475 6.38887 18.8995 6.38887Z" stroke-width="0.3"></path>
		<path d="M18.8995 4.59102H21.2888C21.4408 4.59102 21.5638 4.46802 21.5638 4.31602C21.5638 4.16401 21.4408 4.04102 21.2888 4.04102H18.8995C18.7475 4.04102 18.6245 4.16401 18.6245 4.31602C18.6245 4.46802 18.7475 4.59102 18.8995 4.59102Z" stroke-width="0.3"></path>
		<path d="M22.725 1H17.4627C17.3107 1 17.1877 1.123 17.1877 1.275V2.35916H12.275V1.275C12.275 1.123 12.152 1 12 1H6.73767C6.58567 1 6.46267 1.123 6.46267 1.275V2.35916H1.275C1.123 2.35916 1 2.48215 1 2.63416V22.725C1 22.877 1.123 23 1.275 23H6.73767H12H17.4627H22.725C22.877 23 23 22.877 23 22.725V1.275C23 1.123 22.877 1 22.725 1ZM12.275 17.4981H17.1877V19.7228H12.275V17.4981ZM17.1877 2.90916V16.9481H12.275V2.90916H17.1877ZM1.55 17.4981H6.46267V19.7228H1.55V17.4981ZM6.46267 2.90916V16.9481H1.55V2.90916H6.46267ZM1.55 20.2728H6.46267V22.45H1.55V20.2728ZM7.01267 2.63416V1.55H11.725V2.63416V22.45H7.01267V2.63416ZM12.275 20.2728H17.1877V22.45H12.275V20.2728ZM22.45 22.45H17.7377V2.63416V1.55H22.45V22.45Z" stroke-width="0.3"></path>
		<path d="M14.7318 10.1186C15.6105 10.1186 16.2989 9.17861 16.2989 7.97871C16.2989 6.77881 15.6105 5.83887 14.7318 5.83887C13.8529 5.83887 13.1646 6.77881 13.1646 7.97871C13.1646 9.17861 13.8529 10.1186 14.7318 10.1186ZM14.7318 6.38887C15.2832 6.38887 15.7489 7.11692 15.7489 7.97871C15.7489 8.8405 15.2832 9.56855 14.7318 9.56855C14.1805 9.56855 13.7146 8.8405 13.7146 7.97871C13.7146 7.11692 14.1805 6.38887 14.7318 6.38887Z" stroke-width="0.3"></path>
	</symbol>
	<symbol id="tools-investors" viewBox="0 0 22 26">
		<path d="M6.26574 9.7168H3.58496V16.3878H6.26574V9.7168Z" stroke-miterlimit="10" stroke-linecap="round" stroke-linejoin="round"></path>
		<path d="M12.3404 7.54785H9.65967V16.3884H12.3404V7.54785Z" stroke-miterlimit="10" stroke-linecap="round" stroke-linejoin="round"></path>
		<path d="M18.4147 5.10742H15.7339V16.3887H18.4147V5.10742Z" stroke-miterlimit="10" stroke-linecap="round" stroke-linejoin="round"></path>
		<path d="M20.2345 16.3884H1.76549C1.06658 16.3884 0.5 15.8218 0.5 15.1229V2.26549C0.5 1.56658 1.06658 1 1.76549 1H20.2345C20.9334 1 21.5 1.56658 21.5 2.26549V15.1229C21.5 15.8218 20.9334 16.3884 20.2345 16.3884Z" stroke-miterlimit="10" stroke-linecap="round" stroke-linejoin="round"></path>
		<path d="M17.7531 24.7026L13.3428 16.3896" stroke-miterlimit="10" stroke-linecap="round" stroke-linejoin="round"></path>
		<path d="M8.65686 16.3896L4.24658 24.7026" stroke-miterlimit="10" stroke-linecap="round" stroke-linejoin="round"></path>
		<path d="M11.001 16.3887V24.7029" stroke-miterlimit="10" stroke-linecap="round" stroke-linejoin="round"></path>
		<path d="M6.26574 9.7168H3.58496V16.3878H6.26574V9.7168Z" stroke-miterlimit="10" stroke-linecap="round" stroke-linejoin="round"></path>
		<path d="M12.3404 7.54785H9.65967V16.3884H12.3404V7.54785Z" stroke-miterlimit="10" stroke-linecap="round" stroke-linejoin="round"></path>
		<path d="M18.4147 5.10742H15.7339V16.3887H18.4147V5.10742Z" stroke-miterlimit="10" stroke-linecap="round" stroke-linejoin="round"></path>
		<path d="M20.2345 16.3884H1.76549C1.06658 16.3884 0.5 15.8218 0.5 15.1229V2.26549C0.5 1.56658 1.06658 1 1.76549 1H20.2345C20.9334 1 21.5 1.56658 21.5 2.26549V15.1229C21.5 15.8218 20.9334 16.3884 20.2345 16.3884Z" stroke-miterlimit="10" stroke-linecap="round" stroke-linejoin="round"></path>
		<path d="M17.7531 24.7026L13.3428 16.3896" stroke-miterlimit="10" stroke-linecap="round" stroke-linejoin="round"></path>
		<path d="M8.65784 16.3896L4.24756 24.7026" stroke-miterlimit="10" stroke-linecap="round" stroke-linejoin="round"></path>
		<path d="M11.001 16.3887V24.7029" stroke-miterlimit="10" stroke-linecap="round" stroke-linejoin="round"></path>
	</symbol>
	<symbol id="user-logout" viewBox="0 0 24 24">
		<path d="M10.2501 11.25H0.75C0.335999 11.25 0 10.914 0 10.5C0 10.086 0.335999 9.75 0.75 9.75H10.2501C10.6641 9.75 11.0001 10.086 11.0001 10.5C11.0001 10.914 10.6641 11.25 10.2501 11.25Z" fill="#8EABC9" />
		<path d="M6.49982 15C6.30774 15 6.11584 14.9269 5.96973 14.7801C5.67676 14.4869 5.67676 14.012 5.96973 13.719L9.18982 10.4991L5.96973 7.28009C5.67676 6.98694 5.67676 6.51196 5.96973 6.21899C6.2627 5.92603 6.73767 5.92603 7.03082 6.21899L10.7808 9.96899C11.0738 10.262 11.0738 10.7369 10.7808 11.0301L7.03082 14.7801C6.88379 14.9269 6.69171 15 6.49982 15V15Z" fill="#8EABC9" />
		<path d="M15.9999 24C14.8969 24 14 23.103 14 22V3.99996C14 3.14504 14.544 2.38204 15.3539 2.10097L21.3619 0.0979831C22.7059 -0.314004 23.9999 0.683005 23.9999 2.00008V20.0001C23.9999 20.8541 23.4559 21.616 22.647 21.898L16.6369 23.9021C16.4179 23.97 16.215 24 15.9999 24V24ZM21.9999 1.50002C21.9349 1.50002 21.8799 1.50808 21.821 1.52602L15.838 3.52096C15.6419 3.58907 15.5 3.78701 15.5 3.99996V22C15.5 22.3411 15.8699 22.5711 16.179 22.474L22.1619 20.4791C22.3569 20.411 22.4999 20.213 22.4999 20.0001V2.00008C22.4999 1.72506 22.276 1.50002 21.9999 1.50002V1.50002Z" fill="#8EABC9" />
		<path d="M8.75 5.00006C8.336 5.00006 8 4.66406 8 4.25006V2.75006C8 1.23303 9.23285 0 10.7499 0H21.9999C22.4139 0 22.7499 0.335999 22.7499 0.75C22.7499 1.164 22.4139 1.5 21.9999 1.5H10.7499C10.0609 1.5 9.5 2.06104 9.5 2.75006V4.25006C9.5 4.66406 9.164 5.00006 8.75 5.00006V5.00006Z" fill="#8EABC9" />
		<path d="M14.75 21.0001H10.7499C9.23285 21.0001 8 19.767 8 18.25V16.75C8 16.336 8.336 16 8.75 16C9.164 16 9.5 16.336 9.5 16.75V18.25C9.5 18.939 10.0609 19.5001 10.7499 19.5001H14.75C15.164 19.5001 15.5 19.8361 15.5 20.2501C15.5 20.6641 15.164 21.0001 14.75 21.0001Z" fill="#8EABC9" />
	</symbol>
</svg>