<svg xmlns="http://www.w3.org/2000/svg" xmlns:xlink="http://www.w3.org/1999/xlink">
	<symbol id="projects" viewBox="0 0 23 23">
		<path d="M14.0278 19.5486L11.5764 22L11.5764 16.4101C9.7327 16.938 8.13199 16.7872 7.17241 15.8276C6.21283 14.868 6.06196 13.2673 6.58992 11.4236L1 11.4236L3.45139 8.97221C4.74199 7.6816 6.57319 7.69416 7.85543 8.55737C8.60967 7.25837 9.62794 5.93841 10.8641 4.70228C14.9538 0.612507 21.9894 1.01057 21.9894 1.01057C21.9894 1.01057 22.3875 8.04616 18.2977 12.1359C17.0616 13.3721 15.7416 14.3903 14.4426 15.1446C15.3058 16.4268 15.3184 18.258 14.0278 19.5486Z" stroke-miterlimit="10" stroke-linecap="round" stroke-linejoin="round"></path>
		<path d="M16.313 8.46382C17.2948 8.46382 18.0908 7.66787 18.0908 6.68601C18.0908 5.70416 17.2948 4.9082 16.313 4.9082C15.3311 4.9082 14.5352 5.70416 14.5352 6.68601C14.5352 7.66787 15.3311 8.46382 16.313 8.46382Z" stroke-miterlimit="10" stroke-linecap="round" stroke-linejoin="round"></path>
		<path d="M6.09824 19.6888C5.32877 20.4583 2.30859 20.6919 2.30859 20.6919C2.30859 20.6919 2.54226 17.6718 3.31174 16.9023C4.08121 16.1328 5.32877 16.1328 6.09824 16.9023C6.86772 17.6718 6.86772 18.9193 6.09824 19.6888Z" stroke-miterlimit="10" stroke-linecap="round" stroke-linejoin="round"></path>
	</symbol>
	<symbol id="investments-land" viewBox="0 0 22 22">
		<path d="M21.9569 12.2774C21.9205 12.2166 21.8638 12.1706 21.7967 12.1475C21.7297 12.1244 21.6567 12.1257 21.5906 12.1512L20.1297 12.7141C18.0491 13.5228 16.3132 15.0277 15.2176 16.9725C15.2977 15.4478 15.7205 13.9609 16.4546 12.6221C17.1887 11.2834 18.2151 10.1275 19.4576 9.2402L19.7804 9.01023C19.8383 8.9688 19.8796 8.90819 19.897 8.83917C19.9144 8.77016 19.9068 8.6972 19.8755 8.63328C19.8441 8.56936 19.7912 8.51862 19.726 8.49009C19.6607 8.46155 19.5875 8.45706 19.5193 8.47742C17.1333 9.18591 15.0687 10.7037 13.6807 12.7698C14.0115 10.5636 14.898 8.47772 16.257 6.70848L17.3247 5.30942C17.3679 5.25267 17.3896 5.18238 17.3858 5.11112C17.3821 5.03986 17.3531 4.97227 17.304 4.92041C17.255 4.86855 17.1891 4.83582 17.1182 4.82805C17.0473 4.82028 16.9759 4.83799 16.9168 4.87801C14.8385 6.27986 13.1666 8.20503 12.0699 10.4593C11.4495 7.46742 10.2348 4.63054 8.49767 2.11684C8.01305 1.41653 7.48938 0.744063 6.92914 0.102634C6.88183 0.0481351 6.81651 0.0124624 6.74508 0.00212551C6.67366 -0.00821136 6.6009 0.00747679 6.54008 0.0463272C6.47926 0.0851776 6.43444 0.1446 6.41379 0.213752C6.39315 0.282903 6.39805 0.357173 6.42761 0.423009L7.52761 2.88546C8.43825 4.9212 9.03485 7.08328 9.29706 9.29795C8.22631 7.53871 6.78865 6.03117 5.08217 4.87818C5.02309 4.83816 4.9517 4.82046 4.88076 4.82822C4.80983 4.83599 4.74396 4.86873 4.69494 4.92058C4.64591 4.97244 4.61692 5.04003 4.61314 5.11129C4.60936 5.18256 4.63105 5.25284 4.67431 5.30959L5.742 6.70865C7.10091 8.47784 7.98746 10.5636 8.31824 12.7698C6.93032 10.7036 4.86574 9.18566 2.47964 8.47707C2.41142 8.45663 2.33816 8.46106 2.27289 8.48958C2.20763 8.51809 2.15461 8.56883 2.12325 8.63278C2.0919 8.69673 2.08425 8.76972 2.10167 8.83878C2.11909 8.90783 2.16045 8.96847 2.21839 9.00988L2.54134 9.23985C3.78388 10.1271 4.81037 11.2832 5.54445 12.622C6.27853 13.9607 6.70131 15.4478 6.78133 16.9725C5.68577 15.0277 3.94987 13.5228 1.86931 12.7141L0.408376 12.1511C0.342251 12.1256 0.26926 12.1243 0.202271 12.1474C0.135282 12.1705 0.078596 12.2165 0.0422066 12.2773C0.00581727 12.3381 -0.00793892 12.4098 0.00336324 12.4797C0.0146654 12.5497 0.0503002 12.6134 0.103985 12.6596L1.78699 14.1082C2.77241 14.9553 3.56314 16.0053 4.10504 17.1863C4.64693 18.3674 4.92719 19.6516 4.92663 20.9511V21.3979H2.99303C2.95353 21.3979 2.91442 21.4057 2.87793 21.4208C2.84144 21.436 2.80828 21.4581 2.78035 21.486C2.75242 21.514 2.73026 21.5471 2.71515 21.5836C2.70003 21.6201 2.69225 21.6592 2.69225 21.6987C2.69225 21.7382 2.70003 21.7773 2.71515 21.8138C2.73026 21.8503 2.75242 21.8835 2.78035 21.9114C2.80828 21.9393 2.84144 21.9615 2.87793 21.9766C2.91442 21.9917 2.95353 21.9995 2.99303 21.9995H19.0061C19.0859 21.9995 19.1624 21.9678 19.2188 21.9114C19.2752 21.855 19.3069 21.7785 19.3069 21.6987C19.3069 21.619 19.2752 21.5424 19.2188 21.486C19.1624 21.4296 19.0859 21.3979 19.0061 21.3979H17.0723C17.0505 20.4084 17.1683 19.4208 17.4223 18.4642C17.9072 16.7711 18.8769 15.2569 20.212 14.1082L21.8953 12.6596C21.9489 12.6134 21.9845 12.5497 21.9958 12.4797C22.007 12.4098 21.9932 12.3382 21.9569 12.2774ZM5.52819 21.3979V20.9511C5.52884 19.5651 5.22998 18.1954 4.65208 16.9356C4.07417 15.6759 3.23086 14.5559 2.17989 13.6524L1.81775 13.3408C3.312 13.9583 4.61457 14.9631 5.59121 16.2516C6.56785 17.5401 7.18324 19.0657 7.37395 20.6713C7.40157 20.9128 7.4195 21.1551 7.42775 21.3981L5.52819 21.3979ZM9.52583 21.3979H8.03155C8.02948 21.328 8.0245 21.2579 8.02072 21.1879C7.96866 20.1838 7.75875 19.1942 7.3987 18.2554V17.4964C7.39735 16.0645 7.11026 14.6473 6.55426 13.3278C5.99827 12.0082 5.18454 10.8129 4.16075 9.81185C6.03471 10.8124 7.54643 12.3771 8.48186 14.2844C9.16868 15.678 9.52587 17.2109 9.52583 18.7646V21.3979ZM10.6989 21.3979H10.1272V20.1513C10.1272 19.6884 10.1272 19.2256 10.1272 18.7628V18.7616C10.1272 18.5553 10.1195 18.3515 10.1081 18.1481V18.1466C10.0308 16.7204 9.66988 15.3239 9.04647 14.0388C8.92393 11.484 8.08742 9.01483 6.63197 6.91163C9.04554 9.2347 10.4918 12.3842 10.6808 15.7288C10.6923 15.9537 10.698 16.1789 10.698 16.4043L10.6989 21.3979ZM10.0186 10.6429C9.86563 7.87912 9.20778 5.16676 8.07761 2.64002L7.98342 2.42879C8.54281 3.23416 9.04809 4.07579 9.49592 4.94813C10.092 6.11066 10.5844 7.32353 10.9672 8.57263C11.2551 9.50952 11.4806 10.4644 11.6425 11.4311C11.3711 12.1219 11.156 12.8336 10.9995 13.5591C10.7831 12.5532 10.4541 11.575 10.0186 10.6429ZM11.8718 21.3979H11.3003V16.405C11.3029 14.8206 11.5941 13.25 12.1596 11.77C12.862 9.93631 13.9566 8.27822 15.3668 6.91181C13.9115 9.01493 13.0751 11.484 12.9525 14.0386C12.3345 15.3126 11.9746 16.6962 11.8932 18.1098C11.8259 19.201 11.8718 20.305 11.8718 21.3979ZM13.9674 21.3979H12.4733V18.7616C12.4737 18.3665 12.4967 17.9718 12.5421 17.5794C12.7348 15.9541 13.3169 14.3994 14.239 13.0472C15.161 11.695 16.3958 10.5853 17.8384 9.81237C16.8146 10.8134 16.0009 12.0086 15.4449 13.328C14.8889 14.6475 14.6017 16.0646 14.6003 17.4964V18.2547C14.2402 19.1935 14.0303 20.1832 13.9783 21.1874C13.9745 21.2579 13.9695 21.328 13.9674 21.3979ZM19.8193 13.6524C17.9625 15.2577 16.7845 17.508 16.5232 19.9485C16.4811 20.4305 16.4639 20.9144 16.4716 21.3981H14.5712C14.5792 21.1549 14.5972 20.9123 14.6252 20.6704C14.816 19.065 15.4315 17.5396 16.4081 16.2512C17.3848 14.9629 18.6873 13.9582 20.1814 13.3408L19.8193 13.6524Z" stroke-width="0.1"></path>
	</symbol>
	<symbol id="investments-business" viewBox="0 0 23 20">

		<path d="M21.9999 4.73153C21.9999 4.24311 21.6039 3.84717 21.1155 3.84717H1.88436C1.39594 3.84717 1 4.24311 1 4.73153V17.7802C1 18.5388 1.61501 19.1538 2.37367 19.1538H20.6262C21.3848 19.1538 21.9999 18.5388 21.9999 17.7802V4.73153H21.9999Z" stroke-miterlimit="10" stroke-linecap="round" stroke-linejoin="round"></path>
		<path d="M14.3872 3.8466H8.61182V1.79321C8.61182 1.35513 8.96695 1 9.40503 1H13.5939C14.032 1 14.3872 1.35513 14.3872 1.79321V3.8466Z" stroke-miterlimit="10" stroke-linecap="round" stroke-linejoin="round"></path>
		<path d="M18.5542 19.1519V6.82324" stroke-miterlimit="10" stroke-linecap="round" stroke-linejoin="round"></path>
		<path d="M4.44434 19.1519V6.82324" stroke-miterlimit="10" stroke-linecap="round" stroke-linejoin="round"></path>
		<path d="M13.3687 8.59066C17.9317 7.85129 22.0005 4.73193 22.0005 4.73193" stroke-miterlimit="10" stroke-linecap="round" stroke-linejoin="round"></path>
		<path d="M1.00195 4.73193C1.00195 4.73193 5.07505 7.85129 9.6294 8.59066" stroke-miterlimit="10" stroke-linecap="round" stroke-linejoin="round"></path>
		<path d="M13.414 8.75277C13.414 9.25881 12.5566 9.6657 11.5022 9.6657C10.4434 9.6657 9.58594 9.25881 9.58594 8.75277C9.58594 8.68499 9.59908 8.62236 9.6297 8.55976C9.81782 8.14765 10.5834 7.83984 11.5022 7.83984C12.4166 7.83984 13.1822 8.14765 13.3703 8.55976C13.4009 8.62236 13.414 8.68499 13.414 8.75277Z" stroke-miterlimit="10" stroke-linecap="round" stroke-linejoin="round"></path>
	</symbol>

	<symbol id="investments-franchising" viewBox="0 0 22 22">
		<path d="M2.49186 12.7021C2.70877 12.7021 2.88464 12.5262 2.88464 12.3093C2.87918 9.84465 3.99734 7.51195 5.92207 5.97254C6.08652 5.85446 6.12416 5.62541 6.00608 5.46097C5.9964 5.44749 5.98583 5.43471 5.97445 5.42268C5.83647 5.25754 5.59124 5.23418 5.42459 5.37031C3.32218 7.06008 2.09922 9.61195 2.09912 12.3093C2.09907 12.5262 2.27494 12.7021 2.49186 12.7021Z" fill="#1F2E35"></path>
		<path d="M13.5944 20.0075C11.9189 20.5571 10.1116 20.5571 8.43604 20.0075C8.22964 19.9407 8.00822 20.0538 7.94136 20.2601C7.94036 20.2632 7.9394 20.2662 7.9385 20.2693C7.88502 20.4778 7.99824 20.6929 8.20032 20.7668C9.10518 21.061 10.0506 21.2112 11.0021 21.212C11.9729 21.2129 12.9373 21.0537 13.8562 20.7407C14.049 20.6411 14.1245 20.4042 14.025 20.2115C13.9438 20.0542 13.7675 19.9707 13.5944 20.0075Z" fill="#1F2E35"></path>
		<path d="M19.1193 12.309C19.1193 12.5259 19.2952 12.7018 19.5121 12.7018C19.729 12.7018 19.9049 12.5259 19.9049 12.309C19.8977 9.41589 18.4932 6.70454 16.1343 5.0296C15.9511 4.91899 15.7141 4.96415 15.5844 5.13435C15.461 5.31277 15.5057 5.55741 15.6841 5.6808C15.6857 5.68195 15.6874 5.68311 15.6892 5.68426C17.8363 7.20809 19.1141 9.67606 19.1193 12.309Z" fill="#1F2E35"></path>
		<path d="M13.0966 2.83021V2.35889H12.311V2.83021C12.311 3.04712 12.4869 3.22299 12.7038 3.22299C12.9207 3.22299 13.0966 3.04717 13.0966 2.83021Z" fill="#1F2E35"></path>
		<path d="M9.69275 2.83021V2.35889H8.90723V2.83021C8.90723 3.04712 9.08309 3.22299 9.30001 3.22299C9.51688 3.22299 9.69275 3.04717 9.69275 2.83021Z" fill="#1F2E35"></path>
		<path d="M11.5259 2.83021V2.35889H10.4785V2.83021C10.4785 3.06587 10.7927 3.24916 11.0022 3.24916C11.2117 3.24916 11.5259 3.06587 11.5259 2.83021Z" fill="#1F2E35"></path>
		<path d="M13.8817 1.57327V0.630628C13.8817 0.525879 13.777 0.525879 13.646 0.525879H8.35676C8.25201 0.525879 8.12109 0.525879 8.12109 0.630628V1.57327H8.61863H13.8817Z" fill="#1F2E35"></path>
		<path d="M7.96411 2.9088C8.06886 2.9088 8.12123 2.83026 8.12123 2.6993V2.35889H7.85941V2.6993C7.84643 2.76525 7.86593 2.83342 7.91178 2.88258C7.93795 2.88258 7.91178 2.88258 7.93795 2.90875H7.96411V2.9088Z" fill="#1F2E35"></path>
		<path d="M14.1447 2.35889H13.8828V2.75167C13.8665 2.82209 13.9103 2.89246 13.9808 2.90879C14.0002 2.91331 14.0205 2.91331 14.0399 2.90879H14.0661C14.0661 2.90879 14.0399 2.88263 14.0661 2.88263C14.1215 2.83873 14.1511 2.76976 14.1447 2.69935V2.35889Z" fill="#1F2E35"></path>
		<path d="M13.646 7.3341C13.777 7.3341 13.8817 7.3341 13.8817 7.22935V3.69439C13.7526 3.69123 13.6264 3.65514 13.5151 3.58964C13.2905 3.8663 12.9549 4.02928 12.5986 4.0348C12.307 4.03094 12.027 3.91897 11.8131 3.7206C11.5886 3.91867 11.3008 4.03009 11.0014 4.0348C10.7097 4.03094 10.4298 3.91897 10.2159 3.7206C9.99134 3.91867 9.70351 4.03009 9.40415 4.0348C9.04148 4.03069 8.70198 3.85607 8.48767 3.56348C8.38292 3.64201 8.38292 3.66823 8.12109 3.69439V7.22935C8.12109 7.3341 8.25201 7.3341 8.35676 7.3341H9.16849V5.31785C9.16849 5.10835 9.24702 4.97744 9.45652 4.97744H12.5725C12.782 4.97744 12.8343 5.10835 12.8343 5.31785V7.3341H13.646Z" fill="#1F2E35"></path>
		<path d="M12.0494 5.7627H9.95459V7.33378H12.0494V5.7627Z" fill="#1F2E35"></path>
		<path d="M4.84884 17.3888C5.06992 17.375 5.24203 17.1914 5.24163 16.9699V16.4985H4.45606V16.9699C4.4556 17.1914 4.62771 17.375 4.84884 17.3888Z" fill="#1F2E35"></path>
		<path d="M3.14674 17.3888C3.35624 17.3888 3.67044 17.2055 3.67044 16.9699V16.4985H2.62305V16.9699C2.62305 17.2055 2.9373 17.3888 3.14674 17.3888Z" fill="#1F2E35"></path>
		<path d="M6.02676 15.7129V14.7703C6.02676 14.6655 5.92202 14.6655 5.7911 14.6655H0.501774C0.397025 14.6655 0.266113 14.6655 0.266113 14.7703V15.7129H0.763647H6.02676Z" fill="#1F2E35"></path>
		<path d="M4.74367 18.1744C4.45197 18.1706 4.17206 18.0586 3.95815 17.8602C3.73361 18.0583 3.44578 18.1697 3.14642 18.1744C2.85472 18.1706 2.57481 18.0586 2.3609 17.8602C2.13636 18.0583 1.84853 18.1697 1.54917 18.1744C1.1865 18.1703 0.846995 17.9957 0.632686 17.7031C0.527936 17.7817 0.527936 17.8079 0.266113 17.834V21.369C0.266113 21.4737 0.397025 21.4737 0.501774 21.4737H1.31351V19.4575C1.31351 19.248 1.39204 19.1171 1.60154 19.1171H4.71751C4.927 19.1171 4.97933 19.248 4.97933 19.4575V21.4737H5.79106C5.92197 21.4737 6.02672 21.4737 6.02672 21.369V17.834C5.89761 17.8309 5.77141 17.7948 5.66015 17.7293C5.43551 18.0059 5.09997 18.1689 4.74367 18.1744Z" fill="#1F2E35"></path>
		<path d="M1.44454 17.3888C1.66562 17.375 1.83773 17.1914 1.83733 16.9699V16.4985H1.05176V16.9699C1.05136 17.1914 1.22347 17.375 1.44454 17.3888Z" fill="#1F2E35"></path>
		<path d="M4.19342 19.9028H2.09863V21.4739H4.19342V19.9028Z" fill="#1F2E35"></path>
		<path d="M6.28819 16.4985H6.02636V16.8913C6.01003 16.9617 6.05388 17.0321 6.12435 17.0484C6.14379 17.053 6.16404 17.053 6.18349 17.0484H6.20965C6.20965 17.0484 6.18349 17.0223 6.20965 17.0223C6.26508 16.9784 6.29465 16.9094 6.28819 16.839V16.4985Z" fill="#1F2E35"></path>
		<path d="M0.266253 16.4985H0.00442978V16.8389C-0.00855111 16.9049 0.0109453 16.9731 0.0568044 17.0222H0.109179C0.213928 17.0222 0.266303 16.9437 0.266303 16.8127V16.4985H0.266253Z" fill="#1F2E35"></path>
		<path d="M18.8572 17.3888C19.0667 17.3888 19.3809 17.2055 19.3809 16.9699V16.4985H18.3335V16.9699C18.3335 17.2055 18.6477 17.3888 18.8572 17.3888Z" fill="#1F2E35"></path>
		<path d="M17.1559 17.3888C17.377 17.375 17.5491 17.1914 17.5487 16.9699V16.4985H16.7632V16.9699C16.7627 17.1914 16.9348 17.375 17.1559 17.3888Z" fill="#1F2E35"></path>
		<path d="M20.4551 18.1744C20.1634 18.1706 19.8835 18.0586 19.6696 17.8602C19.445 18.0583 19.1572 18.1697 18.8578 18.1744C18.5661 18.1706 18.2862 18.0586 18.0723 17.8602C17.8478 18.0583 17.56 18.1697 17.2606 18.1744C16.8979 18.1703 16.5584 17.9957 16.3441 17.7031C16.2394 17.7817 16.2394 17.8079 15.9775 17.834V21.369C15.9775 21.4737 16.1085 21.4737 16.2132 21.4737H17.0249V19.4575C17.0249 19.248 17.1035 19.1171 17.313 19.1171H20.4289C20.6384 19.1171 20.6908 19.248 20.6908 19.4575V21.4737H21.5025C21.6334 21.4737 21.7381 21.4737 21.7381 21.369V17.834C21.609 17.8309 21.4828 17.7948 21.3716 17.7293C21.1469 18.0059 20.8114 18.1689 20.4551 18.1744Z" fill="#1F2E35"></path>
		<path d="M15.7154 16.4985V16.8389C15.7024 16.9049 15.7219 16.9731 15.7677 17.0222H15.8201C15.9249 17.0222 15.9772 16.9437 15.9772 16.8127V16.4985H15.7154Z" fill="#1F2E35"></path>
		<path d="M15.9771 14.7703V15.7129H21.7377V14.7703C21.7377 14.6655 21.633 14.6655 21.502 14.6655H16.2127C16.108 14.6655 15.9771 14.6655 15.9771 14.7703Z" fill="#1F2E35"></path>
		<path d="M20.5597 17.3888C20.7808 17.375 20.9529 17.1914 20.9525 16.9699V16.4985H20.167V16.9699C20.1665 17.1914 20.3386 17.375 20.5597 17.3888Z" fill="#1F2E35"></path>
		<path d="M19.9048 19.9028H17.8101V21.4739H19.9048V19.9028Z" fill="#1F2E35"></path>
		<path d="M21.9996 16.8389V16.4985H21.7378V16.8913C21.7215 16.9617 21.7653 17.0321 21.8358 17.0484C21.8552 17.053 21.8755 17.053 21.8949 17.0484H21.9211C21.9211 17.0484 21.8949 17.0223 21.9211 17.0223C21.9765 16.9783 22.006 16.9094 21.9996 16.8389Z" fill="#1F2E35"></path>
	</symbol>
	<symbol id="investments-offer" viewBox="0 0 23 26">
		<path d="M6.76574 9.71729H4.08496V16.3883H6.76574V9.71729Z" stroke-miterlimit="10" stroke-linecap="round" stroke-linejoin="round"></path>
		<path d="M12.8404 7.54834H10.1597V16.3889H12.8404V7.54834Z" stroke-miterlimit="10" stroke-linecap="round" stroke-linejoin="round"></path>
		<path d="M18.9147 5.10742H16.2339V16.3887H18.9147V5.10742Z" stroke-miterlimit="10" stroke-linecap="round" stroke-linejoin="round"></path>
		<path d="M20.7345 16.3884H2.26549C1.56658 16.3884 1 15.8218 1 15.1229V2.26549C1 1.56658 1.56658 1 2.26549 1H20.7345C21.4334 1 22 1.56658 22 2.26549V15.1229C22 15.8218 21.4334 16.3884 20.7345 16.3884Z" stroke-miterlimit="10" stroke-linecap="round" stroke-linejoin="round"></path>
		<path d="M18.2531 24.703L13.8428 16.3901" stroke-miterlimit="10" stroke-linecap="round" stroke-linejoin="round"></path>
		<path d="M9.15686 16.3901L4.74658 24.703" stroke-miterlimit="10" stroke-linecap="round" stroke-linejoin="round"></path>
		<path d="M11.501 16.3887V24.7029" stroke-miterlimit="10" stroke-linecap="round" stroke-linejoin="round"></path>
		<path d="M6.76574 9.71729H4.08496V16.3883H6.76574V9.71729Z" stroke-miterlimit="10" stroke-linecap="round" stroke-linejoin="round"></path>
		<path d="M12.8404 7.54785H10.1597V16.3884H12.8404V7.54785Z" stroke-miterlimit="10" stroke-linecap="round" stroke-linejoin="round"></path>
		<path d="M18.9147 5.10742H16.2339V16.3887H18.9147V5.10742Z" stroke-miterlimit="10" stroke-linecap="round" stroke-linejoin="round"></path>
		<path d="M20.7345 16.3884H2.26549C1.56658 16.3884 1 15.8218 1 15.1229V2.26549C1 1.56658 1.56658 1 2.26549 1H20.7345C21.4334 1 22 1.56658 22 2.26549V15.1229C22 15.8218 21.4334 16.3884 20.7345 16.3884Z" stroke-miterlimit="10" stroke-linecap="round" stroke-linejoin="round"></path>
		<path d="M18.2531 24.7026L13.8428 16.3896" stroke-miterlimit="10" stroke-linecap="round" stroke-linejoin="round"></path>
		<path d="M9.15784 16.3896L4.74756 24.7026" stroke-miterlimit="10" stroke-linecap="round" stroke-linejoin="round"></path>
		<path d="M11.501 16.3887V24.7029" stroke-miterlimit="10" stroke-linecap="round" stroke-linejoin="round"></path>
	</symbol>
	<symbol id="investments-realestate" viewBox="0 0 24 24">
		<path fill-rule="evenodd" clip-rule="evenodd" d="M21.6667 22.3333H22.6667C22.8508 22.3333 23 22.4826 23 22.6667C23 22.8508 22.8508 23 22.6667 23H1.33333C1.14924 23 1 22.8508 1 22.6667C1 22.4826 1.14924 22.3333 1.33333 22.3333H2.33333V7.66667C2.33333 7.48257 2.48257 7.33333 2.66667 7.33333H9V1.33333C9 1.14924 9.14924 1 9.33333 1H21.3333C21.5174 1 21.6667 1.14924 21.6667 1.33333V22.3333ZM18.3333 22.3333H21V1.66667H9.66667V22.3333H12.3333V17.3333C12.3333 17.1492 12.4826 17 12.6667 17H18C18.1841 17 18.3333 17.1492 18.3333 17.3333V22.3333ZM3 22.3333H9V8H3V22.3333ZM15.6667 22.3333H17.6667V17.6667H15.6667V22.3333ZM13 22.3333H15V17.6667H13V22.3333ZM7.33333 14C7.51743 14 7.66667 14.1492 7.66667 14.3333C7.66667 14.5174 7.51743 14.6667 7.33333 14.6667H4.66667C4.48257 14.6667 4.33333 14.5174 4.33333 14.3333C4.33333 14.1492 4.48257 14 4.66667 14H7.33333ZM7.33333 17.3333C7.51743 17.3333 7.66667 17.4826 7.66667 17.6667C7.66667 17.8508 7.51743 18 7.33333 18H4.66667C4.48257 18 4.33333 17.8508 4.33333 17.6667C4.33333 17.4826 4.48257 17.3333 4.66667 17.3333H7.33333ZM7.33333 10.6667C7.51743 10.6667 7.66667 10.8159 7.66667 11C7.66667 11.1841 7.51743 11.3333 7.33333 11.3333H4.66667C4.48257 11.3333 4.33333 11.1841 4.33333 11C4.33333 10.8159 4.48257 10.6667 4.66667 10.6667H7.33333ZM14 14C14.1841 14 14.3333 14.1492 14.3333 14.3333C14.3333 14.5174 14.1841 14.6667 14 14.6667H12C11.8159 14.6667 11.6667 14.5174 11.6667 14.3333C11.6667 14.1492 11.8159 14 12 14H14ZM18.6667 14C18.8508 14 19 14.1492 19 14.3333C19 14.5174 18.8508 14.6667 18.6667 14.6667H16.6667C16.4826 14.6667 16.3333 14.5174 16.3333 14.3333C16.3333 14.1492 16.4826 14 16.6667 14H18.6667ZM14 10.6667C14.1841 10.6667 14.3333 10.8159 14.3333 11C14.3333 11.1841 14.1841 11.3333 14 11.3333H12C11.8159 11.3333 11.6667 11.1841 11.6667 11C11.6667 10.8159 11.8159 10.6667 12 10.6667H14ZM18.6667 10.6667C18.8508 10.6667 19 10.8159 19 11C19 11.1841 18.8508 11.3333 18.6667 11.3333H16.6667C16.4826 11.3333 16.3333 11.1841 16.3333 11C16.3333 10.8159 16.4826 10.6667 16.6667 10.6667H18.6667ZM14 7.33333C14.1841 7.33333 14.3333 7.48257 14.3333 7.66667C14.3333 7.85076 14.1841 8 14 8H12C11.8159 8 11.6667 7.85076 11.6667 7.66667C11.6667 7.48257 11.8159 7.33333 12 7.33333H14ZM18.6667 7.33333C18.8508 7.33333 19 7.48257 19 7.66667C19 7.85076 18.8508 8 18.6667 8H16.6667C16.4826 8 16.3333 7.85076 16.3333 7.66667C16.3333 7.48257 16.4826 7.33333 16.6667 7.33333H18.6667ZM14 4C14.1841 4 14.3333 4.14924 14.3333 4.33333C14.3333 4.51743 14.1841 4.66667 14 4.66667H12C11.8159 4.66667 11.6667 4.51743 11.6667 4.33333C11.6667 4.14924 11.8159 4 12 4H14ZM18.6667 4C18.8508 4 19 4.14924 19 4.33333C19 4.51743 18.8508 4.66667 18.6667 4.66667H16.6667C16.4826 4.66667 16.3333 4.51743 16.3333 4.33333C16.3333 4.14924 16.4826 4 16.6667 4H18.6667Z" fill="#1F2E35" stroke-width="0.3"></path>
	</symbol>
	<symbol id="add-inv-prop" viewBox="0 0 23 20">
		<path d="M15.0091 14.4555C15.2743 14.7956 15.6033 15.0986 15.9881 15.3434C16.4452 15.6343 16.94 15.8155 17.4436 15.9031C18.9444 16.1518 20.5184 15.5077 21.3863 14.1439C22.5481 12.3224 22.0107 9.90379 20.1867 8.74573C18.3659 7.58697 15.9504 8.1237 14.7885 9.94524C13.8746 11.3813 14.0145 13.1884 15.0091 14.4555Z" stroke-miterlimit="10" stroke-linecap="round" stroke-linejoin="round"></path>
		<path d="M13.7246 18.8317C14.3836 19.2511 15.2569 19.0603 15.6794 18.4006L17.4431 15.9031C16.9396 15.8155 16.4447 15.6344 15.9876 15.3435C15.6029 15.0987 15.2739 14.7956 15.0086 14.4556L13.2879 16.8813C12.8685 17.5403 13.0655 18.4123 13.7246 18.8317Z" stroke-miterlimit="10" stroke-linecap="round" stroke-linejoin="round"></path>
		<path d="M15.0116 14.4517L15.0093 14.4553" stroke-miterlimit="10" stroke-linecap="round" stroke-linejoin="round"></path>
		<path d="M20.1055 8.69272V1.59925C20.1055 1.26856 19.8374 1.00049 19.5067 1.00049H1.59925C1.26856 1.00049 1.00049 1.26856 1.00049 1.59925V12.0935C1.00049 12.4242 1.26856 12.6923 1.59925 12.6923H14.2317" stroke-miterlimit="10" stroke-linecap="round" stroke-linejoin="round"></path>
		<path d="M16.3306 1C16.3306 3.08467 18.0205 4.77463 20.1052 4.77463" stroke-miterlimit="10" stroke-linecap="round" stroke-linejoin="round"></path>
		<path d="M1 4.77512C3.08467 4.77512 4.77463 3.08516 4.77463 1.00049" stroke-miterlimit="10" stroke-linecap="round" stroke-linejoin="round"></path>
		<path d="M4.77463 12.6906C4.77463 10.606 3.08467 8.91602 1 8.91602" stroke-miterlimit="10" stroke-linecap="round" stroke-linejoin="round"></path>
		<path d="M10.5526 10.6292C12.6422 10.6292 14.3362 8.9352 14.3362 6.84559C14.3362 4.75598 12.6422 3.06201 10.5526 3.06201C8.46301 3.06201 6.76904 4.75598 6.76904 6.84559C6.76904 8.9352 8.46301 10.6292 10.5526 10.6292Z" stroke-miterlimit="10" stroke-linecap="round" stroke-linejoin="round"></path>
		<path d="M11.5901 5.80784C11.5901 5.23488 11.1248 4.77393 10.5519 4.77393C9.97891 4.77393 9.51367 5.23488 9.51367 5.80784C9.51367 6.3808 9.97891 6.84604 10.5519 6.84604" stroke-miterlimit="10" stroke-linecap="round" stroke-linejoin="round"></path>
		<path d="M9.51367 7.88393C9.51367 8.45258 9.97891 8.91784 10.5519 8.91784C11.1248 8.91784 11.5901 8.45258 11.5901 7.88393C11.5901 7.31097 11.1248 6.8457 10.5519 6.8457" stroke-miterlimit="10" stroke-linecap="round" stroke-linejoin="round"></path>
		<path d="M10.5522 8.91797V9.44352" stroke-miterlimit="10" stroke-linecap="round" stroke-linejoin="round"></path>
		<path d="M10.5522 4.24805V4.7736" stroke-miterlimit="10" stroke-linecap="round" stroke-linejoin="round"></path>
	</symbol>
	<symbol id="investor" viewBox="0 0 23 23">
		<path d="M8.58089 15.2091L4.38801 19.1224C4.35416 19.154 4.32731 19.1915 4.309 19.2328C4.29068 19.274 4.28125 19.3183 4.28125 19.3629C4.28125 19.4076 4.29068 19.4518 4.309 19.4931C4.32731 19.5344 4.35416 19.5719 4.38801 19.6035C4.42185 19.6351 4.46204 19.6601 4.50626 19.6772C4.55048 19.6943 4.59788 19.7031 4.64575 19.7031C4.69361 19.7031 4.74101 19.6943 4.78523 19.6772C4.82945 19.6601 4.86964 19.6351 4.90348 19.6035L9.09637 15.6901C9.16472 15.6263 9.20312 15.5398 9.20312 15.4496C9.20312 15.3593 9.16472 15.2728 9.09637 15.209C9.06252 15.1774 9.02234 15.1524 8.97812 15.1353C8.93389 15.1182 8.8865 15.1094 8.83863 15.1094C8.74196 15.1094 8.64925 15.1452 8.58089 15.209V15.2091Z" fill="#1F2E35" stroke-width="0.2"></path>
		<path d="M7.791 13.9036C7.75941 13.8698 7.72191 13.8429 7.68064 13.8246C7.63936 13.8063 7.59513 13.7969 7.55045 13.7969C7.50578 13.7969 7.46154 13.8063 7.42027 13.8246C7.37899 13.8429 7.34149 13.8698 7.3099 13.9036L3.39651 18.0965C3.33272 18.1649 3.29688 18.2576 3.29688 18.3543C3.29688 18.4509 3.33272 18.5436 3.39651 18.612C3.46031 18.6803 3.54684 18.7188 3.63706 18.7188C3.72729 18.7188 3.81382 18.6803 3.87761 18.612L7.79095 14.4191C7.82255 14.3853 7.84761 14.3451 7.86471 14.3009C7.88182 14.2567 7.89062 14.2093 7.89062 14.1614C7.89063 14.1135 7.88183 14.0661 7.86474 14.0219C7.84765 13.9777 7.82259 13.9375 7.791 13.9036Z" fill="#1F2E35" stroke-width="0.2"></path>
		<path d="M3.47846 5.8582L1.82832 4.1965C1.78677 4.15468 1.73522 4.12418 1.67857 4.10788C1.62192 4.09158 1.56205 4.09003 1.50463 4.10338C1.44721 4.11673 1.39416 4.14453 1.35051 4.18414C1.30685 4.22376 1.27405 4.27387 1.25521 4.32972C0.957788 5.21404 0.919468 6.16497 1.14477 7.07035C1.37007 7.97574 1.84959 8.79781 2.52677 9.4396C3.20395 10.0814 4.05055 10.5161 4.96671 10.6926C5.88286 10.869 6.83037 10.7797 7.69746 10.4353L8.40798 11.1458L7.58042 11.5987C7.55162 11.6145 7.52521 11.6342 7.50196 11.6574L1.88516 17.274C1.5032 17.6569 1.2887 18.1757 1.2887 18.7166C1.2887 19.2575 1.5032 19.7762 1.88516 20.1592L2.84382 21.1179C3.22676 21.4998 3.74555 21.7143 4.28641 21.7143C4.82728 21.7143 5.34607 21.4998 5.729 21.1179L11.3457 15.5011C11.3689 15.4779 11.3887 15.4515 11.4044 15.4227L11.8573 14.5951L18.6974 21.4353C19.0607 21.7974 19.5528 22.0004 20.0657 22C20.5786 21.9996 21.0703 21.7956 21.433 21.433C21.7956 21.0703 21.9996 20.5786 22 20.0657C22.0004 19.5528 21.7974 19.0607 21.4353 18.6974L13.9957 11.2577L14.6555 10.5978C14.6876 10.5658 14.7131 10.5277 14.7304 10.4858C14.7478 10.4439 14.7567 10.3989 14.7567 10.3536C14.7567 10.3082 14.7478 10.2633 14.7304 10.2214C14.7131 10.1795 14.6876 10.1414 14.6555 10.1093L14.5056 9.95944L18.981 5.48409L20.1146 5.08205C20.1914 5.05478 20.2561 5.00124 20.2972 4.93091L21.668 2.58646C21.7065 2.52054 21.7221 2.4437 21.7124 2.36797C21.7026 2.29224 21.668 2.22187 21.614 2.16789L20.8352 1.38877C20.7812 1.33479 20.7108 1.30022 20.6351 1.29046C20.5594 1.2807 20.4826 1.29631 20.4167 1.33484L18.0723 2.70562C18.0019 2.74674 17.9484 2.8114 17.9211 2.88819L17.5188 4.02192L13.0434 8.49728L12.8935 8.34742C12.8615 8.31535 12.8234 8.2899 12.7815 8.27254C12.7396 8.25518 12.6946 8.24625 12.6493 8.24625C12.6039 8.24625 12.559 8.25518 12.5171 8.27254C12.4752 8.2899 12.4371 8.31535 12.405 8.34742L11.7452 9.00733L10.4354 7.69719C10.7794 6.83074 10.8688 5.884 10.6928 4.96847C10.5169 4.05295 10.083 3.20677 9.44221 2.52959C8.80145 1.85242 7.98053 1.37245 7.07612 1.14622C6.17171 0.919982 5.22149 0.956905 4.33736 1.25264C4.28153 1.27127 4.23139 1.30387 4.19169 1.34733C4.152 1.39079 4.12407 1.44367 4.11055 1.50096C4.09704 1.55824 4.09839 1.61803 4.11447 1.67465C4.13056 1.73127 4.16084 1.78284 4.20246 1.82446L5.91463 3.53664L5.52123 5.49716L3.47846 5.8582ZM10.8222 15.0476L5.24047 20.6293C4.98723 20.882 4.64412 21.0239 4.28639 21.0239C3.92866 21.0239 3.58555 20.882 3.33231 20.6293L2.37369 19.6707C2.12103 19.4175 1.97913 19.0743 1.97913 18.7166C1.97913 18.3589 2.12103 18.0158 2.37369 17.7625L7.95537 12.1808L9.138 11.5336L9.14017 11.5324L10.206 10.9492L12.0539 12.7971L11.4708 13.8629C11.4704 13.8637 11.4699 13.8645 11.4695 13.8654L10.8222 15.0476ZM13.3205 12.1167C13.3529 12.1484 13.3787 12.1863 13.3964 12.228C13.414 12.2698 13.4233 12.3146 13.4235 12.36C13.4237 12.4053 13.415 12.4503 13.3977 12.4922C13.3805 12.5342 13.3551 12.5723 13.323 12.6044C13.291 12.6364 13.2529 12.6618 13.2109 12.6791C13.169 12.6963 13.124 12.7051 13.0787 12.7049C13.0333 12.7046 12.9885 12.6954 12.9467 12.6777C12.9049 12.66 12.8671 12.6343 12.8354 12.6019L10.4012 10.1677C10.3379 10.1031 10.3027 10.0162 10.3032 9.92582C10.3036 9.83545 10.3397 9.74891 10.4036 9.685C10.4675 9.62109 10.5541 9.58498 10.6444 9.58451C10.7348 9.58404 10.8217 9.61924 10.8863 9.68248L13.3205 12.1167ZM20.9468 20.947C20.7132 21.1802 20.3965 21.3112 20.0664 21.3112C19.7363 21.3112 19.4196 21.1802 19.1859 20.947L12.2029 13.9637L12.5839 13.2674C12.681 13.3202 12.7859 13.3569 12.8948 13.376L18.3502 18.8314C18.3822 18.8635 18.4203 18.889 18.4622 18.9063C18.5041 18.9237 18.5491 18.9326 18.5944 18.9326C18.6398 18.9326 18.6847 18.9237 18.7266 18.9063C18.7685 18.889 18.8066 18.8635 18.8387 18.8314C18.8707 18.7994 18.8962 18.7613 18.9135 18.7194C18.9309 18.6775 18.9398 18.6326 18.9398 18.5872C18.9398 18.5418 18.9309 18.4969 18.9135 18.455C18.8962 18.4131 18.8707 18.375 18.8387 18.3429L13.6881 13.1925C13.7309 13.1615 13.7714 13.1273 13.809 13.0902C13.9061 12.9931 13.9828 12.8776 14.0346 12.7505C14.0864 12.6234 14.1124 12.4873 14.1108 12.35L20.9468 19.1859C21.18 19.4196 21.311 19.7362 21.311 20.0664C21.311 20.3965 21.18 20.7132 20.9468 20.9468V20.947ZM18.0625 4.4554C18.0988 4.41905 18.1265 4.37508 18.1437 4.32666L18.5299 3.23832L20.5352 2.06575L20.9372 2.46769L19.7647 4.47306L18.6763 4.85922C18.6279 4.87641 18.5839 4.90419 18.5476 4.94053L14.0171 9.471L13.532 8.98581L18.0625 4.4554ZM12.6496 9.08021L13.923 10.3536L13.3838 10.893L12.1103 9.61952L12.6496 9.08021ZM6.15236 5.86417L6.62826 3.49105C6.63945 3.43527 6.63669 3.37759 6.62022 3.32314C6.60376 3.26869 6.5741 3.21914 6.53387 3.17891L5.11662 1.7618C5.78776 1.63408 6.47999 1.67301 7.13258 1.87518C7.78516 2.07735 8.37817 2.43657 8.85956 2.92134C9.46258 3.52779 9.86701 4.30321 10.0192 5.14478C10.1714 5.98634 10.0642 6.8543 9.7118 7.63354C9.68258 7.69758 9.67362 7.76901 9.68613 7.83828C9.69863 7.90755 9.732 7.97134 9.78177 8.02112L10.653 8.89231C10.5157 8.8908 10.3796 8.91672 10.2525 8.96856C10.1254 9.0204 10.0099 9.09711 9.91287 9.19419C9.87574 9.23183 9.84153 9.27225 9.81053 9.31507L9.45315 8.95764C9.38837 8.89286 9.30051 8.85647 9.20891 8.85647C9.1173 8.85647 9.02944 8.89286 8.96466 8.95764C8.89988 9.02242 8.86349 9.11028 8.86349 9.20188C8.86349 9.29349 8.89988 9.38135 8.96466 9.44613L9.62688 10.1084C9.64602 10.2172 9.68268 10.3221 9.73543 10.4192L9.03932 10.8001L8.02099 9.7819C7.97122 9.73213 7.90743 9.69875 7.83816 9.68624C7.76889 9.67372 7.69745 9.68267 7.63341 9.71189C6.85417 10.0643 5.98622 10.1715 5.14465 10.0193C4.30309 9.86706 3.52768 9.46262 2.92124 8.8596C2.43574 8.37753 2.07618 7.78351 1.87419 7.12983C1.6722 6.47615 1.63398 5.78284 1.76289 5.11091L3.1158 6.47315C3.15507 6.51273 3.20335 6.5422 3.25649 6.55904C3.30964 6.57589 3.36608 6.5796 3.42098 6.56986L5.87378 6.13639C5.94221 6.12431 6.0054 6.09186 6.0551 6.0433C6.1048 5.99473 6.1387 5.9323 6.15236 5.86417Z" fill="#1F2E35" stroke-width="0.2"></path>
	</symbol>
</svg>