<svg width="593" height="297" viewBox="0 0 593 297" fill="none" xmlns="http://www.w3.org/2000/svg">
<g clip-path="url(#clip0)">
<rect y="0.129883" width="593" height="297" fill="#015996"/>
<path d="M362.194 187.434C353.868 138.052 361.682 85.4784 387.267 42.4264C412.85 -0.624293 456.715 -33.2283 506.054 -41.8096C555.391 -50.3896 609.235 -33.487 642.31 4.1157C673.378 39.437 684.212 89.041 681.28 135.99C677.536 195.964 651.864 255.409 606.588 294.921C572.091 325.025 526 342.41 480.107 341.094C458.519 340.474 444.248 338.554 431.391 321.614C416.968 302.613 401.092 285.518 389.372 264.465C376.066 240.562 366.744 214.421 362.194 187.434Z" fill="#6ABAE7"/>
<path d="M284.015 87.6405C285.73 116.642 271.927 147.813 245.668 160.235C235.426 165.08 224.04 166.877 213.313 170.525C189.469 178.634 169.037 196.327 157.6 218.768C146.162 241.208 143.851 268.139 151.299 292.201C155.692 306.397 164.01 320.188 177.193 327.041C191.998 334.739 210.056 332.346 225.911 327.144C241.767 321.943 256.867 314.128 273.301 311.239C299.943 306.554 326.877 315.234 352.86 322.762C378.842 330.292 406.969 336.713 432.505 327.787C453.915 320.304 470.415 302.957 483.516 284.441C518.524 234.961 534.882 171.542 523.324 112.04C511.766 52.5383 470.963 -1.60157 414.982 -24.8241C383.09 -38.0542 346.855 -40.3068 313.411 -31.9744C296.497 -27.7597 280.155 -20.82 265.647 -11.117C247.395 1.08965 251.353 9.65672 261.887 26.3071C273.647 44.8965 282.7 65.4144 284.015 87.6405Z" fill="#3481B7"/>
<path d="M161.015 95.6415C162.73 124.643 148.927 155.814 122.668 168.236C112.426 173.081 101.04 174.878 90.3133 178.526C66.4691 186.635 46.0369 204.328 34.5995 226.769C23.1621 249.209 20.8512 276.14 28.2985 300.202C32.6915 314.398 41.0102 328.189 54.1931 335.042C68.9983 342.74 87.056 340.347 102.911 335.145C118.767 329.944 133.867 322.129 150.301 319.24C176.943 314.555 203.877 323.235 229.86 330.763C255.842 338.293 283.969 344.714 309.505 335.788C330.915 328.305 347.415 310.958 360.516 292.442C395.524 242.962 411.882 179.543 400.324 120.041C388.766 60.5393 347.963 6.39939 291.982 -16.8232C260.09 -30.0532 223.855 -32.3058 190.411 -23.9734C173.497 -19.7587 157.155 -12.819 142.647 -3.11603C124.395 9.09063 128.353 17.6577 138.887 34.308C150.647 52.8974 159.7 73.4154 161.015 95.6415Z" fill="url(#paint0_linear)"/>
</g>
<defs>
<linearGradient id="paint0_linear" x1="214" y1="340.131" x2="335.5" y2="-4.86865" gradientUnits="userSpaceOnUse">
<stop stop-color="#054E82"/>
<stop offset="1" stop-color="#3481B7" stop-opacity="0"/>
</linearGradient>
<clipPath id="clip0">
<rect width="593" height="297" fill="white"/>
</clipPath>
</defs>
</svg>
