<svg fill="#4587bb"  enable-background="new 0 0 512 512" viewBox="0 0 512 512" xmlns="http://www.w3.org/2000/svg"><circle cx="301.69" cy="78.7" r="8.157"/><circle cx="301.69" cy="99.06" r="8.157"/><circle cx="301.69" cy="119.43" r="8.157"/><path d="m374.5 71.196h-45.354c-4.143 0-7.5 3.357-7.5 7.5s3.357 7.5 7.5 7.5h45.354c4.143 0 7.5-3.357 7.5-7.5s-3.357-7.5-7.5-7.5z"/><path d="m374.5 91.563h-45.354c-4.143 0-7.5 3.357-7.5 7.5s3.357 7.5 7.5 7.5h45.354c4.143 0 7.5-3.357 7.5-7.5s-3.357-7.5-7.5-7.5z"/><path d="m374.5 112.022h-45.354c-4.143 0-7.5 3.357-7.5 7.5s3.357 7.5 7.5 7.5h45.354c4.143 0 7.5-3.357 7.5-7.5s-3.357-7.5-7.5-7.5z"/><circle cx="142.67" cy="78.7" r="8.157"/><circle cx="142.67" cy="99.06" r="8.157"/><circle cx="142.67" cy="119.43" r="8.157"/><path d="m215.486 71.196h-45.354c-4.143 0-7.5 3.357-7.5 7.5s3.357 7.5 7.5 7.5h45.354c4.143 0 7.5-3.357 7.5-7.5s-3.357-7.5-7.5-7.5z"/><path d="m215.486 91.563h-45.354c-4.143 0-7.5 3.357-7.5 7.5s3.357 7.5 7.5 7.5h45.354c4.143 0 7.5-3.357 7.5-7.5s-3.357-7.5-7.5-7.5z"/><path d="m215.486 112.022h-45.354c-4.143 0-7.5 3.357-7.5 7.5s3.357 7.5 7.5 7.5h45.354c4.143 0 7.5-3.357 7.5-7.5s-3.357-7.5-7.5-7.5z"/><path d="m484.5 378.739c-12.563 0-23.178 8.472-26.452 20h-70.853v-51.239h21.774c21.797 0 39.53-17.692 39.53-39.439 0-21.737-17.717-39.422-39.5-39.439v-261.122c0-4.143-3.357-7.5-7.5-7.5h-130c-4.143 0-7.5 3.357-7.5 7.5v182.584c-4.402-2.406-9.101-4.292-14-5.578v-177.006c0-4.143-3.357-7.5-7.5-7.5h-130c-4.143 0-7.5 3.357-7.5 7.5v152c0 4.143 3.357 7.5 7.5 7.5s7.5-3.357 7.5-7.5v-3.937h115v26.945c-.167-.001-.333-.008-.5-.008-30.283 0-55.535 21.9-60.675 50.66-5.727-2.534-11.967-3.872-18.343-3.872-14.365 0-27.182 6.715-35.482 17.158v-54.446c0-4.143-3.357-7.5-7.5-7.5s-7.5 3.357-7.5 7.5v76.673c-.659-.033-1.319-.052-1.979-.052-21.792 0-39.521 17.692-39.521 39.439s17.73 39.44 39.522 39.44h21.784v51.239h-70.853c-3.274-11.528-13.889-20-26.452-20-15.163 0-27.5 12.337-27.5 27.5s12.337 27.5 27.5 27.5c12.563 0 23.178-8.472 26.452-20h78.353c4.143 0 7.5-3.357 7.5-7.5v-58.739h32.195v4.333c0 4.143 3.357 7.5 7.5 7.5s7.5-3.357 7.5-7.5v-4.333h61.5v71.048c-11.528 3.274-20 13.889-20 26.452 0 15.163 12.337 27.5 27.5 27.5s27.5-12.337 27.5-27.5c0-12.563-8.472-23.178-20-26.452v-71.048h61.5v110.548c-11.528 3.274-20 13.889-20 26.452 0 15.163 12.337 27.5 27.5 27.5s27.5-12.337 27.5-27.5c0-12.563-8.472-23.178-20-26.452v-110.548h32.195v58.739c0 4.143 3.357 7.5 7.5 7.5h78.353c3.274 11.528 13.889 20 26.452 20 15.163 0 27.5-12.337 27.5-27.5s-12.337-27.5-27.5-27.5zm-457 40c-6.893 0-12.5-5.607-12.5-12.5s5.607-12.5 12.5-12.5 12.5 5.607 12.5 12.5-5.607 12.5-12.5 12.5zm251.5-403.739h115v27.563h-115zm-.001 140.564h72.823c4.143 0 7.5-3.357 7.5-7.5s-3.357-7.5-7.5-7.5h-72.822v-83h115v83h-9.833c-4.143 0-7.5 3.357-7.5 7.5s3.357 7.5 7.5 7.5h9.833v113.03c-4.953-13.212-17.732-22.644-32.677-22.644-.72 0-1.436.021-2.147.064.031-.676.047-1.353.047-2.032 0-23.994-19.563-43.514-43.608-43.514-10.844 0-21.034 3.938-28.892 10.894-2.243-3.55-4.84-6.836-7.724-9.828zm-158.999-140.564h115v27.563h-115zm0 125.563v-83h115v83zm148.5 304.437c0 6.893-5.607 12.5-12.5 12.5s-12.5-5.607-12.5-12.5 5.607-12.5 12.5-12.5 12.5 5.607 12.5 12.5zm76.5 39.5c0 6.893-5.607 12.5-12.5 12.5s-12.5-5.607-12.5-12.5 5.607-12.5 12.5-12.5 12.5 5.607 12.5 12.5zm-241.979-152c-13.521 0-24.521-10.964-24.521-24.439 0-13.476 11-24.439 24.521-24.439 4.029 0 8.019.995 11.535 2.879 2.498 1.338 5.534 1.154 7.852-.474s3.521-4.422 3.11-7.224c-.206-1.408-.311-2.867-.311-4.336 0-16.641 13.581-30.179 30.275-30.179 7.372 0 14.47 2.671 19.985 7.52.006.006.014.01.02.015 6.522 5.732 10.263 13.985 10.263 22.643 0 7.36-2.688 14.449-7.567 19.959-2.747 3.102-2.459 7.841.642 10.587 1.428 1.265 3.202 1.886 4.97 1.886 2.072 0 4.136-.854 5.617-2.527 7.313-8.256 11.339-18.876 11.339-29.904 0-11.813-4.655-23.107-12.856-31.512.553-25.156 21.239-45.454 46.605-45.454 18.074 0 34.637 10.64 42.241 26.798-3.094 6.078-4.737 12.802-4.737 19.688 0 14.887 7.502 28.583 20.067 36.638 1.254.803 2.655 1.187 4.041 1.187 2.47 0 4.889-1.22 6.321-3.453 2.235-3.487 1.22-8.127-2.267-10.362-8.242-5.283-13.163-14.258-13.163-24.009 0-5.405 1.522-10.662 4.401-15.204.003-.006.008-.01.011-.016 5.279-8.327 14.325-13.298 24.198-13.298 15.774 0 28.607 12.792 28.607 28.515 0 3.289-.553 6.505-1.643 9.556-1.02 2.856-.219 6.046 2.029 8.082 2.247 2.036 5.502 2.518 8.242 1.22 2.649-1.254 5.5-1.89 8.472-1.89 10.959 0 19.875 8.885 19.875 19.806 0 .689-.031 1.344-.092 1.944-.307 3.027 1.247 5.94 3.932 7.373s5.97 1.102 8.314-.841c4.369-3.618 9.915-5.611 15.617-5.611 13.526 0 24.53 10.964 24.53 24.439s-11 24.437-24.526 24.437zm381.479 86.239c-6.893 0-12.5-5.607-12.5-12.5s5.607-12.5 12.5-12.5 12.5 5.607 12.5 12.5-5.607 12.5-12.5 12.5z"/><path d="m187 458.048v-74.215c0-4.143-3.357-7.5-7.5-7.5s-7.5 3.357-7.5 7.5v74.215c-11.528 3.274-20 13.889-20 26.452 0 15.163 12.337 27.5 27.5 27.5s27.5-12.337 27.5-27.5c0-12.563-8.472-23.178-20-26.452zm-7.5 38.952c-6.893 0-12.5-5.607-12.5-12.5s5.607-12.5 12.5-12.5 12.5 5.607 12.5 12.5-5.607 12.5-12.5 12.5z"/></svg>