<svg fill="#4587bb" enable-background="new 0 0 512.001 512.001" viewBox="0 0 512.001 512.001" xmlns="http://www.w3.org/2000/svg"><path d="m383.674 458.407h-190.572c-4.078 0-7.383 3.305-7.383 7.383s3.306 7.383 7.383 7.383h190.572c4.078 0 7.383-3.305 7.383-7.383s-3.305-7.383-7.383-7.383z"/><path d="m158.75 458.407h-30.423c-4.078 0-7.383 3.305-7.383 7.383s3.306 7.383 7.383 7.383h30.423c4.078 0 7.383-3.305 7.383-7.383s-3.307-7.383-7.383-7.383z"/><path d="m375.455 145.667h-41.242c-4.078 0-7.383 3.305-7.383 7.383s3.306 7.383 7.383 7.383h41.242c.461 0 .837.376.837.837v228.279c-7.844-17.568-21.115-25.575-33.045-29.1l-23.573-7.351c-.001 0-.002-.001-.003-.001l-2.124-.662-12.312-3.839c-.167-.052-.33-.103-.495-.149-.502-.147-.992-.254-1.598-.266l-6.057-1.711c-.182-.051-.366-.096-.552-.133-1.767-.356-4.046-3.607-4.046-6.575v-11.335c1.79-1.262 3.546-2.617 5.257-4.09 9.935-8.554 16.393-20.677 18.278-33.988 7.649-1.532 13.429-8.301 13.429-16.395v-10.347c0-4.582-1.857-8.85-5.031-11.946v-37.564c0-18.946-15.413-34.358-34.358-34.358h-64.875c-18.945 0-34.358 15.413-34.358 34.358v37.564c-3.174 3.095-5.031 7.363-5.031 11.946v10.347c0 8.094 5.78 14.863 13.43 16.395 1.884 13.311 8.342 25.434 18.277 33.988 1.711 1.473 3.467 2.828 5.258 4.091v11.335c0 2.968-2.28 6.219-4.047 6.575-.186.037-.37.082-.552.133l-6.216 1.755c-.005 0-.009 0-.014 0-.014 0-.028.001-.042.001-.051.001-.101.003-.15.006-.01.001-.02.001-.029.002-.052.003-.103.006-.152.011-.007.001-.014.001-.021.002-.053.005-.104.01-.155.017-.001 0-.001 0-.002 0-.423.053-.785.153-1.155.266-.071.022-.142.044-.213.066l-2.639.823-11.796 3.677c-.003.001-.006.003-.009.003l-23.567 7.348c-12.649 3.738-22.737 11.351-29.987 22.629-2.425 3.773-4.525 7.977-6.305 12.584v-234.39c0-.461.375-.837.837-.837h163.312c4.078 0 7.383-3.305 7.383-7.383s-3.306-7.383-7.383-7.383h-163.314c-8.604 0-15.603 7-15.603 15.604v260.831c0 8.175 6.324 14.89 14.336 15.539.304.038.611.064.921.064h.347 238.907.311c.308 0 .61-.025.908-.062 8.034-.626 14.384-7.35 14.384-15.541v-260.832c-.001-8.605-7.001-15.604-15.603-15.604zm-72.591 217.657.323.101-18.38 17.245c-.449.423-1.122.516-1.67.236l-8.933-4.59 1.845-.878c17.667-8.385 24.354-11.183 26.815-12.114zm-18.822-7.992c-6.385 2.916-14.913 6.964-26.419 12.555-.198-.096-.39-.189-.586-.285-.264-.128-.525-.255-.786-.381-.388-.188-.773-.375-1.154-.56-.275-.133-.548-.266-.82-.397-.361-.175-.718-.348-1.073-.519-.308-.149-.613-.296-.916-.443-.274-.132-.546-.264-.816-.394-.365-.176-.727-.35-1.084-.523-.244-.118-.486-.234-.727-.35-.359-.173-.715-.344-1.066-.513-.189-.091-.377-.181-.565-.271-.428-.205-.851-.408-1.268-.608-.106-.051-.211-.101-.316-.151-.446-.214-.887-.425-1.321-.632-.106-.051-.212-.101-.317-.151-.437-.209-.87-.415-1.295-.617-.093-.044-.185-.088-.277-.132-.408-.194-.812-.386-1.209-.575-.137-.065-.271-.129-.407-.193-.378-.179-.753-.357-1.121-.531-.086-.041-.17-.08-.255-.121-.416-.197-.828-.391-1.232-.581-.028-.013-.055-.026-.083-.039-.432-.203-.859-.404-1.277-.6-.058-.027-.114-.053-.171-.08-.391-.183-.777-.364-1.156-.541-.063-.029-.124-.058-.187-.087-.373-.174-.743-.346-1.104-.515-.054-.025-.107-.049-.161-.075-.366-.17-.728-.338-1.082-.502-.049-.023-.096-.044-.144-.067-.354-.164-.704-.325-1.046-.482-.048-.022-.093-.043-.141-.065-.347-.159-.69-.317-1.025-.47-.002-.001-.004-.002-.006-.003-.076-.035-.149-.068-.224-.102 3.698-3.788 6.324-9.208 6.324-15.569v-3.632c6.32 2.255 13.001 3.444 20.013 3.522h.082.082c7.013-.078 13.694-1.267 20.014-3.522v3.632c-.001 6.362 2.624 11.782 6.322 15.57zm-58.857-160.826h64.875c10.802 0 19.591 8.789 19.591 19.592v34.438c-1.521.253-3.158.614-4.816 1.118v-23.37c0-10.128-8.239-18.367-18.367-18.367h-6.421c-4.321 0-8.544 1.506-11.889 4.241l-1.533 1.256c-1.191.817-5.949 1.953-9.002 1.953s-7.812-1.135-8.941-1.905l-1.593-1.301c-3.345-2.736-7.568-4.243-11.89-4.243h-6.421c-10.128 0-18.367 8.239-18.367 18.367v23.37c-1.658-.504-3.295-.866-4.816-1.12v-34.437h-.001c0-10.803 8.789-19.592 19.591-19.592zm-11.755 88.627c-.086-4.015-3.365-7.225-7.381-7.225h-3.532c-1.077 0-1.954-.877-1.954-1.953v-10.347c0-.291.063-.551.164-.779 2.07.191 4.466.611 6.381 1.3.168.061.331.124.491.189.115.046.233.091.343.139.269.12.521.247.758.38.069.039.136.078.202.118.245.148.478.3.677.463.323.266.663.499 1.009.717.068.043.135.087.204.128.338.201.685.381 1.04.538.067.029.134.054.201.082.347.143.7.269 1.059.369.031.009.062.02.093.029.377.101.761.172 1.146.226.081.011.162.022.243.032.346.039.694.065 1.044.065.031 0 .062-.005.093-.005.103-.001.207-.013.31-.017.302-.013.603-.038.905-.08.135-.019.27-.043.405-.068.284-.052.566-.119.846-.198.123-.034.245-.064.367-.104.394-.128.785-.274 1.169-.455 3.371-1.592 5.465-4.897 5.465-8.626v-31.767c0-1.985 1.615-3.6 3.601-3.6h6.421c.924 0 1.828.322 2.544.908l1.593 1.302c5.23 4.276 15.205 5.238 18.287 5.238s13.057-.962 18.286-5.238l1.595-1.304c.716-.585 1.619-.908 2.543-.908h6.421c1.986 0 3.601 1.615 3.601 3.6v31.767c0 3.729 2.094 7.034 5.465 8.626.337.159.683.282 1.028.4.426.145.856.259 1.291.342 2.435.467 4.941-.04 7.041-1.452.262-.176.526-.347.774-.551.205-.168.444-.326.699-.478.049-.029.097-.058.148-.087 2.007-1.134 5.291-1.796 7.999-2.039.105.232.169.497.169.795v10.347c0 1.077-.876 1.953-1.953 1.953h-3.531c-4.016 0-7.295 3.21-7.381 7.225-.254 11.791-5.25 22.732-13.71 30.015-2.139 1.842-4.361 3.464-6.656 4.876-.163.093-.326.188-.481.293-7.103 4.255-14.922 6.463-23.348 6.57-8.424-.107-16.243-2.315-23.346-6.569-.159-.107-.325-.205-.492-.3-2.292-1.41-4.511-3.03-6.647-4.87-8.459-7.281-13.456-18.221-13.709-30.012zm-1.031 80.187c.238.089.508.194.79.306.08.031.161.064.244.097.262.105.538.217.833.338.039.016.073.03.112.046.324.134.672.28 1.032.433.119.05.241.102.364.154.307.131.625.267.956.41.085.037.165.071.252.109.388.168.796.347 1.212.53.176.077.355.156.536.236.311.138.631.279.956.424.152.068.3.133.455.202.434.194.884.396 1.341.601.229.103.463.209.697.314.308.139.622.281.939.425.24.109.479.217.724.329.452.206.914.417 1.382.631.268.123.542.248.815.374.31.142.624.287.94.432.321.148.642.296.969.447.463.214.931.431 1.405.651.285.132.573.266.861.4.334.155.671.312 1.01.47.306.143.611.285.92.43.532.249 1.069.5 1.611.754.325.153.654.307.982.462.303.142.607.286.913.43.358.168.715.337 1.076.507.542.256 1.087.513 1.634.773.348.165.699.331 1.049.497.318.151.636.302.955.454.228.109.457.217.685.326l-8.94 4.594c-.549.28-1.22.187-1.669-.235l-18.38-17.245zm-68.109 59.619c3.26-26.807 13.985-43.056 31.94-48.342.037-.011.075-.022.112-.034l19.52-6.086 24.475 22.964c3.073 2.883 7.075 4.387 11.119 4.387 2.523 0 5.062-.585 7.4-1.786 0-.001.001-.001.001-.001l18.764-9.641 18.766 9.642c2.339 1.201 4.877 1.786 7.4 1.786 4.044 0 8.047-1.505 11.121-4.387l24.475-22.964 19.519 6.087c.038.012.075.023.112.034 18.565 5.466 28.413 21.713 29.331 48.341z"/><path d="m421.052 52.788h-117.482v-34.798c0-9.919-8.07-17.99-17.99-17.99h-59.16c-9.919 0-17.99 8.071-17.99 17.99v34.798h-117.481c-11.423 0-20.717 9.294-20.717 20.717v417.779c0 11.423 9.294 20.717 20.717 20.717h330.103c11.423 0 20.716-9.294 20.716-20.717v-417.78c0-11.423-9.292-20.716-20.716-20.716zm-197.854-34.798c0-1.778 1.446-3.223 3.223-3.223h59.159c1.778 0 3.223 1.446 3.223 3.223v51.047c0 .945-.412 1.839-1.132 2.452l-29.579 25.217c-1.211 1.033-2.971 1.033-4.182-.001l-29.58-25.216c-.72-.613-1.132-1.507-1.132-2.452zm80.51 82.28c2.554 0 4.633 2.078 4.633 4.633v8.125c0 2.554-2.078 4.633-4.633 4.633h-95.413c-2.554 0-4.633-2.078-4.633-4.633v-8.125c0-2.554 2.078-4.633 4.633-4.633h27.035l9.001 7.673c3.382 2.883 7.526 4.324 11.671 4.324 4.144 0 8.29-1.441 11.671-4.323l9.001-7.674zm123.295 391.013c-.001 3.281-2.67 5.95-5.95 5.95h-330.104c-3.281 0-5.95-2.669-5.95-5.95v-417.779c0-3.281 2.669-5.95 5.95-5.95h117.482v1.482c0 5.277 2.303 10.267 6.319 13.691l3.256 2.775h-9.712c-10.697 0-19.399 8.702-19.399 19.399v8.125c0 10.697 8.703 19.399 19.399 19.399h95.413c10.697 0 19.399-8.702 19.399-19.399v-8.125c0-10.697-8.703-19.399-19.399-19.399h-9.712l3.256-2.775c4.016-3.423 6.32-8.414 6.32-13.691v-1.482h117.482c3.281 0 5.949 2.669 5.949 5.95v417.779z"/></svg>