<svg width="731" height="395" viewBox="0 0 731 395" fill="none" xmlns="http://www.w3.org/2000/svg">
<g clip-path="url(#clip0)">
<path d="M366.677 393.568L486.685 339.45L498.463 394.204H499.259L487.322 338.813C487.322 338.654 487.163 338.654 487.163 338.495C487.004 338.495 487.004 338.495 486.844 338.495L364.767 393.568H366.677Z" fill="#C4C4C4"/>
<path d="M727.658 369.852L648.872 395H651.26L727.658 370.647V369.852Z" fill="#C4C4C4"/>
<path d="M729.409 19.8392L642.506 14.7458L712.697 -27.7523L729.568 -14.7004V-15.6554L713.015 -28.5481C712.856 -28.7073 712.696 -28.7073 712.537 -28.5481L641.073 14.7458C640.914 14.905 640.914 15.0641 640.914 15.2233C640.914 15.3825 641.073 15.5416 641.232 15.5416L729.409 20.7942V19.8392Z" fill="#C4C4C4"/>
<path d="M84.6405 392.135L98.9652 367.782L101.83 392.294H102.626L99.6018 366.668C99.6018 366.509 99.4427 366.35 99.2835 366.35C99.1243 366.35 98.9652 366.35 98.806 366.509L83.6855 392.294L84.6405 392.135Z" fill="#C4C4C4"/>
<path d="M727.658 369.852L648.872 395H651.26L727.658 370.647V369.852Z" fill="#C4C4C4"/>
<path d="M727.658 365.713L645.052 345.18C644.893 345.18 644.575 345.18 644.575 345.498L632.16 394.841H632.956L645.371 345.976L727.658 366.509V365.713Z" fill="#C4C4C4"/>
<path d="M728.453 194.766L683.41 220.71L649.349 211.638L728.612 181.237V180.441L648.076 211.319C647.917 211.319 647.758 211.479 647.758 211.638C647.758 211.797 647.917 211.956 648.076 211.956L683.41 221.347C683.41 221.347 683.41 221.347 683.569 221.347H683.729L728.612 195.562L728.453 194.766Z" fill="#C4C4C4"/>
<path d="M499.1 394.204L487.322 339.45L532.843 355.685L513.106 394.363H513.902L533.638 355.685C533.638 355.526 533.638 355.526 533.638 355.367C533.638 355.208 533.479 355.208 533.479 355.208L486.845 338.654C486.685 338.654 486.526 338.654 486.526 338.654C486.367 338.813 486.367 338.813 486.367 338.973L498.304 394.204H499.1Z" fill="#C4C4C4"/>
<path d="M514.061 394.363L533.479 356.322L557.672 394.682H558.627L533.798 355.208C533.798 355.049 533.638 355.049 533.479 355.049C533.32 355.049 533.161 355.208 533.161 355.208L513.266 394.204L514.061 394.363Z" fill="#C4C4C4"/>
<path d="M557.671 394.523H558.626L534.593 356.322L616.88 394.841H618.631L533.797 355.049C533.638 355.049 533.479 355.049 533.32 355.208C533.16 355.367 533.16 355.526 533.32 355.685L557.671 394.523Z" fill="#C4C4C4"/>
<path d="M533.32 355.844L616.721 394.841H618.472L534.911 355.685L644.574 346.135L632.16 395H632.956L645.37 345.817C645.37 345.658 645.37 345.498 645.37 345.498C645.37 345.339 645.211 345.339 645.052 345.339L533.479 355.208C533.32 355.208 533.161 355.367 533.161 355.526C533.001 355.526 533.161 355.685 533.32 355.844Z" fill="#C4C4C4"/>
<path d="M102.626 392.135L99.7607 367.305L138.596 392.453H140.029L99.6015 366.35C99.4423 366.35 99.2832 366.191 99.124 366.35C98.9648 366.35 98.9648 366.509 98.9648 366.668L101.989 392.294L102.626 392.135Z" fill="#C4C4C4"/>
<path d="M350.283 140.489H350.124C349.964 140.489 349.964 140.33 349.964 140.171L346.145 121.707C346.145 121.548 346.145 121.548 346.145 121.389C346.145 121.23 346.304 121.23 346.463 121.23L441.324 110.247C441.483 110.247 441.642 110.406 441.801 110.565C441.801 110.725 441.801 110.884 441.483 111.043L350.283 140.489C350.442 140.489 350.442 140.489 350.283 140.489ZM346.94 121.866L350.601 139.534L437.663 111.361L346.94 121.866Z" fill="#C4C4C4"/>
<path d="M49.6249 391.976L54.5589 338.495L98.8061 366.668L83.8449 392.135H84.6407L99.4428 366.827C99.602 366.668 99.4428 366.509 99.2836 366.35L54.2406 337.54C54.0815 337.54 53.9223 337.54 53.9223 337.54C53.7631 337.54 53.7631 337.699 53.7631 337.858L48.8291 391.976H49.6249Z" fill="#C4C4C4"/>
<path d="M99.1241 366.986H98.9649L53.9219 338.177C53.7627 338.177 53.7627 338.018 53.7627 337.858C53.7627 337.699 53.7627 337.54 53.9219 337.54L130.797 283.582C130.957 283.423 131.116 283.423 131.275 283.582C131.434 283.741 131.434 283.9 131.434 284.059L99.6015 366.827C99.4424 366.827 99.4424 366.827 99.1241 366.986C99.2832 366.986 99.2832 366.986 99.1241 366.986ZM54.8769 337.858L99.1241 366.031L130.32 284.855L54.8769 337.858Z" fill="#C4C4C4"/>
<path d="M235.686 369.056L99.1244 366.827C98.9652 366.827 98.9653 366.827 98.8061 366.668C98.8061 366.509 98.6469 366.509 98.8061 366.35L130.639 283.582C130.639 283.423 130.798 283.423 130.957 283.423C131.116 283.423 131.275 283.423 131.275 283.423L236.004 368.419C236.163 368.578 236.163 368.737 236.163 368.896C236.004 369.056 235.845 369.056 235.686 369.056ZM99.7611 366.191L234.731 368.419L131.275 284.537L99.7611 366.191Z" fill="#C4C4C4"/>
<path d="M138.437 392.453H139.87L100.556 366.986L234.412 369.056L191.597 392.613H193.189L236.004 369.056C236.163 368.897 236.163 368.737 236.163 368.578C236.163 368.419 236.004 368.26 235.845 368.26L99.2832 366.031C99.124 366.031 98.9648 366.191 98.9648 366.35C98.9648 366.509 98.9648 366.668 99.124 366.827L138.437 392.453Z" fill="#C4C4C4"/>
<path d="M193.03 392.612L234.572 369.692L220.406 392.772H221.202L235.845 368.896C236.004 368.737 235.845 368.578 235.845 368.419C235.686 368.26 235.527 368.26 235.367 368.419L191.598 392.612H193.03Z" fill="#C4C4C4"/>
<path d="M221.361 392.772L235.845 369.056L318.61 393.249H321.315L235.845 368.26C235.686 368.26 235.527 368.26 235.368 368.419L220.406 392.613L221.361 392.772Z" fill="#C4C4C4"/>
<path d="M599.213 174.392C599.213 174.392 599.054 174.392 599.213 174.392L441.165 111.043C441.006 111.043 441.006 110.884 441.006 110.725C441.006 110.565 441.006 110.406 441.165 110.406L521.065 44.5105C521.224 44.5105 521.224 44.3513 521.383 44.3513C521.542 44.3513 521.542 44.5105 521.701 44.5105L599.691 173.755C599.85 173.915 599.691 174.074 599.691 174.233C599.373 174.233 599.373 174.392 599.213 174.392ZM442.12 110.566L598.418 173.278L521.224 45.3063L442.12 110.566Z" fill="#C4C4C4"/>
<path d="M599.213 174.392C599.054 174.392 598.895 174.392 598.895 174.233L520.905 44.9879C520.905 44.8288 520.905 44.8288 520.905 44.6696C520.905 44.5104 521.064 44.5104 521.064 44.5104L586.48 15.2234C586.639 15.2234 586.639 15.2234 586.799 15.2234C586.958 15.2234 586.958 15.3826 586.958 15.5417L599.372 174.074C599.532 174.074 599.532 174.233 599.213 174.392ZM521.86 44.9879L598.736 172.482L586.48 16.0192L521.86 44.9879Z" fill="#C4C4C4"/>
<path d="M599.213 174.392C599.054 174.392 598.895 174.233 598.895 174.074L586.48 15.5417C586.48 15.3825 586.48 15.3825 586.64 15.2234C586.64 15.2234 586.799 15.0642 586.958 15.0642L641.551 14.5867C641.551 14.5867 641.71 14.5867 641.869 14.7458C641.869 14.905 642.028 14.905 641.869 15.0642L599.85 174.074C599.532 174.233 599.373 174.392 599.213 174.392ZM587.117 15.86L599.373 171.845L640.755 15.3825L587.117 15.86Z" fill="#C4C4C4"/>
<path d="M728.613 180.44L648.236 211.16L600.169 174.233L728.613 160.385V159.589L599.055 173.437C598.896 173.437 598.736 173.596 598.736 173.755C598.736 173.915 598.736 174.074 598.896 174.074L647.758 211.638H647.918H648.077L728.295 180.918L728.613 180.44Z" fill="#C4C4C4"/>
<path d="M586.799 15.8601C586.64 15.8601 586.48 15.701 586.48 15.701C586.48 15.5418 586.48 15.3826 586.64 15.2235L640.914 -36.6655C641.073 -36.8247 641.232 -36.8247 641.392 -36.6655C641.551 -36.6655 641.551 -36.5064 641.551 -36.3472L641.71 15.0643C641.71 15.2235 641.551 15.3826 641.392 15.3826L586.799 15.8601ZM640.755 -35.5514L587.754 15.0643L640.914 14.5868L640.755 -35.5514Z" fill="#C4C4C4"/>
<path d="M641.232 15.3826H641.073C640.914 15.3826 640.914 15.2235 640.914 15.0643L640.755 -36.3472C640.755 -36.5064 640.755 -36.5064 640.914 -36.6656C641.073 -36.6656 641.073 -36.8247 641.232 -36.8247L712.856 -28.7071C713.015 -28.7071 713.174 -28.548 713.174 -28.3888C713.174 -28.2296 713.174 -28.0704 713.015 -27.9113L641.551 15.3826C641.392 15.3826 641.392 15.3826 641.232 15.3826ZM641.391 -36.0289L641.551 14.4276L711.423 -27.9113L641.391 -36.0289Z" fill="#C4C4C4"/>
<path d="M235.686 369.056L318.609 393.249H321.315L236.8 368.578L386.89 291.381L350.601 393.408H351.397L387.845 290.745C387.845 290.585 387.845 290.426 387.686 290.267C387.527 290.108 387.367 290.108 387.208 290.267L235.526 368.419C235.367 368.419 235.367 368.578 235.367 368.737C235.367 368.896 235.526 369.056 235.686 369.056Z" fill="#C4C4C4"/>
<path d="M351.238 393.408L387.527 291.063L485.89 338.814L364.767 393.568H366.518L487.004 339.291C487.163 339.291 487.163 339.132 487.163 338.973C487.163 338.814 487.004 338.654 487.004 338.654L387.527 290.426C387.368 290.426 387.368 290.426 387.209 290.426C387.05 290.426 387.05 290.585 387.05 290.585L350.442 393.568L351.238 393.408Z" fill="#C4C4C4"/>
<path d="M393.893 173.278H393.734L350.123 140.489C349.964 140.33 349.964 140.171 349.964 140.012C350.123 139.853 350.282 139.853 350.441 139.853L419.518 165.001C419.677 165.001 419.836 165.16 419.836 165.32C419.836 165.479 419.677 165.638 419.518 165.638L393.893 173.278C393.893 173.278 394.052 173.278 393.893 173.278ZM352.51 141.285L393.893 172.482L418.245 165.16L352.51 141.285Z" fill="#C4C4C4"/>
<path d="M419.518 165.638C419.518 165.638 419.359 165.638 419.518 165.638L350.282 140.489C350.123 140.489 349.964 140.33 349.964 140.171C349.964 140.012 350.123 139.852 350.282 139.852L441.323 110.406C441.482 110.406 441.642 110.406 441.642 110.565C441.801 110.725 441.801 110.884 441.642 110.884L419.677 165.638C419.836 165.638 419.677 165.638 419.518 165.638ZM351.555 140.171L419.359 164.842L440.846 111.202L351.555 140.171Z" fill="#C4C4C4"/>
<path d="M387.368 291.063C387.05 291.063 387.05 290.904 387.05 290.745L393.575 173.119C393.575 172.96 393.735 172.8 393.894 172.8L419.519 165.16C419.678 165.16 419.837 165.16 419.837 165.32C419.997 165.479 419.997 165.479 419.997 165.638L387.846 290.904C387.686 290.904 387.527 291.063 387.368 291.063ZM394.212 173.278L388.005 286.924L419.042 165.956L394.212 173.278Z" fill="#C4C4C4"/>
<path d="M599.213 174.392L419.519 165.638C419.359 165.638 419.359 165.638 419.2 165.479C419.2 165.319 419.2 165.319 419.2 165.16L441.165 110.406C441.165 110.247 441.324 110.247 441.324 110.247C441.483 110.247 441.483 110.247 441.642 110.247L599.531 173.596C599.691 173.596 599.85 173.915 599.691 174.074C599.532 174.233 599.372 174.392 599.213 174.392ZM419.996 165.001L596.985 173.596L441.483 111.202L419.996 165.001Z" fill="#C4C4C4"/>
<path d="M441.324 111.043C441.006 111.043 441.006 110.884 441.006 110.725L422.543 -31.8907C422.543 -32.0498 422.543 -32.209 422.702 -32.209C422.861 -32.209 423.02 -32.209 423.18 -32.209L521.542 44.5104C521.701 44.5104 521.701 44.6695 521.701 44.8287C521.701 44.9879 521.701 44.9879 521.542 45.147L441.642 111.043C441.483 110.884 441.483 111.043 441.324 111.043ZM423.498 -31.0948L441.802 109.929L520.905 44.8287L423.498 -31.0948Z" fill="#C4C4C4"/>
<path d="M521.224 45.1471C521.065 45.1471 521.065 45.1471 521.065 45.1471L422.702 -31.5723C422.543 -31.7314 422.543 -31.7314 422.543 -31.8906C422.543 -32.0498 422.702 -32.2089 422.702 -32.2089L508.332 -70.5686C508.491 -70.5686 508.491 -70.5686 508.65 -70.5686C508.809 -70.5686 508.809 -70.4094 508.809 -70.2502L521.542 44.9879C521.542 45.1471 521.542 45.3062 521.383 45.3062C521.383 45.1471 521.383 45.1471 521.224 45.1471ZM423.657 -31.8906L520.746 43.8737L508.172 -69.9319L423.657 -31.8906Z" fill="#C4C4C4"/>
<path d="M521.223 45.1471H521.064C520.905 45.1471 520.905 44.9879 520.905 44.8287L508.172 -70.4095C508.172 -70.5686 508.172 -70.7278 508.331 -70.7278C508.49 -70.7278 508.649 -70.7278 508.809 -70.5686L586.957 15.3825C587.117 15.5417 587.117 15.5417 587.117 15.7008C587.117 15.86 586.957 15.86 586.957 16.0192L521.223 45.1471C521.382 45.1471 521.382 45.1471 521.223 45.1471ZM509.127 -69.2953L521.542 44.192L586.002 15.3825L509.127 -69.2953Z" fill="#C4C4C4"/>
<path d="M586.798 15.86C586.639 15.86 586.639 15.86 586.48 15.7008L508.331 -70.2503C508.172 -70.4094 508.172 -70.5686 508.331 -70.7278C508.49 -70.887 508.65 -70.887 508.809 -70.887L641.232 -36.8248C641.391 -36.8248 641.391 -36.6657 641.55 -36.5065C641.55 -36.3473 641.55 -36.1882 641.391 -36.1882L587.117 15.7008C586.958 15.86 586.798 15.86 586.798 15.86ZM509.764 -69.7728L586.798 14.905L640.277 -36.3474L509.764 -69.7728Z" fill="#C4C4C4"/>
<path d="M387.367 291.063C387.208 291.063 387.208 291.063 387.049 290.904C386.89 290.745 386.89 290.745 386.89 290.585L419.04 165.32C419.04 165.16 419.2 165.16 419.2 165.001C419.359 165.001 419.518 165.001 419.518 165.001L555.602 259.07C555.761 259.229 555.761 259.229 555.761 259.388C555.761 259.547 555.602 259.707 555.443 259.707L387.367 291.063C387.367 291.063 387.526 291.063 387.367 291.063ZM419.677 165.956L387.845 290.267L554.488 259.229L419.677 165.956Z" fill="#C4C4C4"/>
<path d="M486.845 339.291H486.686L387.209 291.063C387.05 291.063 387.05 290.904 387.05 290.744C387.05 290.585 387.209 290.426 387.368 290.426L555.444 259.07C555.603 259.07 555.762 259.07 555.762 259.229C555.762 259.388 555.762 259.547 555.762 259.706L487.004 339.291C487.163 339.291 487.004 339.291 486.845 339.291ZM388.641 290.744L486.845 338.336L554.648 259.706L388.641 290.744Z" fill="#C4C4C4"/>
<path d="M555.603 259.707H555.443L419.2 165.638C419.041 165.479 419.041 165.32 419.041 165.16C419.041 165.001 419.2 164.842 419.359 164.842L599.054 173.596C599.213 173.596 599.372 173.596 599.372 173.755C599.372 173.915 599.372 174.074 599.372 174.074L555.762 259.388C555.762 259.547 555.762 259.547 555.603 259.707ZM420.792 165.797L555.443 258.752L598.577 174.392L420.792 165.797Z" fill="#C4C4C4"/>
<path d="M533.479 355.845C533.479 355.845 533.32 355.845 533.479 355.845L486.845 339.291C486.686 339.291 486.686 339.132 486.686 338.973C486.686 338.814 486.686 338.654 486.686 338.654L555.444 259.07C555.603 258.911 555.762 258.911 555.921 258.911C556.08 258.911 556.08 259.229 556.08 259.388L533.798 355.526C533.798 355.686 533.639 355.685 533.639 355.845H533.479ZM487.481 338.814L533.161 355.049L554.807 260.821L487.481 338.814Z" fill="#C4C4C4"/>
<path d="M533.478 355.845C533.319 355.845 533.319 355.845 533.16 355.686C533.16 355.526 533.001 355.526 533.001 355.367L555.125 259.229C555.125 259.07 555.284 259.07 555.443 258.911C555.602 258.911 555.761 258.911 555.761 259.07L645.211 345.499C645.37 345.658 645.37 345.817 645.37 345.817C645.37 345.976 645.211 345.976 645.052 346.135L533.478 355.845ZM555.761 260.025L533.956 355.049L644.256 345.34L555.761 260.025Z" fill="#C4C4C4"/>
<path d="M555.603 259.706C555.444 259.706 555.444 259.706 555.284 259.547C555.125 259.388 555.125 259.229 555.284 259.07L598.895 173.755C598.895 173.596 599.054 173.596 599.213 173.596C599.372 173.596 599.372 173.596 599.532 173.596L648.395 211.16C648.554 211.16 648.554 211.319 648.554 211.478C648.554 211.638 648.395 211.797 648.395 211.797L555.762 259.388C555.603 259.706 555.603 259.706 555.603 259.706ZM599.372 174.551L556.399 258.433L647.44 211.638L599.372 174.551Z" fill="#C4C4C4"/>
<path d="M645.052 345.976C644.893 345.976 644.893 345.976 644.734 345.817L555.284 259.388C555.125 259.229 555.125 259.229 555.125 259.07C555.125 258.911 555.284 258.911 555.443 258.752L683.41 220.551C683.569 220.551 683.728 220.551 683.728 220.71C683.888 220.869 683.888 221.029 683.888 221.029L645.37 345.817C645.37 345.817 645.211 345.976 645.052 345.976ZM556.239 259.388L644.734 344.862L682.773 221.506L556.239 259.388Z" fill="#C4C4C4"/>
<path d="M555.603 259.707C555.443 259.707 555.284 259.547 555.284 259.547C555.284 259.388 555.284 259.229 555.443 259.07L648.076 211.479C648.235 211.479 648.235 211.479 648.394 211.479L683.728 220.869C683.888 220.869 684.047 221.029 684.047 221.188C684.047 221.347 683.888 221.506 683.728 221.506L555.603 259.707ZM648.235 211.956L559.263 257.797L681.978 221.029L648.235 211.956Z" fill="#C4C4C4"/>
<path d="M3.1494 307.139C2.99024 307.139 2.83105 306.98 2.83105 306.821C2.83105 306.661 2.83106 306.502 2.99023 306.343L108.833 244.267C108.993 244.267 108.993 244.267 109.152 244.267C109.311 244.267 109.311 244.426 109.311 244.426L131.275 283.423C131.275 283.582 131.275 283.582 131.275 283.741C131.275 283.9 131.116 283.9 130.957 283.9L3.1494 307.139C3.30856 307.139 3.30856 307.139 3.1494 307.139ZM108.993 245.381L5.21849 306.025L130.48 283.423L108.993 245.381Z" fill="#C4C4C4"/>
<path d="M131.116 284.219C130.957 284.219 130.957 284.219 131.116 284.219C130.957 284.219 130.797 284.059 130.797 284.059L108.833 244.904C108.833 244.745 108.833 244.745 108.833 244.586C108.833 244.426 108.992 244.426 109.151 244.426L174.567 231.375C174.726 231.375 174.885 231.375 174.885 231.534C175.045 231.693 174.885 231.852 174.885 232.011L131.434 284.059C131.275 284.059 131.116 284.219 131.116 284.219ZM109.788 245.063L131.116 283.104L173.612 232.33L109.788 245.063Z" fill="#C4C4C4"/>
<path d="M316.062 21.431C315.744 21.431 315.585 21.1127 315.744 20.9535L336.276 -58.1533C336.276 -58.3125 336.594 -58.4717 336.754 -58.4717C336.913 -58.4717 337.072 -58.1533 337.072 -57.9942L316.54 21.1127C316.381 21.431 316.222 21.431 316.062 21.431Z" fill="#C4C4C4"/>
<path d="M316.062 21.431C315.903 21.431 315.903 21.431 315.903 21.2719C315.744 21.1127 315.744 20.9535 315.744 20.9535L336.276 -58.1533C336.276 -58.3125 336.435 -58.3125 336.435 -58.3125C336.594 -58.3125 336.594 -58.3125 336.754 -58.3125L423.02 -32.368C423.179 -32.368 423.338 -32.2088 423.338 -32.0497C423.338 -31.8905 423.338 -31.7313 423.179 -31.7313L316.381 21.431C316.222 21.431 316.222 21.431 316.062 21.431ZM336.913 -57.5167L316.699 20.476L421.906 -31.8905L336.913 -57.5167Z" fill="#C4C4C4"/>
<path d="M346.463 122.026C346.303 122.026 346.144 121.867 346.144 121.707L315.744 21.2719C315.744 21.1128 315.744 20.9536 315.903 20.7944C316.062 20.6353 316.222 20.6353 316.381 20.7944L441.642 110.247C441.801 110.406 441.801 110.566 441.801 110.566C441.801 110.725 441.642 110.884 441.483 110.884L346.463 122.026C346.463 122.026 346.622 122.026 346.463 122.026ZM316.699 22.0678L346.781 121.23L440.368 110.406L316.699 22.0678Z" fill="#C4C4C4"/>
<path d="M441.323 111.043H441.164L315.903 21.5901C315.744 21.5901 315.744 21.4309 315.744 21.2717C315.744 21.1126 315.903 20.9534 315.903 20.9534L422.701 -32.209C422.861 -32.209 422.861 -32.209 423.02 -32.209C423.179 -32.209 423.179 -32.0498 423.179 -31.8907L441.642 110.725C441.642 110.884 441.642 111.043 441.483 111.043C441.483 111.043 441.483 111.043 441.323 111.043ZM316.858 21.1126L441.005 109.77L422.701 -31.4131L316.858 21.1126Z" fill="#C4C4C4"/>
<path d="M281.365 192.378C281.206 192.378 281.206 192.378 281.047 192.219C280.888 192.06 280.888 191.901 281.047 191.742L346.304 121.389C346.463 121.23 346.463 121.23 346.622 121.23C346.781 121.23 346.781 121.389 346.94 121.548L350.76 140.012C350.76 140.171 350.76 140.33 350.601 140.33L281.525 192.219C281.525 192.378 281.365 192.378 281.365 192.378ZM346.304 122.344L284.389 189.195L349.965 140.012L346.304 122.344Z" fill="#C4C4C4"/>
<path d="M281.365 192.378C281.206 192.378 281.047 192.219 281.047 192.219C281.047 192.06 281.047 191.901 281.206 191.742L350.283 139.853C350.442 139.693 350.601 139.693 350.76 139.853L394.371 172.641C394.53 172.801 394.53 172.96 394.53 172.96C394.53 172.96 394.371 173.278 394.212 173.278L281.365 192.378ZM350.283 140.648L282.798 191.423L392.938 172.8L350.283 140.648Z" fill="#C4C4C4"/>
<path d="M387.367 291.063C387.208 291.063 387.208 291.063 387.049 290.904L280.888 192.219C280.729 192.06 280.729 191.901 280.729 191.901C280.729 191.742 280.888 191.742 281.047 191.582L393.575 172.482C393.734 172.482 393.734 172.482 393.893 172.641C394.052 172.641 394.052 172.8 394.052 172.96L387.527 290.585C387.845 290.745 387.686 290.904 387.367 291.063C387.527 291.063 387.527 291.063 387.367 291.063ZM282.161 192.219L387.049 289.79L393.416 173.278L282.161 192.219Z" fill="#C4C4C4"/>
<path d="M729.09 91.7835L599.849 173.119L641.55 15.5417L729.249 52.628V51.8322L641.391 14.7458C641.232 14.7458 641.232 14.7458 641.073 14.7458C640.913 14.7458 640.913 14.905 640.913 15.0642L598.895 173.915C598.895 174.074 598.894 174.233 599.054 174.233H599.213H599.372L728.93 92.5793L729.09 91.7835Z" fill="#C4C4C4"/>
<path d="M728.612 159.749L600.645 173.437L728.93 92.7387V91.7837L599.054 173.596C598.894 173.756 598.895 173.915 598.895 174.074C598.895 174.233 599.054 174.392 599.213 174.392L728.612 160.545V159.749Z" fill="#C4C4C4"/>
<path d="M729.249 51.673L643.461 15.3825L729.409 20.4759V19.6801L641.391 14.4275C641.232 14.4275 641.073 14.5867 641.073 14.7458C641.073 14.905 641.073 15.0642 641.232 15.2233L729.249 52.4688V51.673Z" fill="#C4C4C4"/>
<path d="M131.115 284.219C130.956 284.219 130.956 284.219 130.797 284.06C130.638 283.9 130.638 283.741 130.797 283.582L174.249 231.534C174.249 231.375 174.408 231.375 174.567 231.375L260.515 231.056C260.674 231.056 260.833 231.216 260.833 231.375C260.833 231.534 260.833 231.693 260.674 231.852L131.115 284.219ZM174.726 232.171L132.23 282.945L258.446 232.011L174.726 232.171Z" fill="#C4C4C4"/>
<path d="M235.686 369.056C235.527 369.056 235.527 369.056 235.527 368.896L130.798 283.9C130.639 283.741 130.639 283.741 130.639 283.582C130.639 283.423 130.798 283.264 130.798 283.264L260.197 231.056C260.356 231.056 260.515 231.056 260.515 231.056C260.675 231.216 260.675 231.216 260.675 231.375L236.164 368.737C236.004 368.896 236.004 369.056 235.686 369.056C235.845 369.056 235.845 369.056 235.686 369.056ZM131.753 283.9L235.527 368.101L260.038 232.171L131.753 283.9Z" fill="#C4C4C4"/>
<path d="M174.567 232.171C174.408 232.171 174.249 232.011 174.249 231.852C174.249 231.693 174.249 231.534 174.408 231.375L281.206 191.583C281.365 191.583 281.525 191.583 281.684 191.742C281.843 191.901 281.843 192.06 281.684 192.219L260.833 231.693C260.833 231.852 260.674 231.852 260.515 231.852L174.567 232.171ZM280.57 192.697L176.636 231.375L260.356 231.056L280.57 192.697Z" fill="#C4C4C4"/>
<path d="M235.686 369.056H235.526C235.367 368.896 235.367 368.896 235.367 368.737L260.197 231.534C260.197 231.375 260.356 231.375 260.356 231.215C260.515 231.215 260.515 231.215 260.674 231.215L387.527 290.426C387.686 290.426 387.686 290.585 387.686 290.744C387.686 290.904 387.686 291.063 387.527 291.063L235.845 369.215C235.845 369.056 235.845 369.056 235.686 369.056ZM260.833 232.011L236.163 368.101L386.572 290.744L260.833 232.011Z" fill="#C4C4C4"/>
<path d="M387.368 291.063L260.356 231.852C260.197 231.852 260.197 231.693 260.197 231.693C260.197 231.534 260.197 231.534 260.197 231.375L281.048 191.901C281.048 191.742 281.207 191.742 281.366 191.742C281.525 191.742 281.525 191.742 281.684 191.901L387.846 290.585C388.005 290.745 388.005 290.904 387.846 291.063C387.687 290.904 387.527 291.063 387.368 291.063ZM260.993 231.375L385.458 289.312L281.525 192.538L260.993 231.375Z" fill="#C4C4C4"/>
<path d="M728.294 237.423L684.365 221.029L728.453 195.721V194.925L683.251 220.87C683.092 220.87 683.092 221.029 683.092 221.188C683.092 221.347 683.251 221.506 683.41 221.506L728.294 238.219V237.423Z" fill="#C4C4C4"/>
<path d="M727.975 289.153L645.688 344.703L683.569 221.824L727.975 278.966V277.693L683.728 220.71C683.569 220.551 683.569 220.551 683.41 220.551C683.251 220.551 683.092 220.71 683.092 220.869L644.574 345.498C644.574 345.658 644.574 345.817 644.733 345.976H644.893H645.052L727.816 290.108L727.975 289.153Z" fill="#C4C4C4"/>
<path d="M727.657 365.713L646.007 345.339L727.975 290.108V289.153L644.733 345.339C644.574 345.499 644.574 345.499 644.574 345.658C644.574 345.817 644.733 345.976 644.893 345.976L727.657 366.509V365.713Z" fill="#C4C4C4"/>
<path d="M728.135 277.852L684.684 221.824L728.453 238.06V237.264L683.729 220.551C683.57 220.551 683.41 220.551 683.251 220.71C683.092 220.869 683.092 221.029 683.251 221.188L728.135 278.966V277.852Z" fill="#C4C4C4"/>
<path d="M54.0776 334.471C52.2727 334.471 50.6934 336.052 50.6934 337.858C50.6934 339.665 52.2727 341.246 54.0776 341.246C55.8826 341.246 57.4619 339.665 57.4619 337.858C57.6875 335.826 56.1082 334.471 54.0776 334.471Z" fill="#5E87B3"/>
<path d="M54.0807 335.471C55.354 335.471 56.4681 336.585 56.4681 337.858C56.4681 339.132 55.354 340.246 54.0807 340.246C52.8074 340.246 51.6932 339.132 51.6932 337.858C51.6932 336.426 52.8074 335.471 54.0807 335.471ZM54.2398 333.879C52.1707 333.879 50.2607 335.63 50.2607 337.699C50.2607 339.768 52.0116 341.678 54.0807 341.678C56.309 341.678 58.0598 339.928 58.0598 337.858C58.0598 335.789 56.3089 333.879 54.2398 333.879Z" fill="#5E87B3"/>
<path d="M99.5 362C96.9286 362 95 363.929 95 366.5C95 369.071 96.9286 371 99.5 371C102.071 371 104 369.071 104 366.5C104 364.143 102.071 362 99.5 362Z" fill="#5E87B3"/>
<path d="M99.0902 362.466C101.4 362.466 103.133 364.199 103.133 366.509C103.133 368.819 101.4 370.551 99.0902 370.551C96.7802 370.551 95.0478 368.819 95.0478 366.509C95.2403 364.391 96.9727 362.466 99.0902 362.466ZM99.2827 360.734C96.0103 360.734 93.5078 363.236 93.5078 366.509C93.5078 369.781 96.0103 372.284 99.2827 372.284C102.555 372.284 105.058 369.781 105.058 366.509C105.058 363.429 102.363 360.734 99.2827 360.734Z" fill="#5E87B3"/>
<path d="M521 50.0002C524.314 50.0002 527 47.5378 527 44.5003C527 41.4627 524.314 39.0002 521 39.0002C517.686 39.0002 515 41.4627 515 44.5003C515 47.5378 517.686 50.0002 521 50.0002Z" fill="#5E87B3"/>
<path d="M521.383 39.7355C524.089 39.7355 526.317 41.9639 526.317 44.6697C526.317 47.3756 524.089 49.6039 521.383 49.6039C518.677 49.6039 516.449 47.3756 516.449 44.6697C516.29 41.9639 518.518 39.7355 521.383 39.7355ZM521.383 38.303C517.882 38.303 514.857 41.168 514.857 44.6697C514.857 48.1714 517.722 51.1956 521.224 51.1956C524.726 51.1956 527.75 48.3306 527.75 44.8289C527.75 41.168 524.885 38.303 521.383 38.303Z" fill="#5E87B3"/>
<path d="M590 15.5C590 13.6154 588.615 12 587 12C585.385 12 584 13.6154 584 15.5C584 17.3846 585.385 19 587 19C588.615 19 590 17.3846 590 15.5Z" fill="#5E87B3"/>
<path d="M586.798 13.3134C587.913 13.3134 588.868 14.2684 588.868 15.3826C588.868 16.4968 587.913 17.4518 586.798 17.4518C585.684 17.4518 584.729 16.4968 584.729 15.3826C584.729 14.2684 585.525 13.3134 586.798 13.3134ZM586.798 11.8809C584.729 11.8809 583.138 13.4726 583.138 15.5417C583.138 17.6109 584.729 19.2026 586.798 19.2026C588.868 19.2026 590.459 17.6109 590.459 15.5417C590.459 13.4726 588.708 11.8809 586.798 11.8809Z" fill="#5E87B3"/>
<path d="M419.518 159.863C416.595 159.863 414.062 162.201 414.062 165.319C414.062 168.243 416.4 170.776 419.518 170.776C422.441 170.776 424.975 168.437 424.975 165.319C424.975 162.396 422.441 159.863 419.518 159.863Z" fill="#5E87B3"/>
<path d="M419.518 160.863C421.905 160.863 423.975 162.932 423.975 165.319C423.975 167.707 421.905 169.776 419.518 169.776C417.131 169.776 415.061 167.707 415.061 165.319C415.061 162.773 417.131 160.863 419.518 160.863ZM419.518 159.43C416.335 159.43 413.629 161.977 413.629 165.319C413.629 168.503 416.176 171.209 419.518 171.209C422.701 171.209 425.407 168.662 425.407 165.319C425.407 162.136 422.701 159.43 419.518 159.43Z" fill="#5E87B3"/>
<path d="M487 334C484.292 334 482 336.292 482 339C482 341.708 484.292 344 487 344C489.708 344 492 341.708 492 339C492 336.292 489.708 334 487 334Z" fill="#5E87B3"/>
<path d="M486.844 335.152C488.913 335.152 490.664 336.903 490.664 338.973C490.664 341.042 488.913 342.793 486.844 342.793C484.775 342.793 483.024 341.042 483.024 338.973C483.024 336.744 484.775 335.152 486.844 335.152ZM486.844 333.561C483.979 333.561 481.592 335.948 481.592 338.813C481.592 341.678 483.979 344.066 486.844 344.066C489.709 344.066 492.096 341.678 492.096 338.813C492.096 335.948 489.868 333.72 486.844 333.561Z" fill="#5E87B3"/>
<path d="M533.5 350C530.484 350 528 352.484 528 355.5C528 358.516 530.484 361 533.5 361C536.516 361 539 358.516 539 355.5C539 352.484 536.516 350 533.5 350Z" fill="#5E87B3"/>
<path d="M533.479 350.592C536.185 350.592 538.413 352.82 538.413 355.526C538.413 358.232 536.185 360.46 533.479 360.46C530.773 360.46 528.545 358.232 528.545 355.526C528.545 352.661 530.773 350.433 533.479 350.592ZM533.479 349C529.977 349 527.112 351.865 527.112 355.367C527.112 358.869 529.977 361.734 533.479 361.734C536.98 361.734 539.845 358.869 539.845 355.367C539.845 351.865 536.98 349 533.479 349Z" fill="#5E87B3"/>
<path d="M555.602 256.523C554.011 256.523 552.896 257.797 552.896 259.229C552.896 260.821 554.17 261.935 555.602 261.935C557.194 261.935 558.308 260.662 558.308 259.229C558.308 257.797 557.035 256.523 555.602 256.523Z" fill="#5E87B3"/>
<path d="M555.602 256.523C557.194 256.523 558.308 257.797 558.308 259.229C558.308 260.821 557.035 261.935 555.602 261.935C554.01 261.935 552.896 260.662 552.896 259.229C552.896 257.797 554.01 256.523 555.602 256.523ZM555.602 255.091C553.215 255.091 551.305 257.001 551.305 259.388C551.305 261.776 553.215 263.686 555.602 263.686C557.99 263.686 559.899 261.776 559.899 259.388C559.74 257.001 557.99 255.091 555.602 255.091Z" fill="#5E87B3"/>
<path d="M648.597 205C645.105 205 642.194 207.91 642 211.403C642 214.896 644.91 217.806 648.403 218C651.895 218 654.806 215.09 655 211.597C655 207.91 652.09 205 648.597 205Z" fill="#5E87B3"/>
<path d="M648.236 206.385C651.101 206.385 653.488 208.772 653.488 211.797C653.488 214.662 651.101 217.049 648.076 217.049C645.212 217.049 642.824 214.662 642.824 211.638C642.824 208.613 645.212 206.226 648.236 206.385ZM648.236 204.793C644.416 204.793 641.392 207.817 641.392 211.638C641.392 215.458 644.416 218.482 648.236 218.482C652.056 218.482 655.08 215.458 655.08 211.638C654.92 207.977 651.896 204.793 648.236 204.793Z" fill="#5E87B3"/>
<path d="M3.30834 303.592C1.46361 303.592 0.0800781 304.976 0.0800781 306.82C0.0800781 308.665 1.46361 310.049 3.30834 310.049C5.15307 310.049 6.53664 308.665 6.53664 306.82C6.30605 304.976 4.92248 303.592 3.30834 303.592Z" fill="#5E87B3"/>
<path d="M3.3082 304.592C4.58151 304.592 5.53649 305.547 5.53649 306.821C5.53649 308.094 4.58151 309.049 3.3082 309.049C2.0349 309.049 1.07994 308.094 1.07994 306.821C1.07994 305.547 2.0349 304.592 3.3082 304.592ZM3.3082 303.16C1.23909 303.16 -0.352539 304.751 -0.352539 306.821C-0.352539 308.89 1.23909 310.481 3.3082 310.481C5.37732 310.481 6.96895 308.89 6.96895 306.821C6.96895 304.751 5.21816 303.16 3.3082 303.16Z" fill="#5E87B3"/>
<path d="M109.151 240.243C106.696 240.243 104.649 242.289 104.649 244.744C104.649 247.2 106.696 249.246 109.151 249.246C111.606 249.246 113.653 247.2 113.653 244.744C113.653 242.289 111.606 240.243 109.151 240.243Z" fill="#5E87B3"/>
<path d="M109.151 241.243C111.061 241.243 112.652 242.835 112.652 244.745C112.652 246.655 111.061 248.246 109.151 248.246C107.241 248.246 105.649 246.655 105.649 244.745C105.649 242.835 107.241 241.243 109.151 241.243ZM109.151 239.811C106.445 239.811 104.058 242.039 104.058 244.745C104.058 247.451 106.286 249.838 108.992 249.838C111.697 249.838 114.085 247.61 114.085 244.904C114.244 242.039 112.016 239.811 109.151 239.811Z" fill="#5E87B3"/>
<path d="M316.059 18.0435C314.409 18.0435 312.994 19.46 312.994 21.1126C312.994 22.7653 314.409 24.1818 316.059 24.1818C317.709 24.1818 319.124 22.7653 319.124 21.1126C319.36 19.46 317.945 18.0435 316.059 18.0435Z" fill="#5E87B3"/>
<path d="M316.063 19.0433C317.177 19.0433 318.132 19.9984 318.132 21.1125C318.132 22.2267 317.177 23.1817 316.063 23.1817C314.949 23.1817 313.994 22.2267 313.994 21.1125C313.994 19.9984 314.949 19.0433 316.063 19.0433ZM316.063 17.4517C313.994 17.4517 312.402 19.0434 312.402 21.1125C312.402 23.1817 313.994 24.7734 316.063 24.7734C318.132 24.7734 319.724 23.1817 319.724 21.1125C319.724 19.2025 318.132 17.4517 316.063 17.4517Z" fill="#5E87B3"/>
<path d="M441.339 104.791C438.077 104.791 435.39 107.478 435.39 110.549C435.39 113.812 438.077 116.5 441.147 116.5C444.41 116.5 447.097 113.812 447.097 110.741C447.289 107.478 444.602 104.791 441.339 104.791Z" fill="#5E87B3"/>
<path d="M441.324 105.79C444.029 105.79 446.258 108.019 446.098 110.725C446.098 113.431 443.87 115.659 441.164 115.5C438.459 115.5 436.23 113.271 436.389 110.566C436.549 107.86 438.777 105.79 441.324 105.79ZM441.483 104.199C437.981 104.199 435.116 107.064 435.116 110.566C435.116 114.067 437.981 116.932 441.483 116.932C444.984 116.932 447.849 114.067 447.849 110.566C447.69 107.064 444.984 104.199 441.483 104.199Z" fill="#5E87B3"/>
<path d="M346.464 125.095C348.27 125.095 349.851 123.514 349.851 121.707C349.851 119.901 348.27 118.32 346.464 118.32C344.657 118.32 343.076 119.901 343.076 121.707C343.076 123.514 344.657 125.095 346.464 125.095Z" fill="#5E87B3"/>
<path d="M346.463 119.161C347.737 119.161 348.851 120.275 348.851 121.548C348.851 122.821 347.737 123.936 346.463 123.936C345.19 123.936 344.076 122.821 344.076 121.548C344.076 120.275 345.19 119.161 346.463 119.161ZM346.463 117.728C344.235 117.728 342.484 119.479 342.484 121.707C342.484 123.936 344.235 125.686 346.463 125.686C348.692 125.686 350.442 123.936 350.442 121.707C350.442 119.479 348.692 117.728 346.463 117.728Z" fill="#5E87B3"/>
<path d="M350.442 136.465C348.262 136.465 346.736 138.209 346.736 140.171C346.736 142.351 348.48 143.877 350.442 143.877C352.622 143.877 354.148 142.133 354.148 140.171C354.148 137.991 352.404 136.465 350.442 136.465Z" fill="#5E87B3"/>
<path d="M350.442 137.465C352.033 137.465 353.148 138.738 353.148 140.171C353.148 141.763 351.874 142.877 350.442 142.877C348.85 142.877 347.736 141.603 347.736 140.171C347.577 138.579 348.85 137.306 350.442 137.465ZM350.442 135.873C348.054 135.873 346.145 137.783 346.145 140.012C346.145 142.399 348.054 144.309 350.283 144.309C352.67 144.309 354.58 142.399 354.58 140.171C354.58 137.783 352.67 135.873 350.442 135.873Z" fill="#5E87B3"/>
<path d="M393.926 169.731C392.296 169.731 390.665 171.131 390.665 172.763C390.665 174.396 392.063 176.029 393.693 176.029C395.324 176.029 396.954 174.629 396.954 172.997C397.187 171.131 395.79 169.731 393.926 169.731Z" fill="#5E87B3"/>
<path d="M393.893 170.731C395.007 170.731 395.962 171.686 395.962 172.96C395.962 174.074 395.007 175.029 393.734 175.029C392.62 175.029 391.665 174.074 391.665 172.8C391.824 171.686 392.779 170.731 393.893 170.731ZM393.893 169.299C391.824 169.299 390.232 170.89 390.232 172.96C390.232 175.029 391.824 176.621 393.893 176.621C395.962 176.621 397.554 175.029 397.554 172.96C397.554 170.89 395.962 169.299 393.893 169.299Z" fill="#5E87B3"/>
<path d="M599.213 170.254C597.144 170.254 595.394 171.846 595.394 173.915C595.394 175.984 596.985 177.735 599.054 177.735C601.123 177.735 602.874 176.143 602.874 174.074C603.033 172.005 601.283 170.254 599.213 170.254Z" fill="#5E87B3"/>
<path d="M599.213 170.254C601.282 170.254 602.874 172.005 602.874 174.074C602.874 176.143 601.123 177.735 599.054 177.735C596.985 177.735 595.393 175.984 595.393 173.915C595.553 171.846 597.144 170.254 599.213 170.254ZM599.213 168.821C596.348 168.821 593.961 171.209 593.961 174.074C593.961 176.939 596.348 179.326 599.213 179.326C602.078 179.326 604.466 176.939 604.466 174.074C604.466 171.05 602.078 168.821 599.213 168.821Z" fill="#5E87B3"/>
<path d="M641.232 10.7666C638.845 10.7666 636.935 12.6766 636.935 15.0642C636.935 17.4517 638.845 19.3617 641.232 19.3617C643.619 19.3617 645.529 17.4517 645.529 15.0642C645.529 12.6766 643.619 10.7666 641.232 10.7666Z" fill="#5E87B3"/>
<path d="M641.232 10.7667C643.619 10.7667 645.529 12.6768 645.529 15.0643C645.529 17.4518 643.619 19.3618 641.232 19.3618C638.844 19.3618 636.934 17.4518 636.934 15.0643C636.934 12.6768 639.004 10.7667 641.232 10.7667ZM641.391 9.17505C638.208 9.17505 635.661 11.7218 635.502 14.9051C635.502 18.0885 638.049 20.6352 641.232 20.7944C644.415 20.7944 646.962 18.2477 647.121 15.0643C647.121 11.8809 644.574 9.17505 641.391 9.17505Z" fill="#5E87B3"/>
<path d="M131.116 278.125C128.017 278.125 125.5 280.642 125.5 283.741C125.5 286.839 128.017 289.357 131.116 289.357C134.214 289.357 136.731 286.839 136.731 283.741C136.731 280.642 134.214 278.125 131.116 278.125Z" fill="#5E87B3"/>
<path d="M131.116 279.125C133.662 279.125 135.731 281.194 135.731 283.741C135.731 286.288 133.662 288.357 131.116 288.357C128.569 288.357 126.5 286.288 126.5 283.741C126.341 281.194 128.569 279.125 131.116 279.125ZM131.116 277.693C127.773 277.693 124.908 280.398 124.908 283.741C124.908 287.084 127.614 289.949 130.956 289.949C134.299 289.949 137.164 287.243 137.164 283.9C137.164 280.398 134.458 277.693 131.116 277.693Z" fill="#5E87B3"/>
<path d="M179 231.5C179 229.118 177.147 227 174.5 227C172.118 227 170 228.853 170 231.5C170 233.882 171.853 236 174.5 236C176.882 236 179 233.882 179 231.5Z" fill="#5E87B3"/>
<path d="M174.567 228.531C176.346 228.531 177.927 230.112 177.927 231.89C177.927 233.669 176.346 235.25 174.567 235.25C172.788 235.25 171.207 233.669 171.207 231.89C171.207 229.914 172.788 228.531 174.567 228.531ZM174.567 226.554C171.8 226.554 169.429 228.926 169.429 231.693C169.429 234.46 171.8 236.831 174.567 236.831C177.334 236.831 179.705 234.46 179.705 231.693C179.705 228.926 177.334 226.554 174.567 226.554Z" fill="#5E87B3"/>
<path d="M235.704 363.44C232.751 363.44 230.389 365.803 230.389 368.559C230.389 371.513 232.751 373.876 235.507 373.876C238.46 373.876 240.822 371.513 240.822 368.756C241.019 365.803 238.657 363.637 235.704 363.44Z" fill="#5E87B3"/>
<path d="M235.686 364.44C238.073 364.44 239.824 366.35 239.824 368.737C239.824 371.125 237.914 372.876 235.527 372.876C233.139 372.876 231.389 370.966 231.389 368.578C231.548 366.35 233.458 364.44 235.686 364.44ZM235.686 363.007C232.503 363.007 229.956 365.554 229.956 368.737C229.956 371.921 232.503 374.467 235.686 374.467C238.869 374.467 241.416 371.921 241.416 368.737C241.416 365.554 238.869 363.007 235.686 363.007Z" fill="#5E87B3"/>
<path d="M260.515 226.077C257.592 226.077 255.059 228.416 255.059 231.534C255.059 234.457 257.397 236.991 260.515 236.991C263.438 236.991 265.972 234.652 265.972 231.534C265.972 228.611 263.438 226.077 260.515 226.077Z" fill="#5E87B3"/>
<path d="M260.515 227.077C262.902 227.077 264.972 229.146 264.972 231.534C264.972 233.921 262.902 235.991 260.515 235.991C258.128 235.991 256.058 233.921 256.058 231.534C256.058 228.987 258.128 227.077 260.515 227.077ZM260.515 225.645C257.332 225.645 254.626 228.191 254.626 231.534C254.626 234.717 257.173 237.423 260.515 237.423C263.698 237.423 266.404 234.876 266.404 231.534C266.404 228.191 263.698 225.645 260.515 225.645Z" fill="#5E87B3"/>
<path d="M387.368 286.765C385.299 286.765 383.548 288.516 383.548 290.585C383.548 292.654 385.299 294.405 387.368 294.405C389.437 294.405 391.188 292.654 391.188 290.585C391.188 288.516 389.596 286.765 387.368 286.765Z" fill="#5E87B3"/>
<path d="M387.368 286.765C389.437 286.765 391.187 288.516 391.187 290.585C391.187 292.654 389.437 294.405 387.368 294.405C385.298 294.405 383.548 292.654 383.548 290.585C383.548 288.516 385.298 286.765 387.368 286.765ZM387.368 285.333C384.503 285.333 381.956 287.72 381.956 290.585C381.956 293.45 384.343 295.997 387.208 295.997C390.073 295.997 392.62 293.61 392.62 290.744C392.779 287.72 390.392 285.333 387.368 285.333Z" fill="#5E87B3"/>
<path d="M281.365 188.195C279.218 188.195 277.5 189.913 277.5 192.06C277.5 194.207 279.218 195.925 281.365 195.925C283.512 195.925 285.23 194.207 285.23 192.06C285.23 189.913 283.512 188.195 281.365 188.195Z" fill="#5E87B3"/>
<path d="M281.366 189.195C282.957 189.195 284.231 190.468 284.231 192.06C284.231 193.652 282.957 194.925 281.366 194.925C279.774 194.925 278.501 193.652 278.501 192.06C278.501 190.468 279.774 189.195 281.366 189.195ZM281.366 187.603C278.978 187.603 277.068 189.513 277.068 191.901C277.068 194.288 278.978 196.198 281.366 196.198C283.753 196.198 285.663 194.288 285.663 191.901C285.663 189.672 283.753 187.603 281.366 187.603Z" fill="#5E87B3"/>
<path d="M645.052 342.792C643.461 342.792 642.188 344.066 642.188 345.658C642.188 347.249 643.461 348.523 645.052 348.523C646.644 348.523 647.917 347.249 647.917 345.658C647.917 344.066 646.644 342.792 645.052 342.792Z" fill="#5E87B3"/>
<path d="M645.052 342.793C646.644 342.793 647.917 344.066 647.917 345.658C647.917 347.249 646.644 348.523 645.052 348.523C643.461 348.523 642.187 347.249 642.187 345.658C642.187 344.066 643.461 342.793 645.052 342.793ZM645.052 341.36C642.665 341.36 640.755 343.27 640.755 345.658C640.755 348.045 642.665 349.955 645.052 349.955C647.44 349.955 649.35 348.045 649.35 345.658C649.35 343.27 647.44 341.36 645.052 341.36Z" fill="#5E87B3"/>
<path d="M683.411 224.53C685.345 224.53 686.912 222.963 686.912 221.029C686.912 219.095 685.345 217.527 683.411 217.527C681.477 217.527 679.909 219.095 679.909 221.029C679.909 222.963 681.477 224.53 683.411 224.53Z" fill="#5E87B3"/>
<path d="M683.411 217.527C685.321 217.527 686.912 219.118 686.912 221.028C686.912 222.938 685.321 224.53 683.411 224.53C681.501 224.53 679.909 222.938 679.909 221.028C679.909 219.118 681.501 217.527 683.411 217.527ZM683.411 215.935C680.546 215.935 678.317 218.163 678.317 221.028C678.317 223.893 680.546 226.122 683.411 226.122C686.276 226.122 688.504 223.893 688.504 221.028C688.504 218.323 686.276 216.094 683.411 215.935Z" fill="#5E87B3"/>
</g>
<defs>
<clipPath id="clip0">
<rect width="731" height="395" fill="white"/>
</clipPath>
</defs>
</svg>
