<svg width="20" height="20" viewBox="0 0 20 20" fill="none" xmlns="http://www.w3.org/2000/svg">
<path d="M17.0703 0H2.92969C1.31439 0 0 1.31439 0 2.92969V17.0703C0 18.6856 1.31439 20 2.92969 20H17.0703C18.6856 20 20 18.6856 20 17.0703V2.92969C20 1.31439 18.6856 0 17.0703 0ZM7.07031 15.8594H4.72656V7.65625H7.07031V15.8594ZM7.07031 6.48438H4.72656V4.14062H7.07031V6.48438ZM15.2734 15.8594H12.9297V11.1719C12.9297 10.5258 12.4039 10 11.7578 10C11.1118 10 10.5859 10.5258 10.5859 11.1719V15.8594H8.24219V7.65625H10.5859V8.09799C11.2 7.9071 11.5988 7.65625 12.3438 7.65625C13.9333 7.65793 15.2734 9.08386 15.2734 10.769V15.8594Z" fill="#3D76B1"/>
</svg>
