<svg height="25" viewBox="0 0 271 35" fill="none" xmlns="http://www.w3.org/2000/svg">
<path d="M46.8203 34.1494V0.0739482H55.7667V34.1494H46.8203Z" fill="#5884BD"/>
<path d="M85.0991 6.38062V34.1494H76.9346L72.3871 26.3275C71.8986 25.4958 70.2366 21.9275 69.5033 20.1182C69.6497 21.1937 69.9923 25.0567 69.9923 26.2297V34.1494H62.1699V6.38062H69.9429L74.4409 14.1051C75.0762 15.1806 76.983 19.1406 77.6674 20.6073C77.4721 19.0426 77.2767 16.3541 77.2767 15.0827V6.38062H85.0991" fill="#5884BD"/>
<path d="M107.047 34.1494H99.1753L87.5889 0.0739482H97.2201L101.718 14.8385C102.158 16.3541 102.696 17.8207 103.136 20.5098H103.185C103.771 17.4297 104.407 15.5229 104.993 13.8603L109.834 0.0739482H119.073L107.047 34.1494Z" fill="white"/>
<path d="M120.097 34.1494V6.38062H137.941L137.354 12.6385H128.261V16.7453H135.691V22.7582H128.261V27.8431H138.479V34.1494H120.097" fill="white"/>
<path d="M165.854 6.38062V34.1494H157.689L153.142 26.3275C152.654 25.4958 150.991 21.9275 150.258 20.1182C150.405 21.1937 150.747 25.0567 150.747 26.2297V34.1494H142.925V6.38062H150.698L155.195 14.1051C155.831 15.1806 157.738 19.1406 158.422 20.6073C158.227 19.0426 158.031 16.3541 158.031 15.0827V6.38062H165.854" fill="white"/>
<path d="M190.539 12.6874H183.598V34.1494H175.335V12.6874H168.345V6.38062H191.518L190.539 12.6874Z" fill="white"/>
<path d="M217.329 6.38081V25.496C217.329 26.8652 217.378 28.4788 216.546 30.0917C215.618 31.9012 212.586 34.6387 205.792 34.6387C200.365 34.6387 197.48 32.9767 196.112 31.51C194.352 29.6517 194.253 27.7455 194.253 25.2032V6.38081H202.516V24.4204C202.516 25.9851 202.858 26.8652 203.297 27.4032C204.032 28.2835 205.106 28.3808 205.84 28.3808C207.306 28.3808 208.089 27.9408 208.48 27.4517C209.018 26.7679 209.165 25.3985 209.165 24.5679V6.38081H217.329Z" fill="white"/>
<path d="M234.144 17.8207C234.632 17.8207 235.805 17.7718 236.54 17.1849C237.371 16.5005 237.419 15.5229 237.419 15.0338C237.419 14.4958 237.371 13.8119 236.832 13.2739C236.148 12.5901 234.927 12.5411 234.095 12.5411H232.188V17.8207H234.144ZM238.445 34.1494L235.268 26.2297C234.731 24.9093 234.291 23.9317 233.557 23.5411C233.215 23.3453 232.677 23.1983 232.188 23.1983V34.1494H223.975V6.38062H234.584C239.228 6.38062 241.771 7.26035 243.287 8.23795C245.681 9.80262 246.464 11.9536 246.464 14.4473C246.464 16.8431 245.828 18.7494 244.264 20.1671C243.237 21.0963 241.82 21.7806 240.304 22.0254C241.135 22.3182 242.26 22.9541 243.237 24.8603L247.931 34.1494H238.445" fill="white"/>
<path d="M251.643 34.1494V6.38062H269.488L268.901 12.6385H259.807V16.7453H267.239V22.7582H259.807V27.8431H270.025V34.1494H251.643" fill="white"/>
<path d="M10.9201 0.0501851C10.9201 11.4122 10.9201 22.7747 10.9201 34.1382C7.2982 34.1382 3.67527 34.1382 0.0498047 34.1382C0.0498047 22.7747 0.0498047 11.4122 0.0498047 0.0501851C3.67527 0.0501851 7.2982 0.0501851 10.9201 0.0501851Z" fill="#D91920"/>
<path d="M35.9064 0.0503063C35.9064 6.29617 35.9064 12.5415 35.9064 18.8623C35.8189 18.7586 35.7741 18.7107 35.7356 18.6586C31.0975 12.4743 26.46 6.28884 21.8236 0.103907C21.8111 0.0872407 21.8037 0.0680396 21.7949 0.0503063C26.4985 0.0503063 31.2023 0.0503063 35.9064 0.0503063" fill="#D91920"/>
<path fill-rule="evenodd" clip-rule="evenodd" d="M21.8555 34.1382C21.8555 27.9414 21.8555 21.745 21.8555 15.4767C21.9591 15.5975 22.0243 15.6653 22.0804 15.7403C26.632 21.8012 31.1836 27.8617 35.7352 33.922C35.7904 33.9955 35.8492 34.0658 35.906 34.1382C31.2221 34.1382 26.5383 34.1382 21.8555 34.1382" fill="#5884BD"/>
</svg>