<svg width="58" height="42" viewBox="0 0 58 42" fill="none" xmlns="http://www.w3.org/2000/svg">
<path d="M46.9601 31.8466C46.73 31.8466 46.5 31.7624 46.3204 31.5922L35.5591 21.4967C35.1831 21.1451 35.1644 20.5522 35.5179 20.1763C35.8714 19.7966 36.4605 19.7798 36.8402 20.1351L47.6016 30.2307C47.9775 30.5823 47.9962 31.1752 47.6427 31.5511C47.4575 31.7475 47.2107 31.8466 46.9601 31.8466Z" fill="white"/>
<path d="M11.0382 31.8465C10.7895 31.8465 10.5407 31.7474 10.3556 31.551C10.0021 31.1751 10.0208 30.5823 10.3967 30.2307L21.1619 20.1351C21.5396 19.7835 22.1325 19.7984 22.4841 20.1762C22.8376 20.5521 22.8189 21.145 22.443 21.4966L11.6778 31.5922C11.4983 31.7624 11.2683 31.8465 11.0382 31.8465Z" fill="white"/>
<path d="M53.3244 41.2333H4.67561C2.09841 41.2333 0 39.1367 0 36.5577V4.67561C0 2.09654 2.09841 0 4.67561 0H53.3244C55.9016 0 58 2.09654 58 4.67561V36.5577C58 39.1367 55.9016 41.2333 53.3244 41.2333ZM4.67561 1.87024C3.12892 1.87024 1.87024 3.12892 1.87024 4.67561V36.5577C1.87024 38.1044 3.12892 39.363 4.67561 39.363H53.3244C54.8711 39.363 56.1298 38.1044 56.1298 36.5577V4.67561C56.1298 3.12892 54.8711 1.87024 53.3244 1.87024H4.67561Z" fill="white"/>
<path d="M29 25.3155C27.7563 25.3155 26.5125 24.9022 25.5662 24.0774L1.55227 3.12884C1.16325 2.79033 1.12211 2.19933 1.46062 1.80845C1.80288 1.41944 2.39201 1.3839 2.78102 1.71868L26.7949 22.6654C27.99 23.7071 30.0099 23.7071 31.2031 22.6654L55.1871 1.75234C55.5743 1.41383 56.1634 1.45123 56.5075 1.84211C56.846 2.233 56.8068 2.82212 56.4177 3.16251L32.4337 24.0756C31.4855 24.9022 30.2437 25.3155 29 25.3155Z" fill="white"/>
</svg>
