<svg width="40" height="35" viewBox="0 0 40 35" fill="none" xmlns="http://www.w3.org/2000/svg">
<path d="M37.8512 0H24.7864C23.6003 0 22.6376 0.910948 22.6376 2.03337V14.3962C22.6376 15.5187 23.6003 16.4296 24.7864 16.4296H31.0395C30.9578 19.6667 30.1627 22.2572 28.6586 24.2052C27.4724 25.7424 25.676 27.0153 23.2736 28.0198C22.1692 28.4793 21.6921 29.7156 22.2078 30.7486L23.755 33.8393C24.2535 34.8316 25.4869 35.2667 26.5527 34.8316C29.3978 33.6685 31.8001 32.1963 33.7598 30.407C36.1493 28.2231 37.7867 25.7587 38.672 23.0096C39.5573 20.2605 40 16.5109 40 11.7529V2.03337C40 0.910948 39.0373 0 37.8512 0Z" fill="#5487B7"/>
<path d="M4.30386 34.8298C6.95836 33.6706 9.21509 32.1981 11.0781 30.4125C13.3551 28.2283 14.9097 25.7715 15.7458 23.0423C16.5819 20.313 17 16.5506 17 11.755V2.03374C17 0.911115 16.0908 0 14.9706 0H2.63161C1.51136 0 0.602178 0.911115 0.602178 2.03374V14.3989C0.602178 15.5215 1.51136 16.4326 2.63161 16.4326H8.53726C8.46014 19.6703 7.70925 22.2613 6.28865 24.2096C5.1684 25.7471 3.4718 27.0202 1.20289 28.0249C0.159761 28.4845 -0.290773 29.7211 0.196291 30.7542L1.65342 33.8373C2.12425 34.8298 3.29727 35.2691 4.30386 34.8298Z" fill="#5487B7"/>
</svg>
