<svg width="12" height="11" viewBox="0 0 12 11" fill="none" xmlns="http://www.w3.org/2000/svg">
<path d="M11.2498 0H0.749756C0.336506 0 -0.000244141 0.352786 -0.000244141 0.785714V5.10714C-0.000244141 8.35686 2.52276 11 5.62476 11H6.37476C9.47676 11 11.9998 8.35686 11.9998 5.10714V0.785714C11.9998 0.352786 11.6638 0 11.2498 0ZM9.53001 4.48407L6.53001 7.62693C6.38376 7.78014 6.19176 7.85714 5.99976 7.85714C5.80776 7.85714 5.61576 7.78014 5.46951 7.62693L2.46951 4.48407C2.17626 4.17686 2.17626 3.68029 2.46951 3.37307C2.76276 3.06586 3.23676 3.06586 3.53001 3.37307L5.99976 5.96043L8.46951 3.37307C8.76276 3.06586 9.23676 3.06586 9.53001 3.37307C9.82326 3.68029 9.82326 4.17686 9.53001 4.48407Z" fill="white"/>
</svg>
