<svg width="60" height="60" viewBox="0 0 60 60" fill="none" xmlns="http://www.w3.org/2000/svg">
<circle cx="30" cy="30" r="30" fill="white"/>
<path d="M44.1211 43.2422H43.0664V27.6562C43.0664 26.3962 42.0413 25.3711 40.7812 25.3711H37.9688C36.7087 25.3711 35.6836 26.3962 35.6836 27.6562V43.2422H33.6914V31.0908C33.6914 30.037 32.8341 29.1797 31.7803 29.1797H28.2197C27.1659 29.1797 26.3086 30.037 26.3086 31.0908V43.2422H24.3164V34.9206C24.3164 33.8228 23.4233 32.9297 22.3254 32.9297H18.9246C17.8267 32.9297 16.9336 33.8228 16.9336 34.9206V43.2422H15.8789C15.3935 43.2422 15 43.6357 15 44.1211C15 44.6065 15.3935 45 15.8789 45H44.1211C44.6065 45 45 44.6065 45 44.1211C45 43.6357 44.6065 43.2422 44.1211 43.2422Z" fill="#42607A"/>
<path d="M15.8813 26.25H17.5674C17.9518 27.3083 18.9674 28.0664 20.1568 28.0664C21.7234 28.0664 22.9853 26.7524 22.9072 25.175L27.8923 23.2146C29.5927 25.2374 32.884 23.9188 32.7508 21.3037L37.2702 19.5265C38.6595 21.1739 41.3006 20.6583 41.9848 18.6328H44.1204C44.6058 18.6328 44.9993 18.2393 44.9993 17.7539C44.9993 17.2685 44.6058 16.875 44.1204 16.875H41.9848C41.6171 15.7863 40.5868 15 39.3756 15C37.8089 15 36.5472 16.3138 36.6252 17.8914L32.1032 19.6696C30.4128 17.6712 27.1243 18.9469 27.2501 21.5783L22.2621 23.5399C20.8482 21.8633 18.1707 22.4358 17.5277 24.4922H15.8813C15.396 24.4922 15.0024 24.8857 15.0024 25.3711C15.0024 25.8565 15.396 26.25 15.8813 26.25V26.25Z" fill="#42607A"/>
</svg>
