<svg fill="#4587bb"  height="511pt" viewBox="0 0 511.99982 511" width="511pt" xmlns="http://www.w3.org/2000/svg"><path d="m409.652344 200.988281h-24.960938c-4.152344 0-7.519531 3.363281-7.519531 7.515625s3.367187 7.519532 7.519531 7.519532h31.574219c4.152344 0 7.519531-3.367188 7.519531-7.519532 0-9.121094 7.421875-16.539062 16.539063-16.539062 4.152343 0 7.519531-3.367188 7.519531-7.519532v-32.078124c0-4.152344-3.367188-7.515626-7.519531-7.515626-9.117188 0-16.539063-7.421874-16.539063-16.542968 0-4.152344-3.367187-7.515625-7.519531-7.515625h-31.574219c-4.152344 0-7.519531 3.363281-7.519531 7.515625s3.367187 7.519531 7.519531 7.519531h24.960938c2.792968 11.382813 11.773437 20.363281 23.15625 23.15625v18.847656c-11.382813 2.792969-20.363282 11.769531-23.15625 23.15625zm0 0"/><path d="m247.859375 191.964844c9.121094 0 16.539063 7.417968 16.539063 16.539062 0 4.152344 3.367187 7.519532 7.519531 7.519532h32.078125c4.152344 0 7.515625-3.367188 7.515625-7.519532s-3.363281-7.515625-7.515625-7.515625h-25.464844c-2.789062-11.386719-11.769531-20.363281-23.15625-23.15625v-18.851562c11.386719-2.789063 20.367188-11.769531 23.15625-23.152344h26.464844c4.152344 0 7.519531-3.367187 7.519531-7.519531s-3.367187-7.519532-7.519531-7.519532h-33.078125c-4.152344 0-7.519531 3.367188-7.519531 7.519532 0 9.121094-7.417969 16.539062-16.539063 16.539062-4.152344 0-7.519531 3.367188-7.519531 7.519532v32.078124c0 4.152344 3.367187 7.519532 7.519531 7.519532zm0 0"/><path d="m344.09375 192.96875h-16.039062c-4.152344 0-7.519532 3.363281-7.519532 7.515625s3.367188 7.519531 7.519532 7.519531h8.519531v8.519532c0 4.152343 3.367187 7.519531 7.519531 7.519531s7.515625-3.367188 7.515625-7.519531v-9.757813c9.3125-3.144531 16.039063-11.957031 16.039063-22.320313 0-12.988281-10.566407-23.554687-23.554688-23.554687-4.699219 0-8.523438-3.824219-8.523438-8.523437 0-4.695313 3.824219-8.519532 8.523438-8.519532h16.039062c4.152344 0 7.515626-3.367187 7.515626-7.519531s-3.363282-7.515625-7.515626-7.515625h-8.523437v-8.523438c0-4.152343-3.363281-7.515624-7.515625-7.515624s-7.519531 3.363281-7.519531 7.515624v9.757813c-9.3125 3.148437-16.039063 11.960937-16.039063 22.320313 0 12.992187 10.566406 23.558593 23.558594 23.558593 4.695312 0 8.519531 3.824219 8.519531 8.519531 0 4.699219-3.824219 8.523438-8.519531 8.523438zm0 0"/><path d="m344.09375.5c-92.585938 0-167.910156 75.324219-167.910156 167.90625 0 37.34375 12.257812 71.871094 32.957031 99.789062l-32.644531 34.335938-3.113282-3.109375c-2.9375-2.9375-7.695312-2.9375-10.632812 0l-152.367188 152.371094c-10.4648432 10.460937-13.375 26.808593-7.097656 40.226562 1.75 3.75 4.171875 7.175781 7.097656 10.097657 10.40625 10.410156 26.664063 13.3125 40.042969 7.164062 3.820313-1.753906 7.308594-4.191406 10.28125-7.164062l152.371094-152.371094c2.9375-2.933594 2.9375-7.695313 0-10.628906l-3.265625-3.265626 32.371094-34.097656c28.277344 21.664063 63.613281 34.5625 101.910156 34.5625 36.503906 0 71.214844-11.515625 100.382812-33.300781 3.324219-2.484375 4.007813-7.195313 1.523438-10.523437-2.484375-3.324219-7.195312-4.007813-10.523438-1.523438-26.546874 19.828125-58.148437 30.308594-91.382812 30.308594-84.292969 0-152.871094-68.574219-152.871094-152.871094 0-84.292969 68.578125-152.871094 152.871094-152.871094s152.871094 68.578125 152.871094 152.871094c0 37.5625-13.75 73.671875-38.714844 101.679688-2.765625 3.101562-2.492188 7.851562.609375 10.613281 3.097656 2.761719 7.851563 2.492187 10.613281-.609375 27.425782-30.765625 42.527344-70.429688 42.527344-111.683594 0-92.582031-75.324219-167.90625-167.90625-167.90625zm-294.019531 490.984375c-8.011719 8.011719-21.046875 8.011719-29.058594 0-8.015625-8.011719-8.015625-21.046875 0-29.058594l147.050781-147.054687 29.0625 29.0625zm180.566406-199.410156-31.464844 33.140625-12.046875-12.046875 31.578125-33.214844c3.773438 4.238281 7.753907 8.285156 11.933594 12.121094zm0 0"/><path d="m344.09375 30.574219c-76.003906 0-137.835938 61.832031-137.835938 137.832031 0 76.003906 61.832032 137.835938 137.835938 137.835938 76 0 137.832031-61.832032 137.832031-137.835938 0-76-61.832031-137.832031-137.832031-137.832031zm0 15.035156c37.320312 0 70.804688 16.742187 93.34375 43.105469h-186.691406c22.542968-26.363282 56.023437-43.105469 93.347656-43.105469zm-104.351562 58.140625h208.703124c11.683594 18.792969 18.445313 40.949219 18.445313 64.65625 0 23.710938-6.761719 45.867188-18.445313 64.660156h-208.703124c-11.6875-18.792968-18.449219-40.949218-18.449219-64.660156 0-23.707031 6.761719-45.863281 18.449219-64.65625zm104.351562 187.457031c-37.324219 0-70.804688-16.742187-93.347656-43.105469h186.691406c-22.539062 26.363282-56.023438 43.105469-93.34375 43.105469zm0 0"/></svg>