<svg width="60" height="60" viewBox="0 0 60 60" fill="none" xmlns="http://www.w3.org/2000/svg">
<circle cx="30" cy="30" r="30" fill="white"/>
<path d="M30 26.571C33.1907 26.571 35.7773 23.9692 35.7773 20.7599C35.7773 17.5505 33.1907 14.9487 30 14.9487C26.8093 14.9487 24.2227 17.5505 24.2227 20.7599C24.2227 23.9692 26.8093 26.571 30 26.571Z" fill="#42607A"/>
<path d="M41.6875 26.571C43.7046 26.571 45.3398 24.9263 45.3398 22.8973C45.3398 20.8684 43.7046 19.2236 41.6875 19.2236C39.6704 19.2236 38.0352 20.8684 38.0352 22.8973C38.0352 24.9263 39.6704 26.571 41.6875 26.571Z" fill="#42607A"/>
<path d="M18.3125 26.571C20.3296 26.571 21.9648 24.9263 21.9648 22.8973C21.9648 20.8684 20.3296 19.2236 18.3125 19.2236C16.2954 19.2236 14.6602 20.8684 14.6602 22.8973C14.6602 24.9263 16.2954 26.571 18.3125 26.571Z" fill="#42607A"/>
<path d="M21.911 29.8703C20.4733 28.6855 19.1713 28.8423 17.509 28.8423C15.0227 28.8423 13 30.8649 13 33.3503V40.6449C13 41.7243 13.8759 42.602 14.953 42.602C19.6032 42.602 19.043 42.6866 19.043 42.4003C19.043 37.2313 18.4343 33.4407 21.911 29.8703V29.8703Z" fill="#42607A"/>
<path d="M31.5811 28.8684C28.6775 28.6248 26.1538 28.8712 23.9769 30.6785C20.3341 33.6134 21.0351 37.5652 21.0351 42.3996C21.0351 43.6786 22.0697 44.7387 23.3607 44.7387C37.3778 44.7387 37.9357 45.1935 38.7669 43.3421C39.0395 42.7159 38.9648 42.9149 38.9648 36.9251C38.9648 32.1676 34.8693 28.8684 31.5811 28.8684V28.8684Z" fill="#42607A"/>
<path d="M42.4909 28.8422C40.8195 28.8422 39.5246 28.6869 38.0889 29.8701C41.5397 33.414 40.9569 36.946 40.9569 42.4001C40.9569 42.6882 40.4919 42.6018 44.9772 42.6018C46.0928 42.6018 46.9999 41.6927 46.9999 40.5753V33.3501C46.9999 30.8647 44.9772 28.8422 42.4909 28.8422Z" fill="#42607A"/>
</svg>
