<svg width="60" height="60" viewBox="0 0 60 60" fill="none" xmlns="http://www.w3.org/2000/svg">
<circle cx="30" cy="30" r="30" fill="white"/>
<path d="M31.9588 42.3171C31.9774 42.2025 31.986 42.0865 31.9845 41.9705L31.9845 22.2171L32.1848 22.6478C32.3841 23.0688 32.6553 23.4519 32.9862 23.7797L38.5255 29.3191C39.222 30.0486 40.3423 30.1712 41.18 29.6096C42.0727 28.9559 42.2666 27.7024 41.6129 26.8096C41.56 26.7375 41.5024 26.6689 41.4405 26.6045L31.4235 16.5876C30.6416 15.8047 29.3731 15.8041 28.5903 16.586C28.5898 16.5865 28.5893 16.5871 28.5888 16.5876L18.5718 26.6045C17.7906 27.388 17.7923 28.6564 18.5758 29.4377C18.6374 29.4992 18.7031 29.5566 18.7722 29.6096C19.6099 30.1712 20.7302 30.0486 21.4267 29.3191L26.976 23.7897C27.2703 23.4958 27.517 23.1579 27.7073 22.7881L27.9777 22.187L27.9777 41.8603C27.9397 42.8837 28.6546 43.7816 29.6606 43.9739C30.7527 44.151 31.7816 43.4092 31.9588 42.3171Z" fill="#5E87B3"/>
</svg>
