<svg width="16" height="11" viewBox="0 0 16 11" fill="none" xmlns="http://www.w3.org/2000/svg">
<path d="M7.98888 0C2.6069 0 0 5.42316 0 5.42316C0 5.42316 2.59008 10.8463 7.98888 10.8463C13.3877 10.8463 15.9778 5.42316 15.9778 5.42316C15.9778 5.42316 13.3709 0 7.98888 0ZM7.98888 9.61685C5.6679 9.61685 3.80102 7.73053 3.80102 5.42316C3.80102 3.09895 5.68472 1.22947 7.98888 1.22947C10.293 1.22947 12.1767 3.11579 12.1767 5.42316C12.1767 7.74737 10.3099 9.61685 7.98888 9.61685Z" fill="white"/>
<path d="M9.95658 4.64973C9.30065 4.64973 8.76244 4.11078 8.76244 3.45394C8.76244 3.25183 8.81291 3.04973 8.91382 2.88131C8.6279 2.78026 8.30834 2.71289 7.98879 2.71289C6.49193 2.71289 5.26416 3.92552 5.26416 5.42447C5.26416 6.92342 6.47511 8.15289 7.98879 8.15289C9.48565 8.15289 10.6966 6.94026 10.6966 5.42447C10.6966 5.10447 10.6461 4.78447 10.5284 4.49815C10.377 4.5992 10.1752 4.64973 9.95658 4.64973Z" fill="white"/>
</svg>
