<svg width="295" height="136" viewBox="0 0 295 136" fill="none" xmlns="http://www.w3.org/2000/svg">
<g clip-path="url(#clip0_288_2406)">
<rect width="295" height="136" rx="10" fill="#608DB6"/>
<rect width="295" height="136" rx="10" fill="#225478"/>
<circle cx="199" cy="-6" r="23.5" fill="#527CA1" stroke="#BCE0FF"/>
<circle cx="199" cy="48" r="23.5" fill="#527CA1" stroke="#BCE0FF"/>
<path d="M201.814 57.9735V51.3169H196.172V57.9735H191.854L197.09 63.213C198.143 64.2623 199.846 64.2623 200.899 63.213L206.138 57.9735H201.814ZM189.023 55.1503V40.8492L183.788 46.0868C182.737 47.138 182.737 48.8447 183.788 49.8959L189.023 55.1503ZM196.166 38.0167V44.6714H201.814V38.0167H206.138L200.891 32.7884C199.84 31.7372 198.134 31.7372 197.083 32.7884L191.852 38.0167H196.166ZM214.193 46.0793L208.96 40.8511V55.1372L214.199 49.8978C215.256 48.8559 215.269 47.1567 214.227 46.0999C214.225 46.098 214.223 46.0961 214.221 46.0943C214.221 46.0943 214.221 46.0943 214.199 46.0943L214.193 46.0793Z" fill="white"/>
<circle cx="199" cy="102" r="23.5" fill="#527CA1" stroke="#BCE0FF"/>
<circle cx="199" cy="156" r="23.5" fill="#527CA1" stroke="#BCE0FF"/>
<circle cx="255" cy="22" r="23.5" fill="#527CA1" stroke="#BCE0FF"/>
<g clip-path="url(#clip1_288_2406)">
<path d="M239 22V30H255H271V22V14H255H239V22ZM256.534 17.7244C257.733 18.121 258.72 19.1765 258.858 20.2118L258.905 20.521H258.042H257.179L257.035 20.1849C256.85 19.7479 256.402 19.3445 255.968 19.2101C255.514 19.0756 254.783 19.0824 254.381 19.2235C253.677 19.479 253.123 20.2252 252.919 21.1798C252.742 22.0471 252.84 23.3916 253.123 23.9563C253.328 24.3529 253.795 24.7966 254.23 24.9983C254.776 25.2471 255.573 25.2672 256.1 25.0319C256.679 24.7697 257.305 23.9496 257.305 23.4387V23.2773H256.35H255.395V22.5714V21.8655H257.173H258.951L258.937 24.1983L258.918 26.5378L258.345 26.558C257.844 26.5714 257.772 26.5647 257.739 26.4571C257.706 26.3429 257.568 25.5697 257.568 25.5092C257.568 25.4891 257.41 25.637 257.226 25.8319C256.528 26.5378 255.731 26.8202 254.644 26.7529C253.611 26.6857 252.886 26.3496 252.169 25.5966C251.668 25.0655 251.339 24.4605 251.135 23.6807C250.97 23.0622 250.977 21.4084 251.142 20.7563C251.352 19.916 251.675 19.3378 252.261 18.7328C252.834 18.1479 253.328 17.8521 254.052 17.6639C254.552 17.5361 256.073 17.5697 256.534 17.7244ZM247.764 17.8588C248.58 18.0403 249.081 18.4168 249.397 19.1025C249.542 19.4185 249.568 19.5731 249.568 20.0504C249.568 20.5412 249.542 20.6756 249.384 21.0118C249.272 21.2403 249.1 21.4689 248.956 21.5765C248.824 21.6773 248.686 21.7782 248.653 21.805C248.626 21.8319 248.712 21.9126 248.85 21.9866C249.199 22.1681 249.495 22.5042 249.68 22.9076C249.805 23.1899 249.831 23.358 249.831 23.916C249.831 24.5479 249.818 24.6151 249.607 25.0454C249.324 25.6168 248.824 26.1008 248.31 26.2958C247.751 26.5109 246.849 26.5782 244.761 26.558L242.852 26.5378L242.832 22.1479L242.819 17.7647H245.071C246.756 17.7647 247.441 17.7916 247.764 17.8588ZM262.842 21.0118C263.336 22.7798 263.757 24.2387 263.777 24.2588C263.797 24.2857 263.863 24.1244 263.922 23.9092C264.244 22.7462 265.272 19.1361 265.509 18.316L265.673 17.7647H266.595C267.451 17.7647 267.523 17.7714 267.491 17.879C267.3 18.5311 264.646 26.4235 264.593 26.484C264.554 26.5445 264.297 26.5714 263.757 26.5714C263.217 26.5714 262.96 26.5445 262.921 26.484C262.842 26.3832 260.07 17.9933 260.07 17.8588C260.07 17.7782 260.228 17.7647 261.012 17.7782L261.947 17.7983L262.842 21.0118Z" fill="white"/>
<path d="M244.544 20.2521L244.564 21.2067L245.835 21.1933C247.527 21.1866 247.771 21.0857 247.863 20.3731C247.909 20.0034 247.744 19.6672 247.428 19.4857C247.224 19.3647 247.053 19.3445 245.861 19.3244L244.524 19.2975L244.544 20.2521Z" fill="white"/>
<path d="M244.557 22.7596C244.544 22.8067 244.537 23.3311 244.544 23.9159L244.563 24.9916H245.88C247.032 24.9916 247.23 24.9781 247.447 24.8638C247.862 24.6554 247.987 24.4067 247.987 23.7949C247.987 23.2773 247.981 23.2638 247.75 23.042C247.421 22.7395 247.052 22.6722 245.709 22.6722C244.86 22.6722 244.583 22.6924 244.557 22.7596Z" fill="white"/>
</g>
<circle cx="255" cy="76" r="23.5" fill="#527CA1" stroke="#BCE0FF"/>
<circle cx="255" cy="130" r="23.5" fill="#527CA1" stroke="#BCE0FF"/>
<g clip-path="url(#clip2_288_2406)">
<path d="M181 105.46H185.431C185.452 105.48 185.473 105.5 185.495 105.5C185.495 105.5 185.495 105.5 185.516 105.52L185.537 105.54C185.558 105.56 185.58 105.56 185.601 105.58C185.622 105.6 185.643 105.62 185.686 105.64V105.78H181V105.46ZM190.71 105.6L191.028 105.84H216.894V105.46H190.71V105.6ZM192.661 98.92C193.297 99.52 193.636 100.34 193.636 101.3C193.636 102.24 193.276 103.08 192.64 103.68C192.004 104.28 191.113 104.62 190.117 104.62C188.993 104.62 187.996 104.2 187.339 103.44C186.852 102.86 186.576 102.12 186.576 101.32C186.576 100.26 187.021 99.32 187.806 98.72C188.442 98.24 189.226 98 190.117 98C191.134 98 192.025 98.32 192.661 98.92ZM190.117 103.94C191.113 103.94 191.898 103.38 192.237 102.4C192.364 102.06 192.428 101.68 192.428 101.3C192.428 100.62 192.237 99.98 191.876 99.5C191.452 98.94 190.859 98.66 190.117 98.66C189.523 98.66 189.014 98.86 188.611 99.24C188.102 99.72 187.784 100.5 187.806 101.32C187.806 101.86 187.933 102.38 188.187 102.8C188.569 103.54 189.29 103.94 190.117 103.94ZM196.795 100.84C196.731 100.82 196.647 100.78 196.541 100.74C196.011 100.56 195.205 100.28 195.226 99.56C195.247 99.04 195.693 98.66 196.265 98.66C196.816 98.66 197.219 98.94 197.367 99.38V99.4L197.516 99.46L197.961 98.54L197.94 98.52C197.558 98.18 197.049 98.02 196.456 98.02C195.332 98.02 194.442 98.6 194.251 99.48C194.124 100.06 194.293 100.62 194.696 100.98C194.993 101.26 195.417 101.42 195.799 101.58C195.799 101.58 195.799 101.58 195.82 101.58C196.223 101.74 196.795 101.94 197.092 102.28C197.261 102.48 197.325 102.74 197.283 103.04C197.198 103.56 196.774 103.92 196.201 103.94C195.353 103.98 194.611 103.5 194.484 102.9V102.88L194.314 102.82L193.996 103.84L194.018 103.86C194.442 104.32 195.163 104.58 195.989 104.58C196.032 104.58 196.053 104.58 196.074 104.58C197.367 104.54 198.322 103.68 198.322 102.54C198.343 101.84 197.813 101.26 196.795 100.84ZM215.643 98.12L215.898 98.5V102.16L212.081 98.14L212.06 98.12H210.809L211.148 98.62V104.14L210.894 104.52H212.23L212.039 104.16V99.7L216.724 104.56L216.788 104.64V98.52L216.979 98.12H215.643ZM207.247 103.84V101.56H209.389L209.643 100.88L209.516 100.92H207.226V98.76H209.071L209.707 98.96L210.025 98.12H205.89L206.081 98.6V104.08L205.89 104.52H209.94L210.258 103.66L209.452 103.86H207.247V103.84ZM205.191 98.12H203.622L203.876 98.5V100.94H200.272V98.48L200.463 98.12H198.894L199.148 98.5V104.14L198.894 104.52H200.463L200.272 104.16V101.56H203.876V104.12L203.622 104.5H205.191L205 104.14V98.48L205.191 98.12ZM189.608 105.58C189.544 105.58 189.502 105.58 189.438 105.58C188.272 105.58 187.042 104.82 185.792 103.34C185.304 102.76 184.753 102.1 184.265 101.56C185.24 101.4 185.919 100.68 185.919 99.82C185.919 98.74 185.007 98.06 183.544 98.06L181.297 98.12L181.509 98.6V104.14L181.276 104.52H182.845L182.654 104.16V98.68C184.095 98.58 184.774 98.94 184.837 99.82C184.859 100.18 184.753 100.5 184.498 100.76C184.18 101.1 183.65 101.3 182.972 101.32H182.951L182.887 101.48L183.756 102.5L183.926 102.7C185.452 104.54 186.661 106 188.505 106C188.887 106 189.29 105.94 189.714 105.82L189.756 105.8L189.629 105.58H189.608Z" fill="white"/>
</g>
<path d="M249.708 70.287V73.5663H249.423C249.21 72.7764 249.02 72.2498 248.759 71.9147C248.569 71.5796 248.236 71.3163 247.809 71.1487C247.619 71.053 247.191 70.9812 246.669 70.9812H245.743V80.2445C245.743 80.8668 245.815 81.2737 245.862 81.4173C245.909 81.5609 246.075 81.7285 246.242 81.8003C246.431 81.92 246.716 81.9679 247.049 81.9679H247.453V82.303H241.185V81.9679H241.612C241.945 81.9679 242.205 81.8961 242.467 81.8003C242.609 81.7285 242.728 81.5609 242.823 81.3695C242.894 81.2258 242.894 80.8429 242.894 80.2445V70.9812H242.039C241.28 70.9812 240.663 71.1487 240.33 71.5078C239.807 72.0104 239.475 72.6567 239.309 73.5902H239V70.311H249.708V70.287Z" fill="white"/>
<path d="M256.5 78.8803H252.274L251.799 80.077C251.633 80.4361 251.561 80.7712 251.561 81.0345C251.561 81.3696 251.657 81.6329 251.917 81.8005C252.084 81.8962 252.488 81.968 253.105 81.968V82.3031H249.14V81.968C249.567 81.8962 249.9 81.7048 250.185 81.4414C250.445 81.1782 250.778 80.5798 251.205 79.6223L255.503 70H255.669L259.966 79.8617C260.346 80.8191 260.679 81.4175 260.939 81.6329C261.154 81.8483 261.414 81.9441 261.771 81.9441V82.2792H256.025V81.9441H256.262C256.713 81.9441 257.046 81.8723 257.212 81.7765C257.378 81.7048 257.426 81.5133 257.426 81.3457C257.426 81.2499 257.378 81.1782 257.378 81.0106C257.378 81.0106 257.284 80.7473 257.118 80.3882L256.5 78.8803ZM256.215 78.2579L254.411 74.093L252.606 78.2579H256.215Z" fill="white"/>
<path d="M270.483 70.0225L270.554 73.9959H270.198C270.032 73.0384 269.605 72.1767 268.963 71.5783C268.299 70.9799 267.563 70.7166 266.78 70.7166C266.186 70.7166 265.735 70.8363 265.402 71.1474C265.07 71.4826 264.88 71.8416 264.88 72.2724C264.88 72.5358 264.904 72.799 265.046 72.9666C265.212 73.2539 265.497 73.589 265.853 73.8283C266.162 73.9959 266.78 74.3549 267.8 74.8575C269.178 75.5517 270.128 76.1741 270.602 76.7725C271.076 77.4188 271.338 78.1608 271.338 78.9506C271.338 79.8842 270.91 80.7698 270.151 81.5357C269.368 82.2299 268.418 82.565 267.231 82.565C266.85 82.565 266.471 82.565 266.139 82.4693C265.83 82.3975 265.402 82.206 264.904 82.0384C264.642 81.9187 264.382 81.8709 264.215 81.8709C264.049 81.8709 263.883 81.9187 263.717 82.0384C263.551 82.1102 263.432 82.3017 263.289 82.565H262.98V78.065H263.289C263.551 79.2858 264.049 80.315 264.833 80.9374C265.521 81.6075 266.328 81.9666 267.159 81.9666C267.824 81.9666 268.346 81.799 268.774 81.44C269.13 81.1049 269.32 80.674 269.32 80.1474C269.32 79.8842 269.272 79.6208 269.13 79.3576C268.963 79.0943 268.726 78.831 268.441 78.5916C268.109 78.3283 267.587 78.065 266.803 77.6342C265.711 77.1076 264.927 76.7007 264.476 76.2459C263.977 75.9107 263.622 75.4799 263.361 75.0251C263.123 74.4985 263.004 73.9959 263.004 73.4693C263.004 72.5358 263.361 71.6501 264.026 71.0517C264.714 70.3576 265.568 70.0225 266.661 70.0225C267.04 70.0225 267.397 70.0464 267.8 70.19C268.062 70.2139 268.418 70.3815 268.75 70.5491C269.153 70.7166 269.438 70.8363 269.605 70.8363C269.771 70.8363 269.866 70.8123 269.96 70.7166C270.032 70.6448 270.127 70.3815 270.198 70.0225H270.483Z" fill="white"/>
<path d="M255.427 116.488C247.871 116.488 241.723 122.636 241.723 130.192C241.723 137.747 247.871 143.895 255.427 143.895C262.982 143.895 269.13 137.747 269.13 130.192C269.13 122.636 262.982 116.488 255.427 116.488Z" fill="#225478"/>
<path d="M257.111 113.074C256.7 113.035 256.285 113.008 255.866 113V113.074L255.951 116.5C256.382 116.516 256.804 116.555 257.223 116.609C257.142 115.431 257.103 114.252 257.114 113.074H257.111Z" fill="white"/>
<path d="M255.954 116.505L256.617 143.846C260.04 143.552 263.106 141.99 265.351 139.636C260.637 132.86 257.803 124.82 257.23 116.613C256.811 116.559 256.388 116.52 255.958 116.505H255.954Z" fill="white"/>
<path d="M255.048 113.074V113C254.63 113.012 254.215 113.035 253.804 113.074V113.081C253.819 114.256 253.781 115.431 253.699 116.601C254.114 116.547 254.537 116.516 254.963 116.5L255.044 113.074H255.048Z" fill="white"/>
<path d="M253.7 116.602C253.134 124.832 250.258 132.876 245.544 139.68C247.796 142.025 250.874 143.572 254.305 143.851L254.968 116.501C254.542 116.517 254.119 116.548 253.704 116.602H253.7Z" fill="white"/>
<path d="M268.966 132.313C268.652 134.317 267.904 136.178 266.822 137.798C267.559 138.775 268.338 139.725 269.16 140.636C270.373 139.046 271.315 137.24 271.916 135.286H271.92C270.858 134.321 269.877 133.325 268.97 132.313H268.966Z" fill="white"/>
<path d="M258.954 113.35C258.621 113.28 258.28 113.222 257.938 113.175C257.993 114.385 258.101 115.59 258.256 116.788C258.869 116.916 259.47 117.087 260.051 117.296C259.454 115.594 259.109 114.218 258.954 113.35Z" fill="white"/>
<path d="M260.051 117.295C259.469 117.086 258.872 116.916 258.256 116.788C259.241 124.39 262.218 131.701 266.819 137.799C267.927 136.149 268.659 134.277 268.963 132.313C264.164 126.979 261.431 121.25 260.051 117.295Z" fill="white"/>
<path d="M252.981 113.175C252.64 113.226 252.303 113.284 251.965 113.35C251.814 114.214 251.469 115.579 250.876 117.269C251.454 117.063 252.051 116.897 252.663 116.769C252.818 115.575 252.927 114.377 252.977 113.175H252.981Z" fill="white"/>
<path d="M239.004 135.288C239.601 137.22 240.534 139.031 241.76 140.638C242.566 139.742 243.33 138.808 244.059 137.847C242.948 136.203 242.21 134.336 241.896 132.377C241.004 133.365 240.043 134.342 239.004 135.288Z" fill="white"/>
<path d="M250.874 117.267C249.486 121.237 246.737 127.013 241.892 132.378C242.213 134.378 242.965 136.235 244.055 137.848C248.68 131.735 251.676 124.4 252.657 116.771C252.044 116.895 251.451 117.065 250.87 117.271L250.874 117.267Z" fill="white"/>
<path d="M198.998 3.09898C205.41 3.09898 210.607 -2.09869 210.607 -8.51033C210.607 -14.922 205.41 -20.1196 198.998 -20.1196C192.586 -20.1196 187.389 -14.922 187.389 -8.51033C187.389 -2.09869 192.586 3.09898 198.998 3.09898Z" fill="#225478"/>
<path d="M199 3.40698C192.386 3.40698 187 -1.97906 187 -8.59302C187 -15.207 192.386 -20.593 199 -20.593C205.614 -20.593 211 -15.207 211 -8.59302C211 -1.97906 205.614 3.40698 199 3.40698ZM199 -19.7837C192.833 -19.7837 187.809 -14.7605 187.809 -8.59302C187.809 -2.42557 192.833 2.59768 199 2.59768C205.167 2.59768 210.191 -2.42557 210.191 -8.59302C210.191 -14.7605 205.195 -19.7837 199 -19.7837Z" fill="#225478"/>
<path d="M206.479 -13.2271C206.339 -13.3108 206.199 -13.2829 206.088 -13.2271L201.316 -10.2132C201.232 -10.1574 201.176 -10.0736 201.148 -9.98992L199.027 -2.25968L196.906 -9.98992C196.879 -10.0736 196.823 -10.1574 196.739 -10.2132L191.967 -13.2271C191.855 -13.3108 191.688 -13.3108 191.576 -13.2271C191.437 -13.1434 191.381 -13.0318 191.381 -12.8922V-7.39457C191.381 -7.25503 191.437 -7.1434 191.548 -7.05968L194.116 -5.38527L198.665 10.2147C198.692 10.3822 198.832 10.4938 198.999 10.5217C199.027 10.5217 199.027 10.5217 199.055 10.5217C199.083 10.5217 199.083 10.5217 199.111 10.5217C199.279 10.4938 199.418 10.3822 199.446 10.2147L203.939 -5.41317L206.506 -7.08759C206.618 -7.17131 206.674 -7.28294 206.674 -7.42247V-12.8922C206.674 -13.0318 206.618 -13.1713 206.479 -13.2271Z" fill="white"/>
</g>
<defs>
<clipPath id="clip0_288_2406">
<rect width="295" height="136" rx="10" fill="white"/>
</clipPath>
<clipPath id="clip1_288_2406">
<rect width="32" height="16" fill="white" transform="translate(239 14)"/>
</clipPath>
<clipPath id="clip2_288_2406">
<rect width="36" height="8" fill="white" transform="translate(181 98)"/>
</clipPath>
</defs>
</svg>
