<svg width="295" height="136" viewBox="0 0 295 136" fill="none" xmlns="http://www.w3.org/2000/svg">
<g clip-path="url(#clip0_288_5107)">
<rect width="295" height="136" rx="10" fill="#BCE0FF"/>
<rect width="295" height="136" rx="10" fill="#215277"/>
<g opacity="0.5">
<path d="M228 -374.549L-484.345 36.7232" stroke="#BCE0FF" stroke-opacity="0.4"/>
<path d="M246.264 -364.001L-466.081 47.2713" stroke="#BCE0FF" stroke-opacity="0.4"/>
<path d="M264.533 -353.455L-447.812 57.8178" stroke="#BCE0FF" stroke-opacity="0.4"/>
<path d="M282.795 -342.911L-429.55 68.3615" stroke="#BCE0FF" stroke-opacity="0.4"/>
<path d="M301.062 -332.367L-411.282 78.9051" stroke="#BCE0FF" stroke-opacity="0.4"/>
<path d="M319.324 -321.822L-393.021 89.4502" stroke="#BCE0FF" stroke-opacity="0.4"/>
<path d="M337.593 -311.276L-374.752 99.9968" stroke="#BCE0FF" stroke-opacity="0.4"/>
<path d="M355.856 -300.728L-356.488 110.545" stroke="#BCE0FF" stroke-opacity="0.4"/>
<path d="M374.122 -290.185L-338.223 121.087" stroke="#BCE0FF" stroke-opacity="0.4"/>
<path d="M392.389 -279.639L-319.956 131.634" stroke="#BCE0FF" stroke-opacity="0.4"/>
<path d="M410.655 -269.095L-301.689 142.177" stroke="#BCE0FF" stroke-opacity="0.4"/>
<path d="M428.918 -258.549L-283.427 152.724" stroke="#BCE0FF" stroke-opacity="0.4"/>
<path d="M447.184 -248.003L-265.161 163.269" stroke="#BCE0FF" stroke-opacity="0.4"/>
<path d="M465.45 -237.454L-246.895 173.819" stroke="#BCE0FF" stroke-opacity="0.4"/>
<path d="M483.713 -226.912L-228.632 184.361" stroke="#BCE0FF" stroke-opacity="0.4"/>
<path d="M501.979 -216.371L-210.365 194.901" stroke="#BCE0FF" stroke-opacity="0.4"/>
<path d="M520.24 -205.822L-192.104 205.451" stroke="#BCE0FF" stroke-opacity="0.4"/>
<path d="M538.511 -195.275L-173.834 215.998" stroke="#BCE0FF" stroke-opacity="0.4"/>
<path d="M556.773 -184.728L-155.571 226.544" stroke="#BCE0FF" stroke-opacity="0.4"/>
<path d="M575.04 -174.186L-137.305 237.086" stroke="#BCE0FF" stroke-opacity="0.4"/>
<path d="M593.306 -163.64L-119.039 247.633" stroke="#BCE0FF" stroke-opacity="0.4"/>
<path d="M611.573 -153.096L-100.771 258.176" stroke="#BCE0FF" stroke-opacity="0.4"/>
<path d="M629.836 -142.548L-82.5088 268.725" stroke="#BCE0FF" stroke-opacity="0.4"/>
<path d="M648.101 -132.003L-64.2441 279.27" stroke="#BCE0FF" stroke-opacity="0.4"/>
<path d="M666.366 -121.456L-45.9785 289.816" stroke="#BCE0FF" stroke-opacity="0.4"/>
<path d="M684.633 -110.912L-27.7119 300.36" stroke="#BCE0FF" stroke-opacity="0.4"/>
<path d="M702.895 -100.367L-9.4502 310.905" stroke="#BCE0FF" stroke-opacity="0.4"/>
<path d="M721.163 -89.8207L8.81835 321.452" stroke="#BCE0FF" stroke-opacity="0.4"/>
<path d="M739.429 -79.2756L27.084 331.997" stroke="#BCE0FF" stroke-opacity="0.4"/>
<path d="M757.691 -68.7275L45.3467 342.545" stroke="#BCE0FF" stroke-opacity="0.4"/>
<path d="M775.957 -58.1869L63.6123 353.086" stroke="#BCE0FF" stroke-opacity="0.4"/>
<path d="M794.224 -47.6403L81.8789 363.632" stroke="#BCE0FF" stroke-opacity="0.4"/>
<path d="M812.488 -37.0952L100.144 374.177" stroke="#BCE0FF" stroke-opacity="0.4"/>
<path d="M830.752 -26.55L118.407 384.722" stroke="#BCE0FF" stroke-opacity="0.4"/>
<path d="M849.021 -16.0034L136.677 395.269" stroke="#BCE0FF" stroke-opacity="0.4"/>
<path d="M867.285 -5.45679L154.94 405.816" stroke="#BCE0FF" stroke-opacity="0.4"/>
<path d="M885.55 5.08826L173.205 416.361" stroke="#BCE0FF" stroke-opacity="0.4"/>
<path d="M903.812 15.6304L191.468 426.903" stroke="#BCE0FF" stroke-opacity="0.4"/>
<path d="M922.082 26.1785L209.737 437.451" stroke="#BCE0FF" stroke-opacity="0.4"/>
<path d="M940.345 36.7251L228 447.998" stroke="#BCE0FF" stroke-opacity="0.4"/>
<path d="M228 -374.549L940.345 36.7232" stroke="#BCE0FF" stroke-opacity="0.4"/>
<path d="M209.734 -364.001L922.079 47.2713" stroke="#BCE0FF" stroke-opacity="0.4"/>
<path d="M191.467 -353.455L903.812 57.8178" stroke="#BCE0FF" stroke-opacity="0.4"/>
<path d="M173.205 -342.911L885.55 68.3615" stroke="#BCE0FF" stroke-opacity="0.4"/>
<path d="M154.938 -332.367L867.282 78.9051" stroke="#BCE0FF" stroke-opacity="0.4"/>
<path d="M136.673 -321.822L849.018 89.4502" stroke="#BCE0FF" stroke-opacity="0.4"/>
<path d="M118.407 -311.276L830.752 99.9968" stroke="#BCE0FF" stroke-opacity="0.4"/>
<path d="M100.144 -300.728L812.488 110.545" stroke="#BCE0FF" stroke-opacity="0.4"/>
<path d="M81.8779 -290.185L794.223 121.087" stroke="#BCE0FF" stroke-opacity="0.4"/>
<path d="M63.6113 -279.639L775.956 131.634" stroke="#BCE0FF" stroke-opacity="0.4"/>
<path d="M45.3447 -269.095L757.689 142.177" stroke="#BCE0FF" stroke-opacity="0.4"/>
<path d="M27.082 -258.549L739.427 152.724" stroke="#BCE0FF" stroke-opacity="0.4"/>
<path d="M8.81641 -248.003L721.161 163.269" stroke="#BCE0FF" stroke-opacity="0.4"/>
<path d="M-9.4502 -237.454L702.895 173.819" stroke="#BCE0FF" stroke-opacity="0.4"/>
<path d="M-27.7129 -226.912L684.632 184.361" stroke="#BCE0FF" stroke-opacity="0.4"/>
<path d="M-45.9795 -216.371L666.365 194.901" stroke="#BCE0FF" stroke-opacity="0.4"/>
<path d="M-64.2441 -205.822L648.101 205.451" stroke="#BCE0FF" stroke-opacity="0.4"/>
<path d="M-82.5117 -195.275L629.833 215.998" stroke="#BCE0FF" stroke-opacity="0.4"/>
<path d="M-100.773 -184.728L611.571 226.544" stroke="#BCE0FF" stroke-opacity="0.4"/>
<path d="M-119.042 -174.182L593.303 237.091" stroke="#BCE0FF" stroke-opacity="0.4"/>
<path d="M-137.306 -163.64L575.039 247.633" stroke="#BCE0FF" stroke-opacity="0.4"/>
<path d="M-155.573 -153.096L556.771 258.176" stroke="#BCE0FF" stroke-opacity="0.4"/>
<path d="M-173.836 -142.548L538.509 268.725" stroke="#BCE0FF" stroke-opacity="0.4"/>
<path d="M-192.104 -132.003L520.241 279.27" stroke="#BCE0FF" stroke-opacity="0.4"/>
<path d="M-210.366 -121.456L501.979 289.816" stroke="#BCE0FF" stroke-opacity="0.4"/>
<path d="M-228.633 -110.912L483.712 300.36" stroke="#BCE0FF" stroke-opacity="0.4"/>
<path d="M-246.899 -100.366L465.445 310.907" stroke="#BCE0FF" stroke-opacity="0.4"/>
<path d="M-265.163 -89.8207L447.182 321.452" stroke="#BCE0FF" stroke-opacity="0.4"/>
<path d="M-283.429 -79.2756L428.916 331.997" stroke="#BCE0FF" stroke-opacity="0.4"/>
<path d="M-301.691 -68.7275L410.653 342.545" stroke="#BCE0FF" stroke-opacity="0.4"/>
<path d="M-319.961 -58.1824L392.384 353.09" stroke="#BCE0FF" stroke-opacity="0.4"/>
<path d="M-338.224 -47.6403L374.121 363.632" stroke="#BCE0FF" stroke-opacity="0.4"/>
<path d="M-356.488 -37.0952L355.856 374.177" stroke="#BCE0FF" stroke-opacity="0.4"/>
<path d="M-374.756 -26.55L337.589 384.722" stroke="#BCE0FF" stroke-opacity="0.4"/>
<path d="M-393.021 -16.002L319.323 395.27" stroke="#BCE0FF" stroke-opacity="0.4"/>
<path d="M-411.285 -5.45679L301.06 405.816" stroke="#BCE0FF" stroke-opacity="0.4"/>
<path d="M-429.55 5.08826L282.795 416.361" stroke="#BCE0FF" stroke-opacity="0.4"/>
<path d="M-447.816 15.6349L264.528 426.907" stroke="#BCE0FF" stroke-opacity="0.4"/>
<path d="M-466.082 26.1785L246.263 437.451" stroke="#BCE0FF" stroke-opacity="0.4"/>
<path d="M-484.345 36.7251L228 447.998" stroke="#BCE0FF" stroke-opacity="0.4"/>
</g>
<path d="M219.151 79.8332C223.934 77.0718 231.689 77.0718 236.472 79.8333L275.966 102.635C280.749 105.397 280.749 109.874 275.966 112.635L236.472 135.437C231.689 138.199 223.934 138.199 219.151 135.437L179.657 112.635C174.874 109.874 174.874 105.397 179.657 102.635L219.151 79.8332Z" fill="white"/>
<rect width="49.2029" height="6.56039" transform="matrix(0.866025 0.5 0 1 178.1 111.736)" fill="url(#paint0_linear_288_5107)"/>
<rect width="49.2029" height="6.56039" transform="matrix(0.866025 -0.5 0 1 234.913 136.338)" fill="url(#paint1_linear_288_5107)"/>
<path d="M175.159 107.634C175.159 109.235 176.283 110.685 178.101 111.734V118.295C176.283 117.245 175.159 115.796 175.159 114.195V107.634Z" fill="url(#paint2_linear_288_5107)"/>
<path d="M280.468 107.634C280.468 109.235 279.344 110.685 277.526 111.734V118.295C279.344 117.245 280.468 115.796 280.468 114.195V107.634Z" fill="url(#paint3_linear_288_5107)"/>
<path d="M219.223 -5.97449C224.005 -8.73591 231.76 -8.73591 236.543 -5.97449L276.037 16.8274C280.82 19.5889 280.82 24.066 276.037 26.8274L236.543 49.6294C231.76 52.3908 224.005 52.3908 219.223 49.6294L179.728 26.8274C174.946 24.066 174.946 19.5889 179.728 16.8274L219.223 -5.97449Z" fill="white"/>
<rect width="49.2029" height="6.56039" transform="matrix(0.866025 0.5 0 1 178.101 25.9281)" fill="url(#paint4_linear_288_5107)"/>
<rect width="49.2029" height="6.56039" transform="matrix(0.866025 -0.5 0 1 234.915 50.5299)" fill="url(#paint5_linear_288_5107)"/>
<path d="M175.158 21.8263C175.158 23.4275 176.282 24.8772 178.1 25.9265V32.4869C176.282 31.4376 175.158 29.9879 175.158 28.3867V21.8263Z" fill="url(#paint6_linear_288_5107)"/>
<path d="M220.711 50.5299C224.633 52.7944 230.992 52.7944 234.915 50.5299V57.0903C230.992 59.3548 224.633 59.3548 220.711 57.0903V50.5299Z" fill="url(#paint7_linear_288_5107)"/>
<path d="M280.468 21.8263C280.468 23.4275 279.344 24.8772 277.526 25.9265V32.4869C279.344 31.4376 280.468 29.9879 280.468 28.3867V21.8263Z" fill="url(#paint8_linear_288_5107)"/>
<path d="M134.757 36.6687C139.54 33.9073 147.294 33.9073 152.077 36.6687L191.571 59.4706C196.354 62.2321 196.354 66.7092 191.571 69.4706L152.077 92.2726C147.294 95.034 139.54 95.034 134.757 92.2726L95.2626 69.4706C90.4797 66.7092 90.4797 62.2321 95.2626 59.4706L134.757 36.6687Z" fill="white"/>
<rect width="49.2029" height="6.56039" transform="matrix(0.866025 0.5 0 1 93.9365 68.5714)" fill="url(#paint9_linear_288_5107)"/>
<rect width="49.2029" height="6.56039" transform="matrix(0.866025 -0.5 0 1 150.749 93.1732)" fill="url(#paint10_linear_288_5107)"/>
<path d="M90.9941 64.4696C90.9941 66.0708 92.1183 67.5205 93.9358 68.5698V75.1302C92.1183 74.0809 90.9941 72.6312 90.9941 71.03V64.4696Z" fill="url(#paint11_linear_288_5107)"/>
<path d="M136.547 93.1732C140.469 95.4377 146.828 95.4377 150.751 93.1732V99.7336C146.828 101.998 140.469 101.998 136.547 99.7336V93.1732Z" fill="url(#paint12_linear_288_5107)"/>
<path d="M196.304 64.4696C196.304 66.0708 195.18 67.5205 193.362 68.5698V75.1302C195.18 74.0809 196.304 72.6312 196.304 71.03V64.4696Z" fill="url(#paint13_linear_288_5107)"/>
<path d="M303.999 36.6687C308.782 33.9073 316.537 33.9073 321.319 36.6687L360.814 59.4706C365.596 62.2321 365.596 66.7092 360.814 69.4706L321.319 92.2726C316.537 95.034 308.782 95.034 303.999 92.2726L264.505 69.4706C259.722 66.7092 259.722 62.2321 264.505 59.4706L303.999 36.6687Z" fill="white"/>
<rect width="49.2029" height="6.56039" transform="matrix(0.866025 0.5 0 1 262.947 68.5714)" fill="url(#paint14_linear_288_5107)"/>
<path d="M260.007 64.4696C260.007 66.0708 261.131 67.5205 262.949 68.5698V75.1302C261.131 74.0809 260.007 72.6312 260.007 71.03V64.4696Z" fill="url(#paint15_linear_288_5107)"/>
<path d="M125.666 74.722C135.472 80.3833 151.37 80.3833 161.175 74.722C170.981 69.0608 170.981 59.8821 161.175 54.2208C151.37 48.5596 135.472 48.5596 125.666 54.2208C115.861 59.8821 115.861 69.0608 125.666 74.722Z" fill="url(#paint16_linear_288_5107)"/>
<path d="M132.028 67.2903C131.453 66.9582 131.768 66.8892 132.117 66.4584L135.993 62.2681L156.737 65.3256" fill="#C8DAEA"/>
<path d="M132.028 67.2903C132.472 67.5466 132.871 67.5426 133.36 67.5466L138.029 67.5843L136.857 64.8514" fill="#A9C9DD"/>
<path d="M136.856 64.8516L138.725 72.0345C139.091 72.7661 139.914 72.9716 141.092 72.5261L157.73 66.2836C159.223 65.7655 159.012 65.0172 157.876 64.7709L134.179 58.7043C132.544 58.3007 131.899 58.6807 132.557 59.3954L135.576 62.7201L152.146 64.8854C152.917 64.9944 153.201 65.3388 152.519 65.3154" fill="url(#paint17_linear_288_5107)"/>
<mask id="mask0_288_5107" style="mask-type:luminance" maskUnits="userSpaceOnUse" x="192" y="87" width="79" height="46">
<path d="M270.008 111.612L228.131 87.4337L192.622 107.935L234.499 132.113L270.008 111.612Z" fill="white"/>
</mask>
<g mask="url(#mask0_288_5107)">
<path d="M234.736 129.603C234.825 129.655 234.932 129.697 235.049 129.724C235.167 129.752 235.293 129.766 235.419 129.764C235.546 129.762 235.671 129.746 235.786 129.715C235.901 129.685 236.003 129.641 236.087 129.586C236.576 129.304 236.514 128.998 235.905 128.646L234.921 128.078L232.36 129.557L232.73 129.771L233.846 129.126L234.301 129.388L234.297 129.402L233.9 130.446L234.296 130.675L234.678 129.578L234.736 129.603ZM234.565 129.208L234.136 128.96L235.002 128.46L235.545 128.774C235.826 128.936 236.101 129.148 235.735 129.359C235.315 129.602 234.957 129.434 234.562 129.206" fill="#0A66C2"/>
<path d="M228.295 122.177L223.048 119.148L231.22 114.43C233.168 113.305 235.642 111.836 232.948 110.281C230.216 108.703 227.674 109.688 225.482 110.953L217.169 115.753L211.922 112.724L228.727 103.022L233.764 105.93L231.467 107.256L231.538 107.296C232.899 107.092 234.333 107.106 235.686 107.335C237.039 107.564 238.261 108.001 239.222 108.598C244.54 111.668 242.041 114.243 237.516 116.856L228.295 122.177ZM225.104 98.2776C224.502 97.93 224.091 97.4876 223.923 97.0064C223.755 96.5252 223.837 96.0269 224.16 95.5743C224.483 95.1218 225.031 94.7354 225.736 94.464C226.441 94.1926 227.27 94.0484 228.12 94.0496C228.969 94.0509 229.8 94.1975 230.507 94.471C231.215 94.7444 231.767 95.1324 232.095 95.5859C232.422 96.0394 232.509 96.538 232.346 97.0187C232.183 97.4994 231.776 97.9406 231.177 98.2864C230.78 98.5161 230.307 98.698 229.787 98.8218C229.266 98.9457 228.708 99.009 228.144 99.0082C227.58 99.0073 227.022 98.9424 226.5 98.817C225.978 98.6917 225.504 98.5084 225.104 98.2776ZM208.625 110.821L203.373 107.789L220.178 98.0861L225.43 101.118L208.625 110.821ZM260.915 106.364L230.741 88.9432C230.064 88.5434 229.141 88.3142 228.175 88.3062C227.209 88.2981 226.28 88.5118 225.59 88.9002L195.455 106.299C194.782 106.697 194.411 107.234 194.424 107.792C194.438 108.35 194.834 108.883 195.527 109.274L225.701 126.695C226.379 127.096 227.304 127.327 228.272 127.336C229.24 127.345 230.173 127.131 230.865 126.743L261.002 109.343C261.675 108.943 262.044 108.405 262.028 107.846C262.012 107.287 261.613 106.754 260.917 106.363" fill="#0A66C2"/>
<path d="M236.907 127.907C236.263 127.542 235.395 127.339 234.495 127.341C233.594 127.343 232.735 127.552 232.103 127.92C231.471 128.288 231.119 128.787 231.123 129.306C231.128 129.826 231.489 130.325 232.127 130.694C232.766 131.062 233.629 131.271 234.53 131.273C235.43 131.276 236.294 131.073 236.932 130.708C237.57 130.343 237.93 129.846 237.934 129.327C237.938 128.807 237.586 128.306 236.953 127.934L236.907 127.907ZM232.379 130.521C231.953 130.284 231.659 129.979 231.533 129.645C231.406 129.312 231.453 128.965 231.669 128.648C231.884 128.331 232.258 128.059 232.742 127.866C233.227 127.672 233.801 127.566 234.391 127.562C234.982 127.557 235.563 127.653 236.06 127.839C236.557 128.024 236.949 128.29 237.185 128.604C237.422 128.917 237.493 129.263 237.389 129.598C237.285 129.934 237.011 130.243 236.601 130.488C236.589 130.494 236.578 130.501 236.566 130.508C236.032 130.83 235.296 131.016 234.521 131.024C233.747 131.033 232.996 130.863 232.435 130.553L232.381 130.521" fill="#0A66C2"/>
</g>
<path d="M338.791 69.4988C338.439 69.732 338.062 69.95 337.68 70.1701C326.065 76.8762 303.843 79.5144 287.703 70.1963L287.71 70.1923C282.936 67.4437 279.635 63.9584 278.201 60.1518C278.811 60.6003 279.466 61.0266 280.163 61.4309C284.11 63.714 289.276 65.1631 294.83 65.5459C291.147 63.3368 290.307 60.02 292.737 57.2886C293.798 58.1948 295.206 58.9471 296.85 59.4884C293.585 56.6466 294.243 52.866 298.428 50.4501C298.466 50.428 298.503 50.4069 298.539 50.3858C299.078 51.483 300.066 52.4895 301.421 53.3201C300.147 49.6038 304.097 45.951 310.443 44.9758C309.406 50.7185 312.64 56.4408 319.343 60.7186C321.689 58.5476 325.854 57.2582 330.28 57.3352C337.142 57.4542 342.53 60.7616 342.313 64.7227C344.666 65.6332 347.272 66.3035 350.019 66.7077C347.329 67.5043 344.23 67.7107 341.3 67.2875C343.245 68.1731 345.411 68.8849 347.723 69.3977C344.776 69.7386 341.752 69.7714 338.791 69.4988Z" fill="#1D9BF0"/>
<path fill-rule="evenodd" clip-rule="evenodd" d="M245.64 32.0807C255.445 26.4199 255.445 17.2402 245.64 11.5795C235.835 5.91865 219.936 5.91865 210.131 11.5795C201.27 16.6954 200.416 24.6842 207.572 30.3553L219.978 23.1923L215.469 20.5889L220.603 17.6252L225.112 20.2286L229.024 17.9697C233.474 15.4009 238.584 15.5119 242.639 17.8529C244.582 18.9744 246.267 20.3481 246.267 20.3481L241.898 22.8708L239.658 21.5778C237.453 20.3049 235.396 20.697 233.99 21.5085L230.66 23.4315L235.583 26.274L229.663 28.7838L225.526 26.3952L213.12 33.5581C222.94 37.6909 236.777 37.1978 245.64 32.0804L245.64 32.0807Z" fill="#1977F3"/>
<path fill-rule="evenodd" clip-rule="evenodd" d="M229.663 28.7838L235.583 26.2742L230.66 23.4316L233.99 21.5086C235.394 20.6985 237.451 20.3035 239.658 21.5778L241.898 22.8709L246.267 20.3482C246.267 20.3482 244.582 18.9745 242.639 17.853C238.585 15.512 233.476 15.3996 229.024 17.9698L225.112 20.2287L220.603 17.6253L215.469 20.589L219.979 23.1924L207.572 30.3554C208.334 30.9592 209.187 31.5359 210.131 32.0808C211.075 32.6257 212.076 33.1172 213.12 33.5584L225.526 26.3954L229.663 28.784L229.663 28.7838Z" fill="#FEFEFE"/>
<rect opacity="0.8" width="295" height="136" fill="url(#paint18_linear_288_5107)"/>
</g>
<defs>
<linearGradient id="paint0_linear_288_5107" x1="24.6014" y1="0" x2="24.6014" y2="6.56039" gradientUnits="userSpaceOnUse">
<stop stop-color="#709EC9"/>
<stop offset="1" stop-color="#1F6091"/>
</linearGradient>
<linearGradient id="paint1_linear_288_5107" x1="24.6014" y1="0" x2="24.6014" y2="6.56039" gradientUnits="userSpaceOnUse">
<stop stop-color="#709EC9"/>
<stop offset="1" stop-color="#1F6091"/>
</linearGradient>
<linearGradient id="paint2_linear_288_5107" x1="176.63" y1="107.634" x2="176.63" y2="118.295" gradientUnits="userSpaceOnUse">
<stop stop-color="#709EC9"/>
<stop offset="1" stop-color="#1F6091"/>
</linearGradient>
<linearGradient id="paint3_linear_288_5107" x1="278.997" y1="107.634" x2="278.997" y2="118.295" gradientUnits="userSpaceOnUse">
<stop stop-color="#709EC9"/>
<stop offset="1" stop-color="#1F6091"/>
</linearGradient>
<linearGradient id="paint4_linear_288_5107" x1="24.6014" y1="0" x2="24.6014" y2="6.56039" gradientUnits="userSpaceOnUse">
<stop stop-color="#709EC9"/>
<stop offset="1" stop-color="#1F6091"/>
</linearGradient>
<linearGradient id="paint5_linear_288_5107" x1="24.6014" y1="0" x2="24.6014" y2="6.56039" gradientUnits="userSpaceOnUse">
<stop stop-color="#709EC9"/>
<stop offset="1" stop-color="#1F6091"/>
</linearGradient>
<linearGradient id="paint6_linear_288_5107" x1="176.629" y1="21.8263" x2="176.629" y2="32.4869" gradientUnits="userSpaceOnUse">
<stop stop-color="#709EC9"/>
<stop offset="1" stop-color="#1F6091"/>
</linearGradient>
<linearGradient id="paint7_linear_288_5107" x1="227.813" y1="50.5299" x2="227.813" y2="58.7887" gradientUnits="userSpaceOnUse">
<stop stop-color="#709EC9"/>
<stop offset="1" stop-color="#1F6091"/>
</linearGradient>
<linearGradient id="paint8_linear_288_5107" x1="278.997" y1="21.8263" x2="278.997" y2="32.4869" gradientUnits="userSpaceOnUse">
<stop stop-color="#709EC9"/>
<stop offset="1" stop-color="#1F6091"/>
</linearGradient>
<linearGradient id="paint9_linear_288_5107" x1="24.6014" y1="0" x2="24.6014" y2="6.56039" gradientUnits="userSpaceOnUse">
<stop stop-color="#709EC9"/>
<stop offset="1" stop-color="#1F6091"/>
</linearGradient>
<linearGradient id="paint10_linear_288_5107" x1="24.6014" y1="0" x2="24.6014" y2="6.56039" gradientUnits="userSpaceOnUse">
<stop stop-color="#709EC9"/>
<stop offset="1" stop-color="#1F6091"/>
</linearGradient>
<linearGradient id="paint11_linear_288_5107" x1="92.465" y1="64.4696" x2="92.465" y2="75.1302" gradientUnits="userSpaceOnUse">
<stop stop-color="#709EC9"/>
<stop offset="1" stop-color="#1F6091"/>
</linearGradient>
<linearGradient id="paint12_linear_288_5107" x1="143.649" y1="93.1732" x2="143.649" y2="101.432" gradientUnits="userSpaceOnUse">
<stop stop-color="#709EC9"/>
<stop offset="1" stop-color="#1F6091"/>
</linearGradient>
<linearGradient id="paint13_linear_288_5107" x1="194.833" y1="64.4696" x2="194.833" y2="75.1302" gradientUnits="userSpaceOnUse">
<stop stop-color="#709EC9"/>
<stop offset="1" stop-color="#1F6091"/>
</linearGradient>
<linearGradient id="paint14_linear_288_5107" x1="24.6014" y1="0" x2="24.6014" y2="6.56039" gradientUnits="userSpaceOnUse">
<stop stop-color="#709EC9"/>
<stop offset="1" stop-color="#1F6091"/>
</linearGradient>
<linearGradient id="paint15_linear_288_5107" x1="261.478" y1="64.4696" x2="261.478" y2="75.1302" gradientUnits="userSpaceOnUse">
<stop stop-color="#709EC9"/>
<stop offset="1" stop-color="#1F6091"/>
</linearGradient>
<linearGradient id="paint16_linear_288_5107" x1="161.175" y1="61.0682" x2="137.987" y2="77.1243" gradientUnits="userSpaceOnUse">
<stop stop-color="#37AEE2"/>
<stop offset="1" stop-color="#1E96C8"/>
</linearGradient>
<linearGradient id="paint17_linear_288_5107" x1="145.646" y1="65.7573" x2="144.351" y2="71.5079" gradientUnits="userSpaceOnUse">
<stop stop-color="#EFF7FC"/>
<stop offset="1" stop-color="white"/>
</linearGradient>
<linearGradient id="paint18_linear_288_5107" x1="0" y1="68" x2="295" y2="68" gradientUnits="userSpaceOnUse">
<stop stop-color="#215277"/>
<stop offset="1" stop-color="#215277" stop-opacity="0.4"/>
</linearGradient>
<clipPath id="clip0_288_5107">
<rect width="295" height="136" rx="10" fill="white"/>
</clipPath>
</defs>
</svg>
