<svg width="304" height="136" viewBox="0 0 304 136" fill="none" xmlns="http://www.w3.org/2000/svg">
<g clip-path="url(#clip0_259_10952)">
<rect width="304" height="136" fill="#608DB6"/>
<rect width="304" height="136" fill="#225478"/>
<circle cx="208" cy="-6" r="23.5" fill="#527CA1" stroke="#BCE0FF"/>
<circle cx="208" cy="48" r="23.5" fill="#527CA1" stroke="#BCE0FF"/>
<path d="M210.814 57.9735V51.3169H205.172V57.9735H200.854L206.09 63.213C207.143 64.2623 208.846 64.2623 209.899 63.213L215.138 57.9735H210.814ZM198.023 55.1503V40.8492L192.788 46.0868C191.737 47.138 191.737 48.8447 192.788 49.8959L198.023 55.1503ZM205.166 38.0167V44.6714H210.814V38.0167H215.138L209.891 32.7884C208.84 31.7372 207.134 31.7372 206.083 32.7884L200.852 38.0167H205.166ZM223.193 46.0793L217.96 40.8511V55.1372L223.199 49.8978C224.256 48.8559 224.269 47.1567 223.227 46.0999C223.225 46.098 223.223 46.0961 223.221 46.0943C223.221 46.0943 223.221 46.0943 223.199 46.0943L223.193 46.0793Z" fill="white"/>
<circle cx="208" cy="102" r="23.5" fill="#527CA1" stroke="#BCE0FF"/>
<circle cx="208" cy="156" r="23.5" fill="#527CA1" stroke="#BCE0FF"/>
<circle cx="264" cy="22" r="23.5" fill="#527CA1" stroke="#BCE0FF"/>
<g clip-path="url(#clip1_259_10952)">
<path d="M248 22V30H264H280V22V14H264H248V22ZM265.534 17.7244C266.733 18.121 267.72 19.1765 267.858 20.2118L267.905 20.521H267.042H266.179L266.035 20.1849C265.85 19.7479 265.402 19.3445 264.968 19.2101C264.514 19.0756 263.783 19.0824 263.381 19.2235C262.677 19.479 262.123 20.2252 261.919 21.1798C261.742 22.0471 261.84 23.3916 262.123 23.9563C262.328 24.3529 262.795 24.7966 263.23 24.9983C263.776 25.2471 264.573 25.2672 265.1 25.0319C265.679 24.7697 266.305 23.9496 266.305 23.4387V23.2773H265.35H264.395V22.5714V21.8655H266.173H267.951L267.937 24.1983L267.918 26.5378L267.345 26.558C266.844 26.5714 266.772 26.5647 266.739 26.4571C266.706 26.3429 266.568 25.5697 266.568 25.5092C266.568 25.4891 266.41 25.637 266.226 25.8319C265.528 26.5378 264.731 26.8202 263.644 26.7529C262.611 26.6857 261.886 26.3496 261.169 25.5966C260.668 25.0655 260.339 24.4605 260.135 23.6807C259.97 23.0622 259.977 21.4084 260.142 20.7563C260.352 19.916 260.675 19.3378 261.261 18.7328C261.834 18.1479 262.328 17.8521 263.052 17.6639C263.552 17.5361 265.073 17.5697 265.534 17.7244ZM256.764 17.8588C257.58 18.0403 258.081 18.4168 258.397 19.1025C258.542 19.4185 258.568 19.5731 258.568 20.0504C258.568 20.5412 258.542 20.6756 258.384 21.0118C258.272 21.2403 258.1 21.4689 257.956 21.5765C257.824 21.6773 257.686 21.7782 257.653 21.805C257.626 21.8319 257.712 21.9126 257.85 21.9866C258.199 22.1681 258.495 22.5042 258.68 22.9076C258.805 23.1899 258.831 23.358 258.831 23.916C258.831 24.5479 258.818 24.6151 258.607 25.0454C258.324 25.6168 257.824 26.1008 257.31 26.2958C256.751 26.5109 255.849 26.5782 253.761 26.558L251.852 26.5378L251.832 22.1479L251.819 17.7647H254.071C255.756 17.7647 256.441 17.7916 256.764 17.8588ZM271.842 21.0118C272.336 22.7798 272.757 24.2387 272.777 24.2588C272.797 24.2857 272.863 24.1244 272.922 23.9092C273.244 22.7462 274.272 19.1361 274.509 18.316L274.673 17.7647H275.595C276.451 17.7647 276.523 17.7714 276.491 17.879C276.3 18.5311 273.646 26.4235 273.593 26.484C273.554 26.5445 273.297 26.5714 272.757 26.5714C272.217 26.5714 271.96 26.5445 271.921 26.484C271.842 26.3832 269.07 17.9933 269.07 17.8588C269.07 17.7782 269.228 17.7647 270.012 17.7782L270.947 17.7983L271.842 21.0118Z" fill="white"/>
<path d="M253.543 20.252L253.563 21.2067L254.834 21.1932C256.526 21.1865 256.77 21.0857 256.862 20.3731C256.908 20.0033 256.743 19.6672 256.427 19.4857C256.223 19.3646 256.052 19.3445 254.86 19.3243L253.523 19.2974L253.543 20.252Z" fill="white"/>
<path d="M253.557 22.7596C253.544 22.8067 253.537 23.3311 253.544 23.9159L253.563 24.9916H254.88C256.032 24.9916 256.23 24.9781 256.447 24.8638C256.862 24.6554 256.987 24.4067 256.987 23.7949C256.987 23.2773 256.981 23.2638 256.75 23.042C256.421 22.7395 256.052 22.6722 254.709 22.6722C253.86 22.6722 253.583 22.6924 253.557 22.7596Z" fill="white"/>
</g>
<circle cx="264" cy="76" r="23.5" fill="#527CA1" stroke="#BCE0FF"/>
<circle cx="264" cy="130" r="23.5" fill="#527CA1" stroke="#BCE0FF"/>
<g clip-path="url(#clip2_259_10952)">
<path d="M190 105.46H194.431C194.452 105.48 194.473 105.5 194.495 105.5C194.495 105.5 194.495 105.5 194.516 105.52L194.537 105.54C194.558 105.56 194.58 105.56 194.601 105.58C194.622 105.6 194.643 105.62 194.686 105.64V105.78H190V105.46ZM199.71 105.6L200.028 105.84H225.894V105.46H199.71V105.6ZM201.661 98.92C202.297 99.52 202.636 100.34 202.636 101.3C202.636 102.24 202.276 103.08 201.64 103.68C201.004 104.28 200.113 104.62 199.117 104.62C197.993 104.62 196.996 104.2 196.339 103.44C195.852 102.86 195.576 102.12 195.576 101.32C195.576 100.26 196.021 99.32 196.806 98.72C197.442 98.24 198.226 98 199.117 98C200.134 98 201.025 98.32 201.661 98.92ZM199.117 103.94C200.113 103.94 200.898 103.38 201.237 102.4C201.364 102.06 201.428 101.68 201.428 101.3C201.428 100.62 201.237 99.98 200.876 99.5C200.452 98.94 199.859 98.66 199.117 98.66C198.523 98.66 198.014 98.86 197.611 99.24C197.102 99.72 196.784 100.5 196.806 101.32C196.806 101.86 196.933 102.38 197.187 102.8C197.569 103.54 198.29 103.94 199.117 103.94ZM205.795 100.84C205.731 100.82 205.647 100.78 205.541 100.74C205.011 100.56 204.205 100.28 204.226 99.56C204.247 99.04 204.693 98.66 205.265 98.66C205.816 98.66 206.219 98.94 206.367 99.38V99.4L206.516 99.46L206.961 98.54L206.94 98.52C206.558 98.18 206.049 98.02 205.456 98.02C204.332 98.02 203.442 98.6 203.251 99.48C203.124 100.06 203.293 100.62 203.696 100.98C203.993 101.26 204.417 101.42 204.799 101.58C204.799 101.58 204.799 101.58 204.82 101.58C205.223 101.74 205.795 101.94 206.092 102.28C206.261 102.48 206.325 102.74 206.283 103.04C206.198 103.56 205.774 103.92 205.201 103.94C204.353 103.98 203.611 103.5 203.484 102.9V102.88L203.314 102.82L202.996 103.84L203.018 103.86C203.442 104.32 204.163 104.58 204.989 104.58C205.032 104.58 205.053 104.58 205.074 104.58C206.367 104.54 207.322 103.68 207.322 102.54C207.343 101.84 206.813 101.26 205.795 100.84ZM224.643 98.12L224.898 98.5V102.16L221.081 98.14L221.06 98.12H219.809L220.148 98.62V104.14L219.894 104.52H221.23L221.039 104.16V99.7L225.724 104.56L225.788 104.64V98.52L225.979 98.12H224.643ZM216.247 103.84V101.56H218.389L218.643 100.88L218.516 100.92H216.226V98.76H218.071L218.707 98.96L219.025 98.12H214.89L215.081 98.6V104.08L214.89 104.52H218.94L219.258 103.66L218.452 103.86H216.247V103.84ZM214.191 98.12H212.622L212.876 98.5V100.94H209.272V98.48L209.463 98.12H207.894L208.148 98.5V104.14L207.894 104.52H209.463L209.272 104.16V101.56H212.876V104.12L212.622 104.5H214.191L214 104.14V98.48L214.191 98.12ZM198.608 105.58C198.544 105.58 198.502 105.58 198.438 105.58C197.272 105.58 196.042 104.82 194.792 103.34C194.304 102.76 193.753 102.1 193.265 101.56C194.24 101.4 194.919 100.68 194.919 99.82C194.919 98.74 194.007 98.06 192.544 98.06L190.297 98.12L190.509 98.6V104.14L190.276 104.52H191.845L191.654 104.16V98.68C193.095 98.58 193.774 98.94 193.837 99.82C193.859 100.18 193.753 100.5 193.498 100.76C193.18 101.1 192.65 101.3 191.972 101.32H191.951L191.887 101.48L192.756 102.5L192.926 102.7C194.452 104.54 195.661 106 197.505 106C197.887 106 198.29 105.94 198.714 105.82L198.756 105.8L198.629 105.58H198.608Z" fill="white"/>
</g>
<path d="M258.708 70.2871V73.5663H258.423C258.21 72.7765 258.02 72.2499 257.759 71.9147C257.569 71.5796 257.236 71.3164 256.809 71.1488C256.619 71.053 256.191 70.9812 255.669 70.9812H254.743V80.2445C254.743 80.8669 254.815 81.2738 254.862 81.4174C254.909 81.561 255.075 81.7285 255.242 81.8004C255.431 81.9201 255.716 81.9679 256.049 81.9679H256.453V82.303H250.185V81.9679H250.612C250.945 81.9679 251.205 81.8961 251.467 81.8004C251.609 81.7285 251.728 81.561 251.823 81.3695C251.894 81.2259 251.894 80.8429 251.894 80.2445V70.9812H251.039C250.28 70.9812 249.663 71.1488 249.33 71.5078C248.807 72.0105 248.475 72.6568 248.309 73.5903H248V70.3111H258.708V70.2871Z" fill="white"/>
<path d="M265.499 78.8803H261.273L260.798 80.077C260.632 80.4361 260.56 80.7712 260.56 81.0345C260.56 81.3696 260.656 81.6329 260.916 81.8005C261.083 81.8962 261.487 81.968 262.104 81.968V82.3031H258.139V81.968C258.566 81.8962 258.899 81.7048 259.184 81.4414C259.444 81.1782 259.777 80.5798 260.204 79.6223L264.502 70H264.668L268.965 79.8617C269.346 80.8191 269.678 81.4175 269.939 81.6329C270.153 81.8483 270.413 81.9441 270.77 81.9441V82.2792H265.024V81.9441H265.261C265.713 81.9441 266.045 81.8723 266.211 81.7765C266.377 81.7048 266.425 81.5133 266.425 81.3457C266.425 81.2499 266.377 81.1782 266.377 81.0106C266.377 81.0106 266.283 80.7473 266.117 80.3882L265.499 78.8803ZM265.214 78.2579L263.41 74.093L261.605 78.2579H265.214Z" fill="white"/>
<path d="M279.483 70.0225L279.554 73.9959H279.198C279.032 73.0384 278.605 72.1767 277.963 71.5783C277.299 70.9799 276.563 70.7166 275.78 70.7166C275.186 70.7166 274.735 70.8363 274.402 71.1474C274.07 71.4826 273.88 71.8416 273.88 72.2724C273.88 72.5358 273.904 72.799 274.046 72.9666C274.212 73.2539 274.497 73.589 274.853 73.8283C275.162 73.9959 275.78 74.3549 276.8 74.8575C278.178 75.5517 279.128 76.1741 279.602 76.7725C280.076 77.4188 280.338 78.1608 280.338 78.9506C280.338 79.8842 279.91 80.7698 279.151 81.5357C278.368 82.2299 277.418 82.565 276.231 82.565C275.85 82.565 275.471 82.565 275.139 82.4693C274.83 82.3975 274.402 82.206 273.904 82.0384C273.642 81.9187 273.382 81.8709 273.215 81.8709C273.049 81.8709 272.883 81.9187 272.717 82.0384C272.551 82.1102 272.432 82.3017 272.289 82.565H271.98V78.065H272.289C272.551 79.2858 273.049 80.315 273.833 80.9374C274.521 81.6075 275.328 81.9666 276.159 81.9666C276.824 81.9666 277.346 81.799 277.774 81.44C278.13 81.1049 278.32 80.674 278.32 80.1474C278.32 79.8842 278.272 79.6208 278.13 79.3576C277.963 79.0943 277.726 78.831 277.441 78.5916C277.109 78.3283 276.587 78.065 275.803 77.6342C274.711 77.1076 273.927 76.7007 273.476 76.2459C272.977 75.9107 272.622 75.4799 272.361 75.0251C272.123 74.4985 272.004 73.9959 272.004 73.4693C272.004 72.5358 272.361 71.6501 273.026 71.0517C273.714 70.3576 274.568 70.0225 275.661 70.0225C276.04 70.0225 276.397 70.0464 276.8 70.19C277.062 70.2139 277.418 70.3815 277.75 70.5491C278.153 70.7166 278.438 70.8363 278.605 70.8363C278.771 70.8363 278.866 70.8123 278.96 70.7166C279.032 70.6448 279.127 70.3815 279.198 70.0225H279.483Z" fill="white"/>
<path d="M264.427 116.488C256.871 116.488 250.723 122.636 250.723 130.192C250.723 137.747 256.871 143.895 264.427 143.895C271.982 143.895 278.13 137.747 278.13 130.192C278.13 122.636 271.982 116.488 264.427 116.488Z" fill="#225478"/>
<path d="M266.112 113.074C265.701 113.035 265.286 113.008 264.867 113V113.074L264.952 116.5C265.383 116.516 265.805 116.555 266.224 116.609C266.143 115.431 266.104 114.252 266.115 113.074H266.112Z" fill="white"/>
<path d="M264.953 116.505L265.616 143.846C269.039 143.552 272.105 141.989 274.35 139.636C269.636 132.86 266.802 124.82 266.229 116.613C265.81 116.559 265.387 116.52 264.957 116.505H264.953Z" fill="white"/>
<path d="M264.048 113.074V113C263.63 113.012 263.215 113.035 262.804 113.074V113.081C262.819 114.256 262.781 115.431 262.699 116.601C263.114 116.547 263.537 116.516 263.963 116.5L264.044 113.074H264.048Z" fill="white"/>
<path d="M262.699 116.602C262.133 124.832 259.257 132.876 254.543 139.68C256.795 142.025 259.873 143.572 263.304 143.851L263.967 116.501C263.541 116.517 263.118 116.548 262.703 116.602H262.699Z" fill="white"/>
<path d="M277.966 132.313C277.652 134.317 276.904 136.178 275.822 137.798C276.559 138.775 277.338 139.725 278.16 140.636C279.373 139.046 280.315 137.24 280.916 135.286H280.92C279.858 134.321 278.877 133.325 277.97 132.313H277.966Z" fill="white"/>
<path d="M267.953 113.35C267.62 113.28 267.279 113.222 266.938 113.175C266.992 114.385 267.1 115.59 267.255 116.788C267.868 116.916 268.469 117.087 269.05 117.296C268.453 115.594 268.108 114.218 267.953 113.35Z" fill="white"/>
<path d="M269.051 117.295C268.469 117.086 267.872 116.916 267.256 116.788C268.241 124.39 271.218 131.701 275.819 137.799C276.927 136.149 277.659 134.277 277.963 132.313C273.164 126.979 270.431 121.25 269.051 117.295Z" fill="white"/>
<path d="M261.98 113.175C261.639 113.226 261.302 113.284 260.964 113.35C260.813 114.214 260.468 115.579 259.875 117.269C260.453 117.063 261.05 116.897 261.662 116.769C261.817 115.575 261.926 114.377 261.976 113.175H261.98Z" fill="white"/>
<path d="M248.004 135.288C248.601 137.22 249.534 139.031 250.76 140.638C251.566 139.742 252.33 138.808 253.059 137.847C251.948 136.203 251.21 134.336 250.896 132.377C250.004 133.365 249.043 134.342 248.004 135.288Z" fill="white"/>
<path d="M259.873 117.267C258.485 121.237 255.736 127.013 250.891 132.378C251.212 134.378 251.964 136.235 253.054 137.848C257.679 131.735 260.675 124.4 261.656 116.771C261.044 116.895 260.45 117.065 259.869 117.271L259.873 117.267Z" fill="white"/>
<path d="M207.998 3.09898C214.41 3.09898 219.607 -2.09869 219.607 -8.51033C219.607 -14.922 214.41 -20.1196 207.998 -20.1196C201.586 -20.1196 196.389 -14.922 196.389 -8.51033C196.389 -2.09869 201.586 3.09898 207.998 3.09898Z" fill="#225478"/>
<path d="M208 3.40698C201.386 3.40698 196 -1.97906 196 -8.59302C196 -15.207 201.386 -20.593 208 -20.593C214.614 -20.593 220 -15.207 220 -8.59302C220 -1.97906 214.614 3.40698 208 3.40698ZM208 -19.7837C201.833 -19.7837 196.809 -14.7605 196.809 -8.59302C196.809 -2.42557 201.833 2.59768 208 2.59768C214.167 2.59768 219.191 -2.42557 219.191 -8.59302C219.191 -14.7605 214.195 -19.7837 208 -19.7837Z" fill="#225478"/>
<path d="M215.479 -13.2271C215.339 -13.3108 215.199 -13.2829 215.088 -13.2271L210.316 -10.2132C210.232 -10.1574 210.176 -10.0736 210.148 -9.98992L208.027 -2.25968L205.906 -9.98992C205.879 -10.0736 205.823 -10.1574 205.739 -10.2132L200.967 -13.2271C200.855 -13.3108 200.688 -13.3108 200.576 -13.2271C200.437 -13.1434 200.381 -13.0318 200.381 -12.8922V-7.39457C200.381 -7.25503 200.437 -7.1434 200.548 -7.05968L203.116 -5.38527L207.665 10.2147C207.692 10.3822 207.832 10.4938 207.999 10.5217C208.027 10.5217 208.027 10.5217 208.055 10.5217C208.083 10.5217 208.083 10.5217 208.111 10.5217C208.279 10.4938 208.418 10.3822 208.446 10.2147L212.939 -5.41317L215.506 -7.08759C215.618 -7.17131 215.674 -7.28294 215.674 -7.42247V-12.8922C215.674 -13.0318 215.618 -13.1713 215.479 -13.2271Z" fill="white"/>
</g>
<defs>
<clipPath id="clip0_259_10952">
<rect width="304" height="136" fill="white"/>
</clipPath>
<clipPath id="clip1_259_10952">
<rect width="32" height="16" fill="white" transform="translate(248 14)"/>
</clipPath>
<clipPath id="clip2_259_10952">
<rect width="36" height="8" fill="white" transform="translate(190 98)"/>
</clipPath>
</defs>
</svg>
