<svg width="294" height="136" viewBox="0 0 294 136" fill="none" xmlns="http://www.w3.org/2000/svg">
<g clip-path="url(#clip0_288_2458)">
<rect width="294" height="136" rx="10" fill="#225478"/>
<g opacity="0.45">
<g clip-path="url(#clip1_288_2458)">
<path d="M1 0.699951C1 1.25224 0.552285 1.69995 0 1.69995C-0.552285 1.69995 -1 1.25224 -1 0.699951C-1 0.147666 -0.552285 -0.300049 0 -0.300049C0.552285 -0.300049 1 0.147666 1 0.699951Z" fill="#BCE0FF"/>
<path d="M9 0.699951C9 1.25224 8.55228 1.69995 8 1.69995C7.44772 1.69995 7 1.25224 7 0.699951C7 0.147666 7.44772 -0.300049 8 -0.300049C8.55228 -0.300049 9 0.147666 9 0.699951Z" fill="#BCE0FF"/>
<path d="M17 0.699951C17 1.25224 16.5523 1.69995 16 1.69995C15.4477 1.69995 15 1.25224 15 0.699951C15 0.147666 15.4477 -0.300049 16 -0.300049C16.5523 -0.300049 17 0.147666 17 0.699951Z" fill="#BCE0FF"/>
<path d="M25 0.699951C25 1.25224 24.5523 1.69995 24 1.69995C23.4477 1.69995 23 1.25224 23 0.699951C23 0.147666 23.4477 -0.300049 24 -0.300049C24.5523 -0.300049 25 0.147666 25 0.699951Z" fill="#BCE0FF"/>
<path d="M33 0.699951C33 1.25224 32.5523 1.69995 32 1.69995C31.4477 1.69995 31 1.25224 31 0.699951C31 0.147666 31.4477 -0.300049 32 -0.300049C32.5523 -0.300049 33 0.147666 33 0.699951Z" fill="#BCE0FF"/>
<path d="M41 0.699951C41 1.25224 40.5523 1.69995 40 1.69995C39.4477 1.69995 39 1.25224 39 0.699951C39 0.147666 39.4477 -0.300049 40 -0.300049C40.5523 -0.300049 41 0.147666 41 0.699951Z" fill="#BCE0FF"/>
<path d="M49 0.699951C49 1.25224 48.5523 1.69995 48 1.69995C47.4477 1.69995 47 1.25224 47 0.699951C47 0.147666 47.4477 -0.300049 48 -0.300049C48.5523 -0.300049 49 0.147666 49 0.699951Z" fill="#BCE0FF"/>
<path d="M57 0.699951C57 1.25224 56.5523 1.69995 56 1.69995C55.4477 1.69995 55 1.25224 55 0.699951C55 0.147666 55.4477 -0.300049 56 -0.300049C56.5523 -0.300049 57 0.147666 57 0.699951Z" fill="#BCE0FF"/>
<path d="M65 0.699951C65 1.25224 64.5523 1.69995 64 1.69995C63.4477 1.69995 63 1.25224 63 0.699951C63 0.147666 63.4477 -0.300049 64 -0.300049C64.5523 -0.300049 65 0.147666 65 0.699951Z" fill="#BCE0FF"/>
<path d="M73 0.699951C73 1.25224 72.5523 1.69995 72 1.69995C71.4477 1.69995 71 1.25224 71 0.699951C71 0.147666 71.4477 -0.300049 72 -0.300049C72.5523 -0.300049 73 0.147666 73 0.699951Z" fill="#BCE0FF"/>
<path d="M81 0.699951C81 1.25224 80.5523 1.69995 80 1.69995C79.4477 1.69995 79 1.25224 79 0.699951C79 0.147666 79.4477 -0.300049 80 -0.300049C80.5523 -0.300049 81 0.147666 81 0.699951Z" fill="#BCE0FF"/>
<path d="M89 0.699951C89 1.25224 88.5523 1.69995 88 1.69995C87.4477 1.69995 87 1.25224 87 0.699951C87 0.147666 87.4477 -0.300049 88 -0.300049C88.5523 -0.300049 89 0.147666 89 0.699951Z" fill="#BCE0FF"/>
<path d="M97 0.699951C97 1.25224 96.5523 1.69995 96 1.69995C95.4477 1.69995 95 1.25224 95 0.699951C95 0.147666 95.4477 -0.300049 96 -0.300049C96.5523 -0.300049 97 0.147666 97 0.699951Z" fill="#BCE0FF"/>
<path d="M105 0.699951C105 1.25224 104.552 1.69995 104 1.69995C103.448 1.69995 103 1.25224 103 0.699951C103 0.147666 103.448 -0.300049 104 -0.300049C104.552 -0.300049 105 0.147666 105 0.699951Z" fill="#BCE0FF"/>
<path d="M113 0.699951C113 1.25224 112.552 1.69995 112 1.69995C111.448 1.69995 111 1.25224 111 0.699951C111 0.147666 111.448 -0.300049 112 -0.300049C112.552 -0.300049 113 0.147666 113 0.699951Z" fill="#BCE0FF"/>
<path d="M121 0.699951C121 1.25224 120.552 1.69995 120 1.69995C119.448 1.69995 119 1.25224 119 0.699951C119 0.147666 119.448 -0.300049 120 -0.300049C120.552 -0.300049 121 0.147666 121 0.699951Z" fill="#BCE0FF"/>
<path d="M129 0.699951C129 1.25224 128.552 1.69995 128 1.69995C127.448 1.69995 127 1.25224 127 0.699951C127 0.147666 127.448 -0.300049 128 -0.300049C128.552 -0.300049 129 0.147666 129 0.699951Z" fill="#BCE0FF"/>
<path d="M137 0.699951C137 1.25224 136.552 1.69995 136 1.69995C135.448 1.69995 135 1.25224 135 0.699951C135 0.147666 135.448 -0.300049 136 -0.300049C136.552 -0.300049 137 0.147666 137 0.699951Z" fill="#BCE0FF"/>
<path d="M145 0.699951C145 1.25224 144.552 1.69995 144 1.69995C143.448 1.69995 143 1.25224 143 0.699951C143 0.147666 143.448 -0.300049 144 -0.300049C144.552 -0.300049 145 0.147666 145 0.699951Z" fill="#BCE0FF"/>
<path d="M153 0.699951C153 1.25224 152.552 1.69995 152 1.69995C151.448 1.69995 151 1.25224 151 0.699951C151 0.147666 151.448 -0.300049 152 -0.300049C152.552 -0.300049 153 0.147666 153 0.699951Z" fill="#BCE0FF"/>
<path d="M161 0.699951C161 1.25224 160.552 1.69995 160 1.69995C159.448 1.69995 159 1.25224 159 0.699951C159 0.147666 159.448 -0.300049 160 -0.300049C160.552 -0.300049 161 0.147666 161 0.699951Z" fill="#BCE0FF"/>
<path d="M169 0.699951C169 1.25224 168.552 1.69995 168 1.69995C167.448 1.69995 167 1.25224 167 0.699951C167 0.147666 167.448 -0.300049 168 -0.300049C168.552 -0.300049 169 0.147666 169 0.699951Z" fill="#BCE0FF"/>
<path d="M177 0.699951C177 1.25224 176.552 1.69995 176 1.69995C175.448 1.69995 175 1.25224 175 0.699951C175 0.147666 175.448 -0.300049 176 -0.300049C176.552 -0.300049 177 0.147666 177 0.699951Z" fill="#BCE0FF"/>
<path d="M185 0.699951C185 1.25224 184.552 1.69995 184 1.69995C183.448 1.69995 183 1.25224 183 0.699951C183 0.147666 183.448 -0.300049 184 -0.300049C184.552 -0.300049 185 0.147666 185 0.699951Z" fill="#BCE0FF"/>
<path d="M193 0.699951C193 1.25224 192.552 1.69995 192 1.69995C191.448 1.69995 191 1.25224 191 0.699951C191 0.147666 191.448 -0.300049 192 -0.300049C192.552 -0.300049 193 0.147666 193 0.699951Z" fill="#BCE0FF"/>
<path d="M201 0.699951C201 1.25224 200.552 1.69995 200 1.69995C199.448 1.69995 199 1.25224 199 0.699951C199 0.147666 199.448 -0.300049 200 -0.300049C200.552 -0.300049 201 0.147666 201 0.699951Z" fill="#BCE0FF"/>
<path d="M209 0.699951C209 1.25224 208.552 1.69995 208 1.69995C207.448 1.69995 207 1.25224 207 0.699951C207 0.147666 207.448 -0.300049 208 -0.300049C208.552 -0.300049 209 0.147666 209 0.699951Z" fill="#BCE0FF"/>
<path d="M217 0.699951C217 1.25224 216.552 1.69995 216 1.69995C215.448 1.69995 215 1.25224 215 0.699951C215 0.147666 215.448 -0.300049 216 -0.300049C216.552 -0.300049 217 0.147666 217 0.699951Z" fill="#BCE0FF"/>
<path d="M225 0.699951C225 1.25224 224.552 1.69995 224 1.69995C223.448 1.69995 223 1.25224 223 0.699951C223 0.147666 223.448 -0.300049 224 -0.300049C224.552 -0.300049 225 0.147666 225 0.699951Z" fill="#BCE0FF"/>
<path d="M233 0.699951C233 1.25224 232.552 1.69995 232 1.69995C231.448 1.69995 231 1.25224 231 0.699951C231 0.147666 231.448 -0.300049 232 -0.300049C232.552 -0.300049 233 0.147666 233 0.699951Z" fill="#BCE0FF"/>
<path d="M241 0.699951C241 1.25224 240.552 1.69995 240 1.69995C239.448 1.69995 239 1.25224 239 0.699951C239 0.147666 239.448 -0.300049 240 -0.300049C240.552 -0.300049 241 0.147666 241 0.699951Z" fill="#BCE0FF"/>
<path d="M249 0.699951C249 1.25224 248.552 1.69995 248 1.69995C247.448 1.69995 247 1.25224 247 0.699951C247 0.147666 247.448 -0.300049 248 -0.300049C248.552 -0.300049 249 0.147666 249 0.699951Z" fill="#BCE0FF"/>
<path d="M257 0.699951C257 1.25224 256.552 1.69995 256 1.69995C255.448 1.69995 255 1.25224 255 0.699951C255 0.147666 255.448 -0.300049 256 -0.300049C256.552 -0.300049 257 0.147666 257 0.699951Z" fill="#BCE0FF"/>
<path d="M265 0.699951C265 1.25224 264.552 1.69995 264 1.69995C263.448 1.69995 263 1.25224 263 0.699951C263 0.147666 263.448 -0.300049 264 -0.300049C264.552 -0.300049 265 0.147666 265 0.699951Z" fill="#BCE0FF"/>
<path d="M273 0.699951C273 1.25224 272.552 1.69995 272 1.69995C271.448 1.69995 271 1.25224 271 0.699951C271 0.147666 271.448 -0.300049 272 -0.300049C272.552 -0.300049 273 0.147666 273 0.699951Z" fill="#BCE0FF"/>
<path d="M281 0.699951C281 1.25224 280.552 1.69995 280 1.69995C279.448 1.69995 279 1.25224 279 0.699951C279 0.147666 279.448 -0.300049 280 -0.300049C280.552 -0.300049 281 0.147666 281 0.699951Z" fill="#BCE0FF"/>
<path d="M289 0.699951C289 1.25224 288.552 1.69995 288 1.69995C287.448 1.69995 287 1.25224 287 0.699951C287 0.147666 287.448 -0.300049 288 -0.300049C288.552 -0.300049 289 0.147666 289 0.699951Z" fill="#BCE0FF"/>
</g>
<g clip-path="url(#clip2_288_2458)">
<path d="M1 11.1C1 11.6523 0.552285 12.1 0 12.1C-0.552285 12.1 -1 11.6523 -1 11.1C-1 10.5478 -0.552285 10.1 0 10.1C0.552285 10.1 1 10.5478 1 11.1Z" fill="#BCE0FF"/>
<path d="M9 11.1C9 11.6523 8.55228 12.1 8 12.1C7.44772 12.1 7 11.6523 7 11.1C7 10.5478 7.44772 10.1 8 10.1C8.55228 10.1 9 10.5478 9 11.1Z" fill="#BCE0FF"/>
<path d="M17 11.1C17 11.6523 16.5523 12.1 16 12.1C15.4477 12.1 15 11.6523 15 11.1C15 10.5478 15.4477 10.1 16 10.1C16.5523 10.1 17 10.5478 17 11.1Z" fill="#BCE0FF"/>
<path d="M25 11.1C25 11.6523 24.5523 12.1 24 12.1C23.4477 12.1 23 11.6523 23 11.1C23 10.5478 23.4477 10.1 24 10.1C24.5523 10.1 25 10.5478 25 11.1Z" fill="#BCE0FF"/>
<path d="M33 11.1C33 11.6523 32.5523 12.1 32 12.1C31.4477 12.1 31 11.6523 31 11.1C31 10.5478 31.4477 10.1 32 10.1C32.5523 10.1 33 10.5478 33 11.1Z" fill="#BCE0FF"/>
<path d="M41 11.1C41 11.6523 40.5523 12.1 40 12.1C39.4477 12.1 39 11.6523 39 11.1C39 10.5478 39.4477 10.1 40 10.1C40.5523 10.1 41 10.5478 41 11.1Z" fill="#BCE0FF"/>
<path d="M49 11.1C49 11.6523 48.5523 12.1 48 12.1C47.4477 12.1 47 11.6523 47 11.1C47 10.5478 47.4477 10.1 48 10.1C48.5523 10.1 49 10.5478 49 11.1Z" fill="#BCE0FF"/>
<path d="M57 11.1C57 11.6523 56.5523 12.1 56 12.1C55.4477 12.1 55 11.6523 55 11.1C55 10.5478 55.4477 10.1 56 10.1C56.5523 10.1 57 10.5478 57 11.1Z" fill="#BCE0FF"/>
<path d="M65 11.1C65 11.6523 64.5523 12.1 64 12.1C63.4477 12.1 63 11.6523 63 11.1C63 10.5478 63.4477 10.1 64 10.1C64.5523 10.1 65 10.5478 65 11.1Z" fill="#BCE0FF"/>
<path d="M73 11.1C73 11.6523 72.5523 12.1 72 12.1C71.4477 12.1 71 11.6523 71 11.1C71 10.5478 71.4477 10.1 72 10.1C72.5523 10.1 73 10.5478 73 11.1Z" fill="#BCE0FF"/>
<path d="M81 11.1C81 11.6523 80.5523 12.1 80 12.1C79.4477 12.1 79 11.6523 79 11.1C79 10.5478 79.4477 10.1 80 10.1C80.5523 10.1 81 10.5478 81 11.1Z" fill="#BCE0FF"/>
<path d="M89 11.1C89 11.6523 88.5523 12.1 88 12.1C87.4477 12.1 87 11.6523 87 11.1C87 10.5478 87.4477 10.1 88 10.1C88.5523 10.1 89 10.5478 89 11.1Z" fill="#BCE0FF"/>
<path d="M97 11.1C97 11.6523 96.5523 12.1 96 12.1C95.4477 12.1 95 11.6523 95 11.1C95 10.5478 95.4477 10.1 96 10.1C96.5523 10.1 97 10.5478 97 11.1Z" fill="#BCE0FF"/>
<path d="M105 11.1C105 11.6523 104.552 12.1 104 12.1C103.448 12.1 103 11.6523 103 11.1C103 10.5478 103.448 10.1 104 10.1C104.552 10.1 105 10.5478 105 11.1Z" fill="#BCE0FF"/>
<path d="M113 11.1C113 11.6523 112.552 12.1 112 12.1C111.448 12.1 111 11.6523 111 11.1C111 10.5478 111.448 10.1 112 10.1C112.552 10.1 113 10.5478 113 11.1Z" fill="#BCE0FF"/>
<path d="M121 11.1C121 11.6523 120.552 12.1 120 12.1C119.448 12.1 119 11.6523 119 11.1C119 10.5478 119.448 10.1 120 10.1C120.552 10.1 121 10.5478 121 11.1Z" fill="#BCE0FF"/>
<path d="M129 11.1C129 11.6523 128.552 12.1 128 12.1C127.448 12.1 127 11.6523 127 11.1C127 10.5478 127.448 10.1 128 10.1C128.552 10.1 129 10.5478 129 11.1Z" fill="#BCE0FF"/>
<path d="M137 11.1C137 11.6523 136.552 12.1 136 12.1C135.448 12.1 135 11.6523 135 11.1C135 10.5478 135.448 10.1 136 10.1C136.552 10.1 137 10.5478 137 11.1Z" fill="#BCE0FF"/>
<path d="M145 11.1C145 11.6523 144.552 12.1 144 12.1C143.448 12.1 143 11.6523 143 11.1C143 10.5478 143.448 10.1 144 10.1C144.552 10.1 145 10.5478 145 11.1Z" fill="#BCE0FF"/>
<path d="M153 11.1C153 11.6523 152.552 12.1 152 12.1C151.448 12.1 151 11.6523 151 11.1C151 10.5478 151.448 10.1 152 10.1C152.552 10.1 153 10.5478 153 11.1Z" fill="#BCE0FF"/>
<path d="M161 11.1C161 11.6523 160.552 12.1 160 12.1C159.448 12.1 159 11.6523 159 11.1C159 10.5478 159.448 10.1 160 10.1C160.552 10.1 161 10.5478 161 11.1Z" fill="#BCE0FF"/>
<path d="M169 11.1C169 11.6523 168.552 12.1 168 12.1C167.448 12.1 167 11.6523 167 11.1C167 10.5478 167.448 10.1 168 10.1C168.552 10.1 169 10.5478 169 11.1Z" fill="#BCE0FF"/>
<path d="M177 11.1C177 11.6523 176.552 12.1 176 12.1C175.448 12.1 175 11.6523 175 11.1C175 10.5478 175.448 10.1 176 10.1C176.552 10.1 177 10.5478 177 11.1Z" fill="#BCE0FF"/>
<path d="M185 11.1C185 11.6523 184.552 12.1 184 12.1C183.448 12.1 183 11.6523 183 11.1C183 10.5478 183.448 10.1 184 10.1C184.552 10.1 185 10.5478 185 11.1Z" fill="#BCE0FF"/>
<path d="M193 11.1C193 11.6523 192.552 12.1 192 12.1C191.448 12.1 191 11.6523 191 11.1C191 10.5478 191.448 10.1 192 10.1C192.552 10.1 193 10.5478 193 11.1Z" fill="#BCE0FF"/>
<path d="M201 11.1C201 11.6523 200.552 12.1 200 12.1C199.448 12.1 199 11.6523 199 11.1C199 10.5478 199.448 10.1 200 10.1C200.552 10.1 201 10.5478 201 11.1Z" fill="#BCE0FF"/>
<path d="M209 11.1C209 11.6523 208.552 12.1 208 12.1C207.448 12.1 207 11.6523 207 11.1C207 10.5478 207.448 10.1 208 10.1C208.552 10.1 209 10.5478 209 11.1Z" fill="#BCE0FF"/>
<path d="M217 11.1C217 11.6523 216.552 12.1 216 12.1C215.448 12.1 215 11.6523 215 11.1C215 10.5478 215.448 10.1 216 10.1C216.552 10.1 217 10.5478 217 11.1Z" fill="#BCE0FF"/>
<path d="M225 11.1C225 11.6523 224.552 12.1 224 12.1C223.448 12.1 223 11.6523 223 11.1C223 10.5478 223.448 10.1 224 10.1C224.552 10.1 225 10.5478 225 11.1Z" fill="#BCE0FF"/>
<path d="M233 11.1C233 11.6523 232.552 12.1 232 12.1C231.448 12.1 231 11.6523 231 11.1C231 10.5478 231.448 10.1 232 10.1C232.552 10.1 233 10.5478 233 11.1Z" fill="#BCE0FF"/>
<path d="M241 11.1C241 11.6523 240.552 12.1 240 12.1C239.448 12.1 239 11.6523 239 11.1C239 10.5478 239.448 10.1 240 10.1C240.552 10.1 241 10.5478 241 11.1Z" fill="#BCE0FF"/>
<path d="M249 11.1C249 11.6523 248.552 12.1 248 12.1C247.448 12.1 247 11.6523 247 11.1C247 10.5478 247.448 10.1 248 10.1C248.552 10.1 249 10.5478 249 11.1Z" fill="#BCE0FF"/>
<path d="M257 11.1C257 11.6523 256.552 12.1 256 12.1C255.448 12.1 255 11.6523 255 11.1C255 10.5478 255.448 10.1 256 10.1C256.552 10.1 257 10.5478 257 11.1Z" fill="#BCE0FF"/>
<path d="M265 11.1C265 11.6523 264.552 12.1 264 12.1C263.448 12.1 263 11.6523 263 11.1C263 10.5478 263.448 10.1 264 10.1C264.552 10.1 265 10.5478 265 11.1Z" fill="#BCE0FF"/>
<path d="M273 11.1C273 11.6523 272.552 12.1 272 12.1C271.448 12.1 271 11.6523 271 11.1C271 10.5478 271.448 10.1 272 10.1C272.552 10.1 273 10.5478 273 11.1Z" fill="#BCE0FF"/>
<path d="M281 11.1C281 11.6523 280.552 12.1 280 12.1C279.448 12.1 279 11.6523 279 11.1C279 10.5478 279.448 10.1 280 10.1C280.552 10.1 281 10.5478 281 11.1Z" fill="#BCE0FF"/>
<path d="M289 11.1C289 11.6523 288.552 12.1 288 12.1C287.448 12.1 287 11.6523 287 11.1C287 10.5478 287.448 10.1 288 10.1C288.552 10.1 289 10.5478 289 11.1Z" fill="#BCE0FF"/>
</g>
<g clip-path="url(#clip3_288_2458)">
<path d="M1 21.5C1 22.0523 0.552285 22.5 0 22.5C-0.552285 22.5 -1 22.0523 -1 21.5C-1 20.9477 -0.552285 20.5 0 20.5C0.552285 20.5 1 20.9477 1 21.5Z" fill="#BCE0FF"/>
<path d="M9 21.5C9 22.0523 8.55228 22.5 8 22.5C7.44772 22.5 7 22.0523 7 21.5C7 20.9477 7.44772 20.5 8 20.5C8.55228 20.5 9 20.9477 9 21.5Z" fill="#BCE0FF"/>
<path d="M17 21.5C17 22.0523 16.5523 22.5 16 22.5C15.4477 22.5 15 22.0523 15 21.5C15 20.9477 15.4477 20.5 16 20.5C16.5523 20.5 17 20.9477 17 21.5Z" fill="#BCE0FF"/>
<path d="M25 21.5C25 22.0523 24.5523 22.5 24 22.5C23.4477 22.5 23 22.0523 23 21.5C23 20.9477 23.4477 20.5 24 20.5C24.5523 20.5 25 20.9477 25 21.5Z" fill="#BCE0FF"/>
<path d="M33 21.5C33 22.0523 32.5523 22.5 32 22.5C31.4477 22.5 31 22.0523 31 21.5C31 20.9477 31.4477 20.5 32 20.5C32.5523 20.5 33 20.9477 33 21.5Z" fill="#BCE0FF"/>
<path d="M41 21.5C41 22.0523 40.5523 22.5 40 22.5C39.4477 22.5 39 22.0523 39 21.5C39 20.9477 39.4477 20.5 40 20.5C40.5523 20.5 41 20.9477 41 21.5Z" fill="#BCE0FF"/>
<path d="M49 21.5C49 22.0523 48.5523 22.5 48 22.5C47.4477 22.5 47 22.0523 47 21.5C47 20.9477 47.4477 20.5 48 20.5C48.5523 20.5 49 20.9477 49 21.5Z" fill="#BCE0FF"/>
<path d="M57 21.5C57 22.0523 56.5523 22.5 56 22.5C55.4477 22.5 55 22.0523 55 21.5C55 20.9477 55.4477 20.5 56 20.5C56.5523 20.5 57 20.9477 57 21.5Z" fill="#BCE0FF"/>
<path d="M65 21.5C65 22.0523 64.5523 22.5 64 22.5C63.4477 22.5 63 22.0523 63 21.5C63 20.9477 63.4477 20.5 64 20.5C64.5523 20.5 65 20.9477 65 21.5Z" fill="#BCE0FF"/>
<path d="M73 21.5C73 22.0523 72.5523 22.5 72 22.5C71.4477 22.5 71 22.0523 71 21.5C71 20.9477 71.4477 20.5 72 20.5C72.5523 20.5 73 20.9477 73 21.5Z" fill="#BCE0FF"/>
<path d="M81 21.5C81 22.0523 80.5523 22.5 80 22.5C79.4477 22.5 79 22.0523 79 21.5C79 20.9477 79.4477 20.5 80 20.5C80.5523 20.5 81 20.9477 81 21.5Z" fill="#BCE0FF"/>
<path d="M89 21.5C89 22.0523 88.5523 22.5 88 22.5C87.4477 22.5 87 22.0523 87 21.5C87 20.9477 87.4477 20.5 88 20.5C88.5523 20.5 89 20.9477 89 21.5Z" fill="#BCE0FF"/>
<path d="M97 21.5C97 22.0523 96.5523 22.5 96 22.5C95.4477 22.5 95 22.0523 95 21.5C95 20.9477 95.4477 20.5 96 20.5C96.5523 20.5 97 20.9477 97 21.5Z" fill="#BCE0FF"/>
<path d="M105 21.5C105 22.0523 104.552 22.5 104 22.5C103.448 22.5 103 22.0523 103 21.5C103 20.9477 103.448 20.5 104 20.5C104.552 20.5 105 20.9477 105 21.5Z" fill="#BCE0FF"/>
<path d="M113 21.5C113 22.0523 112.552 22.5 112 22.5C111.448 22.5 111 22.0523 111 21.5C111 20.9477 111.448 20.5 112 20.5C112.552 20.5 113 20.9477 113 21.5Z" fill="#BCE0FF"/>
<path d="M121 21.5C121 22.0523 120.552 22.5 120 22.5C119.448 22.5 119 22.0523 119 21.5C119 20.9477 119.448 20.5 120 20.5C120.552 20.5 121 20.9477 121 21.5Z" fill="#BCE0FF"/>
<path d="M129 21.5C129 22.0523 128.552 22.5 128 22.5C127.448 22.5 127 22.0523 127 21.5C127 20.9477 127.448 20.5 128 20.5C128.552 20.5 129 20.9477 129 21.5Z" fill="#BCE0FF"/>
<path d="M137 21.5C137 22.0523 136.552 22.5 136 22.5C135.448 22.5 135 22.0523 135 21.5C135 20.9477 135.448 20.5 136 20.5C136.552 20.5 137 20.9477 137 21.5Z" fill="#BCE0FF"/>
<path d="M145 21.5C145 22.0523 144.552 22.5 144 22.5C143.448 22.5 143 22.0523 143 21.5C143 20.9477 143.448 20.5 144 20.5C144.552 20.5 145 20.9477 145 21.5Z" fill="#BCE0FF"/>
<path d="M153 21.5C153 22.0523 152.552 22.5 152 22.5C151.448 22.5 151 22.0523 151 21.5C151 20.9477 151.448 20.5 152 20.5C152.552 20.5 153 20.9477 153 21.5Z" fill="#BCE0FF"/>
<path d="M161 21.5C161 22.0523 160.552 22.5 160 22.5C159.448 22.5 159 22.0523 159 21.5C159 20.9477 159.448 20.5 160 20.5C160.552 20.5 161 20.9477 161 21.5Z" fill="#BCE0FF"/>
<path d="M169 21.5C169 22.0523 168.552 22.5 168 22.5C167.448 22.5 167 22.0523 167 21.5C167 20.9477 167.448 20.5 168 20.5C168.552 20.5 169 20.9477 169 21.5Z" fill="#BCE0FF"/>
<path d="M177 21.5C177 22.0523 176.552 22.5 176 22.5C175.448 22.5 175 22.0523 175 21.5C175 20.9477 175.448 20.5 176 20.5C176.552 20.5 177 20.9477 177 21.5Z" fill="#BCE0FF"/>
<path d="M185 21.5C185 22.0523 184.552 22.5 184 22.5C183.448 22.5 183 22.0523 183 21.5C183 20.9477 183.448 20.5 184 20.5C184.552 20.5 185 20.9477 185 21.5Z" fill="#BCE0FF"/>
<path d="M193 21.5C193 22.0523 192.552 22.5 192 22.5C191.448 22.5 191 22.0523 191 21.5C191 20.9477 191.448 20.5 192 20.5C192.552 20.5 193 20.9477 193 21.5Z" fill="#BCE0FF"/>
<path d="M201 21.5C201 22.0523 200.552 22.5 200 22.5C199.448 22.5 199 22.0523 199 21.5C199 20.9477 199.448 20.5 200 20.5C200.552 20.5 201 20.9477 201 21.5Z" fill="#BCE0FF"/>
<path d="M209 21.5C209 22.0523 208.552 22.5 208 22.5C207.448 22.5 207 22.0523 207 21.5C207 20.9477 207.448 20.5 208 20.5C208.552 20.5 209 20.9477 209 21.5Z" fill="#BCE0FF"/>
<path d="M217 21.5C217 22.0523 216.552 22.5 216 22.5C215.448 22.5 215 22.0523 215 21.5C215 20.9477 215.448 20.5 216 20.5C216.552 20.5 217 20.9477 217 21.5Z" fill="#BCE0FF"/>
<path d="M225 21.5C225 22.0523 224.552 22.5 224 22.5C223.448 22.5 223 22.0523 223 21.5C223 20.9477 223.448 20.5 224 20.5C224.552 20.5 225 20.9477 225 21.5Z" fill="#BCE0FF"/>
<path d="M233 21.5C233 22.0523 232.552 22.5 232 22.5C231.448 22.5 231 22.0523 231 21.5C231 20.9477 231.448 20.5 232 20.5C232.552 20.5 233 20.9477 233 21.5Z" fill="#BCE0FF"/>
<path d="M241 21.5C241 22.0523 240.552 22.5 240 22.5C239.448 22.5 239 22.0523 239 21.5C239 20.9477 239.448 20.5 240 20.5C240.552 20.5 241 20.9477 241 21.5Z" fill="#BCE0FF"/>
<path d="M249 21.5C249 22.0523 248.552 22.5 248 22.5C247.448 22.5 247 22.0523 247 21.5C247 20.9477 247.448 20.5 248 20.5C248.552 20.5 249 20.9477 249 21.5Z" fill="#BCE0FF"/>
<path d="M257 21.5C257 22.0523 256.552 22.5 256 22.5C255.448 22.5 255 22.0523 255 21.5C255 20.9477 255.448 20.5 256 20.5C256.552 20.5 257 20.9477 257 21.5Z" fill="#BCE0FF"/>
<path d="M265 21.5C265 22.0523 264.552 22.5 264 22.5C263.448 22.5 263 22.0523 263 21.5C263 20.9477 263.448 20.5 264 20.5C264.552 20.5 265 20.9477 265 21.5Z" fill="#BCE0FF"/>
<path d="M273 21.5C273 22.0523 272.552 22.5 272 22.5C271.448 22.5 271 22.0523 271 21.5C271 20.9477 271.448 20.5 272 20.5C272.552 20.5 273 20.9477 273 21.5Z" fill="#BCE0FF"/>
<path d="M281 21.5C281 22.0523 280.552 22.5 280 22.5C279.448 22.5 279 22.0523 279 21.5C279 20.9477 279.448 20.5 280 20.5C280.552 20.5 281 20.9477 281 21.5Z" fill="#BCE0FF"/>
<path d="M289 21.5C289 22.0523 288.552 22.5 288 22.5C287.448 22.5 287 22.0523 287 21.5C287 20.9477 287.448 20.5 288 20.5C288.552 20.5 289 20.9477 289 21.5Z" fill="#BCE0FF"/>
</g>
<g clip-path="url(#clip4_288_2458)">
<path d="M1 31.9C1 32.4523 0.552285 32.9 0 32.9C-0.552285 32.9 -1 32.4523 -1 31.9C-1 31.3477 -0.552285 30.9 0 30.9C0.552285 30.9 1 31.3477 1 31.9Z" fill="#BCE0FF"/>
<path d="M9 31.9C9 32.4523 8.55228 32.9 8 32.9C7.44772 32.9 7 32.4523 7 31.9C7 31.3477 7.44772 30.9 8 30.9C8.55228 30.9 9 31.3477 9 31.9Z" fill="#BCE0FF"/>
<path d="M17 31.9C17 32.4523 16.5523 32.9 16 32.9C15.4477 32.9 15 32.4523 15 31.9C15 31.3477 15.4477 30.9 16 30.9C16.5523 30.9 17 31.3477 17 31.9Z" fill="#BCE0FF"/>
<path d="M25 31.9C25 32.4523 24.5523 32.9 24 32.9C23.4477 32.9 23 32.4523 23 31.9C23 31.3477 23.4477 30.9 24 30.9C24.5523 30.9 25 31.3477 25 31.9Z" fill="#BCE0FF"/>
<path d="M33 31.9C33 32.4523 32.5523 32.9 32 32.9C31.4477 32.9 31 32.4523 31 31.9C31 31.3477 31.4477 30.9 32 30.9C32.5523 30.9 33 31.3477 33 31.9Z" fill="#BCE0FF"/>
<path d="M41 31.9C41 32.4523 40.5523 32.9 40 32.9C39.4477 32.9 39 32.4523 39 31.9C39 31.3477 39.4477 30.9 40 30.9C40.5523 30.9 41 31.3477 41 31.9Z" fill="#BCE0FF"/>
<path d="M49 31.9C49 32.4523 48.5523 32.9 48 32.9C47.4477 32.9 47 32.4523 47 31.9C47 31.3477 47.4477 30.9 48 30.9C48.5523 30.9 49 31.3477 49 31.9Z" fill="#BCE0FF"/>
<path d="M57 31.9C57 32.4523 56.5523 32.9 56 32.9C55.4477 32.9 55 32.4523 55 31.9C55 31.3477 55.4477 30.9 56 30.9C56.5523 30.9 57 31.3477 57 31.9Z" fill="#BCE0FF"/>
<path d="M65 31.9C65 32.4523 64.5523 32.9 64 32.9C63.4477 32.9 63 32.4523 63 31.9C63 31.3477 63.4477 30.9 64 30.9C64.5523 30.9 65 31.3477 65 31.9Z" fill="#BCE0FF"/>
<path d="M73 31.9C73 32.4523 72.5523 32.9 72 32.9C71.4477 32.9 71 32.4523 71 31.9C71 31.3477 71.4477 30.9 72 30.9C72.5523 30.9 73 31.3477 73 31.9Z" fill="#BCE0FF"/>
<path d="M81 31.9C81 32.4523 80.5523 32.9 80 32.9C79.4477 32.9 79 32.4523 79 31.9C79 31.3477 79.4477 30.9 80 30.9C80.5523 30.9 81 31.3477 81 31.9Z" fill="#BCE0FF"/>
<path d="M89 31.9C89 32.4523 88.5523 32.9 88 32.9C87.4477 32.9 87 32.4523 87 31.9C87 31.3477 87.4477 30.9 88 30.9C88.5523 30.9 89 31.3477 89 31.9Z" fill="#BCE0FF"/>
<path d="M97 31.9C97 32.4523 96.5523 32.9 96 32.9C95.4477 32.9 95 32.4523 95 31.9C95 31.3477 95.4477 30.9 96 30.9C96.5523 30.9 97 31.3477 97 31.9Z" fill="#BCE0FF"/>
<path d="M105 31.9C105 32.4523 104.552 32.9 104 32.9C103.448 32.9 103 32.4523 103 31.9C103 31.3477 103.448 30.9 104 30.9C104.552 30.9 105 31.3477 105 31.9Z" fill="#BCE0FF"/>
<path d="M113 31.9C113 32.4523 112.552 32.9 112 32.9C111.448 32.9 111 32.4523 111 31.9C111 31.3477 111.448 30.9 112 30.9C112.552 30.9 113 31.3477 113 31.9Z" fill="#BCE0FF"/>
<path d="M121 31.9C121 32.4523 120.552 32.9 120 32.9C119.448 32.9 119 32.4523 119 31.9C119 31.3477 119.448 30.9 120 30.9C120.552 30.9 121 31.3477 121 31.9Z" fill="#BCE0FF"/>
<path d="M129 31.9C129 32.4523 128.552 32.9 128 32.9C127.448 32.9 127 32.4523 127 31.9C127 31.3477 127.448 30.9 128 30.9C128.552 30.9 129 31.3477 129 31.9Z" fill="#BCE0FF"/>
<path d="M137 31.9C137 32.4523 136.552 32.9 136 32.9C135.448 32.9 135 32.4523 135 31.9C135 31.3477 135.448 30.9 136 30.9C136.552 30.9 137 31.3477 137 31.9Z" fill="#BCE0FF"/>
<path d="M145 31.9C145 32.4523 144.552 32.9 144 32.9C143.448 32.9 143 32.4523 143 31.9C143 31.3477 143.448 30.9 144 30.9C144.552 30.9 145 31.3477 145 31.9Z" fill="#BCE0FF"/>
<path d="M153 31.9C153 32.4523 152.552 32.9 152 32.9C151.448 32.9 151 32.4523 151 31.9C151 31.3477 151.448 30.9 152 30.9C152.552 30.9 153 31.3477 153 31.9Z" fill="#BCE0FF"/>
<path d="M161 31.9C161 32.4523 160.552 32.9 160 32.9C159.448 32.9 159 32.4523 159 31.9C159 31.3477 159.448 30.9 160 30.9C160.552 30.9 161 31.3477 161 31.9Z" fill="#BCE0FF"/>
<path d="M169 31.9C169 32.4523 168.552 32.9 168 32.9C167.448 32.9 167 32.4523 167 31.9C167 31.3477 167.448 30.9 168 30.9C168.552 30.9 169 31.3477 169 31.9Z" fill="#BCE0FF"/>
<path d="M177 31.9C177 32.4523 176.552 32.9 176 32.9C175.448 32.9 175 32.4523 175 31.9C175 31.3477 175.448 30.9 176 30.9C176.552 30.9 177 31.3477 177 31.9Z" fill="#BCE0FF"/>
<path d="M185 31.9C185 32.4523 184.552 32.9 184 32.9C183.448 32.9 183 32.4523 183 31.9C183 31.3477 183.448 30.9 184 30.9C184.552 30.9 185 31.3477 185 31.9Z" fill="#BCE0FF"/>
<path d="M193 31.9C193 32.4523 192.552 32.9 192 32.9C191.448 32.9 191 32.4523 191 31.9C191 31.3477 191.448 30.9 192 30.9C192.552 30.9 193 31.3477 193 31.9Z" fill="#BCE0FF"/>
<path d="M201 31.9C201 32.4523 200.552 32.9 200 32.9C199.448 32.9 199 32.4523 199 31.9C199 31.3477 199.448 30.9 200 30.9C200.552 30.9 201 31.3477 201 31.9Z" fill="#BCE0FF"/>
<path d="M209 31.9C209 32.4523 208.552 32.9 208 32.9C207.448 32.9 207 32.4523 207 31.9C207 31.3477 207.448 30.9 208 30.9C208.552 30.9 209 31.3477 209 31.9Z" fill="#BCE0FF"/>
<path d="M217 31.9C217 32.4523 216.552 32.9 216 32.9C215.448 32.9 215 32.4523 215 31.9C215 31.3477 215.448 30.9 216 30.9C216.552 30.9 217 31.3477 217 31.9Z" fill="#BCE0FF"/>
<path d="M225 31.9C225 32.4523 224.552 32.9 224 32.9C223.448 32.9 223 32.4523 223 31.9C223 31.3477 223.448 30.9 224 30.9C224.552 30.9 225 31.3477 225 31.9Z" fill="#BCE0FF"/>
<path d="M233 31.9C233 32.4523 232.552 32.9 232 32.9C231.448 32.9 231 32.4523 231 31.9C231 31.3477 231.448 30.9 232 30.9C232.552 30.9 233 31.3477 233 31.9Z" fill="#BCE0FF"/>
<path d="M241 31.9C241 32.4523 240.552 32.9 240 32.9C239.448 32.9 239 32.4523 239 31.9C239 31.3477 239.448 30.9 240 30.9C240.552 30.9 241 31.3477 241 31.9Z" fill="#BCE0FF"/>
<path d="M249 31.9C249 32.4523 248.552 32.9 248 32.9C247.448 32.9 247 32.4523 247 31.9C247 31.3477 247.448 30.9 248 30.9C248.552 30.9 249 31.3477 249 31.9Z" fill="#BCE0FF"/>
<path d="M257 31.9C257 32.4523 256.552 32.9 256 32.9C255.448 32.9 255 32.4523 255 31.9C255 31.3477 255.448 30.9 256 30.9C256.552 30.9 257 31.3477 257 31.9Z" fill="#BCE0FF"/>
<path d="M265 31.9C265 32.4523 264.552 32.9 264 32.9C263.448 32.9 263 32.4523 263 31.9C263 31.3477 263.448 30.9 264 30.9C264.552 30.9 265 31.3477 265 31.9Z" fill="#BCE0FF"/>
<path d="M273 31.9C273 32.4523 272.552 32.9 272 32.9C271.448 32.9 271 32.4523 271 31.9C271 31.3477 271.448 30.9 272 30.9C272.552 30.9 273 31.3477 273 31.9Z" fill="#BCE0FF"/>
<path d="M281 31.9C281 32.4523 280.552 32.9 280 32.9C279.448 32.9 279 32.4523 279 31.9C279 31.3477 279.448 30.9 280 30.9C280.552 30.9 281 31.3477 281 31.9Z" fill="#BCE0FF"/>
<path d="M289 31.9C289 32.4523 288.552 32.9 288 32.9C287.448 32.9 287 32.4523 287 31.9C287 31.3477 287.448 30.9 288 30.9C288.552 30.9 289 31.3477 289 31.9Z" fill="#BCE0FF"/>
</g>
<g clip-path="url(#clip5_288_2458)">
<path d="M1 42.3C1 42.8523 0.552285 43.3 0 43.3C-0.552285 43.3 -1 42.8523 -1 42.3C-1 41.7477 -0.552285 41.3 0 41.3C0.552285 41.3 1 41.7477 1 42.3Z" fill="#BCE0FF"/>
<path d="M9 42.3C9 42.8523 8.55228 43.3 8 43.3C7.44772 43.3 7 42.8523 7 42.3C7 41.7477 7.44772 41.3 8 41.3C8.55228 41.3 9 41.7477 9 42.3Z" fill="#BCE0FF"/>
<path d="M17 42.3C17 42.8523 16.5523 43.3 16 43.3C15.4477 43.3 15 42.8523 15 42.3C15 41.7477 15.4477 41.3 16 41.3C16.5523 41.3 17 41.7477 17 42.3Z" fill="#BCE0FF"/>
<path d="M25 42.3C25 42.8523 24.5523 43.3 24 43.3C23.4477 43.3 23 42.8523 23 42.3C23 41.7477 23.4477 41.3 24 41.3C24.5523 41.3 25 41.7477 25 42.3Z" fill="#BCE0FF"/>
<path d="M33 42.3C33 42.8523 32.5523 43.3 32 43.3C31.4477 43.3 31 42.8523 31 42.3C31 41.7477 31.4477 41.3 32 41.3C32.5523 41.3 33 41.7477 33 42.3Z" fill="#BCE0FF"/>
<path d="M41 42.3C41 42.8523 40.5523 43.3 40 43.3C39.4477 43.3 39 42.8523 39 42.3C39 41.7477 39.4477 41.3 40 41.3C40.5523 41.3 41 41.7477 41 42.3Z" fill="#BCE0FF"/>
<path d="M49 42.3C49 42.8523 48.5523 43.3 48 43.3C47.4477 43.3 47 42.8523 47 42.3C47 41.7477 47.4477 41.3 48 41.3C48.5523 41.3 49 41.7477 49 42.3Z" fill="#BCE0FF"/>
<path d="M57 42.3C57 42.8523 56.5523 43.3 56 43.3C55.4477 43.3 55 42.8523 55 42.3C55 41.7477 55.4477 41.3 56 41.3C56.5523 41.3 57 41.7477 57 42.3Z" fill="#BCE0FF"/>
<path d="M65 42.3C65 42.8523 64.5523 43.3 64 43.3C63.4477 43.3 63 42.8523 63 42.3C63 41.7477 63.4477 41.3 64 41.3C64.5523 41.3 65 41.7477 65 42.3Z" fill="#BCE0FF"/>
<path d="M73 42.3C73 42.8523 72.5523 43.3 72 43.3C71.4477 43.3 71 42.8523 71 42.3C71 41.7477 71.4477 41.3 72 41.3C72.5523 41.3 73 41.7477 73 42.3Z" fill="#BCE0FF"/>
<path d="M81 42.3C81 42.8523 80.5523 43.3 80 43.3C79.4477 43.3 79 42.8523 79 42.3C79 41.7477 79.4477 41.3 80 41.3C80.5523 41.3 81 41.7477 81 42.3Z" fill="#BCE0FF"/>
<path d="M89 42.3C89 42.8523 88.5523 43.3 88 43.3C87.4477 43.3 87 42.8523 87 42.3C87 41.7477 87.4477 41.3 88 41.3C88.5523 41.3 89 41.7477 89 42.3Z" fill="#BCE0FF"/>
<path d="M97 42.3C97 42.8523 96.5523 43.3 96 43.3C95.4477 43.3 95 42.8523 95 42.3C95 41.7477 95.4477 41.3 96 41.3C96.5523 41.3 97 41.7477 97 42.3Z" fill="#BCE0FF"/>
<path d="M105 42.3C105 42.8523 104.552 43.3 104 43.3C103.448 43.3 103 42.8523 103 42.3C103 41.7477 103.448 41.3 104 41.3C104.552 41.3 105 41.7477 105 42.3Z" fill="#BCE0FF"/>
<path d="M113 42.3C113 42.8523 112.552 43.3 112 43.3C111.448 43.3 111 42.8523 111 42.3C111 41.7477 111.448 41.3 112 41.3C112.552 41.3 113 41.7477 113 42.3Z" fill="#BCE0FF"/>
<path d="M121 42.3C121 42.8523 120.552 43.3 120 43.3C119.448 43.3 119 42.8523 119 42.3C119 41.7477 119.448 41.3 120 41.3C120.552 41.3 121 41.7477 121 42.3Z" fill="#BCE0FF"/>
<path d="M129 42.3C129 42.8523 128.552 43.3 128 43.3C127.448 43.3 127 42.8523 127 42.3C127 41.7477 127.448 41.3 128 41.3C128.552 41.3 129 41.7477 129 42.3Z" fill="#BCE0FF"/>
<path d="M137 42.3C137 42.8523 136.552 43.3 136 43.3C135.448 43.3 135 42.8523 135 42.3C135 41.7477 135.448 41.3 136 41.3C136.552 41.3 137 41.7477 137 42.3Z" fill="#BCE0FF"/>
<path d="M145 42.3C145 42.8523 144.552 43.3 144 43.3C143.448 43.3 143 42.8523 143 42.3C143 41.7477 143.448 41.3 144 41.3C144.552 41.3 145 41.7477 145 42.3Z" fill="#BCE0FF"/>
<path d="M153 42.3C153 42.8523 152.552 43.3 152 43.3C151.448 43.3 151 42.8523 151 42.3C151 41.7477 151.448 41.3 152 41.3C152.552 41.3 153 41.7477 153 42.3Z" fill="#BCE0FF"/>
<path d="M161 42.3C161 42.8523 160.552 43.3 160 43.3C159.448 43.3 159 42.8523 159 42.3C159 41.7477 159.448 41.3 160 41.3C160.552 41.3 161 41.7477 161 42.3Z" fill="#BCE0FF"/>
<path d="M169 42.3C169 42.8523 168.552 43.3 168 43.3C167.448 43.3 167 42.8523 167 42.3C167 41.7477 167.448 41.3 168 41.3C168.552 41.3 169 41.7477 169 42.3Z" fill="#BCE0FF"/>
<path d="M177 42.3C177 42.8523 176.552 43.3 176 43.3C175.448 43.3 175 42.8523 175 42.3C175 41.7477 175.448 41.3 176 41.3C176.552 41.3 177 41.7477 177 42.3Z" fill="#BCE0FF"/>
<path d="M185 42.3C185 42.8523 184.552 43.3 184 43.3C183.448 43.3 183 42.8523 183 42.3C183 41.7477 183.448 41.3 184 41.3C184.552 41.3 185 41.7477 185 42.3Z" fill="#BCE0FF"/>
<path d="M193 42.3C193 42.8523 192.552 43.3 192 43.3C191.448 43.3 191 42.8523 191 42.3C191 41.7477 191.448 41.3 192 41.3C192.552 41.3 193 41.7477 193 42.3Z" fill="#BCE0FF"/>
<path d="M201 42.3C201 42.8523 200.552 43.3 200 43.3C199.448 43.3 199 42.8523 199 42.3C199 41.7477 199.448 41.3 200 41.3C200.552 41.3 201 41.7477 201 42.3Z" fill="#BCE0FF"/>
<path d="M209 42.3C209 42.8523 208.552 43.3 208 43.3C207.448 43.3 207 42.8523 207 42.3C207 41.7477 207.448 41.3 208 41.3C208.552 41.3 209 41.7477 209 42.3Z" fill="#BCE0FF"/>
<path d="M217 42.3C217 42.8523 216.552 43.3 216 43.3C215.448 43.3 215 42.8523 215 42.3C215 41.7477 215.448 41.3 216 41.3C216.552 41.3 217 41.7477 217 42.3Z" fill="#BCE0FF"/>
<path d="M225 42.3C225 42.8523 224.552 43.3 224 43.3C223.448 43.3 223 42.8523 223 42.3C223 41.7477 223.448 41.3 224 41.3C224.552 41.3 225 41.7477 225 42.3Z" fill="#BCE0FF"/>
<path d="M233 42.3C233 42.8523 232.552 43.3 232 43.3C231.448 43.3 231 42.8523 231 42.3C231 41.7477 231.448 41.3 232 41.3C232.552 41.3 233 41.7477 233 42.3Z" fill="#BCE0FF"/>
<path d="M241 42.3C241 42.8523 240.552 43.3 240 43.3C239.448 43.3 239 42.8523 239 42.3C239 41.7477 239.448 41.3 240 41.3C240.552 41.3 241 41.7477 241 42.3Z" fill="#BCE0FF"/>
<path d="M249 42.3C249 42.8523 248.552 43.3 248 43.3C247.448 43.3 247 42.8523 247 42.3C247 41.7477 247.448 41.3 248 41.3C248.552 41.3 249 41.7477 249 42.3Z" fill="#BCE0FF"/>
<path d="M257 42.3C257 42.8523 256.552 43.3 256 43.3C255.448 43.3 255 42.8523 255 42.3C255 41.7477 255.448 41.3 256 41.3C256.552 41.3 257 41.7477 257 42.3Z" fill="#BCE0FF"/>
<path d="M265 42.3C265 42.8523 264.552 43.3 264 43.3C263.448 43.3 263 42.8523 263 42.3C263 41.7477 263.448 41.3 264 41.3C264.552 41.3 265 41.7477 265 42.3Z" fill="#BCE0FF"/>
<path d="M273 42.3C273 42.8523 272.552 43.3 272 43.3C271.448 43.3 271 42.8523 271 42.3C271 41.7477 271.448 41.3 272 41.3C272.552 41.3 273 41.7477 273 42.3Z" fill="#BCE0FF"/>
<path d="M281 42.3C281 42.8523 280.552 43.3 280 43.3C279.448 43.3 279 42.8523 279 42.3C279 41.7477 279.448 41.3 280 41.3C280.552 41.3 281 41.7477 281 42.3Z" fill="#BCE0FF"/>
<path d="M289 42.3C289 42.8523 288.552 43.3 288 43.3C287.448 43.3 287 42.8523 287 42.3C287 41.7477 287.448 41.3 288 41.3C288.552 41.3 289 41.7477 289 42.3Z" fill="#BCE0FF"/>
</g>
<g clip-path="url(#clip6_288_2458)">
<path d="M1 52.7C1 53.2523 0.552285 53.7 0 53.7C-0.552285 53.7 -1 53.2523 -1 52.7C-1 52.1477 -0.552285 51.7 0 51.7C0.552285 51.7 1 52.1477 1 52.7Z" fill="#BCE0FF"/>
<path d="M9 52.7C9 53.2523 8.55228 53.7 8 53.7C7.44772 53.7 7 53.2523 7 52.7C7 52.1477 7.44772 51.7 8 51.7C8.55228 51.7 9 52.1477 9 52.7Z" fill="#BCE0FF"/>
<path d="M17 52.7C17 53.2523 16.5523 53.7 16 53.7C15.4477 53.7 15 53.2523 15 52.7C15 52.1477 15.4477 51.7 16 51.7C16.5523 51.7 17 52.1477 17 52.7Z" fill="#BCE0FF"/>
<path d="M25 52.7C25 53.2523 24.5523 53.7 24 53.7C23.4477 53.7 23 53.2523 23 52.7C23 52.1477 23.4477 51.7 24 51.7C24.5523 51.7 25 52.1477 25 52.7Z" fill="#BCE0FF"/>
<path d="M33 52.7C33 53.2523 32.5523 53.7 32 53.7C31.4477 53.7 31 53.2523 31 52.7C31 52.1477 31.4477 51.7 32 51.7C32.5523 51.7 33 52.1477 33 52.7Z" fill="#BCE0FF"/>
<path d="M41 52.7C41 53.2523 40.5523 53.7 40 53.7C39.4477 53.7 39 53.2523 39 52.7C39 52.1477 39.4477 51.7 40 51.7C40.5523 51.7 41 52.1477 41 52.7Z" fill="#BCE0FF"/>
<path d="M49 52.7C49 53.2523 48.5523 53.7 48 53.7C47.4477 53.7 47 53.2523 47 52.7C47 52.1477 47.4477 51.7 48 51.7C48.5523 51.7 49 52.1477 49 52.7Z" fill="#BCE0FF"/>
<path d="M57 52.7C57 53.2523 56.5523 53.7 56 53.7C55.4477 53.7 55 53.2523 55 52.7C55 52.1477 55.4477 51.7 56 51.7C56.5523 51.7 57 52.1477 57 52.7Z" fill="#BCE0FF"/>
<path d="M65 52.7C65 53.2523 64.5523 53.7 64 53.7C63.4477 53.7 63 53.2523 63 52.7C63 52.1477 63.4477 51.7 64 51.7C64.5523 51.7 65 52.1477 65 52.7Z" fill="#BCE0FF"/>
<path d="M73 52.7C73 53.2523 72.5523 53.7 72 53.7C71.4477 53.7 71 53.2523 71 52.7C71 52.1477 71.4477 51.7 72 51.7C72.5523 51.7 73 52.1477 73 52.7Z" fill="#BCE0FF"/>
<path d="M81 52.7C81 53.2523 80.5523 53.7 80 53.7C79.4477 53.7 79 53.2523 79 52.7C79 52.1477 79.4477 51.7 80 51.7C80.5523 51.7 81 52.1477 81 52.7Z" fill="#BCE0FF"/>
<path d="M89 52.7C89 53.2523 88.5523 53.7 88 53.7C87.4477 53.7 87 53.2523 87 52.7C87 52.1477 87.4477 51.7 88 51.7C88.5523 51.7 89 52.1477 89 52.7Z" fill="#BCE0FF"/>
<path d="M97 52.7C97 53.2523 96.5523 53.7 96 53.7C95.4477 53.7 95 53.2523 95 52.7C95 52.1477 95.4477 51.7 96 51.7C96.5523 51.7 97 52.1477 97 52.7Z" fill="#BCE0FF"/>
<path d="M105 52.7C105 53.2523 104.552 53.7 104 53.7C103.448 53.7 103 53.2523 103 52.7C103 52.1477 103.448 51.7 104 51.7C104.552 51.7 105 52.1477 105 52.7Z" fill="#BCE0FF"/>
<path d="M113 52.7C113 53.2523 112.552 53.7 112 53.7C111.448 53.7 111 53.2523 111 52.7C111 52.1477 111.448 51.7 112 51.7C112.552 51.7 113 52.1477 113 52.7Z" fill="#BCE0FF"/>
<path d="M121 52.7C121 53.2523 120.552 53.7 120 53.7C119.448 53.7 119 53.2523 119 52.7C119 52.1477 119.448 51.7 120 51.7C120.552 51.7 121 52.1477 121 52.7Z" fill="#BCE0FF"/>
<path d="M129 52.7C129 53.2523 128.552 53.7 128 53.7C127.448 53.7 127 53.2523 127 52.7C127 52.1477 127.448 51.7 128 51.7C128.552 51.7 129 52.1477 129 52.7Z" fill="#BCE0FF"/>
<path d="M137 52.7C137 53.2523 136.552 53.7 136 53.7C135.448 53.7 135 53.2523 135 52.7C135 52.1477 135.448 51.7 136 51.7C136.552 51.7 137 52.1477 137 52.7Z" fill="#BCE0FF"/>
<path d="M145 52.7C145 53.2523 144.552 53.7 144 53.7C143.448 53.7 143 53.2523 143 52.7C143 52.1477 143.448 51.7 144 51.7C144.552 51.7 145 52.1477 145 52.7Z" fill="#BCE0FF"/>
<path d="M153 52.7C153 53.2523 152.552 53.7 152 53.7C151.448 53.7 151 53.2523 151 52.7C151 52.1477 151.448 51.7 152 51.7C152.552 51.7 153 52.1477 153 52.7Z" fill="#BCE0FF"/>
<path d="M161 52.7C161 53.2523 160.552 53.7 160 53.7C159.448 53.7 159 53.2523 159 52.7C159 52.1477 159.448 51.7 160 51.7C160.552 51.7 161 52.1477 161 52.7Z" fill="#BCE0FF"/>
<path d="M169 52.7C169 53.2523 168.552 53.7 168 53.7C167.448 53.7 167 53.2523 167 52.7C167 52.1477 167.448 51.7 168 51.7C168.552 51.7 169 52.1477 169 52.7Z" fill="#BCE0FF"/>
<path d="M177 52.7C177 53.2523 176.552 53.7 176 53.7C175.448 53.7 175 53.2523 175 52.7C175 52.1477 175.448 51.7 176 51.7C176.552 51.7 177 52.1477 177 52.7Z" fill="#BCE0FF"/>
<path d="M185 52.7C185 53.2523 184.552 53.7 184 53.7C183.448 53.7 183 53.2523 183 52.7C183 52.1477 183.448 51.7 184 51.7C184.552 51.7 185 52.1477 185 52.7Z" fill="#BCE0FF"/>
<path d="M193 52.7C193 53.2523 192.552 53.7 192 53.7C191.448 53.7 191 53.2523 191 52.7C191 52.1477 191.448 51.7 192 51.7C192.552 51.7 193 52.1477 193 52.7Z" fill="#BCE0FF"/>
<path d="M201 52.7C201 53.2523 200.552 53.7 200 53.7C199.448 53.7 199 53.2523 199 52.7C199 52.1477 199.448 51.7 200 51.7C200.552 51.7 201 52.1477 201 52.7Z" fill="#BCE0FF"/>
<path d="M209 52.7C209 53.2523 208.552 53.7 208 53.7C207.448 53.7 207 53.2523 207 52.7C207 52.1477 207.448 51.7 208 51.7C208.552 51.7 209 52.1477 209 52.7Z" fill="#BCE0FF"/>
<path d="M217 52.7C217 53.2523 216.552 53.7 216 53.7C215.448 53.7 215 53.2523 215 52.7C215 52.1477 215.448 51.7 216 51.7C216.552 51.7 217 52.1477 217 52.7Z" fill="#BCE0FF"/>
<path d="M225 52.7C225 53.2523 224.552 53.7 224 53.7C223.448 53.7 223 53.2523 223 52.7C223 52.1477 223.448 51.7 224 51.7C224.552 51.7 225 52.1477 225 52.7Z" fill="#BCE0FF"/>
<path d="M233 52.7C233 53.2523 232.552 53.7 232 53.7C231.448 53.7 231 53.2523 231 52.7C231 52.1477 231.448 51.7 232 51.7C232.552 51.7 233 52.1477 233 52.7Z" fill="#BCE0FF"/>
<path d="M241 52.7C241 53.2523 240.552 53.7 240 53.7C239.448 53.7 239 53.2523 239 52.7C239 52.1477 239.448 51.7 240 51.7C240.552 51.7 241 52.1477 241 52.7Z" fill="#BCE0FF"/>
<path d="M249 52.7C249 53.2523 248.552 53.7 248 53.7C247.448 53.7 247 53.2523 247 52.7C247 52.1477 247.448 51.7 248 51.7C248.552 51.7 249 52.1477 249 52.7Z" fill="#BCE0FF"/>
<path d="M257 52.7C257 53.2523 256.552 53.7 256 53.7C255.448 53.7 255 53.2523 255 52.7C255 52.1477 255.448 51.7 256 51.7C256.552 51.7 257 52.1477 257 52.7Z" fill="#BCE0FF"/>
<path d="M265 52.7C265 53.2523 264.552 53.7 264 53.7C263.448 53.7 263 53.2523 263 52.7C263 52.1477 263.448 51.7 264 51.7C264.552 51.7 265 52.1477 265 52.7Z" fill="#BCE0FF"/>
<path d="M273 52.7C273 53.2523 272.552 53.7 272 53.7C271.448 53.7 271 53.2523 271 52.7C271 52.1477 271.448 51.7 272 51.7C272.552 51.7 273 52.1477 273 52.7Z" fill="#BCE0FF"/>
<path d="M281 52.7C281 53.2523 280.552 53.7 280 53.7C279.448 53.7 279 53.2523 279 52.7C279 52.1477 279.448 51.7 280 51.7C280.552 51.7 281 52.1477 281 52.7Z" fill="#BCE0FF"/>
<path d="M289 52.7C289 53.2523 288.552 53.7 288 53.7C287.448 53.7 287 53.2523 287 52.7C287 52.1477 287.448 51.7 288 51.7C288.552 51.7 289 52.1477 289 52.7Z" fill="#BCE0FF"/>
</g>
<g clip-path="url(#clip7_288_2458)">
<path d="M1 63.1C1 63.6523 0.552285 64.1 0 64.1C-0.552285 64.1 -1 63.6523 -1 63.1C-1 62.5477 -0.552285 62.1 0 62.1C0.552285 62.1 1 62.5477 1 63.1Z" fill="#BCE0FF"/>
<path d="M9 63.1C9 63.6523 8.55228 64.1 8 64.1C7.44772 64.1 7 63.6523 7 63.1C7 62.5477 7.44772 62.1 8 62.1C8.55228 62.1 9 62.5477 9 63.1Z" fill="#BCE0FF"/>
<path d="M17 63.1C17 63.6523 16.5523 64.1 16 64.1C15.4477 64.1 15 63.6523 15 63.1C15 62.5477 15.4477 62.1 16 62.1C16.5523 62.1 17 62.5477 17 63.1Z" fill="#BCE0FF"/>
<path d="M25 63.1C25 63.6523 24.5523 64.1 24 64.1C23.4477 64.1 23 63.6523 23 63.1C23 62.5477 23.4477 62.1 24 62.1C24.5523 62.1 25 62.5477 25 63.1Z" fill="#BCE0FF"/>
<path d="M33 63.1C33 63.6523 32.5523 64.1 32 64.1C31.4477 64.1 31 63.6523 31 63.1C31 62.5477 31.4477 62.1 32 62.1C32.5523 62.1 33 62.5477 33 63.1Z" fill="#BCE0FF"/>
<path d="M41 63.1C41 63.6523 40.5523 64.1 40 64.1C39.4477 64.1 39 63.6523 39 63.1C39 62.5477 39.4477 62.1 40 62.1C40.5523 62.1 41 62.5477 41 63.1Z" fill="#BCE0FF"/>
<path d="M49 63.1C49 63.6523 48.5523 64.1 48 64.1C47.4477 64.1 47 63.6523 47 63.1C47 62.5477 47.4477 62.1 48 62.1C48.5523 62.1 49 62.5477 49 63.1Z" fill="#BCE0FF"/>
<path d="M57 63.1C57 63.6523 56.5523 64.1 56 64.1C55.4477 64.1 55 63.6523 55 63.1C55 62.5477 55.4477 62.1 56 62.1C56.5523 62.1 57 62.5477 57 63.1Z" fill="#BCE0FF"/>
<path d="M65 63.1C65 63.6523 64.5523 64.1 64 64.1C63.4477 64.1 63 63.6523 63 63.1C63 62.5477 63.4477 62.1 64 62.1C64.5523 62.1 65 62.5477 65 63.1Z" fill="#BCE0FF"/>
<path d="M73 63.1C73 63.6523 72.5523 64.1 72 64.1C71.4477 64.1 71 63.6523 71 63.1C71 62.5477 71.4477 62.1 72 62.1C72.5523 62.1 73 62.5477 73 63.1Z" fill="#BCE0FF"/>
<path d="M81 63.1C81 63.6523 80.5523 64.1 80 64.1C79.4477 64.1 79 63.6523 79 63.1C79 62.5477 79.4477 62.1 80 62.1C80.5523 62.1 81 62.5477 81 63.1Z" fill="#BCE0FF"/>
<path d="M89 63.1C89 63.6523 88.5523 64.1 88 64.1C87.4477 64.1 87 63.6523 87 63.1C87 62.5477 87.4477 62.1 88 62.1C88.5523 62.1 89 62.5477 89 63.1Z" fill="#BCE0FF"/>
<path d="M97 63.1C97 63.6523 96.5523 64.1 96 64.1C95.4477 64.1 95 63.6523 95 63.1C95 62.5477 95.4477 62.1 96 62.1C96.5523 62.1 97 62.5477 97 63.1Z" fill="#BCE0FF"/>
<path d="M105 63.1C105 63.6523 104.552 64.1 104 64.1C103.448 64.1 103 63.6523 103 63.1C103 62.5477 103.448 62.1 104 62.1C104.552 62.1 105 62.5477 105 63.1Z" fill="#BCE0FF"/>
<path d="M113 63.1C113 63.6523 112.552 64.1 112 64.1C111.448 64.1 111 63.6523 111 63.1C111 62.5477 111.448 62.1 112 62.1C112.552 62.1 113 62.5477 113 63.1Z" fill="#BCE0FF"/>
<path d="M121 63.1C121 63.6523 120.552 64.1 120 64.1C119.448 64.1 119 63.6523 119 63.1C119 62.5477 119.448 62.1 120 62.1C120.552 62.1 121 62.5477 121 63.1Z" fill="#BCE0FF"/>
<path d="M129 63.1C129 63.6523 128.552 64.1 128 64.1C127.448 64.1 127 63.6523 127 63.1C127 62.5477 127.448 62.1 128 62.1C128.552 62.1 129 62.5477 129 63.1Z" fill="#BCE0FF"/>
<path d="M137 63.1C137 63.6523 136.552 64.1 136 64.1C135.448 64.1 135 63.6523 135 63.1C135 62.5477 135.448 62.1 136 62.1C136.552 62.1 137 62.5477 137 63.1Z" fill="#BCE0FF"/>
<path d="M145 63.1C145 63.6523 144.552 64.1 144 64.1C143.448 64.1 143 63.6523 143 63.1C143 62.5477 143.448 62.1 144 62.1C144.552 62.1 145 62.5477 145 63.1Z" fill="#BCE0FF"/>
<path d="M153 63.1C153 63.6523 152.552 64.1 152 64.1C151.448 64.1 151 63.6523 151 63.1C151 62.5477 151.448 62.1 152 62.1C152.552 62.1 153 62.5477 153 63.1Z" fill="#BCE0FF"/>
<path d="M161 63.1C161 63.6523 160.552 64.1 160 64.1C159.448 64.1 159 63.6523 159 63.1C159 62.5477 159.448 62.1 160 62.1C160.552 62.1 161 62.5477 161 63.1Z" fill="#BCE0FF"/>
<path d="M169 63.1C169 63.6523 168.552 64.1 168 64.1C167.448 64.1 167 63.6523 167 63.1C167 62.5477 167.448 62.1 168 62.1C168.552 62.1 169 62.5477 169 63.1Z" fill="#BCE0FF"/>
<path d="M177 63.1C177 63.6523 176.552 64.1 176 64.1C175.448 64.1 175 63.6523 175 63.1C175 62.5477 175.448 62.1 176 62.1C176.552 62.1 177 62.5477 177 63.1Z" fill="#BCE0FF"/>
<path d="M185 63.1C185 63.6523 184.552 64.1 184 64.1C183.448 64.1 183 63.6523 183 63.1C183 62.5477 183.448 62.1 184 62.1C184.552 62.1 185 62.5477 185 63.1Z" fill="#BCE0FF"/>
<path d="M193 63.1C193 63.6523 192.552 64.1 192 64.1C191.448 64.1 191 63.6523 191 63.1C191 62.5477 191.448 62.1 192 62.1C192.552 62.1 193 62.5477 193 63.1Z" fill="#BCE0FF"/>
<path d="M201 63.1C201 63.6523 200.552 64.1 200 64.1C199.448 64.1 199 63.6523 199 63.1C199 62.5477 199.448 62.1 200 62.1C200.552 62.1 201 62.5477 201 63.1Z" fill="#BCE0FF"/>
<path d="M209 63.1C209 63.6523 208.552 64.1 208 64.1C207.448 64.1 207 63.6523 207 63.1C207 62.5477 207.448 62.1 208 62.1C208.552 62.1 209 62.5477 209 63.1Z" fill="#BCE0FF"/>
<path d="M217 63.1C217 63.6523 216.552 64.1 216 64.1C215.448 64.1 215 63.6523 215 63.1C215 62.5477 215.448 62.1 216 62.1C216.552 62.1 217 62.5477 217 63.1Z" fill="#BCE0FF"/>
<path d="M225 63.1C225 63.6523 224.552 64.1 224 64.1C223.448 64.1 223 63.6523 223 63.1C223 62.5477 223.448 62.1 224 62.1C224.552 62.1 225 62.5477 225 63.1Z" fill="#BCE0FF"/>
<path d="M233 63.1C233 63.6523 232.552 64.1 232 64.1C231.448 64.1 231 63.6523 231 63.1C231 62.5477 231.448 62.1 232 62.1C232.552 62.1 233 62.5477 233 63.1Z" fill="#BCE0FF"/>
<path d="M241 63.1C241 63.6523 240.552 64.1 240 64.1C239.448 64.1 239 63.6523 239 63.1C239 62.5477 239.448 62.1 240 62.1C240.552 62.1 241 62.5477 241 63.1Z" fill="#BCE0FF"/>
<path d="M249 63.1C249 63.6523 248.552 64.1 248 64.1C247.448 64.1 247 63.6523 247 63.1C247 62.5477 247.448 62.1 248 62.1C248.552 62.1 249 62.5477 249 63.1Z" fill="#BCE0FF"/>
<path d="M257 63.1C257 63.6523 256.552 64.1 256 64.1C255.448 64.1 255 63.6523 255 63.1C255 62.5477 255.448 62.1 256 62.1C256.552 62.1 257 62.5477 257 63.1Z" fill="#BCE0FF"/>
<path d="M265 63.1C265 63.6523 264.552 64.1 264 64.1C263.448 64.1 263 63.6523 263 63.1C263 62.5477 263.448 62.1 264 62.1C264.552 62.1 265 62.5477 265 63.1Z" fill="#BCE0FF"/>
<path d="M273 63.1C273 63.6523 272.552 64.1 272 64.1C271.448 64.1 271 63.6523 271 63.1C271 62.5477 271.448 62.1 272 62.1C272.552 62.1 273 62.5477 273 63.1Z" fill="#BCE0FF"/>
<path d="M281 63.1C281 63.6523 280.552 64.1 280 64.1C279.448 64.1 279 63.6523 279 63.1C279 62.5477 279.448 62.1 280 62.1C280.552 62.1 281 62.5477 281 63.1Z" fill="#BCE0FF"/>
<path d="M289 63.1C289 63.6523 288.552 64.1 288 64.1C287.448 64.1 287 63.6523 287 63.1C287 62.5477 287.448 62.1 288 62.1C288.552 62.1 289 62.5477 289 63.1Z" fill="#BCE0FF"/>
</g>
<g clip-path="url(#clip8_288_2458)">
<path d="M1 73.5C1 74.0523 0.552285 74.5 0 74.5C-0.552285 74.5 -1 74.0523 -1 73.5C-1 72.9477 -0.552285 72.5 0 72.5C0.552285 72.5 1 72.9477 1 73.5Z" fill="#BCE0FF"/>
<path d="M9 73.5C9 74.0523 8.55228 74.5 8 74.5C7.44772 74.5 7 74.0523 7 73.5C7 72.9477 7.44772 72.5 8 72.5C8.55228 72.5 9 72.9477 9 73.5Z" fill="#BCE0FF"/>
<path d="M17 73.5C17 74.0523 16.5523 74.5 16 74.5C15.4477 74.5 15 74.0523 15 73.5C15 72.9477 15.4477 72.5 16 72.5C16.5523 72.5 17 72.9477 17 73.5Z" fill="#BCE0FF"/>
<path d="M25 73.5C25 74.0523 24.5523 74.5 24 74.5C23.4477 74.5 23 74.0523 23 73.5C23 72.9477 23.4477 72.5 24 72.5C24.5523 72.5 25 72.9477 25 73.5Z" fill="#BCE0FF"/>
<path d="M33 73.5C33 74.0523 32.5523 74.5 32 74.5C31.4477 74.5 31 74.0523 31 73.5C31 72.9477 31.4477 72.5 32 72.5C32.5523 72.5 33 72.9477 33 73.5Z" fill="#BCE0FF"/>
<path d="M41 73.5C41 74.0523 40.5523 74.5 40 74.5C39.4477 74.5 39 74.0523 39 73.5C39 72.9477 39.4477 72.5 40 72.5C40.5523 72.5 41 72.9477 41 73.5Z" fill="#BCE0FF"/>
<path d="M49 73.5C49 74.0523 48.5523 74.5 48 74.5C47.4477 74.5 47 74.0523 47 73.5C47 72.9477 47.4477 72.5 48 72.5C48.5523 72.5 49 72.9477 49 73.5Z" fill="#BCE0FF"/>
<path d="M57 73.5C57 74.0523 56.5523 74.5 56 74.5C55.4477 74.5 55 74.0523 55 73.5C55 72.9477 55.4477 72.5 56 72.5C56.5523 72.5 57 72.9477 57 73.5Z" fill="#BCE0FF"/>
<path d="M65 73.5C65 74.0523 64.5523 74.5 64 74.5C63.4477 74.5 63 74.0523 63 73.5C63 72.9477 63.4477 72.5 64 72.5C64.5523 72.5 65 72.9477 65 73.5Z" fill="#BCE0FF"/>
<path d="M73 73.5C73 74.0523 72.5523 74.5 72 74.5C71.4477 74.5 71 74.0523 71 73.5C71 72.9477 71.4477 72.5 72 72.5C72.5523 72.5 73 72.9477 73 73.5Z" fill="#BCE0FF"/>
<path d="M81 73.5C81 74.0523 80.5523 74.5 80 74.5C79.4477 74.5 79 74.0523 79 73.5C79 72.9477 79.4477 72.5 80 72.5C80.5523 72.5 81 72.9477 81 73.5Z" fill="#BCE0FF"/>
<path d="M89 73.5C89 74.0523 88.5523 74.5 88 74.5C87.4477 74.5 87 74.0523 87 73.5C87 72.9477 87.4477 72.5 88 72.5C88.5523 72.5 89 72.9477 89 73.5Z" fill="#BCE0FF"/>
<path d="M97 73.5C97 74.0523 96.5523 74.5 96 74.5C95.4477 74.5 95 74.0523 95 73.5C95 72.9477 95.4477 72.5 96 72.5C96.5523 72.5 97 72.9477 97 73.5Z" fill="#BCE0FF"/>
<path d="M105 73.5C105 74.0523 104.552 74.5 104 74.5C103.448 74.5 103 74.0523 103 73.5C103 72.9477 103.448 72.5 104 72.5C104.552 72.5 105 72.9477 105 73.5Z" fill="#BCE0FF"/>
<path d="M113 73.5C113 74.0523 112.552 74.5 112 74.5C111.448 74.5 111 74.0523 111 73.5C111 72.9477 111.448 72.5 112 72.5C112.552 72.5 113 72.9477 113 73.5Z" fill="#BCE0FF"/>
<path d="M121 73.5C121 74.0523 120.552 74.5 120 74.5C119.448 74.5 119 74.0523 119 73.5C119 72.9477 119.448 72.5 120 72.5C120.552 72.5 121 72.9477 121 73.5Z" fill="#BCE0FF"/>
<path d="M129 73.5C129 74.0523 128.552 74.5 128 74.5C127.448 74.5 127 74.0523 127 73.5C127 72.9477 127.448 72.5 128 72.5C128.552 72.5 129 72.9477 129 73.5Z" fill="#BCE0FF"/>
<path d="M137 73.5C137 74.0523 136.552 74.5 136 74.5C135.448 74.5 135 74.0523 135 73.5C135 72.9477 135.448 72.5 136 72.5C136.552 72.5 137 72.9477 137 73.5Z" fill="#BCE0FF"/>
<path d="M145 73.5C145 74.0523 144.552 74.5 144 74.5C143.448 74.5 143 74.0523 143 73.5C143 72.9477 143.448 72.5 144 72.5C144.552 72.5 145 72.9477 145 73.5Z" fill="#BCE0FF"/>
<path d="M153 73.5C153 74.0523 152.552 74.5 152 74.5C151.448 74.5 151 74.0523 151 73.5C151 72.9477 151.448 72.5 152 72.5C152.552 72.5 153 72.9477 153 73.5Z" fill="#BCE0FF"/>
<path d="M161 73.5C161 74.0523 160.552 74.5 160 74.5C159.448 74.5 159 74.0523 159 73.5C159 72.9477 159.448 72.5 160 72.5C160.552 72.5 161 72.9477 161 73.5Z" fill="#BCE0FF"/>
<path d="M169 73.5C169 74.0523 168.552 74.5 168 74.5C167.448 74.5 167 74.0523 167 73.5C167 72.9477 167.448 72.5 168 72.5C168.552 72.5 169 72.9477 169 73.5Z" fill="#BCE0FF"/>
<path d="M177 73.5C177 74.0523 176.552 74.5 176 74.5C175.448 74.5 175 74.0523 175 73.5C175 72.9477 175.448 72.5 176 72.5C176.552 72.5 177 72.9477 177 73.5Z" fill="#BCE0FF"/>
<path d="M185 73.5C185 74.0523 184.552 74.5 184 74.5C183.448 74.5 183 74.0523 183 73.5C183 72.9477 183.448 72.5 184 72.5C184.552 72.5 185 72.9477 185 73.5Z" fill="#BCE0FF"/>
<path d="M193 73.5C193 74.0523 192.552 74.5 192 74.5C191.448 74.5 191 74.0523 191 73.5C191 72.9477 191.448 72.5 192 72.5C192.552 72.5 193 72.9477 193 73.5Z" fill="#BCE0FF"/>
<path d="M201 73.5C201 74.0523 200.552 74.5 200 74.5C199.448 74.5 199 74.0523 199 73.5C199 72.9477 199.448 72.5 200 72.5C200.552 72.5 201 72.9477 201 73.5Z" fill="#BCE0FF"/>
<path d="M209 73.5C209 74.0523 208.552 74.5 208 74.5C207.448 74.5 207 74.0523 207 73.5C207 72.9477 207.448 72.5 208 72.5C208.552 72.5 209 72.9477 209 73.5Z" fill="#BCE0FF"/>
<path d="M217 73.5C217 74.0523 216.552 74.5 216 74.5C215.448 74.5 215 74.0523 215 73.5C215 72.9477 215.448 72.5 216 72.5C216.552 72.5 217 72.9477 217 73.5Z" fill="#BCE0FF"/>
<path d="M225 73.5C225 74.0523 224.552 74.5 224 74.5C223.448 74.5 223 74.0523 223 73.5C223 72.9477 223.448 72.5 224 72.5C224.552 72.5 225 72.9477 225 73.5Z" fill="#BCE0FF"/>
<path d="M233 73.5C233 74.0523 232.552 74.5 232 74.5C231.448 74.5 231 74.0523 231 73.5C231 72.9477 231.448 72.5 232 72.5C232.552 72.5 233 72.9477 233 73.5Z" fill="#BCE0FF"/>
<path d="M241 73.5C241 74.0523 240.552 74.5 240 74.5C239.448 74.5 239 74.0523 239 73.5C239 72.9477 239.448 72.5 240 72.5C240.552 72.5 241 72.9477 241 73.5Z" fill="#BCE0FF"/>
<path d="M249 73.5C249 74.0523 248.552 74.5 248 74.5C247.448 74.5 247 74.0523 247 73.5C247 72.9477 247.448 72.5 248 72.5C248.552 72.5 249 72.9477 249 73.5Z" fill="#BCE0FF"/>
<path d="M257 73.5C257 74.0523 256.552 74.5 256 74.5C255.448 74.5 255 74.0523 255 73.5C255 72.9477 255.448 72.5 256 72.5C256.552 72.5 257 72.9477 257 73.5Z" fill="#BCE0FF"/>
<path d="M265 73.5C265 74.0523 264.552 74.5 264 74.5C263.448 74.5 263 74.0523 263 73.5C263 72.9477 263.448 72.5 264 72.5C264.552 72.5 265 72.9477 265 73.5Z" fill="#BCE0FF"/>
<path d="M273 73.5C273 74.0523 272.552 74.5 272 74.5C271.448 74.5 271 74.0523 271 73.5C271 72.9477 271.448 72.5 272 72.5C272.552 72.5 273 72.9477 273 73.5Z" fill="#BCE0FF"/>
<path d="M281 73.5C281 74.0523 280.552 74.5 280 74.5C279.448 74.5 279 74.0523 279 73.5C279 72.9477 279.448 72.5 280 72.5C280.552 72.5 281 72.9477 281 73.5Z" fill="#BCE0FF"/>
<path d="M289 73.5C289 74.0523 288.552 74.5 288 74.5C287.448 74.5 287 74.0523 287 73.5C287 72.9477 287.448 72.5 288 72.5C288.552 72.5 289 72.9477 289 73.5Z" fill="#BCE0FF"/>
</g>
<g clip-path="url(#clip9_288_2458)">
<path d="M1 83.9C1 84.4522 0.552285 84.9 0 84.9C-0.552285 84.9 -1 84.4522 -1 83.9C-1 83.3477 -0.552285 82.9 0 82.9C0.552285 82.9 1 83.3477 1 83.9Z" fill="#BCE0FF"/>
<path d="M9 83.9C9 84.4522 8.55228 84.9 8 84.9C7.44772 84.9 7 84.4522 7 83.9C7 83.3477 7.44772 82.9 8 82.9C8.55228 82.9 9 83.3477 9 83.9Z" fill="#BCE0FF"/>
<path d="M17 83.9C17 84.4522 16.5523 84.9 16 84.9C15.4477 84.9 15 84.4522 15 83.9C15 83.3477 15.4477 82.9 16 82.9C16.5523 82.9 17 83.3477 17 83.9Z" fill="#BCE0FF"/>
<path d="M25 83.9C25 84.4522 24.5523 84.9 24 84.9C23.4477 84.9 23 84.4522 23 83.9C23 83.3477 23.4477 82.9 24 82.9C24.5523 82.9 25 83.3477 25 83.9Z" fill="#BCE0FF"/>
<path d="M33 83.9C33 84.4522 32.5523 84.9 32 84.9C31.4477 84.9 31 84.4522 31 83.9C31 83.3477 31.4477 82.9 32 82.9C32.5523 82.9 33 83.3477 33 83.9Z" fill="#BCE0FF"/>
<path d="M41 83.9C41 84.4522 40.5523 84.9 40 84.9C39.4477 84.9 39 84.4522 39 83.9C39 83.3477 39.4477 82.9 40 82.9C40.5523 82.9 41 83.3477 41 83.9Z" fill="#BCE0FF"/>
<path d="M49 83.9C49 84.4522 48.5523 84.9 48 84.9C47.4477 84.9 47 84.4522 47 83.9C47 83.3477 47.4477 82.9 48 82.9C48.5523 82.9 49 83.3477 49 83.9Z" fill="#BCE0FF"/>
<path d="M57 83.9C57 84.4522 56.5523 84.9 56 84.9C55.4477 84.9 55 84.4522 55 83.9C55 83.3477 55.4477 82.9 56 82.9C56.5523 82.9 57 83.3477 57 83.9Z" fill="#BCE0FF"/>
<path d="M65 83.9C65 84.4522 64.5523 84.9 64 84.9C63.4477 84.9 63 84.4522 63 83.9C63 83.3477 63.4477 82.9 64 82.9C64.5523 82.9 65 83.3477 65 83.9Z" fill="#BCE0FF"/>
<path d="M73 83.9C73 84.4522 72.5523 84.9 72 84.9C71.4477 84.9 71 84.4522 71 83.9C71 83.3477 71.4477 82.9 72 82.9C72.5523 82.9 73 83.3477 73 83.9Z" fill="#BCE0FF"/>
<path d="M81 83.9C81 84.4522 80.5523 84.9 80 84.9C79.4477 84.9 79 84.4522 79 83.9C79 83.3477 79.4477 82.9 80 82.9C80.5523 82.9 81 83.3477 81 83.9Z" fill="#BCE0FF"/>
<path d="M89 83.9C89 84.4522 88.5523 84.9 88 84.9C87.4477 84.9 87 84.4522 87 83.9C87 83.3477 87.4477 82.9 88 82.9C88.5523 82.9 89 83.3477 89 83.9Z" fill="#BCE0FF"/>
<path d="M97 83.9C97 84.4522 96.5523 84.9 96 84.9C95.4477 84.9 95 84.4522 95 83.9C95 83.3477 95.4477 82.9 96 82.9C96.5523 82.9 97 83.3477 97 83.9Z" fill="#BCE0FF"/>
<path d="M105 83.9C105 84.4522 104.552 84.9 104 84.9C103.448 84.9 103 84.4522 103 83.9C103 83.3477 103.448 82.9 104 82.9C104.552 82.9 105 83.3477 105 83.9Z" fill="#BCE0FF"/>
<path d="M113 83.9C113 84.4522 112.552 84.9 112 84.9C111.448 84.9 111 84.4522 111 83.9C111 83.3477 111.448 82.9 112 82.9C112.552 82.9 113 83.3477 113 83.9Z" fill="#BCE0FF"/>
<path d="M121 83.9C121 84.4522 120.552 84.9 120 84.9C119.448 84.9 119 84.4522 119 83.9C119 83.3477 119.448 82.9 120 82.9C120.552 82.9 121 83.3477 121 83.9Z" fill="#BCE0FF"/>
<path d="M129 83.9C129 84.4522 128.552 84.9 128 84.9C127.448 84.9 127 84.4522 127 83.9C127 83.3477 127.448 82.9 128 82.9C128.552 82.9 129 83.3477 129 83.9Z" fill="#BCE0FF"/>
<path d="M137 83.9C137 84.4522 136.552 84.9 136 84.9C135.448 84.9 135 84.4522 135 83.9C135 83.3477 135.448 82.9 136 82.9C136.552 82.9 137 83.3477 137 83.9Z" fill="#BCE0FF"/>
<path d="M145 83.9C145 84.4522 144.552 84.9 144 84.9C143.448 84.9 143 84.4522 143 83.9C143 83.3477 143.448 82.9 144 82.9C144.552 82.9 145 83.3477 145 83.9Z" fill="#BCE0FF"/>
<path d="M153 83.9C153 84.4522 152.552 84.9 152 84.9C151.448 84.9 151 84.4522 151 83.9C151 83.3477 151.448 82.9 152 82.9C152.552 82.9 153 83.3477 153 83.9Z" fill="#BCE0FF"/>
<path d="M161 83.9C161 84.4522 160.552 84.9 160 84.9C159.448 84.9 159 84.4522 159 83.9C159 83.3477 159.448 82.9 160 82.9C160.552 82.9 161 83.3477 161 83.9Z" fill="#BCE0FF"/>
<path d="M169 83.9C169 84.4522 168.552 84.9 168 84.9C167.448 84.9 167 84.4522 167 83.9C167 83.3477 167.448 82.9 168 82.9C168.552 82.9 169 83.3477 169 83.9Z" fill="#BCE0FF"/>
<path d="M177 83.9C177 84.4522 176.552 84.9 176 84.9C175.448 84.9 175 84.4522 175 83.9C175 83.3477 175.448 82.9 176 82.9C176.552 82.9 177 83.3477 177 83.9Z" fill="#BCE0FF"/>
<path d="M185 83.9C185 84.4522 184.552 84.9 184 84.9C183.448 84.9 183 84.4522 183 83.9C183 83.3477 183.448 82.9 184 82.9C184.552 82.9 185 83.3477 185 83.9Z" fill="#BCE0FF"/>
<path d="M193 83.9C193 84.4522 192.552 84.9 192 84.9C191.448 84.9 191 84.4522 191 83.9C191 83.3477 191.448 82.9 192 82.9C192.552 82.9 193 83.3477 193 83.9Z" fill="#BCE0FF"/>
<path d="M201 83.9C201 84.4522 200.552 84.9 200 84.9C199.448 84.9 199 84.4522 199 83.9C199 83.3477 199.448 82.9 200 82.9C200.552 82.9 201 83.3477 201 83.9Z" fill="#BCE0FF"/>
<path d="M209 83.9C209 84.4522 208.552 84.9 208 84.9C207.448 84.9 207 84.4522 207 83.9C207 83.3477 207.448 82.9 208 82.9C208.552 82.9 209 83.3477 209 83.9Z" fill="#BCE0FF"/>
<path d="M217 83.9C217 84.4522 216.552 84.9 216 84.9C215.448 84.9 215 84.4522 215 83.9C215 83.3477 215.448 82.9 216 82.9C216.552 82.9 217 83.3477 217 83.9Z" fill="#BCE0FF"/>
<path d="M225 83.9C225 84.4522 224.552 84.9 224 84.9C223.448 84.9 223 84.4522 223 83.9C223 83.3477 223.448 82.9 224 82.9C224.552 82.9 225 83.3477 225 83.9Z" fill="#BCE0FF"/>
<path d="M233 83.9C233 84.4522 232.552 84.9 232 84.9C231.448 84.9 231 84.4522 231 83.9C231 83.3477 231.448 82.9 232 82.9C232.552 82.9 233 83.3477 233 83.9Z" fill="#BCE0FF"/>
<path d="M241 83.9C241 84.4522 240.552 84.9 240 84.9C239.448 84.9 239 84.4522 239 83.9C239 83.3477 239.448 82.9 240 82.9C240.552 82.9 241 83.3477 241 83.9Z" fill="#BCE0FF"/>
<path d="M249 83.9C249 84.4522 248.552 84.9 248 84.9C247.448 84.9 247 84.4522 247 83.9C247 83.3477 247.448 82.9 248 82.9C248.552 82.9 249 83.3477 249 83.9Z" fill="#BCE0FF"/>
<path d="M257 83.9C257 84.4522 256.552 84.9 256 84.9C255.448 84.9 255 84.4522 255 83.9C255 83.3477 255.448 82.9 256 82.9C256.552 82.9 257 83.3477 257 83.9Z" fill="#BCE0FF"/>
<path d="M265 83.9C265 84.4522 264.552 84.9 264 84.9C263.448 84.9 263 84.4522 263 83.9C263 83.3477 263.448 82.9 264 82.9C264.552 82.9 265 83.3477 265 83.9Z" fill="#BCE0FF"/>
<path d="M273 83.9C273 84.4522 272.552 84.9 272 84.9C271.448 84.9 271 84.4522 271 83.9C271 83.3477 271.448 82.9 272 82.9C272.552 82.9 273 83.3477 273 83.9Z" fill="#BCE0FF"/>
<path d="M281 83.9C281 84.4522 280.552 84.9 280 84.9C279.448 84.9 279 84.4522 279 83.9C279 83.3477 279.448 82.9 280 82.9C280.552 82.9 281 83.3477 281 83.9Z" fill="#BCE0FF"/>
<path d="M289 83.9C289 84.4522 288.552 84.9 288 84.9C287.448 84.9 287 84.4522 287 83.9C287 83.3477 287.448 82.9 288 82.9C288.552 82.9 289 83.3477 289 83.9Z" fill="#BCE0FF"/>
</g>
<g clip-path="url(#clip10_288_2458)">
<path d="M1 94.3C1 94.8523 0.552285 95.3 0 95.3C-0.552285 95.3 -1 94.8523 -1 94.3C-1 93.7478 -0.552285 93.3 0 93.3C0.552285 93.3 1 93.7478 1 94.3Z" fill="#BCE0FF"/>
<path d="M9 94.3C9 94.8523 8.55228 95.3 8 95.3C7.44772 95.3 7 94.8523 7 94.3C7 93.7478 7.44772 93.3 8 93.3C8.55228 93.3 9 93.7478 9 94.3Z" fill="#BCE0FF"/>
<path d="M17 94.3C17 94.8523 16.5523 95.3 16 95.3C15.4477 95.3 15 94.8523 15 94.3C15 93.7478 15.4477 93.3 16 93.3C16.5523 93.3 17 93.7478 17 94.3Z" fill="#BCE0FF"/>
<path d="M25 94.3C25 94.8523 24.5523 95.3 24 95.3C23.4477 95.3 23 94.8523 23 94.3C23 93.7478 23.4477 93.3 24 93.3C24.5523 93.3 25 93.7478 25 94.3Z" fill="#BCE0FF"/>
<path d="M33 94.3C33 94.8523 32.5523 95.3 32 95.3C31.4477 95.3 31 94.8523 31 94.3C31 93.7478 31.4477 93.3 32 93.3C32.5523 93.3 33 93.7478 33 94.3Z" fill="#BCE0FF"/>
<path d="M41 94.3C41 94.8523 40.5523 95.3 40 95.3C39.4477 95.3 39 94.8523 39 94.3C39 93.7478 39.4477 93.3 40 93.3C40.5523 93.3 41 93.7478 41 94.3Z" fill="#BCE0FF"/>
<path d="M49 94.3C49 94.8523 48.5523 95.3 48 95.3C47.4477 95.3 47 94.8523 47 94.3C47 93.7478 47.4477 93.3 48 93.3C48.5523 93.3 49 93.7478 49 94.3Z" fill="#BCE0FF"/>
<path d="M57 94.3C57 94.8523 56.5523 95.3 56 95.3C55.4477 95.3 55 94.8523 55 94.3C55 93.7478 55.4477 93.3 56 93.3C56.5523 93.3 57 93.7478 57 94.3Z" fill="#BCE0FF"/>
<path d="M65 94.3C65 94.8523 64.5523 95.3 64 95.3C63.4477 95.3 63 94.8523 63 94.3C63 93.7478 63.4477 93.3 64 93.3C64.5523 93.3 65 93.7478 65 94.3Z" fill="#BCE0FF"/>
<path d="M73 94.3C73 94.8523 72.5523 95.3 72 95.3C71.4477 95.3 71 94.8523 71 94.3C71 93.7478 71.4477 93.3 72 93.3C72.5523 93.3 73 93.7478 73 94.3Z" fill="#BCE0FF"/>
<path d="M81 94.3C81 94.8523 80.5523 95.3 80 95.3C79.4477 95.3 79 94.8523 79 94.3C79 93.7478 79.4477 93.3 80 93.3C80.5523 93.3 81 93.7478 81 94.3Z" fill="#BCE0FF"/>
<path d="M89 94.3C89 94.8523 88.5523 95.3 88 95.3C87.4477 95.3 87 94.8523 87 94.3C87 93.7478 87.4477 93.3 88 93.3C88.5523 93.3 89 93.7478 89 94.3Z" fill="#BCE0FF"/>
<path d="M97 94.3C97 94.8523 96.5523 95.3 96 95.3C95.4477 95.3 95 94.8523 95 94.3C95 93.7478 95.4477 93.3 96 93.3C96.5523 93.3 97 93.7478 97 94.3Z" fill="#BCE0FF"/>
<path d="M105 94.3C105 94.8523 104.552 95.3 104 95.3C103.448 95.3 103 94.8523 103 94.3C103 93.7478 103.448 93.3 104 93.3C104.552 93.3 105 93.7478 105 94.3Z" fill="#BCE0FF"/>
<path d="M113 94.3C113 94.8523 112.552 95.3 112 95.3C111.448 95.3 111 94.8523 111 94.3C111 93.7478 111.448 93.3 112 93.3C112.552 93.3 113 93.7478 113 94.3Z" fill="#BCE0FF"/>
<path d="M121 94.3C121 94.8523 120.552 95.3 120 95.3C119.448 95.3 119 94.8523 119 94.3C119 93.7478 119.448 93.3 120 93.3C120.552 93.3 121 93.7478 121 94.3Z" fill="#BCE0FF"/>
<path d="M129 94.3C129 94.8523 128.552 95.3 128 95.3C127.448 95.3 127 94.8523 127 94.3C127 93.7478 127.448 93.3 128 93.3C128.552 93.3 129 93.7478 129 94.3Z" fill="#BCE0FF"/>
<path d="M137 94.3C137 94.8523 136.552 95.3 136 95.3C135.448 95.3 135 94.8523 135 94.3C135 93.7478 135.448 93.3 136 93.3C136.552 93.3 137 93.7478 137 94.3Z" fill="#BCE0FF"/>
<path d="M145 94.3C145 94.8523 144.552 95.3 144 95.3C143.448 95.3 143 94.8523 143 94.3C143 93.7478 143.448 93.3 144 93.3C144.552 93.3 145 93.7478 145 94.3Z" fill="#BCE0FF"/>
<path d="M153 94.3C153 94.8523 152.552 95.3 152 95.3C151.448 95.3 151 94.8523 151 94.3C151 93.7478 151.448 93.3 152 93.3C152.552 93.3 153 93.7478 153 94.3Z" fill="#BCE0FF"/>
<path d="M161 94.3C161 94.8523 160.552 95.3 160 95.3C159.448 95.3 159 94.8523 159 94.3C159 93.7478 159.448 93.3 160 93.3C160.552 93.3 161 93.7478 161 94.3Z" fill="#BCE0FF"/>
<path d="M169 94.3C169 94.8523 168.552 95.3 168 95.3C167.448 95.3 167 94.8523 167 94.3C167 93.7478 167.448 93.3 168 93.3C168.552 93.3 169 93.7478 169 94.3Z" fill="#BCE0FF"/>
<path d="M177 94.3C177 94.8523 176.552 95.3 176 95.3C175.448 95.3 175 94.8523 175 94.3C175 93.7478 175.448 93.3 176 93.3C176.552 93.3 177 93.7478 177 94.3Z" fill="#BCE0FF"/>
<path d="M185 94.3C185 94.8523 184.552 95.3 184 95.3C183.448 95.3 183 94.8523 183 94.3C183 93.7478 183.448 93.3 184 93.3C184.552 93.3 185 93.7478 185 94.3Z" fill="#BCE0FF"/>
<path d="M193 94.3C193 94.8523 192.552 95.3 192 95.3C191.448 95.3 191 94.8523 191 94.3C191 93.7478 191.448 93.3 192 93.3C192.552 93.3 193 93.7478 193 94.3Z" fill="#BCE0FF"/>
<path d="M201 94.3C201 94.8523 200.552 95.3 200 95.3C199.448 95.3 199 94.8523 199 94.3C199 93.7478 199.448 93.3 200 93.3C200.552 93.3 201 93.7478 201 94.3Z" fill="#BCE0FF"/>
<path d="M209 94.3C209 94.8523 208.552 95.3 208 95.3C207.448 95.3 207 94.8523 207 94.3C207 93.7478 207.448 93.3 208 93.3C208.552 93.3 209 93.7478 209 94.3Z" fill="#BCE0FF"/>
<path d="M217 94.3C217 94.8523 216.552 95.3 216 95.3C215.448 95.3 215 94.8523 215 94.3C215 93.7478 215.448 93.3 216 93.3C216.552 93.3 217 93.7478 217 94.3Z" fill="#BCE0FF"/>
<path d="M225 94.3C225 94.8523 224.552 95.3 224 95.3C223.448 95.3 223 94.8523 223 94.3C223 93.7478 223.448 93.3 224 93.3C224.552 93.3 225 93.7478 225 94.3Z" fill="#BCE0FF"/>
<path d="M233 94.3C233 94.8523 232.552 95.3 232 95.3C231.448 95.3 231 94.8523 231 94.3C231 93.7478 231.448 93.3 232 93.3C232.552 93.3 233 93.7478 233 94.3Z" fill="#BCE0FF"/>
<path d="M241 94.3C241 94.8523 240.552 95.3 240 95.3C239.448 95.3 239 94.8523 239 94.3C239 93.7478 239.448 93.3 240 93.3C240.552 93.3 241 93.7478 241 94.3Z" fill="#BCE0FF"/>
<path d="M249 94.3C249 94.8523 248.552 95.3 248 95.3C247.448 95.3 247 94.8523 247 94.3C247 93.7478 247.448 93.3 248 93.3C248.552 93.3 249 93.7478 249 94.3Z" fill="#BCE0FF"/>
<path d="M257 94.3C257 94.8523 256.552 95.3 256 95.3C255.448 95.3 255 94.8523 255 94.3C255 93.7478 255.448 93.3 256 93.3C256.552 93.3 257 93.7478 257 94.3Z" fill="#BCE0FF"/>
<path d="M265 94.3C265 94.8523 264.552 95.3 264 95.3C263.448 95.3 263 94.8523 263 94.3C263 93.7478 263.448 93.3 264 93.3C264.552 93.3 265 93.7478 265 94.3Z" fill="#BCE0FF"/>
<path d="M273 94.3C273 94.8523 272.552 95.3 272 95.3C271.448 95.3 271 94.8523 271 94.3C271 93.7478 271.448 93.3 272 93.3C272.552 93.3 273 93.7478 273 94.3Z" fill="#BCE0FF"/>
<path d="M281 94.3C281 94.8523 280.552 95.3 280 95.3C279.448 95.3 279 94.8523 279 94.3C279 93.7478 279.448 93.3 280 93.3C280.552 93.3 281 93.7478 281 94.3Z" fill="#BCE0FF"/>
<path d="M289 94.3C289 94.8523 288.552 95.3 288 95.3C287.448 95.3 287 94.8523 287 94.3C287 93.7478 287.448 93.3 288 93.3C288.552 93.3 289 93.7478 289 94.3Z" fill="#BCE0FF"/>
</g>
<g clip-path="url(#clip11_288_2458)">
<path d="M1 104.7C1 105.252 0.552285 105.7 0 105.7C-0.552285 105.7 -1 105.252 -1 104.7C-1 104.148 -0.552285 103.7 0 103.7C0.552285 103.7 1 104.148 1 104.7Z" fill="#BCE0FF"/>
<path d="M9 104.7C9 105.252 8.55228 105.7 8 105.7C7.44772 105.7 7 105.252 7 104.7C7 104.148 7.44772 103.7 8 103.7C8.55228 103.7 9 104.148 9 104.7Z" fill="#BCE0FF"/>
<path d="M17 104.7C17 105.252 16.5523 105.7 16 105.7C15.4477 105.7 15 105.252 15 104.7C15 104.148 15.4477 103.7 16 103.7C16.5523 103.7 17 104.148 17 104.7Z" fill="#BCE0FF"/>
<path d="M25 104.7C25 105.252 24.5523 105.7 24 105.7C23.4477 105.7 23 105.252 23 104.7C23 104.148 23.4477 103.7 24 103.7C24.5523 103.7 25 104.148 25 104.7Z" fill="#BCE0FF"/>
<path d="M33 104.7C33 105.252 32.5523 105.7 32 105.7C31.4477 105.7 31 105.252 31 104.7C31 104.148 31.4477 103.7 32 103.7C32.5523 103.7 33 104.148 33 104.7Z" fill="#BCE0FF"/>
<path d="M41 104.7C41 105.252 40.5523 105.7 40 105.7C39.4477 105.7 39 105.252 39 104.7C39 104.148 39.4477 103.7 40 103.7C40.5523 103.7 41 104.148 41 104.7Z" fill="#BCE0FF"/>
<path d="M49 104.7C49 105.252 48.5523 105.7 48 105.7C47.4477 105.7 47 105.252 47 104.7C47 104.148 47.4477 103.7 48 103.7C48.5523 103.7 49 104.148 49 104.7Z" fill="#BCE0FF"/>
<path d="M57 104.7C57 105.252 56.5523 105.7 56 105.7C55.4477 105.7 55 105.252 55 104.7C55 104.148 55.4477 103.7 56 103.7C56.5523 103.7 57 104.148 57 104.7Z" fill="#BCE0FF"/>
<path d="M65 104.7C65 105.252 64.5523 105.7 64 105.7C63.4477 105.7 63 105.252 63 104.7C63 104.148 63.4477 103.7 64 103.7C64.5523 103.7 65 104.148 65 104.7Z" fill="#BCE0FF"/>
<path d="M73 104.7C73 105.252 72.5523 105.7 72 105.7C71.4477 105.7 71 105.252 71 104.7C71 104.148 71.4477 103.7 72 103.7C72.5523 103.7 73 104.148 73 104.7Z" fill="#BCE0FF"/>
<path d="M81 104.7C81 105.252 80.5523 105.7 80 105.7C79.4477 105.7 79 105.252 79 104.7C79 104.148 79.4477 103.7 80 103.7C80.5523 103.7 81 104.148 81 104.7Z" fill="#BCE0FF"/>
<path d="M89 104.7C89 105.252 88.5523 105.7 88 105.7C87.4477 105.7 87 105.252 87 104.7C87 104.148 87.4477 103.7 88 103.7C88.5523 103.7 89 104.148 89 104.7Z" fill="#BCE0FF"/>
<path d="M97 104.7C97 105.252 96.5523 105.7 96 105.7C95.4477 105.7 95 105.252 95 104.7C95 104.148 95.4477 103.7 96 103.7C96.5523 103.7 97 104.148 97 104.7Z" fill="#BCE0FF"/>
<path d="M105 104.7C105 105.252 104.552 105.7 104 105.7C103.448 105.7 103 105.252 103 104.7C103 104.148 103.448 103.7 104 103.7C104.552 103.7 105 104.148 105 104.7Z" fill="#BCE0FF"/>
<path d="M113 104.7C113 105.252 112.552 105.7 112 105.7C111.448 105.7 111 105.252 111 104.7C111 104.148 111.448 103.7 112 103.7C112.552 103.7 113 104.148 113 104.7Z" fill="#BCE0FF"/>
<path d="M121 104.7C121 105.252 120.552 105.7 120 105.7C119.448 105.7 119 105.252 119 104.7C119 104.148 119.448 103.7 120 103.7C120.552 103.7 121 104.148 121 104.7Z" fill="#BCE0FF"/>
<path d="M129 104.7C129 105.252 128.552 105.7 128 105.7C127.448 105.7 127 105.252 127 104.7C127 104.148 127.448 103.7 128 103.7C128.552 103.7 129 104.148 129 104.7Z" fill="#BCE0FF"/>
<path d="M137 104.7C137 105.252 136.552 105.7 136 105.7C135.448 105.7 135 105.252 135 104.7C135 104.148 135.448 103.7 136 103.7C136.552 103.7 137 104.148 137 104.7Z" fill="#BCE0FF"/>
<path d="M145 104.7C145 105.252 144.552 105.7 144 105.7C143.448 105.7 143 105.252 143 104.7C143 104.148 143.448 103.7 144 103.7C144.552 103.7 145 104.148 145 104.7Z" fill="#BCE0FF"/>
<path d="M153 104.7C153 105.252 152.552 105.7 152 105.7C151.448 105.7 151 105.252 151 104.7C151 104.148 151.448 103.7 152 103.7C152.552 103.7 153 104.148 153 104.7Z" fill="#BCE0FF"/>
<path d="M161 104.7C161 105.252 160.552 105.7 160 105.7C159.448 105.7 159 105.252 159 104.7C159 104.148 159.448 103.7 160 103.7C160.552 103.7 161 104.148 161 104.7Z" fill="#BCE0FF"/>
<path d="M169 104.7C169 105.252 168.552 105.7 168 105.7C167.448 105.7 167 105.252 167 104.7C167 104.148 167.448 103.7 168 103.7C168.552 103.7 169 104.148 169 104.7Z" fill="#BCE0FF"/>
<path d="M177 104.7C177 105.252 176.552 105.7 176 105.7C175.448 105.7 175 105.252 175 104.7C175 104.148 175.448 103.7 176 103.7C176.552 103.7 177 104.148 177 104.7Z" fill="#BCE0FF"/>
<path d="M185 104.7C185 105.252 184.552 105.7 184 105.7C183.448 105.7 183 105.252 183 104.7C183 104.148 183.448 103.7 184 103.7C184.552 103.7 185 104.148 185 104.7Z" fill="#BCE0FF"/>
<path d="M193 104.7C193 105.252 192.552 105.7 192 105.7C191.448 105.7 191 105.252 191 104.7C191 104.148 191.448 103.7 192 103.7C192.552 103.7 193 104.148 193 104.7Z" fill="#BCE0FF"/>
<path d="M201 104.7C201 105.252 200.552 105.7 200 105.7C199.448 105.7 199 105.252 199 104.7C199 104.148 199.448 103.7 200 103.7C200.552 103.7 201 104.148 201 104.7Z" fill="#BCE0FF"/>
<path d="M209 104.7C209 105.252 208.552 105.7 208 105.7C207.448 105.7 207 105.252 207 104.7C207 104.148 207.448 103.7 208 103.7C208.552 103.7 209 104.148 209 104.7Z" fill="#BCE0FF"/>
<path d="M217 104.7C217 105.252 216.552 105.7 216 105.7C215.448 105.7 215 105.252 215 104.7C215 104.148 215.448 103.7 216 103.7C216.552 103.7 217 104.148 217 104.7Z" fill="#BCE0FF"/>
<path d="M225 104.7C225 105.252 224.552 105.7 224 105.7C223.448 105.7 223 105.252 223 104.7C223 104.148 223.448 103.7 224 103.7C224.552 103.7 225 104.148 225 104.7Z" fill="#BCE0FF"/>
<path d="M233 104.7C233 105.252 232.552 105.7 232 105.7C231.448 105.7 231 105.252 231 104.7C231 104.148 231.448 103.7 232 103.7C232.552 103.7 233 104.148 233 104.7Z" fill="#BCE0FF"/>
<path d="M241 104.7C241 105.252 240.552 105.7 240 105.7C239.448 105.7 239 105.252 239 104.7C239 104.148 239.448 103.7 240 103.7C240.552 103.7 241 104.148 241 104.7Z" fill="#BCE0FF"/>
<path d="M249 104.7C249 105.252 248.552 105.7 248 105.7C247.448 105.7 247 105.252 247 104.7C247 104.148 247.448 103.7 248 103.7C248.552 103.7 249 104.148 249 104.7Z" fill="#BCE0FF"/>
<path d="M257 104.7C257 105.252 256.552 105.7 256 105.7C255.448 105.7 255 105.252 255 104.7C255 104.148 255.448 103.7 256 103.7C256.552 103.7 257 104.148 257 104.7Z" fill="#BCE0FF"/>
<path d="M265 104.7C265 105.252 264.552 105.7 264 105.7C263.448 105.7 263 105.252 263 104.7C263 104.148 263.448 103.7 264 103.7C264.552 103.7 265 104.148 265 104.7Z" fill="#BCE0FF"/>
<path d="M273 104.7C273 105.252 272.552 105.7 272 105.7C271.448 105.7 271 105.252 271 104.7C271 104.148 271.448 103.7 272 103.7C272.552 103.7 273 104.148 273 104.7Z" fill="#BCE0FF"/>
<path d="M281 104.7C281 105.252 280.552 105.7 280 105.7C279.448 105.7 279 105.252 279 104.7C279 104.148 279.448 103.7 280 103.7C280.552 103.7 281 104.148 281 104.7Z" fill="#BCE0FF"/>
<path d="M289 104.7C289 105.252 288.552 105.7 288 105.7C287.448 105.7 287 105.252 287 104.7C287 104.148 287.448 103.7 288 103.7C288.552 103.7 289 104.148 289 104.7Z" fill="#BCE0FF"/>
</g>
<g clip-path="url(#clip12_288_2458)">
<path d="M1 115.1C1 115.652 0.552285 116.1 0 116.1C-0.552285 116.1 -1 115.652 -1 115.1C-1 114.548 -0.552285 114.1 0 114.1C0.552285 114.1 1 114.548 1 115.1Z" fill="#BCE0FF"/>
<path d="M9 115.1C9 115.652 8.55228 116.1 8 116.1C7.44772 116.1 7 115.652 7 115.1C7 114.548 7.44772 114.1 8 114.1C8.55228 114.1 9 114.548 9 115.1Z" fill="#BCE0FF"/>
<path d="M17 115.1C17 115.652 16.5523 116.1 16 116.1C15.4477 116.1 15 115.652 15 115.1C15 114.548 15.4477 114.1 16 114.1C16.5523 114.1 17 114.548 17 115.1Z" fill="#BCE0FF"/>
<path d="M25 115.1C25 115.652 24.5523 116.1 24 116.1C23.4477 116.1 23 115.652 23 115.1C23 114.548 23.4477 114.1 24 114.1C24.5523 114.1 25 114.548 25 115.1Z" fill="#BCE0FF"/>
<path d="M33 115.1C33 115.652 32.5523 116.1 32 116.1C31.4477 116.1 31 115.652 31 115.1C31 114.548 31.4477 114.1 32 114.1C32.5523 114.1 33 114.548 33 115.1Z" fill="#BCE0FF"/>
<path d="M41 115.1C41 115.652 40.5523 116.1 40 116.1C39.4477 116.1 39 115.652 39 115.1C39 114.548 39.4477 114.1 40 114.1C40.5523 114.1 41 114.548 41 115.1Z" fill="#BCE0FF"/>
<path d="M49 115.1C49 115.652 48.5523 116.1 48 116.1C47.4477 116.1 47 115.652 47 115.1C47 114.548 47.4477 114.1 48 114.1C48.5523 114.1 49 114.548 49 115.1Z" fill="#BCE0FF"/>
<path d="M57 115.1C57 115.652 56.5523 116.1 56 116.1C55.4477 116.1 55 115.652 55 115.1C55 114.548 55.4477 114.1 56 114.1C56.5523 114.1 57 114.548 57 115.1Z" fill="#BCE0FF"/>
<path d="M65 115.1C65 115.652 64.5523 116.1 64 116.1C63.4477 116.1 63 115.652 63 115.1C63 114.548 63.4477 114.1 64 114.1C64.5523 114.1 65 114.548 65 115.1Z" fill="#BCE0FF"/>
<path d="M73 115.1C73 115.652 72.5523 116.1 72 116.1C71.4477 116.1 71 115.652 71 115.1C71 114.548 71.4477 114.1 72 114.1C72.5523 114.1 73 114.548 73 115.1Z" fill="#BCE0FF"/>
<path d="M81 115.1C81 115.652 80.5523 116.1 80 116.1C79.4477 116.1 79 115.652 79 115.1C79 114.548 79.4477 114.1 80 114.1C80.5523 114.1 81 114.548 81 115.1Z" fill="#BCE0FF"/>
<path d="M89 115.1C89 115.652 88.5523 116.1 88 116.1C87.4477 116.1 87 115.652 87 115.1C87 114.548 87.4477 114.1 88 114.1C88.5523 114.1 89 114.548 89 115.1Z" fill="#BCE0FF"/>
<path d="M97 115.1C97 115.652 96.5523 116.1 96 116.1C95.4477 116.1 95 115.652 95 115.1C95 114.548 95.4477 114.1 96 114.1C96.5523 114.1 97 114.548 97 115.1Z" fill="#BCE0FF"/>
<path d="M105 115.1C105 115.652 104.552 116.1 104 116.1C103.448 116.1 103 115.652 103 115.1C103 114.548 103.448 114.1 104 114.1C104.552 114.1 105 114.548 105 115.1Z" fill="#BCE0FF"/>
<path d="M113 115.1C113 115.652 112.552 116.1 112 116.1C111.448 116.1 111 115.652 111 115.1C111 114.548 111.448 114.1 112 114.1C112.552 114.1 113 114.548 113 115.1Z" fill="#BCE0FF"/>
<path d="M121 115.1C121 115.652 120.552 116.1 120 116.1C119.448 116.1 119 115.652 119 115.1C119 114.548 119.448 114.1 120 114.1C120.552 114.1 121 114.548 121 115.1Z" fill="#BCE0FF"/>
<path d="M129 115.1C129 115.652 128.552 116.1 128 116.1C127.448 116.1 127 115.652 127 115.1C127 114.548 127.448 114.1 128 114.1C128.552 114.1 129 114.548 129 115.1Z" fill="#BCE0FF"/>
<path d="M137 115.1C137 115.652 136.552 116.1 136 116.1C135.448 116.1 135 115.652 135 115.1C135 114.548 135.448 114.1 136 114.1C136.552 114.1 137 114.548 137 115.1Z" fill="#BCE0FF"/>
<path d="M145 115.1C145 115.652 144.552 116.1 144 116.1C143.448 116.1 143 115.652 143 115.1C143 114.548 143.448 114.1 144 114.1C144.552 114.1 145 114.548 145 115.1Z" fill="#BCE0FF"/>
<path d="M153 115.1C153 115.652 152.552 116.1 152 116.1C151.448 116.1 151 115.652 151 115.1C151 114.548 151.448 114.1 152 114.1C152.552 114.1 153 114.548 153 115.1Z" fill="#BCE0FF"/>
<path d="M161 115.1C161 115.652 160.552 116.1 160 116.1C159.448 116.1 159 115.652 159 115.1C159 114.548 159.448 114.1 160 114.1C160.552 114.1 161 114.548 161 115.1Z" fill="#BCE0FF"/>
<path d="M169 115.1C169 115.652 168.552 116.1 168 116.1C167.448 116.1 167 115.652 167 115.1C167 114.548 167.448 114.1 168 114.1C168.552 114.1 169 114.548 169 115.1Z" fill="#BCE0FF"/>
<path d="M177 115.1C177 115.652 176.552 116.1 176 116.1C175.448 116.1 175 115.652 175 115.1C175 114.548 175.448 114.1 176 114.1C176.552 114.1 177 114.548 177 115.1Z" fill="#BCE0FF"/>
<path d="M185 115.1C185 115.652 184.552 116.1 184 116.1C183.448 116.1 183 115.652 183 115.1C183 114.548 183.448 114.1 184 114.1C184.552 114.1 185 114.548 185 115.1Z" fill="#BCE0FF"/>
<path d="M193 115.1C193 115.652 192.552 116.1 192 116.1C191.448 116.1 191 115.652 191 115.1C191 114.548 191.448 114.1 192 114.1C192.552 114.1 193 114.548 193 115.1Z" fill="#BCE0FF"/>
<path d="M201 115.1C201 115.652 200.552 116.1 200 116.1C199.448 116.1 199 115.652 199 115.1C199 114.548 199.448 114.1 200 114.1C200.552 114.1 201 114.548 201 115.1Z" fill="#BCE0FF"/>
<path d="M209 115.1C209 115.652 208.552 116.1 208 116.1C207.448 116.1 207 115.652 207 115.1C207 114.548 207.448 114.1 208 114.1C208.552 114.1 209 114.548 209 115.1Z" fill="#BCE0FF"/>
<path d="M217 115.1C217 115.652 216.552 116.1 216 116.1C215.448 116.1 215 115.652 215 115.1C215 114.548 215.448 114.1 216 114.1C216.552 114.1 217 114.548 217 115.1Z" fill="#BCE0FF"/>
<path d="M225 115.1C225 115.652 224.552 116.1 224 116.1C223.448 116.1 223 115.652 223 115.1C223 114.548 223.448 114.1 224 114.1C224.552 114.1 225 114.548 225 115.1Z" fill="#BCE0FF"/>
<path d="M233 115.1C233 115.652 232.552 116.1 232 116.1C231.448 116.1 231 115.652 231 115.1C231 114.548 231.448 114.1 232 114.1C232.552 114.1 233 114.548 233 115.1Z" fill="#BCE0FF"/>
<path d="M241 115.1C241 115.652 240.552 116.1 240 116.1C239.448 116.1 239 115.652 239 115.1C239 114.548 239.448 114.1 240 114.1C240.552 114.1 241 114.548 241 115.1Z" fill="#BCE0FF"/>
<path d="M249 115.1C249 115.652 248.552 116.1 248 116.1C247.448 116.1 247 115.652 247 115.1C247 114.548 247.448 114.1 248 114.1C248.552 114.1 249 114.548 249 115.1Z" fill="#BCE0FF"/>
<path d="M257 115.1C257 115.652 256.552 116.1 256 116.1C255.448 116.1 255 115.652 255 115.1C255 114.548 255.448 114.1 256 114.1C256.552 114.1 257 114.548 257 115.1Z" fill="#BCE0FF"/>
<path d="M265 115.1C265 115.652 264.552 116.1 264 116.1C263.448 116.1 263 115.652 263 115.1C263 114.548 263.448 114.1 264 114.1C264.552 114.1 265 114.548 265 115.1Z" fill="#BCE0FF"/>
<path d="M273 115.1C273 115.652 272.552 116.1 272 116.1C271.448 116.1 271 115.652 271 115.1C271 114.548 271.448 114.1 272 114.1C272.552 114.1 273 114.548 273 115.1Z" fill="#BCE0FF"/>
<path d="M281 115.1C281 115.652 280.552 116.1 280 116.1C279.448 116.1 279 115.652 279 115.1C279 114.548 279.448 114.1 280 114.1C280.552 114.1 281 114.548 281 115.1Z" fill="#BCE0FF"/>
<path d="M289 115.1C289 115.652 288.552 116.1 288 116.1C287.448 116.1 287 115.652 287 115.1C287 114.548 287.448 114.1 288 114.1C288.552 114.1 289 114.548 289 115.1Z" fill="#BCE0FF"/>
</g>
<g clip-path="url(#clip13_288_2458)">
<path d="M1 125.5C1 126.052 0.552285 126.5 0 126.5C-0.552285 126.5 -1 126.052 -1 125.5C-1 124.948 -0.552285 124.5 0 124.5C0.552285 124.5 1 124.948 1 125.5Z" fill="#BCE0FF"/>
<path d="M9 125.5C9 126.052 8.55228 126.5 8 126.5C7.44772 126.5 7 126.052 7 125.5C7 124.948 7.44772 124.5 8 124.5C8.55228 124.5 9 124.948 9 125.5Z" fill="#BCE0FF"/>
<path d="M17 125.5C17 126.052 16.5523 126.5 16 126.5C15.4477 126.5 15 126.052 15 125.5C15 124.948 15.4477 124.5 16 124.5C16.5523 124.5 17 124.948 17 125.5Z" fill="#BCE0FF"/>
<path d="M25 125.5C25 126.052 24.5523 126.5 24 126.5C23.4477 126.5 23 126.052 23 125.5C23 124.948 23.4477 124.5 24 124.5C24.5523 124.5 25 124.948 25 125.5Z" fill="#BCE0FF"/>
<path d="M33 125.5C33 126.052 32.5523 126.5 32 126.5C31.4477 126.5 31 126.052 31 125.5C31 124.948 31.4477 124.5 32 124.5C32.5523 124.5 33 124.948 33 125.5Z" fill="#BCE0FF"/>
<path d="M41 125.5C41 126.052 40.5523 126.5 40 126.5C39.4477 126.5 39 126.052 39 125.5C39 124.948 39.4477 124.5 40 124.5C40.5523 124.5 41 124.948 41 125.5Z" fill="#BCE0FF"/>
<path d="M49 125.5C49 126.052 48.5523 126.5 48 126.5C47.4477 126.5 47 126.052 47 125.5C47 124.948 47.4477 124.5 48 124.5C48.5523 124.5 49 124.948 49 125.5Z" fill="#BCE0FF"/>
<path d="M57 125.5C57 126.052 56.5523 126.5 56 126.5C55.4477 126.5 55 126.052 55 125.5C55 124.948 55.4477 124.5 56 124.5C56.5523 124.5 57 124.948 57 125.5Z" fill="#BCE0FF"/>
<path d="M65 125.5C65 126.052 64.5523 126.5 64 126.5C63.4477 126.5 63 126.052 63 125.5C63 124.948 63.4477 124.5 64 124.5C64.5523 124.5 65 124.948 65 125.5Z" fill="#BCE0FF"/>
<path d="M73 125.5C73 126.052 72.5523 126.5 72 126.5C71.4477 126.5 71 126.052 71 125.5C71 124.948 71.4477 124.5 72 124.5C72.5523 124.5 73 124.948 73 125.5Z" fill="#BCE0FF"/>
<path d="M81 125.5C81 126.052 80.5523 126.5 80 126.5C79.4477 126.5 79 126.052 79 125.5C79 124.948 79.4477 124.5 80 124.5C80.5523 124.5 81 124.948 81 125.5Z" fill="#BCE0FF"/>
<path d="M89 125.5C89 126.052 88.5523 126.5 88 126.5C87.4477 126.5 87 126.052 87 125.5C87 124.948 87.4477 124.5 88 124.5C88.5523 124.5 89 124.948 89 125.5Z" fill="#BCE0FF"/>
<path d="M97 125.5C97 126.052 96.5523 126.5 96 126.5C95.4477 126.5 95 126.052 95 125.5C95 124.948 95.4477 124.5 96 124.5C96.5523 124.5 97 124.948 97 125.5Z" fill="#BCE0FF"/>
<path d="M105 125.5C105 126.052 104.552 126.5 104 126.5C103.448 126.5 103 126.052 103 125.5C103 124.948 103.448 124.5 104 124.5C104.552 124.5 105 124.948 105 125.5Z" fill="#BCE0FF"/>
<path d="M113 125.5C113 126.052 112.552 126.5 112 126.5C111.448 126.5 111 126.052 111 125.5C111 124.948 111.448 124.5 112 124.5C112.552 124.5 113 124.948 113 125.5Z" fill="#BCE0FF"/>
<path d="M121 125.5C121 126.052 120.552 126.5 120 126.5C119.448 126.5 119 126.052 119 125.5C119 124.948 119.448 124.5 120 124.5C120.552 124.5 121 124.948 121 125.5Z" fill="#BCE0FF"/>
<path d="M129 125.5C129 126.052 128.552 126.5 128 126.5C127.448 126.5 127 126.052 127 125.5C127 124.948 127.448 124.5 128 124.5C128.552 124.5 129 124.948 129 125.5Z" fill="#BCE0FF"/>
<path d="M137 125.5C137 126.052 136.552 126.5 136 126.5C135.448 126.5 135 126.052 135 125.5C135 124.948 135.448 124.5 136 124.5C136.552 124.5 137 124.948 137 125.5Z" fill="#BCE0FF"/>
<path d="M145 125.5C145 126.052 144.552 126.5 144 126.5C143.448 126.5 143 126.052 143 125.5C143 124.948 143.448 124.5 144 124.5C144.552 124.5 145 124.948 145 125.5Z" fill="#BCE0FF"/>
<path d="M153 125.5C153 126.052 152.552 126.5 152 126.5C151.448 126.5 151 126.052 151 125.5C151 124.948 151.448 124.5 152 124.5C152.552 124.5 153 124.948 153 125.5Z" fill="#BCE0FF"/>
<path d="M161 125.5C161 126.052 160.552 126.5 160 126.5C159.448 126.5 159 126.052 159 125.5C159 124.948 159.448 124.5 160 124.5C160.552 124.5 161 124.948 161 125.5Z" fill="#BCE0FF"/>
<path d="M169 125.5C169 126.052 168.552 126.5 168 126.5C167.448 126.5 167 126.052 167 125.5C167 124.948 167.448 124.5 168 124.5C168.552 124.5 169 124.948 169 125.5Z" fill="#BCE0FF"/>
<path d="M177 125.5C177 126.052 176.552 126.5 176 126.5C175.448 126.5 175 126.052 175 125.5C175 124.948 175.448 124.5 176 124.5C176.552 124.5 177 124.948 177 125.5Z" fill="#BCE0FF"/>
<path d="M185 125.5C185 126.052 184.552 126.5 184 126.5C183.448 126.5 183 126.052 183 125.5C183 124.948 183.448 124.5 184 124.5C184.552 124.5 185 124.948 185 125.5Z" fill="#BCE0FF"/>
<path d="M193 125.5C193 126.052 192.552 126.5 192 126.5C191.448 126.5 191 126.052 191 125.5C191 124.948 191.448 124.5 192 124.5C192.552 124.5 193 124.948 193 125.5Z" fill="#BCE0FF"/>
<path d="M201 125.5C201 126.052 200.552 126.5 200 126.5C199.448 126.5 199 126.052 199 125.5C199 124.948 199.448 124.5 200 124.5C200.552 124.5 201 124.948 201 125.5Z" fill="#BCE0FF"/>
<path d="M209 125.5C209 126.052 208.552 126.5 208 126.5C207.448 126.5 207 126.052 207 125.5C207 124.948 207.448 124.5 208 124.5C208.552 124.5 209 124.948 209 125.5Z" fill="#BCE0FF"/>
<path d="M217 125.5C217 126.052 216.552 126.5 216 126.5C215.448 126.5 215 126.052 215 125.5C215 124.948 215.448 124.5 216 124.5C216.552 124.5 217 124.948 217 125.5Z" fill="#BCE0FF"/>
<path d="M225 125.5C225 126.052 224.552 126.5 224 126.5C223.448 126.5 223 126.052 223 125.5C223 124.948 223.448 124.5 224 124.5C224.552 124.5 225 124.948 225 125.5Z" fill="#BCE0FF"/>
<path d="M233 125.5C233 126.052 232.552 126.5 232 126.5C231.448 126.5 231 126.052 231 125.5C231 124.948 231.448 124.5 232 124.5C232.552 124.5 233 124.948 233 125.5Z" fill="#BCE0FF"/>
<path d="M241 125.5C241 126.052 240.552 126.5 240 126.5C239.448 126.5 239 126.052 239 125.5C239 124.948 239.448 124.5 240 124.5C240.552 124.5 241 124.948 241 125.5Z" fill="#BCE0FF"/>
<path d="M249 125.5C249 126.052 248.552 126.5 248 126.5C247.448 126.5 247 126.052 247 125.5C247 124.948 247.448 124.5 248 124.5C248.552 124.5 249 124.948 249 125.5Z" fill="#BCE0FF"/>
<path d="M257 125.5C257 126.052 256.552 126.5 256 126.5C255.448 126.5 255 126.052 255 125.5C255 124.948 255.448 124.5 256 124.5C256.552 124.5 257 124.948 257 125.5Z" fill="#BCE0FF"/>
<path d="M265 125.5C265 126.052 264.552 126.5 264 126.5C263.448 126.5 263 126.052 263 125.5C263 124.948 263.448 124.5 264 124.5C264.552 124.5 265 124.948 265 125.5Z" fill="#BCE0FF"/>
<path d="M273 125.5C273 126.052 272.552 126.5 272 126.5C271.448 126.5 271 126.052 271 125.5C271 124.948 271.448 124.5 272 124.5C272.552 124.5 273 124.948 273 125.5Z" fill="#BCE0FF"/>
<path d="M281 125.5C281 126.052 280.552 126.5 280 126.5C279.448 126.5 279 126.052 279 125.5C279 124.948 279.448 124.5 280 124.5C280.552 124.5 281 124.948 281 125.5Z" fill="#BCE0FF"/>
<path d="M289 125.5C289 126.052 288.552 126.5 288 126.5C287.448 126.5 287 126.052 287 125.5C287 124.948 287.448 124.5 288 124.5C288.552 124.5 289 124.948 289 125.5Z" fill="#BCE0FF"/>
</g>
<g clip-path="url(#clip14_288_2458)">
<path d="M1 135.9C1 136.452 0.552285 136.9 0 136.9C-0.552285 136.9 -1 136.452 -1 135.9C-1 135.348 -0.552285 134.9 0 134.9C0.552285 134.9 1 135.348 1 135.9Z" fill="#BCE0FF"/>
<path d="M9 135.9C9 136.452 8.55228 136.9 8 136.9C7.44772 136.9 7 136.452 7 135.9C7 135.348 7.44772 134.9 8 134.9C8.55228 134.9 9 135.348 9 135.9Z" fill="#BCE0FF"/>
<path d="M17 135.9C17 136.452 16.5523 136.9 16 136.9C15.4477 136.9 15 136.452 15 135.9C15 135.348 15.4477 134.9 16 134.9C16.5523 134.9 17 135.348 17 135.9Z" fill="#BCE0FF"/>
<path d="M25 135.9C25 136.452 24.5523 136.9 24 136.9C23.4477 136.9 23 136.452 23 135.9C23 135.348 23.4477 134.9 24 134.9C24.5523 134.9 25 135.348 25 135.9Z" fill="#BCE0FF"/>
<path d="M33 135.9C33 136.452 32.5523 136.9 32 136.9C31.4477 136.9 31 136.452 31 135.9C31 135.348 31.4477 134.9 32 134.9C32.5523 134.9 33 135.348 33 135.9Z" fill="#BCE0FF"/>
<path d="M41 135.9C41 136.452 40.5523 136.9 40 136.9C39.4477 136.9 39 136.452 39 135.9C39 135.348 39.4477 134.9 40 134.9C40.5523 134.9 41 135.348 41 135.9Z" fill="#BCE0FF"/>
<path d="M49 135.9C49 136.452 48.5523 136.9 48 136.9C47.4477 136.9 47 136.452 47 135.9C47 135.348 47.4477 134.9 48 134.9C48.5523 134.9 49 135.348 49 135.9Z" fill="#BCE0FF"/>
<path d="M57 135.9C57 136.452 56.5523 136.9 56 136.9C55.4477 136.9 55 136.452 55 135.9C55 135.348 55.4477 134.9 56 134.9C56.5523 134.9 57 135.348 57 135.9Z" fill="#BCE0FF"/>
<path d="M65 135.9C65 136.452 64.5523 136.9 64 136.9C63.4477 136.9 63 136.452 63 135.9C63 135.348 63.4477 134.9 64 134.9C64.5523 134.9 65 135.348 65 135.9Z" fill="#BCE0FF"/>
<path d="M73 135.9C73 136.452 72.5523 136.9 72 136.9C71.4477 136.9 71 136.452 71 135.9C71 135.348 71.4477 134.9 72 134.9C72.5523 134.9 73 135.348 73 135.9Z" fill="#BCE0FF"/>
<path d="M81 135.9C81 136.452 80.5523 136.9 80 136.9C79.4477 136.9 79 136.452 79 135.9C79 135.348 79.4477 134.9 80 134.9C80.5523 134.9 81 135.348 81 135.9Z" fill="#BCE0FF"/>
<path d="M89 135.9C89 136.452 88.5523 136.9 88 136.9C87.4477 136.9 87 136.452 87 135.9C87 135.348 87.4477 134.9 88 134.9C88.5523 134.9 89 135.348 89 135.9Z" fill="#BCE0FF"/>
<path d="M97 135.9C97 136.452 96.5523 136.9 96 136.9C95.4477 136.9 95 136.452 95 135.9C95 135.348 95.4477 134.9 96 134.9C96.5523 134.9 97 135.348 97 135.9Z" fill="#BCE0FF"/>
<path d="M105 135.9C105 136.452 104.552 136.9 104 136.9C103.448 136.9 103 136.452 103 135.9C103 135.348 103.448 134.9 104 134.9C104.552 134.9 105 135.348 105 135.9Z" fill="#BCE0FF"/>
<path d="M113 135.9C113 136.452 112.552 136.9 112 136.9C111.448 136.9 111 136.452 111 135.9C111 135.348 111.448 134.9 112 134.9C112.552 134.9 113 135.348 113 135.9Z" fill="#BCE0FF"/>
<path d="M121 135.9C121 136.452 120.552 136.9 120 136.9C119.448 136.9 119 136.452 119 135.9C119 135.348 119.448 134.9 120 134.9C120.552 134.9 121 135.348 121 135.9Z" fill="#BCE0FF"/>
<path d="M129 135.9C129 136.452 128.552 136.9 128 136.9C127.448 136.9 127 136.452 127 135.9C127 135.348 127.448 134.9 128 134.9C128.552 134.9 129 135.348 129 135.9Z" fill="#BCE0FF"/>
<path d="M137 135.9C137 136.452 136.552 136.9 136 136.9C135.448 136.9 135 136.452 135 135.9C135 135.348 135.448 134.9 136 134.9C136.552 134.9 137 135.348 137 135.9Z" fill="#BCE0FF"/>
<path d="M145 135.9C145 136.452 144.552 136.9 144 136.9C143.448 136.9 143 136.452 143 135.9C143 135.348 143.448 134.9 144 134.9C144.552 134.9 145 135.348 145 135.9Z" fill="#BCE0FF"/>
<path d="M153 135.9C153 136.452 152.552 136.9 152 136.9C151.448 136.9 151 136.452 151 135.9C151 135.348 151.448 134.9 152 134.9C152.552 134.9 153 135.348 153 135.9Z" fill="#BCE0FF"/>
<path d="M161 135.9C161 136.452 160.552 136.9 160 136.9C159.448 136.9 159 136.452 159 135.9C159 135.348 159.448 134.9 160 134.9C160.552 134.9 161 135.348 161 135.9Z" fill="#BCE0FF"/>
<path d="M169 135.9C169 136.452 168.552 136.9 168 136.9C167.448 136.9 167 136.452 167 135.9C167 135.348 167.448 134.9 168 134.9C168.552 134.9 169 135.348 169 135.9Z" fill="#BCE0FF"/>
<path d="M177 135.9C177 136.452 176.552 136.9 176 136.9C175.448 136.9 175 136.452 175 135.9C175 135.348 175.448 134.9 176 134.9C176.552 134.9 177 135.348 177 135.9Z" fill="#BCE0FF"/>
<path d="M185 135.9C185 136.452 184.552 136.9 184 136.9C183.448 136.9 183 136.452 183 135.9C183 135.348 183.448 134.9 184 134.9C184.552 134.9 185 135.348 185 135.9Z" fill="#BCE0FF"/>
<path d="M193 135.9C193 136.452 192.552 136.9 192 136.9C191.448 136.9 191 136.452 191 135.9C191 135.348 191.448 134.9 192 134.9C192.552 134.9 193 135.348 193 135.9Z" fill="#BCE0FF"/>
<path d="M201 135.9C201 136.452 200.552 136.9 200 136.9C199.448 136.9 199 136.452 199 135.9C199 135.348 199.448 134.9 200 134.9C200.552 134.9 201 135.348 201 135.9Z" fill="#BCE0FF"/>
<path d="M209 135.9C209 136.452 208.552 136.9 208 136.9C207.448 136.9 207 136.452 207 135.9C207 135.348 207.448 134.9 208 134.9C208.552 134.9 209 135.348 209 135.9Z" fill="#BCE0FF"/>
<path d="M217 135.9C217 136.452 216.552 136.9 216 136.9C215.448 136.9 215 136.452 215 135.9C215 135.348 215.448 134.9 216 134.9C216.552 134.9 217 135.348 217 135.9Z" fill="#BCE0FF"/>
<path d="M225 135.9C225 136.452 224.552 136.9 224 136.9C223.448 136.9 223 136.452 223 135.9C223 135.348 223.448 134.9 224 134.9C224.552 134.9 225 135.348 225 135.9Z" fill="#BCE0FF"/>
<path d="M233 135.9C233 136.452 232.552 136.9 232 136.9C231.448 136.9 231 136.452 231 135.9C231 135.348 231.448 134.9 232 134.9C232.552 134.9 233 135.348 233 135.9Z" fill="#BCE0FF"/>
<path d="M241 135.9C241 136.452 240.552 136.9 240 136.9C239.448 136.9 239 136.452 239 135.9C239 135.348 239.448 134.9 240 134.9C240.552 134.9 241 135.348 241 135.9Z" fill="#BCE0FF"/>
<path d="M249 135.9C249 136.452 248.552 136.9 248 136.9C247.448 136.9 247 136.452 247 135.9C247 135.348 247.448 134.9 248 134.9C248.552 134.9 249 135.348 249 135.9Z" fill="#BCE0FF"/>
<path d="M257 135.9C257 136.452 256.552 136.9 256 136.9C255.448 136.9 255 136.452 255 135.9C255 135.348 255.448 134.9 256 134.9C256.552 134.9 257 135.348 257 135.9Z" fill="#BCE0FF"/>
<path d="M265 135.9C265 136.452 264.552 136.9 264 136.9C263.448 136.9 263 136.452 263 135.9C263 135.348 263.448 134.9 264 134.9C264.552 134.9 265 135.348 265 135.9Z" fill="#BCE0FF"/>
<path d="M273 135.9C273 136.452 272.552 136.9 272 136.9C271.448 136.9 271 136.452 271 135.9C271 135.348 271.448 134.9 272 134.9C272.552 134.9 273 135.348 273 135.9Z" fill="#BCE0FF"/>
<path d="M281 135.9C281 136.452 280.552 136.9 280 136.9C279.448 136.9 279 136.452 279 135.9C279 135.348 279.448 134.9 280 134.9C280.552 134.9 281 135.348 281 135.9Z" fill="#BCE0FF"/>
<path d="M289 135.9C289 136.452 288.552 136.9 288 136.9C287.448 136.9 287 136.452 287 135.9C287 135.348 287.448 134.9 288 134.9C288.552 134.9 289 135.348 289 135.9Z" fill="#BCE0FF"/>
</g>
</g>
<circle opacity="0.8" cx="61.0494" cy="73.15" r="253.65" fill="url(#paint0_radial_288_2458)" fill-opacity="0.5" stroke="#598DB4"/>
<circle opacity="0.8" cx="61.0493" cy="73.15" r="186.963" fill="url(#paint1_radial_288_2458)" fill-opacity="0.5" stroke="#598DB4"/>
<circle opacity="0.8" cx="61.0498" cy="73.15" r="121.759" fill="url(#paint2_radial_288_2458)" fill-opacity="0.25" stroke="#598DB4"/>
</g>
<defs>
<radialGradient id="paint0_radial_288_2458" cx="0" cy="0" r="1" gradientUnits="userSpaceOnUse" gradientTransform="translate(61.0494 73.15) rotate(90) scale(254.15)">
<stop stop-color="#4B81AA"/>
<stop offset="1" stop-color="#17384F"/>
</radialGradient>
<radialGradient id="paint1_radial_288_2458" cx="0" cy="0" r="1" gradientUnits="userSpaceOnUse" gradientTransform="translate(61.0493 73.15) rotate(90) scale(187.463)">
<stop stop-color="#4B81AA"/>
<stop offset="1" stop-color="#17384F"/>
</radialGradient>
<radialGradient id="paint2_radial_288_2458" cx="0" cy="0" r="1" gradientUnits="userSpaceOnUse" gradientTransform="translate(61.0498 73.15) rotate(90) scale(122.259)">
<stop stop-color="#4B81AA"/>
<stop offset="1" stop-color="#17384F"/>
</radialGradient>
<clipPath id="clip0_288_2458">
<rect width="294" height="136" rx="10" fill="white"/>
</clipPath>
<clipPath id="clip1_288_2458">
<rect width="520" height="10.4" fill="white" transform="translate(-97 -0.300049)"/>
</clipPath>
<clipPath id="clip2_288_2458">
<rect width="520" height="10.4" fill="white" transform="translate(-97 10.1)"/>
</clipPath>
<clipPath id="clip3_288_2458">
<rect width="520" height="10.4" fill="white" transform="translate(-97 20.5)"/>
</clipPath>
<clipPath id="clip4_288_2458">
<rect width="520" height="10.4" fill="white" transform="translate(-97 30.9)"/>
</clipPath>
<clipPath id="clip5_288_2458">
<rect width="520" height="10.4" fill="white" transform="translate(-97 41.3)"/>
</clipPath>
<clipPath id="clip6_288_2458">
<rect width="520" height="10.4" fill="white" transform="translate(-97 51.7)"/>
</clipPath>
<clipPath id="clip7_288_2458">
<rect width="520" height="10.4" fill="white" transform="translate(-97 62.1)"/>
</clipPath>
<clipPath id="clip8_288_2458">
<rect width="520" height="10.4" fill="white" transform="translate(-97 72.5)"/>
</clipPath>
<clipPath id="clip9_288_2458">
<rect width="520" height="10.4" fill="white" transform="translate(-97 82.9)"/>
</clipPath>
<clipPath id="clip10_288_2458">
<rect width="520" height="10.4" fill="white" transform="translate(-97 93.3)"/>
</clipPath>
<clipPath id="clip11_288_2458">
<rect width="520" height="10.4" fill="white" transform="translate(-97 103.7)"/>
</clipPath>
<clipPath id="clip12_288_2458">
<rect width="520" height="10.4" fill="white" transform="translate(-97 114.1)"/>
</clipPath>
<clipPath id="clip13_288_2458">
<rect width="520" height="10.4" fill="white" transform="translate(-97 124.5)"/>
</clipPath>
<clipPath id="clip14_288_2458">
<rect width="520" height="10.4" fill="white" transform="translate(-97 134.9)"/>
</clipPath>
</defs>
</svg>
