<svg width="304" height="137" viewBox="0 0 304 137" fill="none" xmlns="http://www.w3.org/2000/svg">
    <g clip-path="url(#clip0_259_10843)">
        <rect width="304" height="137" fill="#225478" />
        <g opacity="0.1">
            <path d="M0 -77V339" stroke="white" />
            <path d="M10.666 -77V339" stroke="white" />
            <path d="M21.334 -77V339" stroke="white" />
            <path d="M32 -77V339" stroke="white" />
            <path d="M42.666 -77V339" stroke="white" />
            <path d="M53.332 -77V339" stroke="white" />
            <path d="M64 -77V339" stroke="white" />
            <path d="M74.666 -77V339" stroke="white" />
            <path d="M85.332 -77V339" stroke="white" />
            <path d="M96.002 -77V339" stroke="white" />
            <path d="M106.666 -77V339" stroke="white" />
            <path d="M117.334 -77V339" stroke="white" />
            <path d="M127.998 -77V339" stroke="white" />
            <path d="M138.666 -77V339" stroke="white" />
            <path d="M149.334 -77V339" stroke="white" />
            <path d="M159.998 -77V339" stroke="white" />
            <path d="M170.668 -77V339" stroke="white" />
            <path d="M181.334 -77V339" stroke="white" />
            <path d="M192 -77V339" stroke="white" />
            <path d="M202.666 -77V339" stroke="white" />
            <path d="M213.332 -77V339" stroke="white" />
            <path d="M224 -77V339" stroke="white" />
            <path d="M234.666 -77V339" stroke="white" />
            <path d="M245.332 -77V339" stroke="white" />
            <path d="M256.002 -77V339" stroke="white" />
            <path d="M266.666 -77V339" stroke="white" />
            <path d="M277.334 -77V339" stroke="white" />
            <path d="M288.002 -77V339" stroke="white" />
            <path d="M298.666 -77V339" stroke="white" />
            <path d="M0 8.33203H416" stroke="white" />
            <path d="M0 19.002H416" stroke="white" />
            <path d="M0 29.666H416" stroke="white" />
            <path d="M0 40.334H416" stroke="white" />
            <path d="M0 50.998H416" stroke="white" />
            <path d="M0 61.666H416" stroke="white" />
            <path d="M0 72.334H416" stroke="white" />
            <path d="M0 82.998H416" stroke="white" />
            <path d="M0 93.668H416" stroke="white" />
            <path d="M0 104.334H416" stroke="white" />
            <path d="M0 115H416" stroke="white" />
            <path d="M0 125.666H416" stroke="white" />
            <path d="M0 136.332H416" stroke="white" />
        </g>
        <path fill-rule="evenodd" clip-rule="evenodd"
            d="M308.205 14.8143L305.05 15.1132L305.043 15.1139C301.812 15.4201 295.487 16.0194 288.841 22.1963C285.677 25.1365 282.434 29.339 279.123 33.6293C278.905 33.9119 278.686 34.1953 278.468 34.4783C274.97 39.0056 271.39 43.5563 267.858 46.4513C264.273 49.3903 260.773 50.604 257.378 51.4822C256.578 51.6893 255.792 51.8764 255.017 52.061C252.474 52.6668 250.042 53.2461 247.549 54.4211C245.247 55.5065 242.949 57.0698 240.577 58.6842C239.563 59.3742 238.535 60.0739 237.487 60.7492C234.098 62.9336 230.485 64.8694 226.863 64.728C225.037 64.6567 223.284 64.0622 221.621 63.2802C220.198 62.6111 218.784 61.7758 217.418 60.9691L217.417 60.9686C217.194 60.8365 216.971 60.7051 216.75 60.5754C213.51 58.6724 210.609 57.1555 207.697 57.5488C206.248 57.7444 204.711 58.4276 203.079 59.5061C201.451 60.582 199.783 62.0153 198.075 63.6456C196.543 65.1084 195.003 66.7065 193.446 68.3225L193.445 68.3236C193.267 68.508 193.089 68.6927 192.911 68.8773C191.179 70.6729 189.426 72.472 187.678 74.0668C184.188 77.2503 180.658 79.6743 177.12 80.7732C173.534 81.8868 169.961 81.63 166.509 79.497C163.24 77.4761 160.105 73.7649 157.114 70.2225L156.895 69.9642C153.76 66.2531 150.779 62.7729 147.77 61.0232C144.863 59.3326 141.861 59.243 138.7 59.9635C135.911 60.5991 133.087 61.8414 130.156 63.1305C129.717 63.3238 129.275 63.5181 128.83 63.7116C122.148 66.6213 115.115 69.231 108.25 66.9157C106.548 66.3416 104.88 65.4709 103.29 64.6293L103.063 64.5092C101.529 63.6966 100.065 62.9213 98.5998 62.375C97.0726 61.8057 95.6144 61.5141 94.1749 61.6818C92.752 61.8475 91.2591 62.4723 89.6716 63.8871C88.0544 65.3284 86.3521 67.576 84.5811 70.2836C82.9949 72.7087 81.3916 75.4423 79.773 78.2018L79.7623 78.2201C79.5844 78.5233 79.4064 78.8268 79.2282 79.1303C77.4325 82.188 75.6188 85.238 73.8222 87.8241C72.0385 90.3914 70.2076 92.5983 68.3522 93.8943C66.4392 95.2306 64.5016 95.5996 62.5873 95.1833C60.7226 94.7779 58.9784 93.6492 57.3491 92.1883C54.6526 89.7707 52.0212 86.2012 49.4679 82.7377C48.9566 82.044 48.4482 81.3544 47.9433 80.6794C44.8655 76.5652 41.8511 72.894 38.8174 70.646C35.8178 68.4233 32.983 67.7129 30.0762 69.1278C28.5514 69.8699 26.9327 71.2253 25.2273 73.0168C23.5307 74.7992 21.8037 76.9528 20.049 79.2323C19.4401 80.0232 18.8269 80.8311 18.2106 81.643L18.2099 81.6439C15.3121 85.4613 12.3452 89.3699 9.43645 92.0451C5.84192 95.3512 2.33363 96.7958 -1.08281 97.8364C-2.01231 98.1195 -2.91913 98.3697 -3.81184 98.6159C-6.23742 99.285 -8.55951 99.9255 -10.9495 101.121C-13.3696 102.331 -15.799 104.081 -18.305 105.887C-19.2003 106.532 -20.1057 107.184 -21.0236 107.821C-24.4153 110.175 -28.0064 112.336 -31.6063 112.591C-35.2779 112.851 -38.7379 111.132 -41.9798 108.268C-45.2244 105.401 -48.3621 101.291 -51.4229 96.5206C-57.541 86.9853 -63.4993 74.5728 -66.4663 68.3918L-66.4746 68.3746L-68.6517 63.8392L-77.0009 227.848L296.392 246.856L308.205 14.8143Z"
            fill="url(#paint0_linear_259_10843)" />
        <path
            d="M-68.5535 61.9144L-65.5832 68.0726C-62.6128 74.2308 -56.6721 86.5472 -50.585 95.9901C-44.498 105.433 -38.2647 112.002 -31.6734 111.539C-25.0821 111.076 -18.1328 103.581 -11.3943 100.227C-4.65587 96.8734 1.87175 97.6612 8.76058 91.3536C15.6494 85.046 22.8994 71.6431 29.6332 68.3812C36.367 65.1194 42.5845 71.9985 48.7356 80.1834C54.8867 88.3684 60.9713 97.859 67.78 93.1248C74.5887 88.3906 82.1216 69.4316 89 63.3287C95.8784 57.2259 102.102 63.9794 108.56 66.1489C115.017 68.3184 121.708 65.9039 128.423 62.9941C135.139 60.0842 141.88 56.679 148.26 60.374C154.64 64.0691 160.658 74.8642 167.026 78.7835C173.394 82.7027 180.112 79.746 186.999 73.493C193.885 67.2399 200.938 57.6905 207.551 56.8031C214.164 55.9157 220.336 63.6903 226.891 63.9466C233.446 64.2028 240.383 56.9407 247.111 53.784C253.84 50.6274 260.359 51.5763 267.212 45.9843C274.064 40.3923 281.249 28.2595 288.142 21.8826C295.034 15.5057 301.634 14.8846 304.933 14.5741L308.233 14.2635"
            stroke="#4B82AA" stroke-width="3" />
    </g>
    <defs>
        <linearGradient id="paint0_linear_259_10843" x1="140.6" y1="15.591" x2="154.535"
            y2="258.933" gradientUnits="userSpaceOnUse">
            <stop stop-color="#385B7A" />
            <stop offset="0.447115" stop-color="#608DB6" stop-opacity="0" />
        </linearGradient>
        <clipPath id="clip0_259_10843">
            <rect width="304" height="137" fill="white" />
        </clipPath>
    </defs>
</svg>
    