<svg width="294" height="137" viewBox="0 0 294 137" fill="none" xmlns="http://www.w3.org/2000/svg">
<g clip-path="url(#clip0_288_5017)">
<rect width="294" height="137" rx="10" fill="#225478"/>
<g opacity="0.1">
<path d="M0 -77V339" stroke="white"/>
<path d="M10.666 -77V339" stroke="white"/>
<path d="M21.334 -77V339" stroke="white"/>
<path d="M32 -77V339" stroke="white"/>
<path d="M42.666 -77V339" stroke="white"/>
<path d="M53.332 -77V339" stroke="white"/>
<path d="M64 -77V339" stroke="white"/>
<path d="M74.666 -77V339" stroke="white"/>
<path d="M85.332 -77V339" stroke="white"/>
<path d="M96.002 -77V339" stroke="white"/>
<path d="M106.666 -77V339" stroke="white"/>
<path d="M117.334 -77V339" stroke="white"/>
<path d="M127.998 -77V339" stroke="white"/>
<path d="M138.666 -77V339" stroke="white"/>
<path d="M149.334 -77V339" stroke="white"/>
<path d="M159.998 -77V339" stroke="white"/>
<path d="M170.668 -77V339" stroke="white"/>
<path d="M181.334 -77V339" stroke="white"/>
<path d="M192 -77V339" stroke="white"/>
<path d="M202.666 -77V339" stroke="white"/>
<path d="M213.332 -77V339" stroke="white"/>
<path d="M224 -77V339" stroke="white"/>
<path d="M234.666 -77V339" stroke="white"/>
<path d="M245.332 -77V339" stroke="white"/>
<path d="M256.002 -77V339" stroke="white"/>
<path d="M266.666 -77V339" stroke="white"/>
<path d="M277.334 -77V339" stroke="white"/>
<path d="M288.002 -77V339" stroke="white"/>
<path d="M0 8.33203H416" stroke="white"/>
<path d="M0 19.002H416" stroke="white"/>
<path d="M0 29.666H416" stroke="white"/>
<path d="M0 40.334H416" stroke="white"/>
<path d="M0 50.998H416" stroke="white"/>
<path d="M0 61.666H416" stroke="white"/>
<path d="M0 72.334H416" stroke="white"/>
<path d="M0 82.998H416" stroke="white"/>
<path d="M0 93.668H416" stroke="white"/>
<path d="M0 104.334H416" stroke="white"/>
<path d="M0 115H416" stroke="white"/>
<path d="M0 125.666H416" stroke="white"/>
<path d="M0 136.332H416" stroke="white"/>
</g>
<path fill-rule="evenodd" clip-rule="evenodd" d="M308.206 54.8143L305.051 55.1132L305.044 55.1139C301.813 55.4201 295.488 56.0194 288.842 62.1963C285.678 65.1365 282.435 69.339 279.124 73.6293C278.906 73.9119 278.687 74.1953 278.469 74.4783C274.971 79.0056 271.39 83.5563 267.859 86.4513C264.274 89.3903 260.774 90.604 257.379 91.4822C256.579 91.6893 255.793 91.8764 255.018 92.061C252.475 92.6668 250.043 93.2461 247.55 94.4211C245.248 95.5065 242.95 97.0698 240.578 98.6842C239.564 99.3742 238.536 100.074 237.488 100.749C234.099 102.934 230.486 104.869 226.864 104.728C225.038 104.657 223.285 104.062 221.622 103.28C220.199 102.611 218.785 101.776 217.419 100.969L217.418 100.969C217.195 100.836 216.972 100.705 216.751 100.575C213.511 98.6724 210.61 97.1555 207.698 97.5488C206.249 97.7444 204.712 98.4276 203.08 99.5061C201.452 100.582 199.784 102.015 198.076 103.646C196.544 105.108 195.004 106.706 193.447 108.323L193.446 108.324C193.268 108.508 193.09 108.693 192.912 108.877C191.18 110.673 189.427 112.472 187.678 114.067C184.188 117.25 180.659 119.674 177.121 120.773C173.535 121.887 169.961 121.63 166.51 119.497C163.241 117.476 160.106 113.765 157.115 110.223L156.896 109.964C153.761 106.253 150.78 102.773 147.771 101.023C144.864 99.3326 141.862 99.243 138.701 99.9635C135.912 100.599 133.088 101.841 130.157 103.13C129.718 103.324 129.276 103.518 128.831 103.712C122.149 106.621 115.116 109.231 108.251 106.916C106.549 106.342 104.881 105.471 103.291 104.629L103.064 104.509C101.53 103.697 100.066 102.921 98.6008 102.375C97.0735 101.806 95.6153 101.514 94.1759 101.682C92.753 101.848 91.26 102.472 89.6726 103.887C88.0554 105.328 86.3531 107.576 84.5821 110.284C82.9959 112.709 81.3925 115.442 79.774 118.202L79.7633 118.22C79.5854 118.523 79.4074 118.827 79.2292 119.13C77.4335 122.188 75.6198 125.238 73.8232 127.824C72.0395 130.391 70.2085 132.598 68.3532 133.894C66.4402 135.231 64.5026 135.6 62.5883 135.183C60.7235 134.778 58.9793 133.649 57.3501 132.188C54.6536 129.771 52.0222 126.201 49.4689 122.738C48.9576 122.044 48.4492 121.354 47.9442 120.679C44.8665 116.565 41.8521 112.894 38.8184 110.646C35.8188 108.423 32.984 107.713 30.0771 109.128C28.5524 109.87 26.9337 111.225 25.2283 113.017C23.5316 114.799 21.8047 116.953 20.05 119.232C19.4411 120.023 18.8279 120.831 18.2115 121.643L18.2109 121.644C15.3131 125.461 12.3461 129.37 9.43742 132.045C5.8429 135.351 2.33461 136.796 -1.08183 137.836C-2.01134 138.12 -2.91815 138.37 -3.81087 138.616C-6.23644 139.285 -8.55854 139.926 -10.9485 141.121C-13.3686 142.331 -15.798 144.081 -18.304 145.887C-19.1993 146.532 -20.1047 147.184 -21.0226 147.821C-24.4143 150.175 -28.0055 152.336 -31.6054 152.591C-35.2769 152.851 -38.7369 151.132 -41.9788 148.268C-45.2234 145.401 -48.3612 141.291 -51.4219 136.521C-57.54 126.985 -63.4983 114.573 -66.4654 108.392L-66.4736 108.375L-68.6507 103.839L-76.9999 267.848L296.393 286.856L308.206 54.8143Z" fill="url(#paint0_linear_288_5017)"/>
<path d="M-68.5526 101.914L-65.5822 108.073C-62.6118 114.231 -56.6711 126.547 -50.5841 135.99C-44.497 145.433 -38.2637 152.002 -31.6724 151.539C-25.0811 151.076 -18.1318 143.581 -11.3934 140.227C-4.6549 136.873 1.87273 137.661 8.76156 131.354C15.6504 125.046 22.9004 111.643 29.6342 108.381C36.368 105.119 42.5855 111.999 48.7366 120.183C54.8876 128.368 60.9722 137.859 67.781 133.125C74.5897 128.391 82.1226 109.432 89.001 103.329C95.8794 97.2259 102.103 103.979 108.561 106.149C115.018 108.318 121.709 105.904 128.424 102.994C135.14 100.084 141.881 96.679 148.261 100.374C154.641 104.069 160.659 114.864 167.027 118.783C173.395 122.703 180.113 119.746 187 113.493C193.886 107.24 200.939 97.6905 207.552 96.8031C214.165 95.9157 220.337 103.69 226.892 103.947C233.447 104.203 240.384 96.9407 247.112 93.784C253.841 90.6274 260.36 91.5763 267.213 85.9843C274.065 80.3923 281.25 68.2595 288.143 61.8826C295.035 55.5057 301.634 54.8846 304.934 54.5741L308.234 54.2635" stroke="#4B82AA" stroke-width="3"/>
</g>
<defs>
<linearGradient id="paint0_linear_288_5017" x1="140.601" y1="55.591" x2="154.536" y2="298.933" gradientUnits="userSpaceOnUse">
<stop stop-color="#385B7A"/>
<stop offset="0.447115" stop-color="#608DB6" stop-opacity="0"/>
</linearGradient>
<clipPath id="clip0_288_5017">
<rect width="294" height="137" rx="10" fill="white"/>
</clipPath>
</defs>
</svg>
