<svg width="29" height="28" viewBox="0 0 29 28" fill="none" xmlns="http://www.w3.org/2000/svg">
<g clip-path="url(#clip0)">
<path d="M24.3701 0H4.57324C2.31183 0 0.47168 1.84015 0.47168 4.10156V23.8984C0.47168 26.1599 2.31183 28 4.57324 28H24.3701C26.6315 28 28.4717 26.1599 28.4717 23.8984V4.10156C28.4717 1.84015 26.6315 0 24.3701 0ZM10.3701 22.2031H7.08887V10.7188H10.3701V22.2031ZM10.3701 9.07812H7.08887V5.79688H10.3701V9.07812ZM21.8545 22.2031H18.5732V15.6406C18.5732 14.7361 17.8371 14 16.9326 14C16.0281 14 15.292 14.7361 15.292 15.6406V22.2031H12.0107V10.7188H15.292V11.3372C16.1516 11.0699 16.71 10.7188 17.7529 10.7188C19.9782 10.7211 21.8545 12.7174 21.8545 15.0767V22.2031Z" fill="#3D76B1"/>
</g>
<defs>
<clipPath id="clip0">
<rect width="28" height="28" fill="white" transform="translate(0.47168)"/>
</clipPath>
</defs>
</svg>
