<svg width="26" height="22" viewBox="0 0 26 22" fill="none" xmlns="http://www.w3.org/2000/svg">
<path d="M24.5385 8.96098L24.5791 8.96985H7.18108L12.6504 3.48851C12.9182 3.2209 13.0651 2.85838 13.0651 2.47789C13.0651 2.0974 12.9182 1.73742 12.6504 1.46917L11.7994 0.617726C11.5317 0.350116 11.1751 0.202148 10.7949 0.202148C10.4144 0.202148 10.0576 0.349059 9.78996 0.616669L0.414526 9.99125C0.145859 10.2599 -0.00105125 10.6178 5.66322e-06 10.9985C-0.00105125 11.3813 0.145859 11.7394 0.414526 12.0076L9.78996 21.3831C10.0576 21.6505 10.4142 21.7976 10.7949 21.7976C11.1751 21.7976 11.5317 21.6502 11.7994 21.3831L12.6504 20.5316C12.9182 20.2644 13.0651 19.9076 13.0651 19.5271C13.0651 19.1468 12.9182 18.8088 12.6504 18.5414L7.11936 13.0294H24.558C25.3416 13.0294 26 12.3541 26 11.5709V10.3667C26 9.5835 25.3221 8.96098 24.5385 8.96098Z" fill="#5D87AD"/>
</svg>
