<svg width="27" height="22" viewBox="0 0 27 22" fill="none" xmlns="http://www.w3.org/2000/svg">
<path d="M9.96222 9.56064H6.46621C6.05 9.56064 5.69615 9.42125 5.40479 9.14237C5.11359 8.8635 4.9678 8.52492 4.9678 8.12643V7.64862C4.9678 6.59291 5.35805 5.6917 6.1385 4.94469C6.91889 4.19794 7.86059 3.82441 8.96344 3.82441H9.96222C10.2327 3.82441 10.4667 3.72976 10.6645 3.54062C10.8622 3.35137 10.961 3.12737 10.961 2.86843V0.956143C10.961 0.697251 10.8621 0.473049 10.6645 0.283798C10.4668 0.0948087 10.2328 0 9.96222 0H8.96344C7.88125 0 6.84881 0.201861 5.86545 0.605006C4.8822 1.00841 4.03173 1.55372 3.31371 2.24098C2.59575 2.92792 2.0262 3.74201 1.6048 4.68324C1.18339 5.62436 0.972656 6.61284 0.972656 7.64857V18.1649C0.972656 18.9621 1.26385 19.6389 1.84652 20.1968C2.42924 20.7544 3.13693 21.0332 3.96925 21.0332H9.9626C10.7949 21.0332 11.5023 20.7544 12.0851 20.1968C12.6677 19.6389 12.959 18.9621 12.959 18.1649V12.4289C12.959 11.6319 12.6677 10.955 12.0847 10.3971C11.5022 9.83952 10.7945 9.56064 9.96222 9.56064Z" fill="#5487B7"/>
<path d="M26.0655 10.3971C25.483 9.83952 24.7754 9.56064 23.943 9.56064H20.447C20.031 9.56064 19.6768 9.42125 19.386 9.14237C19.0945 8.8635 18.949 8.52492 18.949 8.12643V7.64862C18.949 6.59291 19.3392 5.6917 20.1193 4.94469C20.8994 4.19794 21.8411 3.82441 22.9445 3.82441H23.943C24.2135 3.82441 24.4477 3.72976 24.6453 3.54062C24.8428 3.35137 24.9421 3.12737 24.9421 2.86843V0.956143C24.9421 0.697251 24.8429 0.473049 24.6453 0.283798C24.4478 0.0948087 24.2136 0 23.943 0H22.9445C21.8617 0 20.8294 0.201861 19.8458 0.605006C18.8627 1.00841 18.0125 1.55372 17.2945 2.24098C16.5765 2.92792 16.0067 3.74201 15.5854 4.68324C15.1641 5.62436 14.9531 6.61284 14.9531 7.64857V18.1649C14.9531 18.9621 15.2446 19.6389 15.8271 20.1968C16.4097 20.7544 17.1172 21.0332 17.9496 21.0332H23.9426C24.7751 21.0332 25.4826 20.7544 26.0651 20.1968C26.648 19.6389 26.9389 18.9621 26.9389 18.1649V12.4289C26.9389 11.6318 26.648 10.955 26.0655 10.3971Z" fill="#5487B7"/>
</svg>
