<svg width="50" height="50" viewBox="0 0 50 50" fill="none" xmlns="http://www.w3.org/2000/svg">
<path d="M16.0029 23.0455C14.7714 22.6909 13.5399 22.511 12.342 22.511C10.4921 22.511 8.94858 22.9337 7.75171 23.4514C8.90557 19.2272 11.6775 11.9385 17.1992 11.1177C17.7106 11.0416 18.1296 10.6718 18.2692 10.1741L19.476 5.85762C19.5777 5.49258 19.5174 5.10184 19.3092 4.78505C19.101 4.46827 18.7664 4.2569 18.3914 4.2055C17.9838 4.1499 17.5685 4.12158 17.1567 4.12158C10.5288 4.12158 3.96494 11.0395 1.19515 20.9449C-0.430748 26.7562 -0.907503 35.493 3.09745 40.9922C5.33856 44.0693 8.60819 45.7126 12.8156 45.8767C12.8329 45.8772 12.8497 45.8778 12.867 45.8778C18.0583 45.8778 22.6617 42.3816 24.0621 37.3764C24.8986 34.3842 24.5205 31.2463 22.9963 28.5384C21.4884 25.8609 19.005 23.9093 16.0029 23.0455Z" fill="#5D87AD"/>
<path d="M48.4988 28.5389C46.9909 25.8609 44.5075 23.9093 41.5053 23.0454C40.2738 22.6909 39.0424 22.511 37.845 22.511C35.9951 22.511 34.451 22.9337 33.2542 23.4514C34.408 19.2272 37.1799 11.9385 42.7022 11.1177C43.2136 11.0416 43.6321 10.6718 43.7721 10.1741L44.979 5.85762C45.0807 5.49258 45.0204 5.10184 44.8122 4.78505C44.6045 4.46827 44.2699 4.2569 43.8944 4.2055C43.4874 4.1499 43.072 4.12158 42.6597 4.12158C36.0318 4.12158 29.4679 11.0395 26.6976 20.9449C25.0722 26.7562 24.5955 35.493 28.601 40.9932C30.8415 44.0699 34.1117 45.7136 38.3186 45.8772C38.3359 45.8778 38.3527 45.8783 38.3705 45.8783C43.5613 45.8783 48.1652 42.3821 49.5656 37.3769C50.4011 34.3848 50.0224 31.2463 48.4988 28.5389Z" fill="#5D87AD"/>
</svg>
