<svg width="50" height="50" viewBox="0 0 50 50" fill="none" xmlns="http://www.w3.org/2000/svg">
<path d="M33.9971 26.9545C35.2286 27.3091 36.4601 27.489 37.658 27.489C39.5079 27.489 41.0514 27.0663 42.2483 26.5486C41.0944 30.7728 38.3225 38.0615 32.8008 38.8823C32.2894 38.9584 31.8704 39.3281 31.7308 39.8259L30.524 44.1424C30.4223 44.5074 30.4826 44.8982 30.6908 45.2149C30.899 45.5317 31.2336 45.7431 31.6086 45.7945C32.0162 45.8501 32.4315 45.8784 32.8433 45.8784C39.4712 45.8784 46.0351 38.9605 48.8049 29.0551C50.4307 23.2438 50.9075 14.507 46.9026 9.0078C44.6614 5.93066 41.3918 4.28745 37.1844 4.12328C37.1671 4.12276 37.1503 4.12224 37.133 4.12224C31.9417 4.12224 27.3383 7.61844 25.9379 12.6236C25.1014 15.6158 25.4795 18.7537 27.0037 21.4616C28.5116 24.1391 30.995 26.0907 33.9971 26.9545Z" fill="#5D87AD"/>
<path d="M1.50122 21.4611C3.00911 24.1391 5.49253 26.0907 8.49467 26.9545C9.72616 27.3091 10.9576 27.489 12.155 27.489C14.0049 27.489 15.549 27.0663 16.7458 26.5486C15.592 30.7728 12.8201 38.0615 7.2978 38.8823C6.78643 38.9584 6.36789 39.3281 6.22786 39.8259L5.02102 44.1424C4.91927 44.5074 4.97959 44.8982 5.18781 45.2149C5.3955 45.5317 5.73012 45.7431 6.10565 45.7945C6.51265 45.8501 6.92804 45.8784 7.34028 45.8784C13.9682 45.8784 20.5321 38.9605 23.3024 29.0551C24.9278 23.2438 25.4045 14.507 21.399 9.00675C19.1585 5.93013 15.8883 4.2864 11.6814 4.12276C11.6641 4.12224 11.6473 4.12171 11.6295 4.12171C6.4387 4.12171 1.83479 7.61791 0.434423 12.6231C-0.40108 15.6152 -0.0224052 18.7537 1.50122 21.4611Z" fill="#5D87AD"/>
</svg>
