<svg width="26" height="22" viewBox="0 0 26 22" fill="none" xmlns="http://www.w3.org/2000/svg">
<path d="M1.46149 13.0385L1.4209 13.0297L18.8189 13.0297L13.3496 18.511C13.0818 18.7786 12.9349 19.1411 12.9349 19.5216C12.9349 19.9021 13.0818 20.2621 13.3496 20.5303L14.2006 21.3818C14.4683 21.6494 14.8249 21.7974 15.2051 21.7974C15.5856 21.7974 15.9424 21.6505 16.21 21.3828L25.5855 12.0083C25.8541 11.7396 26.0011 11.3817 26 11.001C26.0011 10.6182 25.8541 10.2601 25.5855 9.99189L16.21 0.616456C15.9424 0.349057 15.5858 0.201936 15.2051 0.201936C14.8249 0.201936 14.4683 0.349269 14.2006 0.616456L13.3496 1.4679C13.0818 1.73509 12.9349 2.0919 12.9349 2.47239C12.9349 2.85267 13.0818 3.19067 13.3496 3.45807L18.8806 8.97006L1.44204 8.97006C0.65845 8.97006 -6.56704e-06 9.64543 -6.63551e-06 10.4286L-6.74078e-06 11.6328C-6.80925e-06 12.416 0.677897 13.0385 1.46149 13.0385Z" fill="#5D87AD"/>
</svg>
