<svg width="14" height="14" viewBox="0 0 14 14" fill="none" xmlns="http://www.w3.org/2000/svg"><path d="M13.9631 5.36967C13.871 5.08618 13.6195 4.88548 13.3232 4.85867L9.28184 4.49177L7.68466 0.752449C7.56674 0.477725 7.29842 0.300415 6.99977 0.300415C6.70112 0.300415 6.4327 0.477725 6.31553 0.752449L4.71835 4.49177L0.67632 4.85867C0.38002 4.88602 0.129115 5.08672 0.0364013 5.36967C-0.0557786 5.65315 0.0293516 5.96408 0.253446 6.16062L3.30841 8.83939L2.40766 12.8067C2.34175 13.0984 2.45498 13.4 2.69701 13.575C2.82711 13.6695 2.97996 13.7167 3.13335 13.7167C3.26515 13.7167 3.39707 13.6817 3.51488 13.6112L6.99977 11.5275L10.484 13.6112C10.7396 13.7639 11.061 13.7499 11.3025 13.575C11.5446 13.4 11.6578 13.0984 11.5919 12.8067L10.6911 8.83939L13.7461 6.16062C13.9701 5.96408 14.0553 5.65379 13.9631 5.36967Z" fill="#808080"/></svg>
