<svg width="20" height="20" viewBox="0 0 20 20" fill="none" xmlns="http://www.w3.org/2000/svg">
    <rect width="19.6226" height="20" rx="3" fill="#4EB1EF"></rect>
    <path d="M8.22294 16C7.61753 16 6.9944 15.9487 6.36753 15.8457C5.26343 15.6643 4.14576 15.0595 3.82949 14.8784L3 14.4034L3.89806 14.0941C4.87976 13.756 5.47694 13.5463 6.21618 13.2179C5.47598 12.8425 4.9055 12.1672 4.63089 11.2942L4.42197 10.6299L4.5933 10.6574C4.43084 10.4859 4.30256 10.3118 4.20312 10.1535C3.84947 9.59097 3.66223 8.90357 3.70207 8.31451L3.74137 7.73473L4.07281 7.86918C3.93299 7.59266 3.83195 7.29735 3.77256 6.98782C3.62783 6.23298 3.74896 5.43104 4.11372 4.72977L4.40242 4.17471L4.78855 4.66042C6.00971 6.19673 7.55644 7.10807 9.39219 7.37487C9.31721 6.83356 9.37339 6.31117 9.55935 5.84291C9.77586 5.2977 10.161 4.83537 10.6729 4.50582C11.2413 4.13992 11.9307 3.96262 12.6139 4.00658C13.3388 4.05323 13.997 4.3377 14.5197 4.82978C14.775 4.76031 14.9631 4.68615 15.2173 4.58592C15.3703 4.52562 15.5437 4.45716 15.7608 4.37886L16.5606 4.09026L16.039 5.65029C16.0734 5.64727 16.1089 5.64469 16.1459 5.64302L17 5.60252L16.4952 6.32504C16.4663 6.36643 16.4589 6.37817 16.4486 6.39439C16.4079 6.4586 16.3573 6.53847 15.6644 7.50742C15.491 7.75005 15.4044 8.06606 15.4205 8.3974C15.4819 9.65652 15.3344 10.7957 14.9818 11.7832C14.6483 12.7175 14.1316 13.5191 13.4461 14.1658C12.5978 14.9658 11.5161 15.5136 10.231 15.7937C9.60058 15.9311 8.92361 16 8.22294 16Z" fill="white"></path>
</svg>