<svg width="26" height="33" viewBox="0 0 26 33" fill="none" xmlns="http://www.w3.org/2000/svg">
<path d="M22.7941 14.4847L22.7942 14.4848C23.7567 15.1434 24.1642 15.9373 24.1641 16.6863V16.6865C24.1641 17.4333 23.7523 18.2287 22.7873 18.89L4.65869 31.2914L4.65802 31.2919C3.91898 31.7983 3.285 31.9951 2.85297 31.9951C2.47533 31.9951 2.22878 31.8589 2.04821 31.6209C1.84322 31.3507 1.66406 30.8629 1.66406 30.0924V3.28781C1.66406 2.51627 1.84348 2.02738 2.04909 1.75647C2.23026 1.51775 2.47785 1.38086 2.8572 1.38086C3.29159 1.38086 3.93963 1.58011 4.67302 2.0824L4.67329 2.08258L22.7941 14.4847Z" stroke="white" stroke-width="2"/>
</svg>
