<svg width="16" height="11" viewBox="0 0 16 11" fill="none" xmlns="http://www.w3.org/2000/svg">
<path d="M7.98889 0C2.6069 0 0 5.42316 0 5.42316C0 5.42316 2.59008 10.8463 7.98889 10.8463C13.3877 10.8463 15.9778 5.42316 15.9778 5.42316C15.9778 5.42316 13.3709 0 7.98889 0ZM7.98889 9.61685C5.66791 9.61685 3.80103 7.73053 3.80103 5.42316C3.80103 3.09895 5.68473 1.22947 7.98889 1.22947C10.2931 1.22947 12.1768 3.11579 12.1768 5.42316C12.1768 7.74737 10.3099 9.61685 7.98889 9.61685Z" fill="white"/>
<path d="M9.95609 4.65022C9.30016 4.65022 8.76196 4.11127 8.76196 3.45443C8.76196 3.25232 8.81242 3.05022 8.91333 2.8818C8.62741 2.78075 8.30786 2.71338 7.9883 2.71338C6.49144 2.71338 5.26367 3.92601 5.26367 5.42496C5.26367 6.9239 6.47462 8.15338 7.9883 8.15338C9.48516 8.15338 10.6961 6.94075 10.6961 5.42496C10.6961 5.10496 10.6456 4.78496 10.5279 4.49864C10.3766 4.59969 10.1747 4.65022 9.95609 4.65022Z" fill="white"/>
</svg>
