<svg width="20" height="20" viewBox="0 0 20 20" fill="none" xmlns="http://www.w3.org/2000/svg">
<rect width="20" height="20" rx="3" fill="#5186AF"/>
<path d="M9.98889 5C4.6069 5 2 10.4232 2 10.4232C2 10.4232 4.59008 15.8463 9.98889 15.8463C15.3877 15.8463 17.9778 10.4232 17.9778 10.4232C17.9778 10.4232 15.3709 5 9.98889 5ZM9.98889 14.6169C7.66791 14.6169 5.80103 12.7305 5.80103 10.4232C5.80103 8.09895 7.68473 6.22947 9.98889 6.22947C12.2931 6.22947 14.1768 8.11579 14.1768 10.4232C14.1768 12.7474 12.3099 14.6169 9.98889 14.6169Z" fill="white"/>
<path d="M11.9561 9.65022C11.3002 9.65022 10.762 9.11127 10.762 8.45443C10.762 8.25232 10.8124 8.05022 10.9133 7.8818C10.6274 7.78075 10.3079 7.71338 9.9883 7.71338C8.49144 7.71338 7.26367 8.92601 7.26367 10.425C7.26367 11.9239 8.47462 13.1534 9.9883 13.1534C11.4852 13.1534 12.6961 11.9407 12.6961 10.425C12.6961 10.105 12.6456 9.78496 12.5279 9.49864C12.3766 9.59969 12.1747 9.65022 11.9561 9.65022Z" fill="white"/>
</svg>
