<svg width="18" height="18" viewBox="0 0 18 18" fill="none" xmlns="http://www.w3.org/2000/svg">
<path fill-rule="evenodd" clip-rule="evenodd" d="M15.1024 4.21215C14.6677 3.73853 13.946 3.73853 13.5113 4.21215L7.11399 11.1736L4.49766 8.29605C4.04657 7.83137 3.34123 7.83137 2.89014 8.31393C2.46365 8.79649 2.46365 9.56501 2.89834 10.0565L6.26922 13.7115L6.31843 13.774C6.76132 14.2655 7.47487 14.2655 7.91776 13.774L15.1024 5.9458C15.5371 5.46324 15.5371 4.68578 15.1024 4.21215Z" fill="white"/>
<mask id="mask0" mask-type="alpha" maskUnits="userSpaceOnUse" x="2" y="3" width="14" height="12">
<path fill-rule="evenodd" clip-rule="evenodd" d="M15.1024 4.21215C14.6677 3.73853 13.946 3.73853 13.5113 4.21215L7.11399 11.1736L4.49766 8.29605C4.04657 7.83137 3.34123 7.83137 2.89014 8.31393C2.46365 8.79649 2.46365 9.56501 2.89834 10.0565L6.26922 13.7115L6.31843 13.774C6.76132 14.2655 7.47487 14.2655 7.91776 13.774L15.1024 5.9458C15.5371 5.46324 15.5371 4.68578 15.1024 4.21215Z" fill="white"/>
</mask>
<g mask="url(#mask0)">
<rect width="18" height="18" fill="#42CB83"/>
</g>
</svg>
