<svg width="24" height="20" viewBox="0 0 24 20" fill="none" xmlns="http://www.w3.org/2000/svg">
<path fill-rule="evenodd" clip-rule="evenodd" d="M1.65446 6.17776H5.97568V20H1.65446V6.17776Z" fill="#CCCCCC"/>
<path fill-rule="evenodd" clip-rule="evenodd" d="M3.56099 4.97599H3.53012C1.91893 4.97599 0.881836 3.78007 0.881836 2.45194C0.881836 1.09977 1.94979 0 3.59186 0C5.22774 0 6.23397 1.13582 6.27101 2.48799C6.27101 3.81613 5.22774 4.97599 3.56099 4.97599Z" fill="#CCCCCC"/>
<path fill-rule="evenodd" clip-rule="evenodd" d="M23.8777 20H18.3219V12.9987C18.3219 11.1417 17.686 9.87971 15.9514 9.87971C14.6303 9.87971 13.8648 10.7331 13.5191 11.5564C13.3895 11.8509 13.3833 12.2595 13.3833 12.6742V20H8.6053C8.6053 20 8.66703 7.37969 8.6053 6.17776H13.3833V8.53956C14.0006 7.60205 15.4822 6.2619 18.0255 6.2619C21.18 6.2619 23.8777 8.22706 23.8777 12.4699V20Z" fill="#CCCCCC"/>
</svg>
